<?xml version="1.0" encoding="UTF-8"?> <svg xmlns="http://www.w3.org/2000/svg" width="40" height="40" viewBox="0 0 40 40" fill="none"><g clip-path="url(#clip0_10161_653337)"><path d="M9.78004 25.9718C8.02228 24.3481 6.68152 22.3249 5.87124 20.0733C5.06096 17.8218 4.80501 15.4082 5.12504 13.0368C5.44149 10.6322 6.33627 8.34021 7.73269 6.35727C9.12912 4.37433 10.9855 2.75956 13.1428 1.65137C15.3001 0.543175 17.694 -0.0253933 20.1192 -0.00560408C22.5444 0.0141851 24.9287 0.621742 27.0676 1.76499C29.2065 2.90824 31.0364 4.55309 32.4002 6.55855C33.7641 8.56402 34.6214 10.8703 34.8985 13.2797C35.1757 15.6891 34.8645 18.1298 33.9916 20.3926C33.1187 22.6553 31.7102 24.6727 29.8867 26.2718C28.7125 27.2812 27.8009 28.5606 27.23 30.0001H21.6667V18.0268C22.6382 17.6833 23.4799 17.048 24.0766 16.2079C24.6732 15.3678 24.9958 14.3639 25 13.3334C25 12.8914 24.8244 12.4675 24.5119 12.1549C24.1993 11.8423 23.7754 11.6668 23.3334 11.6668C22.8913 11.6668 22.4674 11.8423 22.1549 12.1549C21.8423 12.4675 21.6667 12.8914 21.6667 13.3334C21.6667 13.7754 21.4911 14.1994 21.1786 14.5119C20.866 14.8245 20.4421 15.0001 20 15.0001C19.558 15.0001 19.1341 14.8245 18.8215 14.5119C18.509 14.1994 18.3334 13.7754 18.3334 13.3334C18.3334 12.8914 18.1578 12.4675 17.8452 12.1549C17.5327 11.8423 17.1087 11.6668 16.6667 11.6668C16.2247 11.6668 15.8008 11.8423 15.4882 12.1549C15.1756 12.4675 15 12.8914 15 13.3334C15.0043 14.3639 15.3268 15.3678 15.9235 16.2079C16.5202 17.048 17.3619 17.6833 18.3334 18.0268V30.0001H12.605C11.9679 28.4677 11.0037 27.0929 9.78004 25.9718V25.9718ZM13.3334 33.3334V33.8501C13.3351 35.4806 13.9837 37.0439 15.1366 38.1968C16.2896 39.3498 17.8528 39.9983 19.4834 40.0001H20.5167C22.1472 39.9983 23.7105 39.3498 24.8635 38.1968C26.0164 37.0439 26.6649 35.4806 26.6667 33.8501V33.3334H13.3334Z" fill="#60C0A4"></path></g><defs><clipPath id="clip0_10161_653337"><rect width="40" height="40" fill="white"></rect></clipPath></defs></svg> 