<?xml version="1.0" encoding="UTF-8"?> <svg xmlns="http://www.w3.org/2000/svg" width="12" height="16" viewBox="0 0 12 16" fill="none"><path id="md-icon-left" d="M11.0233 2.08135L9.91933 0.976014C9.61045 0.665555 9.24305 0.419439 8.83842 0.251909C8.43378 0.0843796 7.99994 -0.00123733 7.562 1.35103e-05H3.33333C2.4496 0.00107208 1.60237 0.352602 0.97748 0.977494C0.352588 1.60239 0.00105857 2.44962 0 3.33335V12.6667C0.00105857 13.5504 0.352588 14.3976 0.97748 15.0225C1.60237 15.6474 2.4496 15.999 3.33333 16H8.66667C9.5504 15.999 10.3976 15.6474 11.0225 15.0225C11.6474 14.3976 11.9989 13.5504 12 12.6667V4.43801C12.0011 4.00014 11.9153 3.56639 11.7477 3.16188C11.58 2.75736 11.3338 2.3901 11.0233 2.08135ZM10.0807 3.02401C10.1752 3.11823 10.2599 3.22188 10.3333 3.33335H8.66667V1.66668C8.77795 1.74089 8.88177 1.82574 8.97667 1.92001L10.0807 3.02401ZM10.6667 12.6667C10.6667 13.1971 10.456 13.7058 10.0809 14.0809C9.70581 14.456 9.1971 14.6667 8.66667 14.6667H3.33333C2.8029 14.6667 2.29419 14.456 1.91912 14.0809C1.54405 13.7058 1.33333 13.1971 1.33333 12.6667V3.33335C1.33333 2.80291 1.54405 2.29421 1.91912 1.91913C2.29419 1.54406 2.8029 1.33335 3.33333 1.33335H7.33333V3.33335C7.33333 3.68697 7.47381 4.02611 7.72386 4.27616C7.97391 4.52621 8.31304 4.66668 8.66667 4.66668H10.6667V12.6667ZM8.66667 6.00001C8.84348 6.00001 9.01305 6.07025 9.13807 6.19528C9.2631 6.3203 9.33333 6.48987 9.33333 6.66668C9.33333 6.84349 9.2631 7.01306 9.13807 7.13809C9.01305 7.26311 8.84348 7.33335 8.66667 7.33335H3.33333C3.15652 7.33335 2.98695 7.26311 2.86193 7.13809C2.7369 7.01306 2.66667 6.84349 2.66667 6.66668C2.66667 6.48987 2.7369 6.3203 2.86193 6.19528C2.98695 6.07025 3.15652 6.00001 3.33333 6.00001H8.66667ZM9.33333 9.33335C9.33333 9.51016 9.2631 9.67973 9.13807 9.80475C9.01305 9.92978 8.84348 10 8.66667 10H3.33333C3.15652 10 2.98695 9.92978 2.86193 9.80475C2.7369 9.67973 2.66667 9.51016 2.66667 9.33335C2.66667 9.15654 2.7369 8.98697 2.86193 8.86194C2.98695 8.73692 3.15652 8.66668 3.33333 8.66668H8.66667C8.84348 8.66668 9.01305 8.73692 9.13807 8.86194C9.2631 8.98697 9.33333 9.15654 9.33333 9.33335ZM9.20533 11.6087C9.30896 11.7512 9.35192 11.9291 9.32481 12.1032C9.2977 12.2774 9.20273 12.4337 9.06067 12.538C8.38521 13.0193 7.5852 13.2955 6.75667 13.3333C6.27259 13.331 5.80321 13.1667 5.42333 12.8667C5.20467 12.7167 5.12133 12.6667 4.95667 12.6667C4.51095 12.7357 4.09041 12.9179 3.73533 13.196C3.5945 13.2964 3.42016 13.3381 3.24913 13.3124C3.0781 13.2867 2.92377 13.1955 2.81872 13.0581C2.71368 12.9207 2.66615 12.7478 2.68616 12.576C2.70618 12.4042 2.79218 12.2469 2.926 12.1373C3.51345 11.6813 4.21885 11.4024 4.95933 11.3333C5.40342 11.3404 5.83275 11.4939 6.18067 11.77C6.33926 11.9127 6.54344 11.9942 6.75667 12C7.30178 11.9592 7.82598 11.7729 8.27467 11.4607C8.41773 11.357 8.59612 11.3143 8.77063 11.3421C8.94514 11.3698 9.10149 11.4657 9.20533 11.6087Z" fill="#8C80F6"></path></svg> 