<svg width="1920" height="156" viewBox="0 0 1920 156" fill="none" xmlns="http://www.w3.org/2000/svg">
<path fill-rule="evenodd" clip-rule="evenodd" d="M0 92.0727L80 104.296C160 116.519 320 140.965 480 131.797C640 122.63 800 79.8497 960 82.9054C1120 85.9612 1280 134.853 1440 150.132C1600 165.41 1760 147.076 1840 137.909L1920 128.742V0.400391H1840C1760 0.400391 1600 0.400391 1440 0.400391C1280 0.400391 1120 0.400391 960 0.400391C800 0.400391 640 0.400391 480 0.400391C320 0.400391 160 0.400391 80 0.400391H0V92.0727Z" fill="#FAFBFC"/>
</svg>
