<svg xmlns="http://www.w3.org/2000/svg" width="200" height="80" viewBox="0 0 200 80" fill="none"><g clip-path="url(#clip0_3798_77446)"><path d="M40.1759 44.2913L41.6929 44.0448V29.7703L40 29.5462L40.0879 28H50.6852L50.4214 32.3249L48.3107 32.2577L48.1788 29.5462H44.9029V35.9776H46.332L46.6618 34.4986L48.1348 34.5434V38.9804H46.6618L46.31 37.4566H44.8809V44.2689H48.1788L48.4866 41.3109L50.7072 41.3782L50.8831 45.8824H40.1099L40.1759 44.2913Z" fill="#6F7580"/><path d="M51.8726 45.9048L51.9386 44.5827L53.1258 44.3362V35.3278L51.7407 35.1933V33.8488L55.2145 33.3334L55.4784 34.0953V34.6107C56.3138 33.7143 57.3252 33.1765 58.6224 33.1765C60.5132 33.1765 61.9203 34.3418 61.9203 36.6499V44.3138L63.1735 44.5603L63.1075 45.8824H58.9741V37.3222C58.9741 36.0897 58.5344 35.395 57.4351 35.395C57.0614 35.395 56.7975 35.4622 56.5117 35.5743C56.3358 35.7311 56.1599 35.9552 56.006 36.1569V44.3586L57.2592 44.6051L57.1713 45.9272H51.8726V45.9048Z" fill="#6F7580"/><path d="M118.293 45.9048L118.337 44.5827L119.524 44.3362V35.3278L118.139 35.1933V33.8488L121.612 33.3334L121.876 34.0953V34.6107C122.712 33.7143 123.723 33.1765 125.02 33.1765C126.911 33.1765 128.318 34.3418 128.318 36.6499V44.3138L129.571 44.5603L129.505 45.8824H125.394V37.3222C125.394 36.0897 124.954 35.395 123.855 35.395C123.481 35.395 123.217 35.4622 122.932 35.5743C122.756 35.7311 122.58 35.9552 122.426 36.1569V44.3586L123.679 44.6051L123.591 45.9272H118.293V45.9048Z" fill="#6F7580"/><path d="M69.7253 45.6583C69.2416 45.86 68.3841 46.0841 67.2628 46.0841C65.7898 46.0841 64.4266 45.4118 64.4266 43.2158V35.3278L63.0195 35.1037L63.0855 33.5351L64.6685 33.4679L65.3501 31.0701L67.3728 30.9805V33.5575H69.5494L69.3955 35.1261L67.3948 35.3502V43.2382C67.3948 43.888 67.7465 44.3138 68.4061 44.3138H69.5934L69.7253 45.6583Z" fill="#6F7580"/><path d="M152.019 45.9049L152.063 44.6052L153.184 44.3362V35.3278L151.865 35.1934V33.8489L155.471 33.3334L155.713 34.2074V34.4987C156.658 33.7816 157.933 33.311 159.472 33.311L160 33.7816L159.626 37.1878L157.648 37.1206L157.45 35.3054C156.988 35.3727 156.548 35.5071 156.175 35.776V44.3587L157.428 44.6276L157.34 45.9273H152.019V45.9049Z" fill="#6F7580"/><path d="M100.242 45.9049L100.308 44.6052L101.429 44.3362V35.3278L100.11 35.1934V33.8489L103.716 33.3334L103.957 34.2074V34.4987C104.903 33.7816 106.178 33.311 107.717 33.311L108.245 33.7816L107.827 37.1878L105.848 37.1206L105.65 35.3054C105.189 35.3727 104.749 35.5071 104.375 35.776V44.3587L105.628 44.6276L105.54 45.9273H100.242V45.9049Z" fill="#6F7580"/><path d="M70.6046 45.9049L70.6705 44.6052L71.7918 44.3362V35.3278L70.4727 35.1934V33.8489L74.0784 33.3334L74.3202 34.2074V34.4987C75.2656 33.7816 76.5408 33.311 78.0579 33.311L78.5855 33.7816L78.2118 37.1878L76.233 37.1206L76.0351 35.3054C75.5734 35.3727 75.1337 35.5071 74.7599 35.776V44.3587L76.0131 44.6276L75.9252 45.9273H70.6046V45.9049Z" fill="#6F7580"/><path d="M81.9936 40.4146C81.9936 42.5658 82.917 44.2241 84.7419 44.2241C85.6873 44.2241 86.4348 44.0224 87.3142 43.5966L87.8199 44.7843C86.9185 45.5238 85.5993 46.084 83.9504 46.084C80.7404 46.084 78.8936 43.2605 78.8936 39.6302C78.8936 36.5378 80.2347 33.1541 83.9064 33.1541C87.1163 33.1541 88.3256 36.1793 88.3256 39.5406L88.0178 40.3473L81.9936 40.4146ZM81.9496 38.9804L85.6433 38.8011C85.5773 37.2997 85.2695 34.9244 83.8184 34.9244C83.4667 34.9244 83.2248 34.9916 82.7851 35.2157C82.1915 36.2465 81.9496 38.1064 81.9496 38.9804Z" fill="#6F7580"/><path d="M133.089 40.4146C133.089 42.5658 134.012 44.2241 135.837 44.2241C136.782 44.2241 137.53 44.0224 138.409 43.5966L138.915 44.7843C138.014 45.5238 136.695 46.084 135.046 46.084C131.836 46.084 129.989 43.2605 129.989 39.6302C129.989 36.5378 131.33 33.1541 135.002 33.1541C138.212 33.1541 139.421 36.1793 139.421 39.5406L139.113 40.3473L133.089 40.4146ZM133.045 38.9804L136.738 38.8011C136.673 37.2997 136.365 34.9244 134.914 34.9244C134.562 34.9244 134.32 34.9916 133.88 35.2157C133.287 36.2465 133.045 38.1064 133.045 38.9804Z" fill="#6F7580"/><path d="M111.631 40.4146C111.631 42.5658 112.554 44.2241 114.379 44.2241C115.324 44.2241 116.072 44.0224 116.951 43.5966L117.457 44.7843C116.556 45.5238 115.237 46.084 113.588 46.084C110.378 46.084 108.531 43.2605 108.531 39.6302C108.531 36.5378 109.872 33.1541 113.544 33.1541C116.754 33.1541 117.963 36.1793 117.963 39.5406L117.655 40.3473L111.631 40.4146ZM111.587 38.9804L115.28 38.8011C115.215 37.2997 114.907 34.9244 113.456 34.9244C113.104 34.9244 112.862 34.9916 112.422 35.2157C111.829 36.2465 111.565 38.1064 111.587 38.9804Z" fill="#6F7580"/><path d="M147.732 45.9047L147.424 44.829C146.611 45.6133 145.819 46.0839 144.588 46.0839C142.697 46.0839 141.004 45.1204 141.004 42.4537V35.0139L139.619 34.8795V33.6918L143.621 33.2212L143.928 34.2968V42.0951C143.928 43.4621 144.478 44.1792 145.555 44.1792C145.863 44.1792 146.259 44.1344 146.611 43.9999C146.809 43.7982 147.006 43.5517 147.16 43.3052V35.0139L145.731 34.8795V33.6918L149.777 33.2212L150.085 34.2968V44.336L151.338 44.5825L151.184 45.9047H147.732Z" fill="#6F7580"/><path d="M94.3278 44.2914C93.6902 44.2914 93.1845 44.1793 92.7888 43.9552V36.0449C92.9647 35.776 93.1625 35.5295 93.3604 35.3054C93.7342 35.1709 94.064 35.1261 94.4597 35.1261C96.1087 35.1261 96.3945 36.8292 96.3945 39.8768C96.3945 42.8124 95.9548 43.6191 95.8448 43.9552C95.3831 44.1793 94.8994 44.2914 94.3278 44.2914ZM99.2527 39.339C99.2527 35.5519 98.1534 33.1765 95.4051 33.1765C93.5803 33.1765 92.7228 34.2521 92.371 34.7003V34.2746L92.0632 33.1989L88.4795 33.7143V35.014L89.8646 35.1933V50.4762L88.6774 50.7227L88.6114 52H93.9101L93.998 50.7227L92.7448 50.4762V45.6359C93.2505 45.9272 93.954 46.1065 94.7235 46.1065C99.2087 46.1065 99.2527 41.4678 99.2527 39.339Z" fill="#6F7580"/></g><defs><clipPath id="clip0_3798_77446"><rect width="120" height="24" fill="white" transform="translate(40 28)"/></clipPath></defs></svg>