<svg width="1348" height="247" viewBox="0 0 1348 247" fill="none" xmlns="http://www.w3.org/2000/svg">
<mask id="mask0_108_6841" style="mask-type:alpha" maskUnits="userSpaceOnUse" x="0" y="0" width="1348" height="247">
<rect width="1348" height="247" fill="#FAFBFC"/>
</mask>
<g mask="url(#mask0_108_6841)">
<rect y="-5" width="1348" height="250" rx="8" fill="white"/>
<path fill-rule="evenodd" clip-rule="evenodd" d="M90.3576 192.456C137.661 152.302 202.842 143.447 264.954 142.148C319.882 140.999 369.114 164.439 419.888 185.563C474.754 208.388 538.126 221.063 572.017 269.894C607.614 321.18 616.582 388.882 603.261 449.761C590.443 508.338 548.033 554.879 501.417 592.529C459.063 626.737 405.952 637.346 353.369 651.587C294.29 667.588 229.577 711.294 176.548 680.514C123.123 649.506 141.522 566.001 112.227 511.624C82.5008 456.449 9.54412 425.058 5.26374 362.588C0.815193 297.664 40.8147 234.511 90.3576 192.456Z" fill="#FFE8BA"/>
<path fill-rule="evenodd" clip-rule="evenodd" d="M725.193 418.374C731.639 482.454 773.59 536.489 818.645 582.716C858.49 623.597 911.615 642.199 964.232 663.632C1021.09 686.793 1077.02 723.637 1136.86 712.339C1199.7 700.474 1254.52 657.099 1287.98 602.507C1320.17 549.98 1321.89 484.759 1314.17 423.026C1307.16 366.938 1275.39 320.406 1246.6 271.583C1214.25 216.727 1197.44 137.34 1136.29 121.381C1074.67 105.304 1028.87 180.276 968.493 199.012C907.226 218.024 830.881 187.992 783.261 230.927C733.77 275.549 718.443 351.26 725.193 418.374Z" fill="#FFE8BA"/>
<path d="M1225.33 102.666C1213.44 97.8406 1203.76 99.6005 1194.18 105.86C1192.44 106.995 1191.9 109.299 1192.96 111.084L1197.39 118.578C1198.46 120.381 1200.77 120.998 1202.6 119.969C1208.23 116.795 1212.09 115.22 1217.92 117.585C1222.5 119.445 1226.97 124.704 1225.16 129.16C1223.79 132.529 1220.31 133.134 1214.76 133.842C1208.28 134.667 1199.8 135.525 1196.05 144.762L1195.45 146.224C1194.65 148.205 1195.6 150.46 1197.57 151.261L1208.36 155.642C1210.34 156.444 1212.59 155.488 1213.39 153.508L1213.74 152.646C1216.34 146.243 1235.1 153.549 1242.14 136.222C1247.44 123.174 1237.97 107.798 1225.33 102.666ZM1201.18 157.853C1195.49 155.543 1188.98 158.307 1186.66 164.013C1184.35 169.719 1187.09 176.24 1192.78 178.55C1198.46 180.859 1204.98 178.095 1207.29 172.389C1209.61 166.683 1206.87 160.162 1201.18 157.853Z" fill="#FFE8BA"/>
<path d="M93.4271 109.085C88.5422 107.689 84.8022 108.801 81.2908 111.686C80.6538 112.209 80.5372 113.143 81.0286 113.803L83.0925 116.574C83.5887 117.24 84.5244 117.385 85.2006 116.9C87.2864 115.403 88.7418 114.614 91.1364 115.299C93.0191 115.837 94.9991 117.723 94.4736 119.562C94.0764 120.952 92.733 121.34 90.574 121.859C88.0563 122.464 84.7521 123.167 83.663 126.979L83.4906 127.582C83.2571 128.399 83.7254 129.25 84.5366 129.481L88.9719 130.749C89.7831 130.981 90.6299 130.506 90.8634 129.689L90.9651 129.333C91.7201 126.691 99.4179 128.772 101.461 121.622C103 116.238 98.6218 110.569 93.4271 109.085ZM86.2354 131.931C83.8978 131.263 81.4486 132.635 80.7758 134.99C80.103 137.344 81.4574 139.803 83.795 140.471C86.1326 141.139 88.5817 139.767 89.2545 137.413C89.9274 135.058 88.5729 132.599 86.2354 131.931Z" fill="#E79898"/>
<path d="M234.276 74.2468C223.745 77.0882 218.102 83.2943 214.848 92.5251C214.258 94.1996 215.08 96.0553 216.716 96.7294L223.585 99.5603C225.237 100.241 227.118 99.4701 227.823 97.8229C229.997 92.7419 231.798 89.6684 236.96 88.2756C241.018 87.1805 246.752 88.469 247.826 92.4515C248.638 95.4621 246.6 97.671 243.205 101.026C239.248 104.938 233.953 109.906 236.181 118.16L236.533 119.467C237.011 121.236 238.815 122.288 240.564 121.816L250.125 119.237C251.874 118.765 252.904 116.948 252.427 115.178L252.219 114.408C250.675 108.686 267.137 103.988 262.96 88.5052C259.813 76.845 245.474 71.2252 234.276 74.2468ZM246.406 124.459C241.367 125.819 238.386 131.074 239.762 136.173C241.138 141.272 246.357 144.314 251.396 142.954C256.435 141.594 259.416 136.34 258.04 131.241C256.664 126.142 251.445 123.1 246.406 124.459Z" fill="#FFE8BA"/>
<path d="M147.314 32.3014C144.005 33.1943 142.232 35.1445 141.209 38.0452C141.024 38.5714 141.282 39.1545 141.796 39.3663L143.955 40.2559C144.474 40.4698 145.065 40.2276 145.286 39.7099C145.97 38.1133 146.535 37.1475 148.158 36.7098C149.433 36.3657 151.235 36.7706 151.572 38.022C151.828 38.9681 151.187 39.6622 150.12 40.7164C148.877 41.9458 147.213 43.507 147.913 46.1008L148.024 46.5114C148.174 47.0674 148.741 47.398 149.29 47.2497L152.295 46.439C152.844 46.2908 153.168 45.7198 153.018 45.1638L152.953 44.9216C152.468 43.1236 157.641 41.6474 156.328 36.7819C155.339 33.1178 150.833 31.3519 147.314 32.3014ZM151.126 48.0802C149.542 48.5074 148.606 50.1587 149.038 51.761C149.471 53.3633 151.111 54.3193 152.694 53.892C154.278 53.4647 155.214 51.8135 154.782 50.2112C154.349 48.6089 152.709 47.6529 151.126 48.0802Z" fill="#F19378"/>
<path opacity="0.6" d="M935.851 94.7529C931.069 92.1104 926.877 92.3812 922.491 94.573C921.696 94.9706 921.346 95.9251 921.7 96.7372L923.189 100.148C923.547 100.968 924.492 101.346 925.32 100.998C927.872 99.9246 929.59 99.4445 931.934 100.74C933.777 101.758 935.394 104.218 934.394 106.027C933.639 107.394 932.135 107.48 929.745 107.506C926.958 107.537 923.321 107.484 921.25 111.232L920.922 111.825C920.478 112.629 920.762 113.636 921.556 114.075L925.898 116.474C926.692 116.913 927.695 116.617 928.139 115.814L928.333 115.464C929.769 112.866 937.333 116.905 941.218 109.874C944.144 104.579 940.936 97.5631 935.851 94.7529ZM922.74 117.06C920.452 115.796 917.549 116.651 916.269 118.966C914.99 121.281 915.811 124.194 918.099 125.458C920.387 126.723 923.29 125.868 924.569 123.553C925.849 121.237 925.028 118.325 922.74 117.06Z" fill="white"/>
<path d="M1100.34 23.6924C1095.14 22.0219 1091.08 23.0964 1087.2 26.0929C1086.49 26.6365 1086.33 27.6406 1086.84 28.3691L1088.96 31.4289C1089.47 32.1646 1090.47 32.3522 1091.21 31.8513C1093.51 30.3062 1095.1 29.5036 1097.65 30.3225C1099.66 30.9663 1101.72 33.0684 1101.09 35.0356C1100.61 36.5227 1099.15 36.8968 1096.81 37.3841C1094.08 37.9524 1090.5 38.6012 1089.19 42.6784L1088.98 43.3238C1088.7 44.1979 1089.18 45.1313 1090.04 45.4087L1094.76 46.9255C1095.63 47.2029 1096.56 46.7192 1096.84 45.8452L1096.96 45.4645C1097.87 42.6381 1106.07 45.1422 1108.52 37.4939C1110.37 31.7342 1105.87 25.4689 1100.34 23.6924ZM1091.78 48.1098C1089.29 47.3103 1086.61 48.7092 1085.8 51.2279C1084.99 53.7466 1086.35 56.4462 1088.84 57.2456C1091.33 58.045 1094.02 56.6462 1094.83 54.1274C1095.63 51.6087 1094.27 48.9092 1091.78 48.1098Z" fill="#F19378"/>
<path d="M1007.27 86.9998C1000.81 91.0934 998.329 96.4215 998.073 103.277C998.026 104.52 998.963 105.591 1000.2 105.702L1005.38 106.167C1006.63 106.278 1007.73 105.371 1007.86 104.122C1008.26 100.269 1008.82 97.8367 1011.99 95.8301C1014.48 94.2523 1018.58 93.9213 1020.13 96.3629C1021.3 98.2088 1020.39 100.112 1018.82 103.063C1016.99 106.505 1014.48 110.932 1017.69 115.993L1018.19 116.794C1018.88 117.879 1020.31 118.207 1021.38 117.528L1027.24 113.811C1028.31 113.131 1028.63 111.7 1027.94 110.616L1027.64 110.143C1025.41 106.635 1035.45 100.065 1029.44 90.5717C1024.9 83.4228 1014.14 82.6466 1007.27 86.9998ZM1025.84 118.08C1022.75 120.039 1021.85 124.176 1023.83 127.303C1025.81 130.429 1029.94 131.378 1033.03 129.419C1036.12 127.461 1037.02 123.323 1035.04 120.197C1033.06 117.071 1028.93 116.121 1025.84 118.08Z" fill="#E79898"/>
</g>
</svg>
