<svg xmlns="http://www.w3.org/2000/svg" width="200" height="80" viewBox="0 0 200 80" fill="none"><g clip-path="url(#clip0_3798_77469)"><path d="M71.2321 32.2909V36.7103H80.2224V45.9513H71.2321V56.8992H62V23H81.6241L82.2526 32.2909H71.2321Z" fill="#6F7580"/><path d="M108.609 28.2109C111.672 31.4592 113.204 35.3803 113.204 39.9736C113.204 44.6001 111.672 48.5373 108.609 51.786C105.546 55.0342 101.851 56.6582 97.5252 56.6582C93.1673 56.6582 89.4562 55.0342 86.3936 51.786C83.3301 48.5374 81.7988 44.6001 81.7988 39.9736C81.7988 35.3802 83.3301 31.4592 86.3936 28.2109C89.4562 24.9626 93.1673 23.3384 97.5252 23.3384C101.851 23.3384 105.546 24.9626 108.609 28.2109ZM94.8725 46.7654C94.8725 47.5208 95.1404 48.1767 95.6777 48.7343C96.2142 49.2925 96.862 49.5711 97.6198 49.5711C98.3777 49.5711 99.0172 49.2925 99.5383 48.7343C100.059 48.1767 100.32 47.5208 100.32 46.7654V33.0341C100.32 32.2467 100.059 31.5745 99.5383 31.0162C99.0173 30.4588 98.3779 30.1795 97.6198 30.1795C96.862 30.1795 96.2144 30.4588 95.6777 31.0162C95.1403 31.5745 94.8725 32.2467 94.8725 33.0341V46.7654Z" fill="#6F7580"/><path d="M127.608 57L122.968 48.4119L118.472 57H108.322L117.989 39.4224L108.854 23H119.294L123.113 30.3323L126.979 23H137.081L128.139 39.3218L138 56.9999H127.608V57Z" fill="#6F7580"/></g><defs><clipPath id="clip0_3798_77469"><rect width="76" height="34" fill="white" transform="translate(62 23)"/></clipPath></defs></svg>