<?xml version="1.0" encoding="UTF-8"?>
<svg width="38px" height="42px" viewBox="0 0 38 42" version="1.1" xmlns="http://www.w3.org/2000/svg" xmlns:xlink="http://www.w3.org/1999/xlink">
    <!-- Generator: Sketch 52.4 (67378) - http://www.bohemiancoding.com/sketch -->
    <title>ico-cexample</title>
    <desc>Created with Sketch.</desc>
    <g id="Resources-Page-(Blog-Hub)" stroke="none" stroke-width="1" fill="none" fill-rule="evenodd">
        <g id="resume-and-cv-icons" transform="translate(-1121.000000, -343.000000)" fill-rule="nonzero">
            <g id="Hover-state" transform="translate(77.000000, 320.000000)">
                <g id="CL-Example---Hover" transform="translate(975.000000, 0.000000)">
                    <g id="ico-cexample" transform="translate(69.000000, 23.000000)">
                        <path d="M0.956929313,17.7144839 L18.1147734,0.715638313 C18.5202402,0.31392882 19.1686972,0.298331505 19.5930086,0.680082367 L36.8880123,16.2403105 C37.586971,16.8691602 37.9773141,17.7712967 37.9571743,18.7112912 L37.6158741,34.6409966 L0,34.6409966 L3.10862447e-15,20.0095922 C3.76872013e-15,19.1475263 0.344525803,18.3212124 0.956929313,17.7144839 Z" id="Path-11" fill="#9BA6A7"></path>
                        <path d="M7.55128205,4.30769231 L28.2002145,4.30769231 L35.75,11.7630879 L35.75,30.1538462 C35.75,33.1276871 33.3392256,35.5384615 30.3653846,35.5384615 L3.02820513,35.5384615 C2.55239057,35.5384615 2.16666667,35.1527376 2.16666667,34.6769231 L2.16666667,9.69230769 C2.16666667,6.71846673 4.57744109,4.30769231 7.55128205,4.30769231 Z" id="Rectangle" fill="#FFFFFF"></path>
                        <path d="M10.8269231,11.8461538 L20.7286325,11.8461538 C21.3234007,11.8461538 21.8055556,12.3283087 21.8055556,12.9230769 L21.8055556,12.9230769 C21.8055556,13.5178451 21.3234007,14 20.7286325,14 L10.8269231,14 C10.2321549,14 9.75,13.5178451 9.75,12.9230769 L9.75,12.9230769 C9.75,12.3283087 10.2321549,11.8461538 10.8269231,11.8461538 Z" id="Rectangle" fill="#31C9D6"></path>
                        <path d="M10.8269231,17.2388585 L27.2286325,17.2388585 C27.8234007,17.2388585 28.3055556,17.7210133 28.3055556,18.3157815 L28.3055556,18.3157815 C28.3055556,18.9105497 27.8234007,19.3927046 27.2286325,19.3927046 L10.8269231,19.3927046 C10.2321549,19.3927046 9.75,18.9105497 9.75,18.3157815 L9.75,18.3157815 C9.75,17.7210133 10.2321549,17.2388585 10.8269231,17.2388585 Z" id="Rectangle" fill="#31C9D6"></path>
                        <path d="M10.8269231,28.0242677 L20.7286325,28.0242677 C21.3234007,28.0242677 21.8055556,28.5064226 21.8055556,29.1011907 L21.8055556,29.1011907 C21.8055556,29.6959589 21.3234007,30.1781138 20.7286325,30.1781138 L10.8269231,30.1781138 C10.2321549,30.1781138 9.75,29.6959589 9.75,29.1011907 L9.75,29.1011907 C9.75,28.5064226 10.2321549,28.0242677 10.8269231,28.0242677 Z" id="Rectangle" fill="#31C9D6"></path>
                        <path d="M10.8269231,22.6315631 L27.2286325,22.6315631 C27.8234007,22.6315631 28.3055556,23.1137179 28.3055556,23.7084861 L28.3055556,23.7084861 C28.3055556,24.3032543 27.8234007,24.7854092 27.2286325,24.7854092 L10.8269231,24.7854092 C10.2321549,24.7854092 9.75,24.3032543 9.75,23.7084861 L9.75,23.7084861 C9.75,23.1137179 10.2321549,22.6315631 10.8269231,22.6315631 Z" id="Rectangle" fill="#31C9D6"></path>
                        <polygon id="Path-2" fill="#DBE7E9" points="28.1666667 4.30769231 28.1666667 11.8461538 35.9200551 11.8461538"></polygon>
                        <path d="M0,20.4696277 L17.5705767,34.4354176 C18.3767728,35.0762142 19.523792,35.0566506 20.3076667,34.3887337 L37.9166667,19.3846154 L37.9166667,39.8461538 C37.9166667,41.0356902 36.9523569,42 35.7628205,42 L2.15384615,42 C0.96430977,42 -1.18659144e-15,41.0356902 -1.33226763e-15,39.8461538 L0,20.4696277 Z" id="Rectangle" fill="#D1DDDF"></path>
                        <path d="M0,20.4696277 L19.6100543,35.5285595 C19.6186506,35.5351608 19.6272966,35.5416971 19.6359916,35.5481678 L28.3055556,42 L2.15384615,42 C0.96430977,42 -7.42502227e-16,41.0356902 -8.8817842e-16,39.8461538 L0,20.4696277 Z" id="Rectangle" fill="#DBE7E9"></path>
                    </g>
                </g>
            </g>
        </g>
    </g>
</svg>