<?xml version="1.0" encoding="UTF-8"?>
<svg width="45px" height="39px" viewBox="0 0 45 39" version="1.1" xmlns="http://www.w3.org/2000/svg" xmlns:xlink="http://www.w3.org/1999/xlink">
    <!-- Generator: Sketch 52.4 (67378) - http://www.bohemiancoding.com/sketch -->
    <title>Group</title>
    <desc>Created with Sketch.</desc>
    <g id="Resources-Page-(Blog-Hub)" stroke="none" stroke-width="1" fill="none" fill-rule="evenodd">
        <g id="resume-and-cv-icons" transform="translate(-142.000000, -346.000000)" fill-rule="nonzero">
            <g id="Hover-state" transform="translate(77.000000, 320.000000)">
                <g id="Res-Example---Hover">
                    <g id="Group" transform="translate(65.000000, 23.000000)">
                        <path d="M0.985125858,15.627907 L9.20642265,15.627907 C9.60318942,15.627907 9.96123225,15.8659322 10.114784,16.2317816 L11.2476855,18.9310091 C11.4012373,19.2968585 11.7592802,19.5348837 12.1560469,19.5348837 L36.1689671,19.5348837 C36.7130371,19.5348837 37.154093,19.9759396 37.154093,20.5200096 C37.154093,20.5349632 37.1537525,20.5499148 37.1530718,20.5648529 L36.2636767,40.0829733 C36.2397042,40.6090604 35.806205,41.0232558 35.279572,41.0232558 L0.985125858,41.0232558 C0.44105587,41.0232558 2.55466576e-15,40.5821999 5.55111512e-16,40.03813 L-2.22044605e-16,16.6130328 C-2.88673962e-16,16.0689628 0.44105587,15.627907 0.985125858,15.627907 Z" id="Rectangle" fill="#C2CDCE"></path>
                        <g id="ico-1" transform="translate(24.713625, 20.768333) rotate(20.000000) translate(-24.713625, -20.768333) translate(9.061451, 5.140426)">
                            <path d="M7.70141891,1.16107555e-14 L30.5730263,5.88418203e-15 C30.9212311,3.96460995e-15 31.2035068,0.282275757 31.2035068,0.630480549 C31.2035068,0.795144443 31.1390865,0.953274215 31.0240192,1.07106096 L30.1387311,1.97727162 C29.4195606,2.71343878 29.0169335,3.70174985 29.0169335,4.73089919 L29.0169335,27.3153105 C29.0169335,29.4915905 27.25271,31.255814 25.0764301,31.255814 L1.35151916,31.255814 C1.00568188,31.255814 0.725325374,30.9754574 0.725325374,30.6296202 C0.725325374,30.4033025 0.847443475,30.194596 1.04474126,30.0837209 L1.12041902,30.0411925 C2.36197172,29.3434796 3.13043478,28.0301341 3.13043478,26.6059654 L3.13043478,4.57098413 C3.13043478,2.0464993 5.17693409,1.81652138e-13 7.70141891,1.81188398e-13 Z" id="Rectangle" fill="#FFFFFF"></path>
                            <path d="M7.82487361,14.8465116 L23.4794742,14.8465116 C23.911027,14.8465116 24.2608696,15.1963542 24.2608696,15.627907 L24.2608696,15.627907 C24.2608696,16.0594597 23.911027,16.4093023 23.4794742,16.4093023 L7.82487361,16.4093023 C7.39332087,16.4093023 7.04347826,16.0594597 7.04347826,15.627907 L7.04347826,15.627907 C7.04347826,15.1963542 7.39332087,14.8465116 7.82487361,14.8465116 Z" id="Rectangle" fill="#31C9D6"></path>
                            <path d="M10.9553084,17.972093 L20.3490394,17.972093 C20.7805922,17.972093 21.1304348,18.3219356 21.1304348,18.7534884 L21.1304348,18.7534884 C21.1304348,19.1850411 20.7805922,19.5348837 20.3490394,19.5348837 L10.9553084,19.5348837 C10.5237557,19.5348837 10.173913,19.1850411 10.173913,18.7534884 L10.173913,18.7534884 C10.173913,18.3219356 10.5237557,17.972093 10.9553084,17.972093 Z" id="Rectangle" fill="#31C9D6"></path>
                            <path d="M13.3098398,21.8790698 L23.4727689,21.8790698 C23.9080249,21.8790698 24.2608696,22.2319145 24.2608696,22.6671705 L24.2608696,27.3421319 C24.2608696,27.7773879 23.9080249,28.1302326 23.4727689,28.1302326 L13.3098398,28.1302326 C12.8745838,28.1302326 12.5217391,27.7773879 12.5217391,27.3421319 L12.5217391,22.6671705 C12.5217391,22.2319145 12.8745838,21.8790698 13.3098398,21.8790698 Z" id="Rectangle" fill="#FFFFFF"></path>
                            <ellipse id="Oval" fill="#F78675" cx="15.6521739" cy="7.81395349" rx="5.47826087" ry="5.46976744"></ellipse>
                            <ellipse id="Oval" fill="#FFFFFF" cx="15.6521739" cy="5.37209302" rx="1.4673913" ry="1.46511628"></ellipse>
                            <path d="M15.6476239,7.81395349 L15.656724,7.81395349 C17.2750467,7.81395349 18.5869565,9.12586329 18.5869565,10.744186 L12.7173913,10.744186 L12.7173913,10.744186 C12.7173913,9.12586329 14.0293011,7.81395349 15.6476239,7.81395349 Z" id="Rectangle" fill="#FFFFFF"></path>
                        </g>
                        <path d="M6.59013432,24.4186047 L40.7007324,24.4186047 C41.2448024,24.4186047 41.6858583,24.8596605 41.6858583,25.4037305 C41.6858583,25.5100987 41.6686315,25.6157648 41.6348469,25.716625 L36.4056794,41.3277687 C36.271169,41.7293358 35.8950613,42 35.4715649,42 L1.07065138,42 C0.52658139,42 0.0855255203,41.5589441 0.0855255203,41.0148741 C0.0855255203,40.9030087 0.104578746,40.7919605 0.141867872,40.686493 L5.66135081,25.0753494 C5.80051239,24.6817489 6.172657,24.4186047 6.59013432,24.4186047 Z" id="Rectangle" fill="#DBE7E9"></path>
                    </g>
                </g>
            </g>
        </g>
    </g>
</svg>