<svg xmlns="http://www.w3.org/2000/svg" width="200" height="80" viewBox="0 0 200 80" fill="none"><path d="M54.6645 34.6744C54.208 33.5141 53.0931 32.2682 51.0078 32.4392C48.3502 32.7324 47.5221 35.3095 47.9236 36.8485C46.8649 36.1279 45.0652 35.8103 43.4939 37.1661C41.466 39.2181 42.5498 42.0029 43.6659 42.6747C42.4363 42.5525 40.4945 43.3953 40.0643 45.5938C39.6078 48.3176 41.6632 49.9054 43.6659 49.9054H65.8649C68.1796 49.9054 69.4642 47.8901 69.3208 45.9725C69.0938 43.4808 66.8376 42.5281 65.6068 42.7357C66.6357 42.1495 68.0087 39.4257 65.9199 37.2882C64.2637 35.6882 62.151 36.2745 61.4077 36.9585C61.808 35.6271 61.152 32.8789 58.4633 32.4392C58.2781 32.427 58.1 32.4148 57.9291 32.4148C55.8774 32.4148 54.9548 33.9293 54.6645 34.6744Z" fill="white"/><path d="M43.8643 37.6059C42.6921 38.6685 42.2655 41.0991 44.3782 42.5282L52.8063 48.3788L48.7195 38.9006C47.8639 36.6654 45.5206 36.1891 43.8643 37.6059Z" fill="#6F7580"/><path d="M51.1188 33.0011C49.7494 33.0255 47.6916 34.6744 48.607 37.1905L52.8348 47.2794L54.3189 36.6775C54.6631 34.0393 52.6914 32.8179 51.1188 33.0011Z" fill="#6F7580"/><path d="M54.9789 36.2624H55.7783C55.7783 36.2624 56.2049 36.2624 56.2635 36.4701C55.9492 36.7266 55.0936 36.7632 55.2059 38.1556L56.5503 47.2796L60.7482 37.1663C61.6074 34.9067 59.8042 33.0257 58.2053 32.9646C58.1312 32.9646 58.0559 32.9524 57.9783 32.9524C56.5431 32.9524 54.8988 34.015 54.9789 36.2624Z" fill="#6F7580"/><path d="M60.5793 38.9861L56.6084 48.3421L65.0341 42.4671C66.9772 41.0747 66.6641 38.8518 65.5767 37.7403C65.1202 37.2273 64.2837 36.8242 63.397 36.8242C62.349 36.8242 61.2282 37.3861 60.5793 38.9861Z" fill="#6F7580"/><path d="M64.0918 43.7984L56.1787 49.3925H65.9225C67.9205 49.3925 69.2051 47.3039 68.6351 45.3863C68.2527 44.1893 67.1199 43.2488 65.8066 43.2488C65.2545 43.2488 64.6678 43.4076 64.0918 43.7984Z" fill="#6F7580"/><path d="M43.6361 49.3925H53.2365L45.321 43.7984C43.4927 42.6136 41.4361 43.3099 40.694 45.2763C40.0643 47.5359 41.6357 49.3925 43.6361 49.3925Z" fill="#6F7580"/><path d="M160 46.3635L157.399 43.6763C156.672 44.3603 155.942 44.8978 155.207 45.3008C154.472 45.7039 153.573 45.8993 152.511 45.8993C151.714 45.8993 150.984 45.7405 150.32 45.423C149.655 45.1054 149.089 44.6779 148.62 44.1283C148.151 43.5909 147.783 42.9557 147.517 42.2351C147.252 41.5144 147.119 40.745 147.119 39.9266V39.8778C147.119 39.0594 147.252 38.2899 147.517 37.5815C147.783 36.8609 148.155 36.2379 148.633 35.6883C149.111 35.1509 149.683 34.7234 150.346 34.418C151.01 34.1127 151.732 33.9539 152.511 33.9539C153.449 33.9539 154.295 34.1493 155.047 34.528C155.8 34.9066 156.539 35.4318 157.265 36.1036L159.869 33.0256C159.438 32.5981 158.983 32.1951 158.487 31.8409C157.991 31.4744 157.451 31.1691 156.867 30.9126C156.282 30.6561 155.631 30.4607 154.914 30.3141C154.197 30.1675 153.405 30.0942 152.537 30.0942C151.103 30.0942 149.793 30.3507 148.607 30.8759C147.421 31.3889 146.402 32.0974 145.553 32.989C144.702 33.8806 144.039 34.931 143.561 36.1158C143.083 37.3006 142.844 38.5708 142.844 39.9266V39.9755C142.844 41.3435 143.083 42.6137 143.561 43.8107C144.039 45.0077 144.702 46.0337 145.553 46.9131C146.402 47.7925 147.411 48.4887 148.58 48.9895C149.748 49.5025 151.015 49.759 152.377 49.759C153.281 49.759 154.096 49.6735 154.822 49.5269C155.548 49.3681 156.217 49.1483 156.827 48.8429C157.438 48.5498 158 48.1834 158.513 47.7681C159.027 47.3528 159.522 46.8887 160 46.3635ZM142.249 44.2138V44.1649C142.249 42.8946 141.939 41.9053 141.319 41.1847C140.7 40.4762 139.85 39.9022 138.77 39.4869C139.106 39.3159 139.42 39.0961 139.713 38.8396C140.005 38.5831 140.261 38.2899 140.483 37.9601C140.705 37.6181 140.882 37.2517 141.014 36.8364C141.147 36.4089 141.214 35.9326 141.214 35.3952V35.3341C141.214 33.8318 140.669 32.647 139.58 31.7554C138.49 30.8637 136.991 30.424 135.078 30.424H126.446V49.4292H135.29C136.336 49.4292 137.287 49.3193 138.146 49.0994C139.004 48.8796 139.739 48.562 140.35 48.1223C140.96 47.6948 141.43 47.1452 141.758 46.4978C142.085 45.8383 142.249 45.081 142.249 44.2138ZM137.15 36.1036C137.15 36.7998 136.884 37.3128 136.353 37.6304C135.822 37.9479 135.105 38.1067 134.202 38.1067H130.43V34.0883H134.467C135.335 34.0883 135.999 34.2593 136.459 34.589C136.919 34.931 137.15 35.4074 137.15 36.0425V36.1036ZM138.186 43.7008C138.186 44.4092 137.929 44.9222 137.415 45.2642C136.901 45.594 136.194 45.765 135.29 45.765H130.43V41.5877H135.158C136.22 41.5877 136.99 41.7709 137.469 42.1374C137.947 42.5038 138.186 43.0168 138.186 43.6397V43.7008ZM123.954 49.4292V30.424H119.916V42.1252L111.206 30.424H107.434V49.4292H111.47V37.3494L120.475 49.4292H123.954ZM105.795 43.8107V43.7496C105.795 42.9191 105.667 42.2107 105.41 41.6122C105.153 41.0137 104.772 40.4885 104.268 40.0488C103.763 39.609 103.143 39.2304 102.408 38.9128C101.673 38.5953 100.837 38.3021 99.8989 38.0578C99.1018 37.838 98.4422 37.6426 97.92 37.4838C97.3978 37.325 96.9867 37.1418 96.6856 36.9708C96.3844 36.7876 96.1765 36.5799 96.0606 36.3601C95.9459 36.128 95.8885 35.8593 95.8885 35.554V35.5051C95.8885 35.0287 96.0881 34.6379 96.486 34.3203C96.8839 34.0028 97.4814 33.844 98.2785 33.844C99.0755 33.844 99.8714 34.015 100.668 34.3448C101.465 34.6868 102.28 35.1387 103.113 35.7127L105.237 32.5737C104.281 31.792 103.232 31.1935 102.09 30.7782C100.948 30.3629 99.6945 30.1553 98.3311 30.1553C97.3751 30.1553 96.4992 30.2897 95.7021 30.5584C94.9063 30.8271 94.2192 31.2179 93.6444 31.7309C93.0684 32.2317 92.6215 32.8302 92.3024 33.5386C91.9834 34.2348 91.8244 35.0165 91.8244 35.8837V35.9326C91.8244 36.8731 91.9702 37.667 92.263 38.3021C92.5546 38.9251 92.9668 39.4625 93.4974 39.89C94.0292 40.3052 94.6756 40.6717 95.4368 40.9526C96.198 41.2457 97.0477 41.5144 97.9857 41.7465C98.7648 41.9419 99.3982 42.1374 99.8857 42.3206C100.372 42.4916 100.753 42.6748 101.027 42.858C101.302 43.0412 101.488 43.2366 101.585 43.4443C101.683 43.6519 101.732 43.884 101.732 44.1649V44.2138C101.732 44.7756 101.497 45.2153 101.028 45.5329C100.558 45.8505 99.8989 46.0092 99.0492 46.0092C97.9869 46.0092 97.0082 45.8016 96.1144 45.3863C95.2193 44.971 94.3482 44.4092 93.4986 43.7008L91.0812 46.6566C92.1961 47.6948 93.4364 48.4521 94.7987 48.9529C96.1622 49.4536 97.5531 49.6979 98.9692 49.6979C99.9789 49.6979 100.899 49.5636 101.732 49.3071C102.564 49.0384 103.281 48.6597 103.883 48.1589C104.485 47.6704 104.954 47.0474 105.291 46.3146C105.626 45.5818 105.795 44.7512 105.795 43.8107ZM89.8013 49.4292V30.424H85.3931L80.5056 38.4609L75.6194 30.424H71.21V49.4292H75.2203V37.1051L80.3993 45.142H80.5056L85.7384 37.0196V49.4292H89.8013Z" fill="#6F7580"/></svg>