<?xml version="1.0" encoding="UTF-8"?> <svg xmlns="http://www.w3.org/2000/svg" width="280" height="374" viewBox="0 0 280 374" fill="none"><path d="M28.6932 163.627H251.63C253.163 163.627 254.633 164.254 255.717 165.369C256.8 166.484 257.409 167.997 257.409 169.575V324.968H22.881V169.609C22.8765 168.822 23.0238 168.042 23.3144 167.314C23.6049 166.587 24.0328 165.925 24.5735 165.369C25.1141 164.813 25.7566 164.372 26.4637 164.073C27.1709 163.774 27.9287 163.622 28.6932 163.627V163.627Z" fill="#F8F9FB"></path><path d="M257.409 325.003H22.8809V169.609C22.8776 168.823 23.0265 168.044 23.319 167.318C23.6115 166.592 24.0417 165.933 24.5845 165.38C25.1144 164.821 25.7484 164.378 26.4486 164.076C27.1488 163.775 27.9009 163.622 28.6598 163.627H251.63C252.393 163.622 253.15 163.774 253.855 164.074C254.56 164.373 255.201 164.814 255.739 165.371C256.276 165.928 256.701 166.589 256.988 167.317C257.275 168.045 257.418 168.824 257.409 169.609V325.003ZM22.8809 325.003H257.409V169.609C257.418 168.824 257.275 168.045 256.988 167.317C256.701 166.589 256.276 165.928 255.739 165.371C255.201 164.814 254.56 164.373 253.855 164.074C253.15 163.774 252.393 163.622 251.63 163.627H28.6598C27.9009 163.622 27.1488 163.775 26.4486 164.076C25.7484 164.378 25.1144 164.821 24.5845 165.38C24.0417 165.933 23.6115 166.592 23.319 167.318C23.0265 168.044 22.8776 168.823 22.8809 169.609V325.003V325.003Z" fill="white"></path><path d="M257.409 316.064V169.609C257.414 168.825 257.267 168.048 256.979 167.322C256.691 166.597 256.266 165.937 255.729 165.381C255.191 164.825 254.553 164.384 253.85 164.083C253.146 163.782 252.392 163.627 251.63 163.627H28.6598C27.1241 163.636 25.6543 164.27 24.5715 165.391C23.4887 166.512 22.8809 168.028 22.881 169.609V316.064C22.8765 316.756 23.0057 317.442 23.261 318.082C23.5162 318.723 23.8925 319.304 24.368 319.794C24.8435 320.283 25.4086 320.67 26.0307 320.933C26.6528 321.196 27.3194 321.329 27.9918 321.324H252.298C252.971 321.329 253.637 321.196 254.26 320.933C254.882 320.67 255.447 320.283 255.922 319.794C256.398 319.304 256.774 318.723 257.029 318.082C257.285 317.442 257.414 316.756 257.409 316.064Z" fill="white"></path><path d="M279.624 325.003H0.267284C0.198893 325.011 0.135062 325.042 0.0864312 325.092C0.0378005 325.142 0.00730961 325.208 5.20333e-05 325.278V327.066C-0.0037917 327.782 0.205404 328.482 0.599523 329.072C0.993642 329.662 1.5538 330.114 2.20471 330.366L6.38019 331.982C8.78292 332.913 11.3289 333.39 13.896 333.392H266.73C269.085 333.393 271.419 332.938 273.611 332.051L278.688 330.022C279.072 329.87 279.402 329.601 279.635 329.251C279.868 328.901 279.992 328.487 279.991 328.063V325.828C279.991 324.969 280.091 325.003 279.624 325.003Z" fill="white"></path><path d="M121.99 325.106V326.413C121.999 326.808 122.158 327.184 122.432 327.461C122.707 327.737 123.076 327.892 123.46 327.892H156.864C157.28 327.892 157.68 327.721 157.974 327.418C158.268 327.115 158.434 326.704 158.434 326.276V325.106H121.99Z" fill="#F8F9FB"></path><path d="M248.359 174.285H32.9375V312.087H248.359V174.285Z" fill="#E8F2FF"></path><mask id="mask0_2925_248367" style="mask-type:alpha" maskUnits="userSpaceOnUse" x="32" y="174" width="217" height="139"><path d="M248.359 174.285H32.9375V312.087H248.359V174.285Z" fill="#CBE2F8"></path></mask><g mask="url(#mask0_2925_248367)"><g filter="url(#filter0_d_2925_248367)"><path d="M84.002 218.031C84.002 214.867 86.567 212.302 89.7312 212.302H162.652C164.364 212.302 165.987 213.068 167.075 214.389L177.165 226.644C177.376 226.901 177.609 227.139 177.862 227.355L194.799 241.856C196.07 242.944 196.802 244.534 196.802 246.208V352.773C196.802 355.938 194.237 358.503 191.073 358.503H89.7312C86.567 358.503 84.002 355.938 84.002 352.773V218.031Z" fill="white"></path></g><path opacity="0.6" d="M172.227 239.361L166.869 214.806L162.834 239.997C161.94 245.581 167.039 250.264 172.527 248.898L195.633 243.15L172.227 239.361Z" fill="#D3D9DE"></path><path d="M166.869 213.799L195.915 243.152H171.376C168.887 243.152 166.869 241.134 166.869 238.645V213.799Z" fill="white"></path></g><path d="M1.30273 329.816C1.57054 330.052 1.87561 330.238 2.20464 330.367L6.38012 331.983C8.78285 332.913 11.3288 333.391 13.896 333.392H266.73C269.085 333.394 271.419 332.939 273.611 332.051L278.688 330.023C278.826 329.989 278.953 329.917 279.056 329.816H1.30273Z" fill="white"></path><path d="M3.8418 330.915C4.06765 331.069 4.31567 331.185 4.57669 331.259C4.87732 331.328 7.41601 332.29 7.91707 332.394C9.84694 333.056 11.8626 333.415 13.8964 333.46H266.73C268.445 333.448 270.147 333.158 271.774 332.6C272.342 332.462 275.382 331.293 275.582 331.259L275.849 331.121L3.8418 330.915Z" fill="white"></path><path d="M6.37891 331.981C6.37891 331.981 11.3227 333.529 13.8948 333.529H266.728C269.067 333.529 272.607 332.428 272.607 332.428L6.37891 331.981Z" fill="white"></path><g clip-path="url(#clip0_2925_248367)" filter="url(#filter1_dd_2925_248367)"><path d="M234.064 39H47.9364C44.1055 39 41 42.3162 41 46.407V185.593C41 189.684 44.1055 193 47.9364 193H234.064C237.894 193 241 189.684 241 185.593V46.407C241 42.3162 237.894 39 234.064 39Z" fill="#E4DFFC"></path><path d="M47.1536 38.7002H234.08C235.819 38.7002 237.486 39.3868 238.715 40.609C239.944 41.8312 240.634 43.4888 240.634 45.2173V55.568H40.5996V45.2173C40.5996 43.4888 41.2901 41.8312 42.5192 40.609C43.7483 39.3868 45.4154 38.7002 47.1536 38.7002V38.7002Z" fill="#404245"></path><path d="M49.521 50.4205C51.1635 50.4205 52.495 49.0965 52.495 47.4632C52.495 45.8299 51.1635 44.5059 49.521 44.5059C47.8784 44.5059 46.5469 45.8299 46.5469 47.4632C46.5469 49.0965 47.8784 50.4205 49.521 50.4205Z" fill="#F57272"></path><path d="M58.7749 50.4205C60.4174 50.4205 61.749 49.0965 61.749 47.4632C61.749 45.8299 60.4174 44.5059 58.7749 44.5059C57.1323 44.5059 55.8008 45.8299 55.8008 47.4632C55.8008 49.0965 57.1323 50.4205 58.7749 50.4205Z" fill="#60C0A4"></path><path d="M68.3569 50.4205C69.9994 50.4205 71.331 49.0965 71.331 47.4632C71.331 45.8299 69.9994 44.5059 68.3569 44.5059C66.7144 44.5059 65.3828 45.8299 65.3828 47.4632C65.3828 49.0965 66.7144 50.4205 68.3569 50.4205Z" fill="#F8D683"></path><path d="M231.327 179.558H50.3487C49.1929 179.558 48.2559 180.489 48.2559 181.639V181.644C48.2559 182.794 49.1929 183.725 50.3487 183.725H231.327C232.483 183.725 233.42 182.794 233.42 181.644V181.639C233.42 180.489 232.483 179.558 231.327 179.558Z" fill="white"></path><path d="M170.028 179.558H50.3487C49.1929 179.558 48.2559 180.489 48.2559 181.639V181.644C48.2559 182.794 49.1929 183.725 50.3487 183.725H170.028C171.184 183.725 172.121 182.794 172.121 181.644V181.639C172.121 180.489 171.184 179.558 170.028 179.558Z" fill="#BAACF7"></path><path d="M170.412 186.458C173.18 186.458 175.424 184.226 175.424 181.474C175.424 178.721 173.18 176.49 170.412 176.49C167.644 176.49 165.4 178.721 165.4 181.474C165.4 184.226 167.644 186.458 170.412 186.458Z" fill="#AC9BF6"></path><path d="M140.726 140.235C151.281 140.235 159.838 131.727 159.838 121.231C159.838 110.736 151.281 102.228 140.726 102.228C130.172 102.228 121.615 110.736 121.615 121.231C121.615 131.727 130.172 140.235 140.726 140.235Z" fill="#404245"></path><path d="M146.896 119.918L139.021 115.427C138.728 115.253 138.394 115.159 138.053 115.154C137.712 115.15 137.376 115.236 137.08 115.403C136.783 115.57 136.536 115.812 136.364 116.105C136.192 116.398 136.102 116.731 136.102 117.07V126.107C136.102 126.446 136.192 126.779 136.364 127.071C136.536 127.364 136.783 127.607 137.08 127.774C137.376 127.941 137.712 128.026 138.053 128.022C138.394 128.018 138.728 127.924 139.021 127.749L146.896 123.259C147.181 123.081 147.415 122.835 147.578 122.543C147.741 122.251 147.826 121.922 147.826 121.588C147.826 121.254 147.741 120.926 147.578 120.634C147.415 120.342 147.181 120.095 146.896 119.918Z" fill="white"></path></g><rect x="40.5996" y="285.101" width="200.2" height="9.80004" rx="2.7969" fill="black" fill-opacity="0.36"></rect><defs><filter id="filter0_d_2925_248367" x="76.8404" y="205.14" width="127.124" height="160.524" filterUnits="userSpaceOnUse" color-interpolation-filters="sRGB"><feFlood flood-opacity="0" result="BackgroundImageFix"></feFlood><feColorMatrix in="SourceAlpha" type="matrix" values="0 0 0 0 0 0 0 0 0 0 0 0 0 0 0 0 0 0 127 0" result="hardAlpha"></feColorMatrix><feOffset></feOffset><feGaussianBlur stdDeviation="3.58077"></feGaussianBlur><feComposite in2="hardAlpha" operator="out"></feComposite><feColorMatrix type="matrix" values="0 0 0 0 0 0 0 0 0 0 0 0 0 0 0 0 0 0 0.1 0"></feColorMatrix><feBlend mode="normal" in2="BackgroundImageFix" result="effect1_dropShadow_2925_248367"></feBlend><feBlend mode="normal" in="SourceGraphic" in2="effect1_dropShadow_2925_248367" result="shape"></feBlend></filter><filter id="filter1_dd_2925_248367" x="36.5996" y="35.7002" width="208.199" height="162.001" filterUnits="userSpaceOnUse" color-interpolation-filters="sRGB"><feFlood flood-opacity="0" result="BackgroundImageFix"></feFlood><feColorMatrix in="SourceAlpha" type="matrix" values="0 0 0 0 0 0 0 0 0 0 0 0 0 0 0 0 0 0 127 0" result="hardAlpha"></feColorMatrix><feOffset dy="1"></feOffset><feGaussianBlur stdDeviation="1"></feGaussianBlur><feColorMatrix type="matrix" values="0 0 0 0 0 0 0 0 0 0 0 0 0 0 0 0 0 0 0.06 0"></feColorMatrix><feBlend mode="normal" in2="BackgroundImageFix" result="effect1_dropShadow_2925_248367"></feBlend><feColorMatrix in="SourceAlpha" type="matrix" values="0 0 0 0 0 0 0 0 0 0 0 0 0 0 0 0 0 0 127 0" result="hardAlpha"></feColorMatrix><feOffset dy="1"></feOffset><feGaussianBlur stdDeviation="2"></feGaussianBlur><feColorMatrix type="matrix" values="0 0 0 0 0 0 0 0 0 0 0 0 0 0 0 0 0 0 0.1 0"></feColorMatrix><feBlend mode="normal" in2="effect1_dropShadow_2925_248367" result="effect2_dropShadow_2925_248367"></feBlend><feBlend mode="normal" in="SourceGraphic" in2="effect2_dropShadow_2925_248367" result="shape"></feBlend></filter><clipPath id="clip0_2925_248367"><rect width="200.2" height="154.001" fill="white" transform="translate(40.5996 38.7002)"></rect></clipPath></defs></svg> 