<?xml version="1.0" encoding="UTF-8"?> <svg xmlns="http://www.w3.org/2000/svg" width="280" height="374" viewBox="0 0 280 374" fill="none"><g opacity="0.9"><rect width="280" height="373.33" rx="16" fill="white"></rect><rect x="17.6" y="17.6" width="244.8" height="36.8" rx="6.4" fill="#FFF8E8"></rect><path d="M102.777 43.18C101.937 43.18 101.181 43.042 100.509 42.766C99.8495 42.478 99.3095 42.07 98.8895 41.542L100.329 40.3C100.689 40.708 101.091 41.002 101.535 41.182C101.979 41.362 102.447 41.452 102.939 41.452C103.143 41.452 103.323 41.428 103.479 41.38C103.647 41.332 103.791 41.26 103.911 41.164C104.031 41.068 104.121 40.96 104.181 40.84C104.253 40.708 104.289 40.564 104.289 40.408C104.289 40.12 104.181 39.892 103.965 39.724C103.845 39.64 103.653 39.55 103.389 39.454C103.137 39.358 102.807 39.262 102.399 39.166C101.751 38.998 101.211 38.806 100.779 38.59C100.347 38.362 100.011 38.11 99.7715 37.834C99.5675 37.606 99.4115 37.348 99.3035 37.06C99.2075 36.772 99.1595 36.46 99.1595 36.124C99.1595 35.704 99.2495 35.326 99.4295 34.99C99.6215 34.642 99.8795 34.342 100.203 34.09C100.527 33.838 100.905 33.646 101.337 33.514C101.769 33.382 102.219 33.316 102.687 33.316C103.167 33.316 103.629 33.376 104.073 33.496C104.529 33.616 104.949 33.79 105.333 34.018C105.729 34.234 106.065 34.498 106.341 34.81L105.117 36.16C104.889 35.944 104.637 35.752 104.361 35.584C104.097 35.416 103.827 35.284 103.551 35.188C103.275 35.08 103.017 35.026 102.777 35.026C102.549 35.026 102.345 35.05 102.165 35.098C101.985 35.134 101.835 35.194 101.715 35.278C101.595 35.362 101.499 35.47 101.427 35.602C101.367 35.722 101.337 35.866 101.337 36.034C101.349 36.178 101.385 36.316 101.445 36.448C101.517 36.568 101.613 36.67 101.733 36.754C101.865 36.838 102.063 36.934 102.327 37.042C102.591 37.15 102.933 37.252 103.353 37.348C103.941 37.504 104.433 37.678 104.829 37.87C105.225 38.062 105.537 38.284 105.765 38.536C105.993 38.752 106.155 39.004 106.251 39.292C106.347 39.58 106.395 39.898 106.395 40.246C106.395 40.81 106.233 41.314 105.909 41.758C105.597 42.202 105.165 42.55 104.613 42.802C104.073 43.054 103.461 43.18 102.777 43.18ZM111.64 43.18C110.956 43.18 110.362 43.03 109.858 42.73C109.354 42.418 108.97 41.98 108.706 41.416C108.442 40.84 108.31 40.156 108.31 39.364V33.514H110.524V38.896C110.524 39.4 110.602 39.832 110.758 40.192C110.914 40.54 111.142 40.81 111.442 41.002C111.742 41.194 112.102 41.29 112.522 41.29C112.834 41.29 113.116 41.242 113.368 41.146C113.632 41.038 113.86 40.894 114.052 40.714C114.244 40.522 114.394 40.3 114.502 40.048C114.61 39.784 114.664 39.502 114.664 39.202V33.514H116.878V43H114.718L114.682 41.02L115.078 40.804C114.934 41.26 114.688 41.668 114.34 42.028C114.004 42.376 113.602 42.658 113.134 42.874C112.666 43.078 112.168 43.18 111.64 43.18ZM119.437 43V33.514H121.615L121.651 35.422L121.291 35.566C121.399 35.254 121.561 34.966 121.777 34.702C121.993 34.426 122.251 34.192 122.551 34C122.851 33.796 123.169 33.64 123.505 33.532C123.841 33.412 124.183 33.352 124.531 33.352C125.047 33.352 125.503 33.436 125.899 33.604C126.307 33.76 126.643 34.012 126.907 34.36C127.183 34.708 127.387 35.152 127.519 35.692L127.177 35.62L127.321 35.332C127.453 35.044 127.639 34.786 127.879 34.558C128.119 34.318 128.389 34.108 128.689 33.928C128.989 33.736 129.301 33.592 129.625 33.496C129.961 33.4 130.291 33.352 130.615 33.352C131.335 33.352 131.935 33.496 132.415 33.784C132.895 34.072 133.255 34.51 133.495 35.098C133.735 35.686 133.855 36.412 133.855 37.276V43H131.623V37.42C131.623 36.94 131.557 36.544 131.425 36.232C131.305 35.92 131.113 35.692 130.849 35.548C130.597 35.392 130.279 35.314 129.895 35.314C129.595 35.314 129.307 35.368 129.031 35.476C128.767 35.572 128.539 35.716 128.347 35.908C128.155 36.088 128.005 36.298 127.897 36.538C127.789 36.778 127.735 37.042 127.735 37.33V43H125.503V37.402C125.503 36.946 125.437 36.568 125.305 36.268C125.173 35.956 124.981 35.722 124.729 35.566C124.477 35.398 124.171 35.314 123.811 35.314C123.511 35.314 123.229 35.368 122.965 35.476C122.701 35.572 122.473 35.71 122.281 35.89C122.089 36.07 121.939 36.28 121.831 36.52C121.723 36.76 121.669 37.024 121.669 37.312V43H119.437ZM136.277 43V33.514H138.455L138.491 35.422L138.131 35.566C138.239 35.254 138.401 34.966 138.617 34.702C138.833 34.426 139.091 34.192 139.391 34C139.691 33.796 140.009 33.64 140.345 33.532C140.681 33.412 141.023 33.352 141.371 33.352C141.887 33.352 142.343 33.436 142.739 33.604C143.147 33.76 143.483 34.012 143.747 34.36C144.023 34.708 144.227 35.152 144.359 35.692L144.017 35.62L144.161 35.332C144.293 35.044 144.479 34.786 144.719 34.558C144.959 34.318 145.229 34.108 145.529 33.928C145.829 33.736 146.141 33.592 146.465 33.496C146.801 33.4 147.131 33.352 147.455 33.352C148.175 33.352 148.775 33.496 149.255 33.784C149.735 34.072 150.095 34.51 150.335 35.098C150.575 35.686 150.695 36.412 150.695 37.276V43H148.463V37.42C148.463 36.94 148.397 36.544 148.265 36.232C148.145 35.92 147.953 35.692 147.689 35.548C147.437 35.392 147.119 35.314 146.735 35.314C146.435 35.314 146.147 35.368 145.871 35.476C145.607 35.572 145.379 35.716 145.187 35.908C144.995 36.088 144.845 36.298 144.737 36.538C144.629 36.778 144.575 37.042 144.575 37.33V43H142.343V37.402C142.343 36.946 142.277 36.568 142.145 36.268C142.013 35.956 141.821 35.722 141.569 35.566C141.317 35.398 141.011 35.314 140.651 35.314C140.351 35.314 140.069 35.368 139.805 35.476C139.541 35.572 139.313 35.71 139.121 35.89C138.929 36.07 138.779 36.28 138.671 36.52C138.563 36.76 138.509 37.024 138.509 37.312V43H136.277ZM156.734 43.18C155.954 43.18 155.246 42.964 154.61 42.532C153.974 42.1 153.464 41.512 153.08 40.768C152.696 40.024 152.504 39.178 152.504 38.23C152.504 37.282 152.696 36.436 153.08 35.692C153.464 34.948 153.986 34.366 154.646 33.946C155.306 33.526 156.05 33.316 156.878 33.316C157.358 33.316 157.796 33.388 158.192 33.532C158.588 33.664 158.936 33.856 159.236 34.108C159.536 34.36 159.782 34.648 159.974 34.972C160.178 35.296 160.316 35.644 160.388 36.016L159.902 35.89V33.514H162.134V43H159.884V40.732L160.406 40.642C160.322 40.966 160.166 41.284 159.938 41.596C159.722 41.896 159.446 42.166 159.11 42.406C158.786 42.634 158.42 42.82 158.012 42.964C157.616 43.108 157.19 43.18 156.734 43.18ZM157.346 41.218C157.862 41.218 158.318 41.092 158.714 40.84C159.11 40.588 159.416 40.24 159.632 39.796C159.86 39.34 159.974 38.818 159.974 38.23C159.974 37.654 159.86 37.144 159.632 36.7C159.416 36.256 159.11 35.908 158.714 35.656C158.318 35.404 157.862 35.278 157.346 35.278C156.83 35.278 156.374 35.404 155.978 35.656C155.594 35.908 155.294 36.256 155.078 36.7C154.862 37.144 154.754 37.654 154.754 38.23C154.754 38.818 154.862 39.34 155.078 39.796C155.294 40.24 155.594 40.588 155.978 40.84C156.374 41.092 156.83 41.218 157.346 41.218ZM164.701 43V33.514H166.879L166.915 36.538L166.609 35.854C166.741 35.374 166.969 34.942 167.293 34.558C167.617 34.174 167.989 33.874 168.409 33.658C168.841 33.43 169.291 33.316 169.759 33.316C169.963 33.316 170.155 33.334 170.335 33.37C170.527 33.406 170.683 33.448 170.803 33.496L170.209 35.926C170.077 35.854 169.915 35.794 169.723 35.746C169.531 35.698 169.339 35.674 169.147 35.674C168.847 35.674 168.559 35.734 168.283 35.854C168.019 35.962 167.785 36.118 167.581 36.322C167.377 36.526 167.215 36.766 167.095 37.042C166.987 37.306 166.933 37.606 166.933 37.942V43H164.701ZM173.717 47.14L175.733 42.478L175.751 43.954L171.071 33.514H173.627L176.237 39.706C176.321 39.862 176.405 40.072 176.489 40.336C176.573 40.588 176.645 40.84 176.705 41.092L176.255 41.236C176.339 41.008 176.429 40.768 176.525 40.516C176.621 40.252 176.711 39.982 176.795 39.706L179.027 33.514H181.601L177.641 43L176.021 47.14H173.717Z" fill="#FAC05A"></path><rect x="17.6" y="17.6" width="244.8" height="36.8" rx="6.4" stroke="#FCEDC5" stroke-width="3.2"></rect><rect x="17.6" y="73.6" width="244.8" height="146.13" rx="6.4" fill="#F0FAF5"></rect><g style="mix-blend-mode:multiply"><path d="M122.94 153.845C122.1 153.845 121.344 153.707 120.672 153.431C120.012 153.143 119.472 152.735 119.052 152.207L120.492 150.965C120.852 151.373 121.254 151.667 121.698 151.847C122.142 152.027 122.61 152.117 123.102 152.117C123.306 152.117 123.486 152.093 123.642 152.045C123.81 151.997 123.954 151.925 124.074 151.829C124.194 151.733 124.284 151.625 124.344 151.505C124.416 151.373 124.452 151.229 124.452 151.073C124.452 150.785 124.344 150.557 124.128 150.389C124.008 150.305 123.816 150.215 123.552 150.119C123.3 150.023 122.97 149.927 122.562 149.831C121.914 149.663 121.374 149.471 120.942 149.255C120.51 149.027 120.174 148.775 119.934 148.499C119.73 148.271 119.574 148.013 119.466 147.725C119.37 147.437 119.322 147.125 119.322 146.789C119.322 146.369 119.412 145.991 119.592 145.655C119.784 145.307 120.042 145.007 120.366 144.755C120.69 144.503 121.068 144.311 121.5 144.179C121.932 144.047 122.382 143.981 122.85 143.981C123.33 143.981 123.792 144.041 124.236 144.161C124.692 144.281 125.112 144.455 125.496 144.683C125.892 144.899 126.228 145.163 126.504 145.475L125.28 146.825C125.052 146.609 124.8 146.417 124.524 146.249C124.26 146.081 123.99 145.949 123.714 145.853C123.438 145.745 123.18 145.691 122.94 145.691C122.712 145.691 122.508 145.715 122.328 145.763C122.148 145.799 121.998 145.859 121.878 145.943C121.758 146.027 121.662 146.135 121.59 146.267C121.53 146.387 121.5 146.531 121.5 146.699C121.512 146.843 121.548 146.981 121.608 147.113C121.68 147.233 121.776 147.335 121.896 147.419C122.028 147.503 122.226 147.599 122.49 147.707C122.754 147.815 123.096 147.917 123.516 148.013C124.104 148.169 124.596 148.343 124.992 148.535C125.388 148.727 125.7 148.949 125.928 149.201C126.156 149.417 126.318 149.669 126.414 149.957C126.51 150.245 126.558 150.563 126.558 150.911C126.558 151.475 126.396 151.979 126.072 152.423C125.76 152.867 125.328 153.215 124.776 153.467C124.236 153.719 123.624 153.845 122.94 153.845ZM130.578 150.767L130.146 148.697L134.646 144.179H137.598L130.578 150.767ZM128.508 153.665V140.345H130.722V153.665H128.508ZM134.916 153.665L131.424 149.435L132.99 148.103L137.652 153.665H134.916ZM139.36 153.665V144.179H141.574V153.665H139.36ZM140.44 142.163C139.996 142.163 139.648 142.055 139.396 141.839C139.156 141.611 139.036 141.293 139.036 140.885C139.036 140.501 139.162 140.189 139.414 139.949C139.666 139.709 140.008 139.589 140.44 139.589C140.896 139.589 141.244 139.703 141.484 139.931C141.736 140.147 141.862 140.465 141.862 140.885C141.862 141.257 141.736 141.563 141.484 141.803C141.232 142.043 140.884 142.163 140.44 142.163ZM144.399 153.665V140.345H146.631V153.665H144.399ZM149.251 153.665V140.345H151.483V153.665H149.251ZM157.252 153.845C156.412 153.845 155.656 153.707 154.984 153.431C154.324 153.143 153.784 152.735 153.364 152.207L154.804 150.965C155.164 151.373 155.566 151.667 156.01 151.847C156.454 152.027 156.922 152.117 157.414 152.117C157.618 152.117 157.798 152.093 157.954 152.045C158.122 151.997 158.266 151.925 158.386 151.829C158.506 151.733 158.596 151.625 158.656 151.505C158.728 151.373 158.764 151.229 158.764 151.073C158.764 150.785 158.656 150.557 158.44 150.389C158.32 150.305 158.128 150.215 157.864 150.119C157.612 150.023 157.282 149.927 156.874 149.831C156.226 149.663 155.686 149.471 155.254 149.255C154.822 149.027 154.486 148.775 154.246 148.499C154.042 148.271 153.886 148.013 153.778 147.725C153.682 147.437 153.634 147.125 153.634 146.789C153.634 146.369 153.724 145.991 153.904 145.655C154.096 145.307 154.354 145.007 154.678 144.755C155.002 144.503 155.38 144.311 155.812 144.179C156.244 144.047 156.694 143.981 157.162 143.981C157.642 143.981 158.104 144.041 158.548 144.161C159.004 144.281 159.424 144.455 159.808 144.683C160.204 144.899 160.54 145.163 160.816 145.475L159.592 146.825C159.364 146.609 159.112 146.417 158.836 146.249C158.572 146.081 158.302 145.949 158.026 145.853C157.75 145.745 157.492 145.691 157.252 145.691C157.024 145.691 156.82 145.715 156.64 145.763C156.46 145.799 156.31 145.859 156.19 145.943C156.07 146.027 155.974 146.135 155.902 146.267C155.842 146.387 155.812 146.531 155.812 146.699C155.824 146.843 155.86 146.981 155.92 147.113C155.992 147.233 156.088 147.335 156.208 147.419C156.34 147.503 156.538 147.599 156.802 147.707C157.066 147.815 157.408 147.917 157.828 148.013C158.416 148.169 158.908 148.343 159.304 148.535C159.7 148.727 160.012 148.949 160.24 149.201C160.468 149.417 160.63 149.669 160.726 149.957C160.822 150.245 160.87 150.563 160.87 150.911C160.87 151.475 160.708 151.979 160.384 152.423C160.072 152.867 159.64 153.215 159.088 153.467C158.548 153.719 157.936 153.845 157.252 153.845Z" fill="#4AB690"></path></g><rect x="17.6" y="73.6" width="244.8" height="146.13" rx="6.4" stroke="#98DEBD" stroke-width="3.2"></rect><rect x="17.6" y="238.93" width="244.8" height="52.8" rx="6.4" fill="#FDEDF5"></rect><g style="mix-blend-mode:multiply"><path d="M96.9451 272.51C95.9491 272.51 95.0671 272.3 94.2991 271.88C93.5431 271.46 92.9491 270.89 92.5171 270.17C92.0971 269.438 91.8871 268.604 91.8871 267.668C91.8871 266.924 92.0071 266.246 92.2471 265.634C92.4871 265.022 92.8171 264.494 93.2371 264.05C93.6691 263.594 94.1791 263.246 94.7671 263.006C95.3671 262.754 96.0211 262.628 96.7291 262.628C97.3531 262.628 97.9351 262.748 98.4751 262.988C99.0151 263.228 99.4831 263.558 99.8791 263.978C100.275 264.386 100.575 264.878 100.779 265.454C100.995 266.018 101.097 266.636 101.085 267.308L101.067 268.082H93.3811L92.9671 266.57H99.2131L98.9251 266.876V266.48C98.8891 266.108 98.7691 265.784 98.5651 265.508C98.3611 265.22 98.0971 264.998 97.7731 264.842C97.4611 264.674 97.1131 264.59 96.7291 264.59C96.1411 264.59 95.6431 264.704 95.2351 264.932C94.8391 265.16 94.5391 265.49 94.3351 265.922C94.1311 266.342 94.0291 266.87 94.0291 267.506C94.0291 268.118 94.1551 268.652 94.4071 269.108C94.6711 269.564 95.0371 269.918 95.5051 270.17C95.9851 270.41 96.5431 270.53 97.1791 270.53C97.6231 270.53 98.0311 270.458 98.4031 270.314C98.7751 270.17 99.1771 269.912 99.6091 269.54L100.707 271.07C100.383 271.37 100.011 271.628 99.5911 271.844C99.1831 272.048 98.7511 272.21 98.2951 272.33C97.8391 272.45 97.3891 272.51 96.9451 272.51ZM109.131 272.33L106.431 268.676L105.927 267.992L102.021 262.844H104.757L107.385 266.408L107.943 267.164L111.813 272.33H109.131ZM102.003 272.33L105.765 267.29L107.025 268.802L104.613 272.33H102.003ZM107.943 267.902L106.737 266.408L108.915 262.844H111.525L107.943 267.902ZM113.4 276.29V262.844H115.578L115.614 265.004L115.236 264.842C115.308 264.47 115.512 264.122 115.848 263.798C116.184 263.462 116.592 263.192 117.072 262.988C117.564 262.784 118.074 262.682 118.602 262.682C119.442 262.682 120.186 262.892 120.834 263.312C121.494 263.732 122.01 264.308 122.382 265.04C122.766 265.772 122.958 266.618 122.958 267.578C122.958 268.526 122.766 269.372 122.382 270.116C122.01 270.848 121.494 271.43 120.834 271.862C120.186 272.282 119.454 272.492 118.638 272.492C118.086 272.492 117.552 272.384 117.036 272.168C116.532 271.952 116.1 271.67 115.74 271.322C115.392 270.974 115.176 270.608 115.092 270.224L115.632 269.972V276.29H113.4ZM118.188 270.53C118.692 270.53 119.142 270.404 119.538 270.152C119.934 269.9 120.24 269.552 120.456 269.108C120.684 268.664 120.798 268.154 120.798 267.578C120.798 267.002 120.69 266.498 120.474 266.066C120.258 265.622 119.952 265.274 119.556 265.022C119.16 264.77 118.704 264.644 118.188 264.644C117.66 264.644 117.198 264.77 116.802 265.022C116.418 265.262 116.112 265.604 115.884 266.048C115.656 266.492 115.542 267.002 115.542 267.578C115.542 268.154 115.656 268.664 115.884 269.108C116.112 269.552 116.418 269.9 116.802 270.152C117.198 270.404 117.66 270.53 118.188 270.53ZM129.377 272.51C128.381 272.51 127.499 272.3 126.731 271.88C125.975 271.46 125.381 270.89 124.949 270.17C124.529 269.438 124.319 268.604 124.319 267.668C124.319 266.924 124.439 266.246 124.679 265.634C124.919 265.022 125.249 264.494 125.669 264.05C126.101 263.594 126.611 263.246 127.199 263.006C127.799 262.754 128.453 262.628 129.161 262.628C129.785 262.628 130.367 262.748 130.907 262.988C131.447 263.228 131.915 263.558 132.311 263.978C132.707 264.386 133.007 264.878 133.211 265.454C133.427 266.018 133.529 266.636 133.517 267.308L133.499 268.082H125.813L125.399 266.57H131.645L131.357 266.876V266.48C131.321 266.108 131.201 265.784 130.997 265.508C130.793 265.22 130.529 264.998 130.205 264.842C129.893 264.674 129.545 264.59 129.161 264.59C128.573 264.59 128.075 264.704 127.667 264.932C127.271 265.16 126.971 265.49 126.767 265.922C126.563 266.342 126.461 266.87 126.461 267.506C126.461 268.118 126.587 268.652 126.839 269.108C127.103 269.564 127.469 269.918 127.937 270.17C128.417 270.41 128.975 270.53 129.611 270.53C130.055 270.53 130.463 270.458 130.835 270.314C131.207 270.17 131.609 269.912 132.041 269.54L133.139 271.07C132.815 271.37 132.443 271.628 132.023 271.844C131.615 272.048 131.183 272.21 130.727 272.33C130.271 272.45 129.821 272.51 129.377 272.51ZM135.478 272.33V262.844H137.656L137.692 265.868L137.386 265.184C137.518 264.704 137.746 264.272 138.07 263.888C138.394 263.504 138.766 263.204 139.186 262.988C139.618 262.76 140.068 262.646 140.536 262.646C140.74 262.646 140.932 262.664 141.112 262.7C141.304 262.736 141.46 262.778 141.58 262.826L140.986 265.256C140.854 265.184 140.692 265.124 140.5 265.076C140.308 265.028 140.116 265.004 139.924 265.004C139.624 265.004 139.336 265.064 139.06 265.184C138.796 265.292 138.562 265.448 138.358 265.652C138.154 265.856 137.992 266.096 137.872 266.372C137.764 266.636 137.71 266.936 137.71 267.272V272.33H135.478ZM143.306 272.33V262.844H145.52V272.33H143.306ZM144.386 260.828C143.942 260.828 143.594 260.72 143.342 260.504C143.102 260.276 142.982 259.958 142.982 259.55C142.982 259.166 143.108 258.854 143.36 258.614C143.612 258.374 143.954 258.254 144.386 258.254C144.842 258.254 145.19 258.368 145.43 258.596C145.682 258.812 145.808 259.13 145.808 259.55C145.808 259.922 145.682 260.228 145.43 260.468C145.178 260.708 144.83 260.828 144.386 260.828ZM152.773 272.51C151.777 272.51 150.895 272.3 150.127 271.88C149.371 271.46 148.777 270.89 148.345 270.17C147.925 269.438 147.715 268.604 147.715 267.668C147.715 266.924 147.835 266.246 148.075 265.634C148.315 265.022 148.645 264.494 149.065 264.05C149.497 263.594 150.007 263.246 150.595 263.006C151.195 262.754 151.849 262.628 152.557 262.628C153.181 262.628 153.763 262.748 154.303 262.988C154.843 263.228 155.311 263.558 155.707 263.978C156.103 264.386 156.403 264.878 156.607 265.454C156.823 266.018 156.925 266.636 156.913 267.308L156.895 268.082H149.209L148.795 266.57H155.041L154.753 266.876V266.48C154.717 266.108 154.597 265.784 154.393 265.508C154.189 265.22 153.925 264.998 153.601 264.842C153.289 264.674 152.941 264.59 152.557 264.59C151.969 264.59 151.471 264.704 151.063 264.932C150.667 265.16 150.367 265.49 150.163 265.922C149.959 266.342 149.857 266.87 149.857 267.506C149.857 268.118 149.983 268.652 150.235 269.108C150.499 269.564 150.865 269.918 151.333 270.17C151.813 270.41 152.371 270.53 153.007 270.53C153.451 270.53 153.859 270.458 154.231 270.314C154.603 270.17 155.005 269.912 155.437 269.54L156.535 271.07C156.211 271.37 155.839 271.628 155.419 271.844C155.011 272.048 154.579 272.21 154.123 272.33C153.667 272.45 153.217 272.51 152.773 272.51ZM158.874 272.33V262.844H161.034L161.07 264.788L160.656 265.004C160.776 264.572 161.01 264.182 161.358 263.834C161.706 263.474 162.12 263.186 162.6 262.97C163.08 262.754 163.572 262.646 164.076 262.646C164.796 262.646 165.396 262.79 165.876 263.078C166.368 263.366 166.734 263.798 166.974 264.374C167.226 264.95 167.352 265.67 167.352 266.534V272.33H165.138V266.696C165.138 266.216 165.072 265.82 164.94 265.508C164.808 265.184 164.604 264.95 164.328 264.806C164.052 264.65 163.716 264.578 163.32 264.59C162.996 264.59 162.696 264.644 162.42 264.752C162.156 264.848 161.922 264.992 161.718 265.184C161.526 265.364 161.37 265.574 161.25 265.814C161.142 266.054 161.088 266.318 161.088 266.606V272.33H159.99C159.774 272.33 159.57 272.33 159.378 272.33C159.198 272.33 159.03 272.33 158.874 272.33ZM173.911 272.51C173.023 272.51 172.225 272.294 171.517 271.862C170.809 271.43 170.251 270.842 169.843 270.098C169.435 269.354 169.231 268.514 169.231 267.578C169.231 266.642 169.435 265.802 169.843 265.058C170.251 264.314 170.809 263.726 171.517 263.294C172.225 262.862 173.023 262.646 173.911 262.646C174.763 262.646 175.537 262.808 176.233 263.132C176.929 263.456 177.469 263.906 177.853 264.482L176.629 265.958C176.449 265.706 176.221 265.478 175.945 265.274C175.669 265.07 175.375 264.908 175.063 264.788C174.751 264.668 174.439 264.608 174.127 264.608C173.599 264.608 173.125 264.74 172.705 265.004C172.297 265.256 171.973 265.61 171.733 266.066C171.493 266.51 171.373 267.014 171.373 267.578C171.373 268.142 171.493 268.646 171.733 269.09C171.985 269.534 172.321 269.888 172.741 270.152C173.161 270.416 173.629 270.548 174.145 270.548C174.457 270.548 174.757 270.5 175.045 270.404C175.345 270.296 175.627 270.146 175.891 269.954C176.155 269.762 176.401 269.522 176.629 269.234L177.853 270.728C177.445 271.256 176.881 271.688 176.161 272.024C175.453 272.348 174.703 272.51 173.911 272.51ZM183.992 272.51C182.996 272.51 182.114 272.3 181.346 271.88C180.59 271.46 179.996 270.89 179.564 270.17C179.144 269.438 178.934 268.604 178.934 267.668C178.934 266.924 179.054 266.246 179.294 265.634C179.534 265.022 179.864 264.494 180.284 264.05C180.716 263.594 181.226 263.246 181.814 263.006C182.414 262.754 183.068 262.628 183.776 262.628C184.4 262.628 184.982 262.748 185.522 262.988C186.062 263.228 186.53 263.558 186.926 263.978C187.322 264.386 187.622 264.878 187.826 265.454C188.042 266.018 188.144 266.636 188.132 267.308L188.114 268.082H180.428L180.014 266.57H186.26L185.972 266.876V266.48C185.936 266.108 185.816 265.784 185.612 265.508C185.408 265.22 185.144 264.998 184.82 264.842C184.508 264.674 184.16 264.59 183.776 264.59C183.188 264.59 182.69 264.704 182.282 264.932C181.886 265.16 181.586 265.49 181.382 265.922C181.178 266.342 181.076 266.87 181.076 267.506C181.076 268.118 181.202 268.652 181.454 269.108C181.718 269.564 182.084 269.918 182.552 270.17C183.032 270.41 183.59 270.53 184.226 270.53C184.67 270.53 185.078 270.458 185.45 270.314C185.822 270.17 186.224 269.912 186.656 269.54L187.754 271.07C187.43 271.37 187.058 271.628 186.638 271.844C186.23 272.048 185.798 272.21 185.342 272.33C184.886 272.45 184.436 272.51 183.992 272.51Z" fill="#F07EB3"></path></g><rect x="17.6" y="238.93" width="244.8" height="52.8" rx="6.4" stroke="#FAD8E6" stroke-width="3.2"></rect><rect x="17.6" y="310.93" width="244.8" height="44.8" rx="6.4" fill="#E8F2FF"></rect><g style="mix-blend-mode:multiply"><path d="M101.138 340.51C100.142 340.51 99.2595 340.3 98.4915 339.88C97.7355 339.46 97.1415 338.89 96.7095 338.17C96.2895 337.438 96.0795 336.604 96.0795 335.668C96.0795 334.924 96.1995 334.246 96.4395 333.634C96.6795 333.022 97.0095 332.494 97.4295 332.05C97.8615 331.594 98.3715 331.246 98.9595 331.006C99.5595 330.754 100.214 330.628 100.922 330.628C101.546 330.628 102.128 330.748 102.668 330.988C103.208 331.228 103.676 331.558 104.072 331.978C104.468 332.386 104.768 332.878 104.972 333.454C105.188 334.018 105.29 334.636 105.278 335.308L105.26 336.082H97.5735L97.1595 334.57H103.406L103.118 334.876V334.48C103.082 334.108 102.962 333.784 102.758 333.508C102.554 333.22 102.29 332.998 101.966 332.842C101.654 332.674 101.306 332.59 100.922 332.59C100.334 332.59 99.8355 332.704 99.4275 332.932C99.0315 333.16 98.7315 333.49 98.5275 333.922C98.3235 334.342 98.2215 334.87 98.2215 335.506C98.2215 336.118 98.3475 336.652 98.5995 337.108C98.8635 337.564 99.2295 337.918 99.6975 338.17C100.178 338.41 100.736 338.53 101.372 338.53C101.816 338.53 102.224 338.458 102.596 338.314C102.968 338.17 103.37 337.912 103.802 337.54L104.9 339.07C104.576 339.37 104.204 339.628 103.784 339.844C103.376 340.048 102.944 340.21 102.488 340.33C102.032 340.45 101.582 340.51 101.138 340.51ZM111.054 340.51C110.214 340.51 109.458 340.3 108.786 339.88C108.126 339.448 107.598 338.866 107.202 338.134C106.818 337.39 106.626 336.538 106.626 335.578C106.626 334.63 106.818 333.784 107.202 333.04C107.586 332.296 108.108 331.714 108.768 331.294C109.44 330.862 110.196 330.646 111.036 330.646C111.492 330.646 111.93 330.718 112.35 330.862C112.782 331.006 113.166 331.204 113.502 331.456C113.838 331.696 114.102 331.966 114.294 332.266C114.498 332.566 114.612 332.878 114.636 333.202L114.042 333.274V327.01H116.256V340.33H114.114L114.06 338.098L114.492 338.134C114.48 338.434 114.372 338.722 114.168 338.998C113.976 339.274 113.724 339.526 113.412 339.754C113.1 339.982 112.734 340.168 112.314 340.312C111.906 340.444 111.486 340.51 111.054 340.51ZM111.486 338.638C112.002 338.638 112.458 338.506 112.854 338.242C113.25 337.978 113.556 337.618 113.772 337.162C114 336.706 114.114 336.178 114.114 335.578C114.114 334.99 114 334.468 113.772 334.012C113.556 333.544 113.25 333.184 112.854 332.932C112.458 332.668 112.002 332.536 111.486 332.536C110.97 332.536 110.514 332.668 110.118 332.932C109.722 333.184 109.41 333.544 109.182 334.012C108.966 334.468 108.858 334.99 108.858 335.578C108.858 336.178 108.966 336.706 109.182 337.162C109.41 337.618 109.722 337.978 110.118 338.242C110.514 338.506 110.97 338.638 111.486 338.638ZM122.345 340.51C121.661 340.51 121.067 340.36 120.563 340.06C120.059 339.748 119.675 339.31 119.411 338.746C119.147 338.17 119.015 337.486 119.015 336.694V330.844H121.229V336.226C121.229 336.73 121.307 337.162 121.463 337.522C121.619 337.87 121.847 338.14 122.147 338.332C122.447 338.524 122.807 338.62 123.227 338.62C123.539 338.62 123.821 338.572 124.073 338.476C124.337 338.368 124.565 338.224 124.757 338.044C124.949 337.852 125.099 337.63 125.207 337.378C125.315 337.114 125.369 336.832 125.369 336.532V330.844H127.583V340.33H125.423L125.387 338.35L125.783 338.134C125.639 338.59 125.393 338.998 125.045 339.358C124.709 339.706 124.307 339.988 123.839 340.204C123.371 340.408 122.873 340.51 122.345 340.51ZM134.246 340.51C133.358 340.51 132.56 340.294 131.852 339.862C131.144 339.43 130.586 338.842 130.178 338.098C129.77 337.354 129.566 336.514 129.566 335.578C129.566 334.642 129.77 333.802 130.178 333.058C130.586 332.314 131.144 331.726 131.852 331.294C132.56 330.862 133.358 330.646 134.246 330.646C135.098 330.646 135.872 330.808 136.568 331.132C137.264 331.456 137.804 331.906 138.188 332.482L136.964 333.958C136.784 333.706 136.556 333.478 136.28 333.274C136.004 333.07 135.71 332.908 135.398 332.788C135.086 332.668 134.774 332.608 134.462 332.608C133.934 332.608 133.46 332.74 133.04 333.004C132.632 333.256 132.308 333.61 132.068 334.066C131.828 334.51 131.708 335.014 131.708 335.578C131.708 336.142 131.828 336.646 132.068 337.09C132.32 337.534 132.656 337.888 133.076 338.152C133.496 338.416 133.964 338.548 134.48 338.548C134.792 338.548 135.092 338.5 135.38 338.404C135.68 338.296 135.962 338.146 136.226 337.954C136.49 337.762 136.736 337.522 136.964 337.234L138.188 338.728C137.78 339.256 137.216 339.688 136.496 340.024C135.788 340.348 135.038 340.51 134.246 340.51ZM143.463 340.51C142.683 340.51 141.975 340.294 141.339 339.862C140.703 339.43 140.193 338.842 139.809 338.098C139.425 337.354 139.233 336.508 139.233 335.56C139.233 334.612 139.425 333.766 139.809 333.022C140.193 332.278 140.715 331.696 141.375 331.276C142.035 330.856 142.779 330.646 143.607 330.646C144.087 330.646 144.525 330.718 144.921 330.862C145.317 330.994 145.665 331.186 145.965 331.438C146.265 331.69 146.511 331.978 146.703 332.302C146.907 332.626 147.045 332.974 147.117 333.346L146.631 333.22V330.844H148.863V340.33H146.613V338.062L147.135 337.972C147.051 338.296 146.895 338.614 146.667 338.926C146.451 339.226 146.175 339.496 145.839 339.736C145.515 339.964 145.149 340.15 144.741 340.294C144.345 340.438 143.919 340.51 143.463 340.51ZM144.075 338.548C144.591 338.548 145.047 338.422 145.443 338.17C145.839 337.918 146.145 337.57 146.361 337.126C146.589 336.67 146.703 336.148 146.703 335.56C146.703 334.984 146.589 334.474 146.361 334.03C146.145 333.586 145.839 333.238 145.443 332.986C145.047 332.734 144.591 332.608 144.075 332.608C143.559 332.608 143.103 332.734 142.707 332.986C142.323 333.238 142.023 333.586 141.807 334.03C141.591 334.474 141.483 334.984 141.483 335.56C141.483 336.148 141.591 336.67 141.807 337.126C142.023 337.57 142.323 337.918 142.707 338.17C143.103 338.422 143.559 338.548 144.075 338.548ZM152.456 340.33V328.432H154.67V340.33H152.456ZM150.584 332.896V330.844H156.74V332.896H150.584ZM158.678 340.33V330.844H160.892V340.33H158.678ZM159.758 328.828C159.314 328.828 158.966 328.72 158.714 328.504C158.474 328.276 158.354 327.958 158.354 327.55C158.354 327.166 158.48 326.854 158.732 326.614C158.984 326.374 159.326 326.254 159.758 326.254C160.214 326.254 160.562 326.368 160.802 326.596C161.054 326.812 161.18 327.13 161.18 327.55C161.18 327.922 161.054 328.228 160.802 328.468C160.55 328.708 160.202 328.828 159.758 328.828ZM168.037 340.51C167.089 340.51 166.243 340.3 165.499 339.88C164.755 339.448 164.167 338.86 163.735 338.116C163.303 337.372 163.087 336.526 163.087 335.578C163.087 334.63 163.303 333.784 163.735 333.04C164.167 332.296 164.755 331.714 165.499 331.294C166.243 330.862 167.089 330.646 168.037 330.646C168.973 330.646 169.813 330.862 170.557 331.294C171.301 331.714 171.883 332.296 172.303 333.04C172.735 333.784 172.951 334.63 172.951 335.578C172.951 336.526 172.735 337.372 172.303 338.116C171.883 338.86 171.301 339.448 170.557 339.88C169.813 340.3 168.973 340.51 168.037 340.51ZM168.037 338.548C168.553 338.548 169.009 338.416 169.405 338.152C169.813 337.888 170.131 337.534 170.359 337.09C170.599 336.646 170.713 336.142 170.701 335.578C170.713 335.002 170.599 334.492 170.359 334.048C170.131 333.604 169.813 333.256 169.405 333.004C169.009 332.74 168.553 332.608 168.037 332.608C167.521 332.608 167.053 332.74 166.633 333.004C166.225 333.256 165.907 333.61 165.679 334.066C165.451 334.51 165.337 335.014 165.337 335.578C165.337 336.142 165.451 336.646 165.679 337.09C165.907 337.534 166.225 337.888 166.633 338.152C167.053 338.416 167.521 338.548 168.037 338.548ZM174.932 340.33V330.844H177.092L177.128 332.788L176.714 333.004C176.834 332.572 177.068 332.182 177.416 331.834C177.764 331.474 178.178 331.186 178.658 330.97C179.138 330.754 179.63 330.646 180.134 330.646C180.854 330.646 181.454 330.79 181.934 331.078C182.426 331.366 182.792 331.798 183.032 332.374C183.284 332.95 183.41 333.67 183.41 334.534V340.33H181.196V334.696C181.196 334.216 181.13 333.82 180.998 333.508C180.866 333.184 180.662 332.95 180.386 332.806C180.11 332.65 179.774 332.578 179.378 332.59C179.054 332.59 178.754 332.644 178.478 332.752C178.214 332.848 177.98 332.992 177.776 333.184C177.584 333.364 177.428 333.574 177.308 333.814C177.2 334.054 177.146 334.318 177.146 334.606V340.33H176.048C175.832 340.33 175.628 340.33 175.436 340.33C175.256 340.33 175.088 340.33 174.932 340.33Z" fill="#60A4EF"></path></g><rect x="17.6" y="310.93" width="244.8" height="44.8" rx="6.4" stroke="#CBE2F8" stroke-width="3.2"></rect></g></svg> 