<?xml version="1.0" encoding="UTF-8"?> <svg xmlns="http://www.w3.org/2000/svg" width="280" height="374" viewBox="0 0 280 374" fill="none"><rect x="35" width="210" height="373.33" rx="28" fill="white"></rect><g clip-path="url(#clip0_2925_344943)"><rect x="51" y="16" width="178" height="341.33" rx="18" fill="#E8F2FF"></rect><g filter="url(#filter0_dd_2925_344943)"><path d="M68 238.29C68 234.264 71.2638 231 75.29 231H168.253C171.057 231 173.613 232.609 174.826 235.138L184.369 255.037C185.104 256.571 186.353 257.799 187.899 258.509L207.753 267.629C210.341 268.817 212 271.405 212 274.253V409.71C212 413.736 208.736 417 204.71 417H75.29C71.2638 417 68 413.736 68 409.71V238.29Z" fill="white"></path><path opacity="0.6" d="M178.521 263.523L171.681 232.283L166.53 264.336C165.388 271.439 171.871 277.4 178.854 275.669L208.401 268.343L178.521 263.523Z" fill="#D3D9DE"></path><path d="M171.68 231L208.76 268.344H177.414C174.247 268.344 171.68 265.776 171.68 262.609V231Z" fill="white"></path></g></g><path d="M85 16H195V20.583C195 29.0976 188.098 36 179.583 36H100.417C91.9024 36 85 29.0976 85 20.583V16Z" fill="white"></path><rect x="101.922" y="19.9814" width="42.3077" height="5.71429" rx="2.85714" fill="#F8F9FB"></rect><rect width="5.64102" height="5.71429" rx="2.82051" transform="matrix(-1 0 0 1 159.744 19.9814)" fill="#F8F9FB"></rect><rect width="8.46154" height="8.57143" rx="4.23077" transform="matrix(-1 0 0 1 173.846 18.5537)" fill="#F8F9FB"></rect><path d="M177.128 121.497V136.183C177.128 136.962 176.828 137.709 176.293 138.259C175.759 138.81 175.033 139.12 174.277 139.12C168.322 139.136 162.451 137.662 157.171 134.824V147.931C157.171 153.239 155.702 158.438 152.935 162.916C150.169 167.394 146.219 170.967 141.551 173.214C136.883 175.461 131.689 176.289 126.579 175.602C121.47 174.915 116.657 172.741 112.705 169.335C108.753 165.928 105.826 161.431 104.268 156.371C102.71 151.311 102.585 145.899 103.909 140.768C105.232 135.638 107.948 131.003 111.739 127.408C115.53 123.812 120.238 121.405 125.31 120.469C125.717 120.394 126.135 120.411 126.535 120.518C126.935 120.626 127.307 120.822 127.626 121.093C127.955 121.367 128.219 121.714 128.398 122.108C128.577 122.503 128.667 122.934 128.66 123.369V138.642C128.661 139.199 128.508 139.743 128.217 140.212C127.926 140.681 127.511 141.053 127.02 141.286C125.87 141.85 124.887 142.722 124.175 143.811C123.463 144.9 123.047 146.165 122.97 147.476C122.894 148.786 123.16 150.094 123.741 151.262C124.322 152.431 125.197 153.418 126.274 154.12C127.351 154.822 128.59 155.214 129.864 155.254C131.138 155.295 132.399 154.983 133.516 154.351C134.633 153.719 135.566 152.79 136.216 151.661C136.866 150.532 137.21 149.244 137.213 147.931V100.937C137.213 100.158 137.513 99.4111 138.048 98.8603C138.583 98.3094 139.308 98 140.064 98H154.32C155.076 98 155.801 98.3094 156.336 98.8603C156.87 99.4111 157.171 100.158 157.171 100.937C157.171 105.611 158.973 110.093 162.181 113.398C165.389 116.703 169.74 118.56 174.277 118.56C175.033 118.56 175.759 118.869 176.293 119.42C176.828 119.971 177.128 120.718 177.128 121.497Z" fill="#585E65"></path><defs><filter id="filter0_dd_2925_344943" x="56" y="223" width="168" height="210" filterUnits="userSpaceOnUse" color-interpolation-filters="sRGB"><feFlood flood-opacity="0" result="BackgroundImageFix"></feFlood><feColorMatrix in="SourceAlpha" type="matrix" values="0 0 0 0 0 0 0 0 0 0 0 0 0 0 0 0 0 0 127 0" result="hardAlpha"></feColorMatrix><feOffset dy="2"></feOffset><feGaussianBlur stdDeviation="2"></feGaussianBlur><feColorMatrix type="matrix" values="0 0 0 0 0 0 0 0 0 0 0 0 0 0 0 0 0 0 0.06 0"></feColorMatrix><feBlend mode="normal" in2="BackgroundImageFix" result="effect1_dropShadow_2925_344943"></feBlend><feColorMatrix in="SourceAlpha" type="matrix" values="0 0 0 0 0 0 0 0 0 0 0 0 0 0 0 0 0 0 127 0" result="hardAlpha"></feColorMatrix><feOffset dy="4"></feOffset><feGaussianBlur stdDeviation="6"></feGaussianBlur><feColorMatrix type="matrix" values="0 0 0 0 0 0 0 0 0 0 0 0 0 0 0 0 0 0 0.1 0"></feColorMatrix><feBlend mode="normal" in2="effect1_dropShadow_2925_344943" result="effect2_dropShadow_2925_344943"></feBlend><feBlend mode="normal" in="SourceGraphic" in2="effect2_dropShadow_2925_344943" result="shape"></feBlend></filter><clipPath id="clip0_2925_344943"><rect width="178" height="341.33" fill="white" transform="translate(51 16)"></rect></clipPath></defs></svg> 