<?xml version="1.0" encoding="UTF-8"?> <svg xmlns="http://www.w3.org/2000/svg" width="40" height="40" viewBox="0 0 40 40" fill="none"><g clip-path="url(#clip0_10161_653336)"><path d="M20 0C16.0444 0 12.1776 1.17298 8.8886 3.37061C5.59962 5.56824 3.03617 8.69181 1.52242 12.3463C0.00866572 16.0009 -0.387401 20.0222 0.384303 23.9018C1.15601 27.7814 3.06082 31.3451 5.85787 34.1421C8.65492 36.9392 12.2186 38.844 16.0982 39.6157C19.9778 40.3874 23.9992 39.9913 27.6537 38.4776C31.3082 36.9638 34.4318 34.4004 36.6294 31.1114C38.827 27.8224 40 23.9556 40 20C39.9943 14.6974 37.8853 9.61368 34.1358 5.8642C30.3863 2.11471 25.3026 0.00573514 20 0V0ZM13.3333 13.3333C14.2174 13.3333 15.0652 13.6845 15.6904 14.3096C16.3155 14.9348 16.6667 15.7826 16.6667 16.6667C16.6667 18.3333 15.175 18.3333 13.3333 18.3333C11.4917 18.3333 10 18.3333 10 16.6667C10 15.7826 10.3512 14.9348 10.9763 14.3096C11.6014 13.6845 12.4493 13.3333 13.3333 13.3333V13.3333ZM29.4433 26.2433C26.7969 28.5042 23.4763 29.8252 20 30C16.5237 29.8252 13.2031 28.5042 10.5567 26.2433C10.2269 25.9489 10.0276 25.5356 10.0026 25.0943C9.99024 24.8758 10.021 24.6569 10.0932 24.4503C10.1654 24.2437 10.2776 24.0533 10.4233 23.89C10.5691 23.7267 10.7456 23.5938 10.9428 23.4987C11.1399 23.4036 11.3539 23.3483 11.5724 23.3359C12.0137 23.3109 12.4469 23.4623 12.7767 23.7567C14.8137 25.4702 17.344 26.4895 20 26.6667C22.6576 26.4894 25.1892 25.4688 27.2267 23.7533C27.3902 23.6078 27.5807 23.4959 27.7875 23.424C27.9942 23.3521 28.2131 23.3216 28.4316 23.3343C28.6502 23.347 28.8641 23.4026 29.0611 23.4979C29.2581 23.5933 29.4345 23.7265 29.58 23.89C29.7256 24.0535 29.8375 24.2441 29.9094 24.4508C29.9813 24.6576 30.0118 24.8764 29.9991 25.095C29.9864 25.3135 29.9308 25.5274 29.8354 25.7244C29.7401 25.9215 29.6068 26.0978 29.4433 26.2433V26.2433ZM26.6667 18.3333C24.825 18.3333 23.3333 18.3333 23.3333 16.6667C23.3333 15.7826 23.6845 14.9348 24.3097 14.3096C24.9348 13.6845 25.7826 13.3333 26.6667 13.3333C27.5507 13.3333 28.3986 13.6845 29.0237 14.3096C29.6488 14.9348 30 15.7826 30 16.6667C30 18.3333 28.5083 18.3333 26.6667 18.3333Z" fill="#F892BC"></path></g><defs><clipPath id="clip0_10161_653336"><rect width="40" height="40" fill="white"></rect></clipPath></defs></svg> 