<?xml version="1.0" encoding="UTF-8"?> <svg xmlns="http://www.w3.org/2000/svg" width="176" height="161" viewBox="0 0 176 161" fill="none"><mask id="mask0_252_55664" style="mask-type:alpha" maskUnits="userSpaceOnUse" x="0" y="0" width="176" height="161"><rect y="0.666504" width="176" height="160" fill="#F1F4F7"></rect></mask><g mask="url(#mask0_252_55664)"><path d="M170.421 76.3569C172.164 76.3569 173.416 78.0366 172.872 79.7163L158.277 122.304C157.95 123.334 156.97 124.038 155.826 124.038H96.0316C95.487 124.038 94.9969 123.876 94.5612 123.605C93.6899 123.009 93.1997 121.817 93.581 120.679L93.7988 120.083L108.176 78.0908C108.557 77.0613 109.483 76.3569 110.626 76.3569H170.421Z" fill="#2B2D2F"></path><ellipse cx="134.794" cy="100.719" rx="5.60828" ry="5.57895" fill="white"></ellipse><path d="M149.181 154.001C151.959 169.497 149.726 191.116 147.058 206.559C146.676 208.888 146.186 211.164 145.533 213.386C144.934 215.39 144.226 217.395 142.973 218.912C140.631 221.676 137.146 222.109 133.933 222.38C131.918 222.543 129.958 222.705 127.943 222.868C126.363 222.976 115.853 221.838 114.383 221.188C111.66 220.05 113.348 214.849 112.204 211.706C116.888 200.165 118.413 186.457 119.175 174.211C119.937 162.182 121.789 147.986 114.328 137.475C106.65 126.638 91.6738 124.037 79.1484 124.037V123.875H94.2877L94.6145 123.604C95.0502 123.875 95.5403 124.037 96.0849 124.037H129.195C146.567 127.397 148.147 148.203 149.181 154.001Z" fill="white"></path><path d="M79.1475 123.983C91.6728 123.983 106.594 126.638 114.327 137.42C121.788 147.932 119.991 162.128 119.174 174.157C118.357 186.348 116.832 200.11 112.203 211.651C111.822 212.572 111.441 213.439 111.06 214.306C109.862 216.907 108.337 219.616 105.668 220.971C100.005 223.788 92.2174 223.301 86.1181 222.488C83.014 222.055 79.6376 220.808 77.6771 218.262C75.6077 215.553 75.3899 211.543 75.3899 208.292C75.3899 201.953 76.0434 195.721 76.7513 189.436C77.1325 185.643 77.6226 181.634 78.8207 178.004C82.3605 177.462 85.628 176.107 87.5885 173.181C88.2964 172.152 88.7321 170.743 88.0241 169.768C86.8805 168.251 84.3754 169.28 83.0684 170.635C81.0535 172.748 79.7465 175.24 78.8207 177.949C76.3701 178.329 73.7561 178.383 71.36 178.274C56.8197 177.678 40.3189 175.674 30.2987 164.024C23.2736 155.843 20.3873 139.913 22.3478 128.155C23.9816 128.155 25.6153 128.047 27.1946 127.884C35.7989 127.017 45.6014 126.475 54.0968 123.712V123.549C54.5325 123.712 54.9681 123.82 55.4038 123.82H79.1475V123.983Z" fill="white"></path><path d="M93.1442 119.866L93.7977 120.083L93.5799 120.679C93.1987 121.816 93.6343 122.954 94.5601 123.604L94.2333 123.875H55.3504C54.9147 123.875 54.479 123.767 54.0978 123.604C53.1721 123.171 52.5186 122.195 52.5186 121.112C52.5186 120.028 52.6275 120.462 52.8453 120.245C53.0631 120.028 53.3354 119.866 53.7166 119.866H73.975C74.0839 120.083 74.1928 120.245 74.4107 120.354C74.8463 120.57 75.3364 120.354 75.6632 119.974C75.9899 119.595 75.7176 119.92 75.7721 119.866H93.1442Z" fill="white"></path><path d="M63.8446 28.675C62.7554 27.9164 61.3395 27.5913 60.087 28.079C59.1068 26.2367 58.6711 24.1778 58.78 22.1188C58.9978 19.1929 60.4682 16.4296 62.701 14.5873C64.0624 13.4495 65.6417 12.4742 67.3299 11.9323C71.5232 10.6319 75.4441 8.8439 79.9097 8.68135C83.5039 8.5188 87.1526 9.71083 90.3656 11.2821C91.6726 11.9323 93.0885 12.7451 93.4153 14.1539C93.6876 15.3459 93.0341 16.6463 91.9994 17.3507C90.9647 18.0551 89.7121 18.326 88.4596 18.4343C87.915 18.4343 87.4249 18.4343 86.8803 18.4343C85.9001 18.4343 84.9198 18.2718 83.9396 18.0009C84.4842 18.326 84.3208 19.2471 83.7762 19.6264C83.2316 20.0057 82.5237 19.9515 81.8702 19.8431C79.9097 19.5722 78.0037 19.0304 76.0976 18.4343C74.355 17.9467 72.6123 17.4049 71.033 16.5921C71.0875 19.4096 72.0133 22.0646 68.4191 24.2861L68.528 24.5029C68.3102 26.1284 67.9289 26.3993 67.7111 27.7539C67.6022 28.4583 67.7111 29.2168 67.8745 29.9212C68.0923 30.9507 68.3102 32.0885 69.0726 32.8471C69.9983 33.8224 71.4687 33.9849 72.8302 33.9308C75.9887 33.8766 79.1473 32.9013 82.2514 33.4973C82.687 33.5515 83.1227 33.6598 83.5584 33.6598C83.8851 33.6598 84.2119 33.4973 84.5386 33.3889C86.1724 32.7929 88.2962 32.4678 90.1478 32.5762C90.6379 32.5762 91.128 32.6845 91.6181 32.7387C91.7271 32.7387 91.836 32.7387 91.8904 32.8471C91.8904 32.8471 92.1083 32.7387 92.1083 32.8471C92.8162 36.2065 93.4153 39.8909 93.742 43.3045C93.9054 44.7674 93.5242 46.3387 92.0538 46.9889C91.0191 47.4766 89.821 47.585 88.7319 47.6933C88.4596 47.6933 88.1873 47.7475 87.915 47.7475C86.4991 47.8559 85.0832 47.8559 83.6673 47.8559C83.0683 47.8559 82.4148 47.8559 81.8157 47.8559C78.7116 47.7475 75.662 47.3682 72.6123 46.6638C71.3053 46.3387 69.9439 45.9053 69.0181 44.93C68.0923 43.9547 67.82 42.6001 67.5477 41.2997C66.7309 37.2359 65.8595 33.118 65.0427 29.0543L64.4981 29.1626C64.2803 29.0001 64.1169 28.8375 63.8991 28.675H63.8446Z" fill="white"></path><path d="M80.7286 115.965C80.7286 115.64 80.6197 115.315 80.4563 115.044C80.4563 116.019 80.4019 116.994 79.9117 117.861C79.4761 118.728 78.6048 119.433 77.679 119.487C77.5156 119.487 77.3522 119.487 77.2433 119.379C76.971 119.216 76.971 118.837 76.971 118.512C76.971 118.295 76.971 118.024 76.971 117.807C76.971 117.699 77.0255 117.536 77.0799 117.428C77.1888 116.832 77.1888 116.236 77.0799 115.64C77.0799 115.965 77.0799 116.236 77.0799 116.507C77.0799 116.94 77.0799 117.374 77.0255 117.807C76.8076 118.566 76.372 119.324 75.7729 119.866H73.9758L73.8669 119.704C73.4312 118.674 73.159 117.59 73.159 116.453C73.159 116.128 73.159 115.857 73.159 115.531C72.6144 117.211 71.1985 118.62 69.4558 119.108C67.7132 119.595 65.7527 119.108 64.4457 117.97V117.049C63.9556 113.473 64.2823 109.734 65.3715 106.266C65.4259 105.995 65.5348 105.724 65.7527 105.562C66.025 105.345 66.3517 105.345 66.6785 105.291C67.3864 105.182 68.0944 104.857 68.8023 104.641C73.758 102.853 80.0207 103.232 84.4862 106.212C86.2833 107.404 86.9913 109.084 87.5903 111.034C87.9715 112.28 88.3527 113.581 88.5161 114.881C88.5706 115.423 88.625 116.019 88.5161 116.561C88.3527 117.103 87.9171 117.59 87.3725 117.699C86.4467 117.861 85.6298 116.994 85.2486 116.128C84.9219 115.477 84.704 114.665 84.2684 114.123C84.1595 113.96 83.9961 113.852 83.8327 113.743C84.3773 115.206 84.1595 116.886 83.3426 118.186C82.5257 119.487 82.5802 119.108 82.0356 119.108C81.2732 119.108 80.8375 118.186 80.8375 117.374C80.8375 116.94 80.8375 116.507 80.8375 116.073L80.7286 115.965Z" fill="white"></path><path d="M84.9755 28.5122C85.4112 28.5122 85.7379 28.8373 85.7379 29.2165C85.7379 29.5957 85.4112 29.9749 84.9755 29.9749C84.5399 29.9749 84.2676 29.6499 84.2676 29.2165C84.2676 28.7831 84.5943 28.5122 84.9755 28.5122Z" fill="#2B2D2F"></path><path d="M86.8259 24.8818C87.0982 24.7193 87.1527 24.2316 86.9893 23.9607C86.8259 23.6898 86.4992 23.5272 86.1724 23.4189C85.4645 23.2021 84.7565 23.148 84.0486 23.3105C83.504 23.4189 82.905 23.6898 82.5782 24.2316C82.4693 24.4484 82.3604 24.7193 82.5782 24.8818C82.6871 24.9902 82.8505 24.936 83.0139 24.8818C84.2664 24.6109 85.5734 24.4484 86.717 24.9902H86.8804L86.8259 24.8818ZM88.9498 26.3448C89.6033 28.783 90.0934 30.5169 90.2568 32.5217C88.4052 32.4133 86.2813 32.7384 84.6476 33.3344C84.3209 33.4428 83.9941 33.6053 83.6674 33.6053C83.2317 33.6053 82.796 33.5511 82.3604 33.4428C79.2563 32.8468 76.0977 33.8221 72.9391 33.8762C71.5777 33.8762 70.1618 33.7137 69.1815 32.7926C68.4191 32.034 68.2013 30.9504 67.9835 29.8667C67.8746 29.1623 67.7112 28.4037 67.8201 27.6994C68.0379 26.3448 68.4191 26.0739 68.637 24.4484L68.5281 24.2316C72.1223 22.0643 71.1965 19.3551 71.142 16.5376C72.7758 17.3503 74.5184 17.8922 76.2066 18.3798C78.1126 18.9758 80.0187 19.5177 81.9792 19.7886C82.6327 19.897 83.3406 19.897 83.8852 19.5719C84.4298 19.2468 84.5932 18.2715 84.0486 17.9464C85.0288 18.1631 86.0091 18.3256 86.9893 18.3798C88.024 20.8723 88.4052 23.9607 89.0042 26.2906L88.9498 26.3448ZM85.7368 29.1623C85.7368 28.783 85.41 28.4579 84.9744 28.4579C84.5387 28.4579 84.2664 28.783 84.2664 29.1623C84.2664 29.5416 84.5931 29.9209 84.9744 29.9209C85.3556 29.9209 85.7368 29.5958 85.7368 29.1623ZM77.7859 24.34C78.0582 24.1233 78.0037 23.6356 77.7314 23.4189C77.4592 23.2021 77.0779 23.0938 76.7512 23.0938C75.9888 23.0938 75.1719 23.148 74.5184 23.4731C73.9738 23.744 73.4293 24.1233 73.2114 24.7193C73.157 24.936 73.157 25.2611 73.3748 25.3153C73.5382 25.3695 73.7016 25.3153 73.8105 25.2611C75.0085 24.6651 76.37 24.2316 77.677 24.4484L77.7859 24.34ZM77.0235 29.0539C77.0235 28.6205 76.6967 28.2954 76.2611 28.2954C75.8254 28.2954 75.4987 28.6205 75.4987 29.0539C75.4987 29.4874 75.8254 29.7583 76.2611 29.7583C76.6967 29.7583 77.0235 29.4332 77.0235 29.0539Z" fill="white"></path><path d="M83.9951 23.3108C84.7031 23.1483 85.4655 23.2025 86.119 23.4192C86.4457 23.5275 86.7725 23.69 86.9359 23.9609C87.0992 24.2318 87.0448 24.7194 86.7725 24.8819H86.6091C85.4655 24.3943 84.1585 24.5568 82.906 24.8819C82.7426 24.8819 82.5792 24.9361 82.4703 24.8819C82.3069 24.7194 82.3614 24.4485 82.4703 24.2318C82.797 23.7442 83.3961 23.4733 83.9407 23.3108H83.9951Z" fill="#2B2D2F"></path><path d="M81.7632 47.856C81.2731 51.107 80.4017 56.3628 80.075 57.4464C78.8769 60.6432 76.5897 61.6185 75.1738 61.6185V61.7269C70.0547 58.9636 64.8812 54.5747 62.3761 49.8066L62.2672 48.9396C63.6831 43.6839 63.3019 41.8416 63.6287 36.5317V36.3149C62.1583 36.5317 60.6335 35.7731 59.5988 34.6894C58.5096 33.4974 57.8561 31.8177 58.2373 30.1922C58.4552 29.2711 59.1087 28.4584 60.0345 28.0791C61.287 27.5914 62.7029 27.9165 63.7921 28.6751C64.0099 28.8377 64.2277 29.0002 64.3911 29.1627L64.9357 29.0544C65.7525 33.1181 66.6239 37.2361 67.4407 41.2998C67.713 42.6002 68.0398 43.9548 68.9111 44.9301C69.8369 45.9054 71.1983 46.3389 72.5053 46.6639C75.5005 47.4225 78.6046 47.8018 81.7087 47.856H81.7632Z" fill="white"></path><path d="M76.2634 28.3501C76.699 28.3501 77.0258 28.6751 77.0258 29.1085C77.0258 29.5419 76.699 29.8128 76.2634 29.8128C75.8277 29.8128 75.501 29.4878 75.501 29.1085C75.501 28.7293 75.8277 28.3501 76.2634 28.3501Z" fill="#2B2D2F"></path><path d="M77.6247 24.5029C76.3177 24.2321 74.9563 24.7196 73.7582 25.3156C73.5948 25.3697 73.4315 25.4239 73.3225 25.3697C73.1047 25.2614 73.1047 24.9905 73.1592 24.7738C73.377 24.1779 73.9216 23.7987 74.4661 23.5278C75.1741 23.2027 75.9365 23.0944 76.6989 23.1486C77.0257 23.1486 77.4069 23.2569 77.6792 23.4736C77.9515 23.6903 78.0059 24.1779 77.7336 24.3946L77.6247 24.5029Z" fill="#2B2D2F"></path><path d="M73.3215 67.362C73.1037 67.362 72.8858 67.5246 72.8314 67.7955C73.0492 67.7955 73.267 67.6329 73.3215 67.362ZM72.8314 67.7955C72.7225 67.7955 72.6135 67.7955 72.5046 67.7413C67.7123 66.6576 63.0289 64.978 59.2169 61.9437C55.4048 58.9094 52.6275 54.4122 52.573 49.5899H52.4096C52.2463 48.4521 52.2463 47.26 52.4096 46.068C52.7908 43.5214 53.9889 41.0831 55.9494 39.4035C58.0733 37.5612 60.7962 36.7485 63.5735 36.5317H63.6824C63.3557 41.8417 63.7369 43.6839 62.321 48.9397L62.4299 49.8066C64.935 54.5748 70.1085 58.9636 75.1186 61.727V61.6186C76.6434 61.6186 78.9307 60.6433 80.1287 57.4465C80.4555 56.417 81.3268 51.1612 81.8169 47.856C82.4704 47.856 83.0695 47.856 83.6685 47.856C85.0844 47.856 86.5003 47.856 87.9162 47.7477V48.0186C87.8618 49.1023 87.7529 50.0776 87.5895 51.0529C86.0102 63.2441 82.1437 66.0616 79.9654 67.362C77.8415 68.5541 75.2275 68.2831 72.7769 67.7413L72.8314 67.7955Z" fill="#F9986A"></path><path d="M80.5105 115.043C80.456 116.018 80.4016 116.993 79.9659 117.86V117.752C79.5847 118.619 78.7134 119.377 77.7331 119.377C77.5698 119.377 77.4064 119.323 77.2975 119.269C77.0252 119.106 77.0252 118.727 77.0252 118.402V117.698C76.8074 118.51 76.3717 119.215 75.7727 119.757H93.1447L93.7982 119.973L108.175 77.9814C108.556 76.9519 109.537 76.2475 110.626 76.2475H120.973C121.408 72.563 110.353 62.214 107.304 60.1551C101.313 56.1455 94.6151 53.0571 87.59 50.9981C86.0108 63.2435 82.1442 66.061 79.9659 67.3073C77.8421 68.4993 75.1736 68.2284 72.7775 67.6865C72.6686 67.6324 72.5596 67.6324 72.4507 67.6324C67.7129 66.5487 62.975 64.869 59.163 61.8347C55.3509 58.8005 52.5736 54.3033 52.5191 49.481H52.3557C35.0381 54.7367 22.8395 63.2435 15.2154 73.5925C7.5913 83.9415 3.23466 96.6746 3.01683 109.462C2.90791 113.309 3.28912 117.318 5.30406 120.624C7.42792 124.037 11.1311 126.259 15.052 127.288C17.4482 127.938 19.8443 128.101 22.2949 128.101C23.9287 128.101 25.508 127.993 27.1417 127.83C35.7461 126.963 45.5485 126.421 54.0984 123.658V123.495C53.1726 123.062 52.5191 122.087 52.5191 121.003C52.5191 120.624 52.628 120.407 52.8459 120.136C53.0637 119.865 53.3904 119.757 53.7172 119.757H73.9755L73.8666 119.594C73.431 118.565 73.1587 117.481 73.1587 116.343V115.422C72.6141 117.156 71.1982 118.51 69.4555 118.998C67.7129 119.486 65.7524 119.052 64.4999 117.86V116.939C63.9553 113.363 64.2276 109.624 65.3167 106.157C65.3712 105.886 65.4801 105.615 65.6979 105.452C65.9702 105.236 66.297 105.181 66.6237 105.181C67.3861 105.073 68.0396 104.802 68.7476 104.531C73.7577 102.743 79.9659 103.122 84.4315 106.102C86.1741 107.24 86.9365 108.974 87.5356 110.925C87.9168 112.225 88.2435 113.471 88.4614 114.772C88.5703 115.314 88.6247 115.91 88.4614 116.451C88.298 116.993 87.8623 117.481 87.3177 117.589C86.3375 117.752 85.5751 116.885 85.1939 116.018C84.9216 115.314 84.7038 114.555 84.2136 114.013C84.1047 113.851 83.9414 113.742 83.778 113.634C84.2681 115.097 84.1047 116.777 83.2879 118.077C83.0156 118.565 82.5254 118.998 81.9809 118.998C81.2185 118.944 80.7828 118.023 80.7828 117.264V115.964C80.7283 115.639 80.6739 115.314 80.5105 115.043Z" fill="#F7B694"></path><path d="M90.2041 18.4888C90.8576 18.9764 90.6942 19.4099 90.5853 20.1685C90.4219 20.927 90.0951 21.7398 90.1496 22.4983C90.1496 23.2569 90.5308 24.0155 90.7486 24.7198C90.9665 25.37 91.0754 26.0202 91.1843 26.6704C91.4566 28.4043 92.0556 30.7884 92.1645 32.5222" stroke="#2B2D2F" stroke-width="1.55774" stroke-linecap="round" stroke-linejoin="round"></path><path d="M112.151 211.651C113.295 214.848 111.607 220.05 114.33 221.134C117.053 222.217 126.31 222.922 127.89 222.813C130.589 222.813 132.079 222.921 134.094 222.758C137.307 222.487 140.578 221.621 142.92 218.858C144.173 217.341 144.935 215.336 145.48 213.331C146.133 211.11 146.623 208.78 147.004 206.504C149.673 191.062 151.906 169.443 149.128 153.946C148.094 148.149 146.46 127.342 129.142 123.983" stroke="#2B2D2F" stroke-width="1.67681" stroke-linecap="round" stroke-linejoin="round"></path><path d="M22.1029 128.185C20.0879 139.943 23.1652 155.789 30.2448 163.97C40.265 175.62 56.7658 177.625 71.3061 178.221C73.7567 178.329 76.3162 178.275 78.7668 177.895" stroke="#2B2D2F" stroke-width="1.67681" stroke-linecap="round" stroke-linejoin="round"></path><path d="M111.008 214.306C111.389 213.44 111.77 212.573 112.151 211.651C116.835 200.11 118.359 186.402 119.122 174.157C119.884 162.128 121.736 147.932 114.275 137.42C106.597 126.584 91.6206 123.983 79.0953 123.983H78.7686" stroke="#2B2D2F" stroke-width="1.67681" stroke-linecap="round" stroke-linejoin="round"></path><path d="M120.972 76.3567C121.408 72.6723 110.353 62.3233 107.303 60.2643C101.313 56.2547 94.8507 53.2655 87.8256 51.2065M87.8256 51.2065C87.7712 51.2065 88.1611 51.3057 87.8256 51.2065Z" stroke="#2B2D2F" stroke-width="1.55774" stroke-linecap="round" stroke-linejoin="round"></path><path d="M80.4171 116.683C80.4171 116.358 80.6897 116.048 80.7297 115.512C80.4651 116.632 80.403 116.993 79.9129 117.86C79.4772 118.727 78.6059 119.431 77.6801 119.485C77.5167 119.485 77.3533 119.485 77.2444 119.377C76.9721 119.214 76.9721 118.835 76.9721 118.51C76.9721 118.293 76.9721 118.023 76.9721 117.806C76.9721 117.372 76.9721 116.939 77.0266 116.506C77.0266 116.181 76.8457 118.358 76.8982 117.683C76.8437 120.328 77.083 116.782 76.9741 117.378C76.9836 117.535 76.9177 117.806 76.9177 117.806C76.6998 118.564 76.2642 119.323 75.6651 119.864C75.6651 119.864 75.6107 119.919 75.5562 119.973C75.2295 120.298 74.6849 120.515 74.3037 120.352C74.1403 120.244 73.977 120.081 73.868 119.864L73.7591 119.702C73.3235 118.673 73.1042 118.501 73.0512 116.451C73.0449 116.211 73.1042 115.689 73.1042 115.364C72.5597 117.043 71.0907 118.618 69.348 119.106C67.6054 119.594 65.6449 119.106 64.3379 117.968" stroke="#2B2D2F" stroke-width="1.67681" stroke-linecap="round" stroke-linejoin="round"></path><path d="M94.493 124.184L55.3513 123.82C54.9157 123.82 54.48 123.712 54.0988 123.549C53.173 123.116 52.5195 122.141 52.5195 121.057C52.5195 119.974 52.6284 120.407 52.8463 120.19C53.0641 119.974 53.3364 119.811 53.7176 119.811H93.1452" fill="#2B2D2F"></path><path d="M94.493 124.184L55.3513 123.82C54.9157 123.82 54.48 123.712 54.0988 123.549C53.173 123.116 52.5195 122.141 52.5195 121.057C52.5195 119.974 52.6284 120.407 52.8463 120.19C53.0641 119.974 53.3364 119.811 53.7176 119.811H93.1452" stroke="#404245" stroke-width="1.67681" stroke-linecap="round" stroke-linejoin="round"></path><path d="M64.3414 117.805C64.1268 114.029 64.2835 109.733 65.3727 106.265C65.4272 105.994 65.5361 105.723 65.7539 105.561C66.0262 105.344 66.353 105.344 66.6797 105.29C67.3877 105.182 68.0956 104.856 68.8036 104.64C73.7592 102.852 80.0219 103.231 84.4875 106.211C86.2846 107.403 86.9925 109.083 87.5916 111.033C87.9728 112.28 88.354 113.58 88.5173 114.88C88.5718 115.422 88.6263 116.018 88.5173 116.56C88.354 117.102 87.9183 117.589 87.3737 117.698C86.4479 117.86 85.6311 116.993 85.2499 116.127C84.9231 115.476 84.4392 114.683 84.2696 114.122C84.1607 113.959 84.4392 114.683 84.2192 114.122C84.4392 115.683 84.1607 116.885 83.3438 118.186C82.527 119.486 82.5814 119.107 82.0368 119.107C81.2744 119.107 80.8388 118.186 80.8388 117.373C80.8388 116.939 80.8388 116.506 80.8388 116.072" stroke="#2B2D2F" stroke-width="1.67681" stroke-linecap="round" stroke-linejoin="round"></path><path d="M52.4105 49.5347C35.0929 54.7904 22.8943 63.2972 15.2702 73.6462C7.59162 83.9952 3.23498 96.7283 3.01715 109.516C2.96269 113.363 3.28944 117.372 5.30438 120.677C7.42824 124.091 11.1314 126.312 15.0524 127.342C17.3941 127.938 19.8447 128.155 22.2953 128.155C23.929 128.155 25.5627 128.046 27.142 127.884C35.7464 127.017 45.5488 126.475 54.0443 123.712" stroke="#2B2D2F" stroke-width="1.67681" stroke-linecap="round" stroke-linejoin="round"></path><path d="M52.4116 49.5352C52.2482 48.3974 52.2482 47.2053 52.4116 46.0133C52.7928 43.4667 53.9909 41.0284 55.9514 39.3488C58.0752 37.5065 60.7981 36.6938 63.5755 36.4771" stroke="#2B2D2F" stroke-width="1.67681" stroke-linecap="round" stroke-linejoin="round"></path><path d="M80.1299 57.4463C80.4566 56.4168 81.3094 51.54 81.7995 48.2349" stroke="#2B2D2F" stroke-width="1.67681" stroke-linecap="round" stroke-linejoin="round"></path><path d="M63.6827 36.314V36.5307C63.356 41.8407 63.7372 43.6829 62.3213 48.9387" stroke="#2B2D2F" stroke-width="1.67681" stroke-linecap="round" stroke-linejoin="round"></path><path d="M90.2048 32.6311C90.0414 30.6263 89.5513 28.8925 88.8978 26.4542C88.2987 24.1243 87.9175 21.0359 86.8828 18.5435" stroke="#2B2D2F" stroke-width="1.55774" stroke-linecap="round" stroke-linejoin="round"></path><path d="M67.9331 24.6653C68.0964 24.5569 68.3143 24.4485 68.4776 24.3943C72.0719 22.227 71.1461 19.5179 71.0916 16.7003C72.7254 17.5131 74.468 18.0549 76.1562 18.5426C78.0622 19.1386 79.9683 19.6804 81.9288 19.9513C82.5822 20.0597 83.2902 20.0597 83.8348 19.7346C84.3794 19.4095 84.5427 18.4342 83.9982 18.1091C84.9784 18.3258 85.9586 18.4884 86.9389 18.5426C87.4835 18.5426 87.9736 18.5426 88.5182 18.5426C89.7707 18.4342 91.0232 18.1633 92.0579 17.4589C93.0926 16.7003 93.7461 15.4541 93.4738 14.2621C93.1471 12.8533 91.7312 11.9864 90.4242 11.3904C87.2112 9.87323 83.617 8.68119 79.9683 8.78956C75.5027 8.95211 71.5817 10.7402 67.3885 12.0406C65.7003 12.5824 64.121 13.5577 62.7595 14.6955C60.4723 16.5378 59.002 19.3553 58.8386 22.227C58.6752 24.2318 59.1653 26.2908 60.1456 28.0788" stroke="#2B2D2F" stroke-width="1.67681" stroke-linecap="round" stroke-linejoin="round"></path><path d="M64.5006 29.1627C64.2828 29.0002 64.1194 28.8377 63.9016 28.6751C62.8124 27.9165 61.3965 27.5914 60.144 28.0791C59.2727 28.4584 58.6192 29.2711 58.3469 30.1922C57.9112 31.8177 58.5647 33.4974 59.7083 34.6894C60.6886 35.7731 62.2134 36.5317 63.7382 36.3149" stroke="#2B2D2F" stroke-width="1.67681" stroke-linecap="round" stroke-linejoin="round"></path><path d="M61.1787 31.1136C61.7233 31.0052 62.3768 31.1136 62.8124 31.4928C63.2481 31.872 63.5749 32.3596 63.6293 32.9555" stroke="#2B2D2F" stroke-width="1.67681" stroke-linecap="round" stroke-linejoin="round"></path><path d="M83.3423 33.4959C83.8868 33.0083 84.2136 32.3041 84.1047 31.5998C83.9958 30.8955 83.2333 30.3538 82.5254 30.5163C82.362 30.5163 82.1986 30.6246 82.0897 30.5163C82.0897 30.5163 82.0897 30.4079 82.0897 30.3538C81.9264 29.4328 81.763 28.5118 81.5996 27.645" stroke="#2B2D2F" stroke-width="1.67681" stroke-linecap="round" stroke-linejoin="round"></path><path d="M68.5845 24.5571C68.3666 26.1826 67.9854 26.4535 67.7676 27.8081C67.6587 28.5125 67.7676 29.2711 67.931 29.9755C68.1488 31.0049 68.3666 32.1428 69.129 32.9014C70.0548 33.8767 71.5252 34.0392 72.8866 33.985C76.0452 33.9308 79.2038 32.9555 82.3079 33.5516C82.7435 33.6057 83.1792 33.7141 83.6149 33.7141C83.9416 33.7141 84.2684 33.5516 84.5951 33.4432C86.2288 32.8472 88.3527 32.5221 90.2043 32.6304C90.6944 32.6304 91.1845 32.7388 91.6746 32.793C91.7835 32.793 91.8925 32.793 91.9469 32.9014C91.9469 32.9014 92.1648 32.793 92.1648 32.9014C92.8727 36.2607 93.4717 39.9452 93.7985 43.3587C93.9619 44.8217 93.5807 46.393 92.1103 47.0432C91.0756 47.5308 89.8775 47.6392 88.7884 47.7476C88.5161 47.7476 88.2438 47.8018 87.9715 47.8018C86.5556 47.9101 85.1397 47.9101 83.7238 47.9101C83.1247 47.9101 82.4712 47.9101 81.8722 47.9101C78.7681 47.8018 75.7184 47.4225 72.6688 46.7181C71.3618 46.393 70.0004 45.9595 69.0746 44.9842C68.1488 44.0089 67.8765 42.6543 67.6042 41.3539C66.7873 37.2902 65.916 33.1723 65.0991 29.1085C65.0991 28.8918 65.0447 28.6751 64.9902 28.5125" stroke="#2B2D2F" stroke-width="1.55774" stroke-linecap="round" stroke-linejoin="round"></path><path d="M76.3164 36.9644C77.6234 38.7521 79.9651 39.7815 82.1979 39.5648" stroke="#2B2D2F" stroke-width="1.67681" stroke-linecap="round" stroke-linejoin="round"></path><path d="M75.7744 36.9648C76.2101 36.6397 76.5368 36.1521 76.7547 35.6646" stroke="#2B2D2F" stroke-width="1.67681" stroke-linecap="round" stroke-linejoin="round"></path><path d="M80.1307 57.4468C78.9326 60.6431 76.6454 61.6182 75.2295 61.6182" stroke="#2B2D2F" stroke-width="1.67681" stroke-linecap="round" stroke-linejoin="round"></path><path d="M52.4229 49.4623C53.4744 55.3899 55.4046 58.8547 59.2166 61.889C63.0287 64.9233 67.7666 66.6029 72.5044 67.6866C72.6133 67.6866 72.7222 67.6866 72.8311 67.7408C75.2273 68.2826 77.8957 68.5535 80.0196 67.3615C82.1979 66.1153 86.0644 63.2978 87.6437 51.0523C87.7526 50.077 87.8615 49.1017 87.9705 48.0181" stroke="#2B2D2F" stroke-width="1.67681" stroke-linecap="round" stroke-linejoin="round"></path><path d="M77.3525 62.8644C76.5901 62.5393 75.8822 62.16 75.1197 61.7265C70.1096 58.9632 64.7424 53.8819 62.2373 49.1138" stroke="#2B2D2F" stroke-width="1.67681" stroke-linecap="round" stroke-linejoin="round"></path><path d="M120.973 76.3569H170.421C172.164 76.3569 173.416 78.0366 172.872 79.7163L158.277 122.304C157.95 123.334 156.97 124.038 155.826 124.038H96.0316C95.487 124.038 94.9969 123.876 94.5612 123.605C93.6899 123.009 93.1997 121.817 93.581 120.679L93.7988 120.083L108.176 78.0908C108.557 77.0613 109.483 76.3569 110.626 76.3569H120.973Z" stroke="#2B2D2F" stroke-width="1.67681" stroke-linecap="round" stroke-linejoin="round"></path><path d="M22.5674 106.428C33.8402 104.044 45.4942 103.34 56.9848 104.424C57.4749 104.424 58.0195 104.532 58.5096 104.424C58.9453 104.315 59.381 104.099 59.8166 103.936C61.5593 103.232 63.7376 103.557 65.1535 104.749" stroke="#2B2D2F" stroke-width="1.67681" stroke-linecap="round" stroke-linejoin="round"></path><path d="M43.8611 82.6421C38.6876 88.9815 35.1479 96.5672 33.623 104.532" stroke="#2B2D2F" stroke-width="1.67681" stroke-linecap="round" stroke-linejoin="round"></path><path d="M72.8874 67.7407V67.8491C72.8874 68.12 73.0508 68.3909 73.2142 68.6618C74.739 71.3168 74.739 74.8387 73.1053 77.4395C72.125 79.065 70.6546 80.3112 69.4566 81.7742C68.2585 83.2371 67.2238 85.0252 67.3872 86.8674" stroke="#2B2D2F" stroke-width="1.67681" stroke-linecap="round" stroke-linejoin="round"></path><path d="M72.8877 67.7387C73.1043 67.7387 73.3209 67.5768 73.3751 67.3071C73.1585 67.3071 72.9419 67.469 72.8877 67.7387Z" stroke="#2B2D2F" stroke-width="1.67681" stroke-linecap="round" stroke-linejoin="round"></path><path d="M72.6709 67.7407C72.7249 67.7407 72.779 67.7407 72.833 67.7407" stroke="#2B2D2F" stroke-width="1.67681" stroke-linecap="round" stroke-linejoin="round"></path><path d="M66.2969 88.4367C66.4599 87.9496 66.6773 87.5707 67.0034 87.1919" stroke="#2B2D2F" stroke-width="1.67681" stroke-linecap="round" stroke-linejoin="round"></path><path d="M67.4943 88.9797C67.386 88.438 67.386 87.842 67.4943 87.3003" stroke="#2B2D2F" stroke-width="1.67681" stroke-linecap="round" stroke-linejoin="round"></path><path d="M68.476 88.8171C68.3127 88.2212 68.0404 87.6795 67.6592 87.1919" stroke="#2B2D2F" stroke-width="1.67681" stroke-linecap="round" stroke-linejoin="round"></path><path d="M69.7285 88.2214C69.1839 88.0047 68.6393 87.788 68.0947 87.5171" stroke="#2B2D2F" stroke-width="1.67681" stroke-linecap="round" stroke-linejoin="round"></path><path d="M85.739 78.0356C85.5212 78.3066 85.3034 78.6858 85.1945 79.0109C84.9766 79.7153 85.0311 80.4197 85.1945 81.1241C85.6846 82.858 86.9371 84.4293 88.6253 85.1878" stroke="#2B2D2F" stroke-width="1.67681" stroke-linecap="round" stroke-linejoin="round"></path><path d="M85.7227 78.4294C85.886 79.3504 86.3217 80.2714 87.0297 80.8131C87.4109 81.084 87.9554 81.3007 88.3911 81.1382C88.6634 81.0298 88.8812 80.759 88.9901 80.4881C89.3169 79.7838 89.208 78.917 88.6634 78.3211C88.1188 77.7252 87.2475 77.5626 86.5395 77.8335C86.2128 77.9419 85.9405 78.1586 85.7227 78.4294Z" stroke="#2B2D2F" stroke-width="1.67681" stroke-linecap="round" stroke-linejoin="round"></path><path d="M83.8877 65.6284C85.2491 66.7663 86.4472 68.175 86.774 69.8547C86.9918 71.0467 86.7195 72.293 86.3928 73.485C86.066 74.677 85.6848 75.8691 85.6848 77.1153C85.6848 77.3862 85.6848 77.7113 85.7393 77.9822" stroke="#2B2D2F" stroke-width="1.67681" stroke-linecap="round" stroke-linejoin="round"></path><path d="M83.8854 65.626C84.1023 65.5179 84.2107 65.2476 84.1023 65.0854C83.8854 65.0854 83.6685 65.1936 83.6143 65.3557C83.7227 65.4098 83.8312 65.5179 83.9396 65.626H83.8854Z" stroke="#2B2D2F" stroke-width="1.67681" stroke-linecap="round" stroke-linejoin="round"></path><path d="M83.613 64.5444C83.3956 64.7068 83.2325 64.9774 83.2869 65.1939C83.3413 65.4104 83.5587 65.681 83.8304 65.681C83.8304 65.681 83.8848 65.681 83.9391 65.681" stroke="#2B2D2F" stroke-width="1.67681" stroke-linecap="round" stroke-linejoin="round"></path><path d="M88.3525 87.0824C88.5147 86.6494 88.5688 86.1083 88.5147 85.6753" stroke="#2B2D2F" stroke-width="1.67681" stroke-linecap="round" stroke-linejoin="round"></path><path d="M89.9861 86.9221C89.7138 86.3804 89.3871 85.8386 89.0059 85.3511" stroke="#2B2D2F" stroke-width="1.67681" stroke-linecap="round" stroke-linejoin="round"></path><path d="M91.0784 86.4347C90.5338 86.0013 89.9347 85.6762 89.2812 85.5679" stroke="#2B2D2F" stroke-width="1.67681" stroke-linecap="round" stroke-linejoin="round"></path><path d="M91.4573 85.5136C90.9127 85.2969 90.2047 85.2969 89.6602 85.5136" stroke="#2B2D2F" stroke-width="1.67681" stroke-linecap="round" stroke-linejoin="round"></path><path d="M76.4268 113.146C76.898 114.182 76.9713 115.231 77.0803 116.423C77.0803 116.693 77.0803 117.155 77.0803 117.426C77.0803 117.697 76.898 118.911 76.898 119.182" stroke="#2B2D2F" stroke-width="1.67681" stroke-linecap="round" stroke-linejoin="round"></path><path d="M80.3477 112.17C80.6744 113.416 80.8378 114.662 80.7833 115.963C80.7833 116.504 80.6744 117.046 80.5655 117.588" stroke="#2B2D2F" stroke-width="1.67681" stroke-linecap="round" stroke-linejoin="round"></path><path d="M83.3447 111.087C83.7804 112.063 84.0527 113.038 84.2161 114.067C84.325 114.663 84.3794 115.313 84.3794 115.963" stroke="#2B2D2F" stroke-width="1.67681" stroke-linecap="round" stroke-linejoin="round"></path></g></svg> 