<svg width="40px" height="26px" viewBox="0 0 40 26" version="1.1" xmlns="http://www.w3.org/2000/svg"><g stroke="none" stroke-width="1" fill="none" fill-rule="evenodd"><g transform="translate(-1037.000000, -297.000000)"><g transform="translate(730.000000, 221.000000)"><g transform="translate(19.000000, 77.000000)"><g id="visa" transform="translate(289.000000, 0.000000)"><rect id="Rectangle" stroke="#CACACA" stroke-width="0.5" fill="#FFFFFF" x="0" y="0" width="38" height="24" rx="3"></rect><g transform="translate(4.000000, 8.000000)" fill-rule="nonzero"><path d="M10.3199587,8.89720394 L11.7806649,0.178245163 L14.1170767,0.178245163 L12.6552758,8.89720394 L10.3199587,8.89720394 L10.3199587,8.89720394 Z M21.096493,0.366199832 C20.6337032,0.189558074 19.90832,0 19.0025324,0 C16.6937942,0 15.0676589,1.18255555 15.0537345,2.87739892 C15.0407296,4.13023705 16.2147593,4.82918791 17.1009739,5.24620676 C18.0104835,5.67369228 18.3161638,5.94618202 18.311785,6.32774781 C18.3059613,6.91223338 17.5855261,7.1791112 16.9139138,7.1791112 C15.9788324,7.1791112 15.4820198,7.04696392 14.7146881,6.72156184 L14.4135179,6.58300094 L14.0856811,8.53478992 C14.6314044,8.77828475 15.6404866,8.9890434 16.6883208,9 C19.14436,9 20.7387494,7.83093977 20.7568774,6.02100757 C20.7655911,5.02912357 20.1431522,4.27440986 18.7951549,3.65206612 C17.9785186,3.24872074 17.4783781,2.97957144 17.4836764,2.57114861 C17.4836764,2.2087346 17.9070137,1.82120057 18.8218215,1.82120057 C19.5857377,1.8091305 20.1392989,1.97860147 20.5705179,2.15524323 L20.7798658,2.25585688 L21.096493,0.366199832 M27.1089505,0.178111546 L25.3035931,0.178111546 C24.7443396,0.178111546 24.3257313,0.333374573 24.0801712,0.901158015 L20.6102331,8.89145841 L23.0636889,8.89145841 C23.0636889,8.89145841 23.4647383,7.81713268 23.555466,7.58120948 C23.8235766,7.58120948 26.2070162,7.58495076 26.5477265,7.58495076 C26.6176113,7.89022121 26.8319948,8.89145841 26.8319948,8.89145841 L29,8.89145841 L27.1089505,0.177844311 L27.1089505,0.178111546 Z M24.2445056,5.80828921 C24.4377835,5.30593359 25.1754272,3.37093581 25.1754272,3.37093581 C25.1616779,3.39414064 25.3672601,2.86613055 25.4851798,2.53876874 L25.6430774,3.29049834 C25.6430774,3.29049834 26.090454,5.37176226 26.183984,5.80815559 L24.2445056,5.80815559 L24.2445056,5.80828921 L24.2445056,5.80828921 Z M8.33651766,0.178111546 L6.049104,6.12407087 L5.80542673,4.91577176 C5.37954979,3.52285842 4.05283323,2.01374276 2.56962025,1.25822735 L4.66121634,8.88330776 L7.13323797,8.88050181 L10.8115606,0.177977928 L8.33651766,0.177977928" fill="#0E4595"></path><path d="M3.92964361,0.36 L0.0309031854,0.36 L0,0.5389943 C3.03317936,1.2511042 5.04011922,2.97200717 5.87341772,5.04 L5.0256645,1.08656832 C4.87935015,0.541806879 4.45486183,0.379204643 3.92973424,0.360219733" fill="#F2AE14"></path></g></g></g></g></g></g></svg>