<svg xmlns="http://www.w3.org/2000/svg" width="200" height="80" viewBox="0 0 200 80" fill="none"><path d="M133.482 45.5788C134.002 45.5934 134.519 45.5034 135.003 45.3141C135.488 45.1247 135.931 44.8396 136.306 44.4755L137.706 46.0167C136.781 46.9792 135.499 47.6951 133.506 47.6951C130.09 47.6951 127.883 45.4019 127.883 42.2955C127.87 41.5838 127.999 40.8767 128.261 40.2162C128.523 39.5557 128.913 38.9552 129.409 38.4503C129.905 37.9454 130.495 37.5464 131.146 37.2769C131.797 37.0074 132.494 36.8729 133.197 36.8814C136.59 36.8814 138.514 39.4958 138.345 43.1196H130.324C130.609 44.6235 131.651 45.586 133.479 45.586M135.923 41.3919C135.705 39.9843 134.877 38.9496 133.217 38.9496C131.676 38.9496 130.601 39.8327 130.324 41.3919H135.923ZM80.8203 45.4669L86.9937 39.118H80.9689V37.1136H89.8576V39.1589L83.6842 45.5054H89.9396V47.499H80.8227L80.8203 45.4669ZM96.8687 45.58C97.3881 45.5946 97.9051 45.5047 98.3898 45.3153C98.8745 45.1259 99.3172 44.8408 99.6922 44.4767L101.094 46.0167C100.17 46.9792 98.8877 47.6951 96.8949 47.6951C93.4784 47.6951 91.2717 45.4019 91.2717 42.2955C91.2589 41.5838 91.3874 40.8767 91.6495 40.2162C91.9117 39.5557 92.3021 38.9552 92.7977 38.4503C93.2933 37.9454 93.8839 37.5464 94.5346 37.2769C95.1854 37.0074 95.8829 36.8729 96.5859 36.8814C99.9786 36.8814 101.903 39.4958 101.734 43.1196H93.7125C93.9977 44.6235 95.0399 45.586 96.8676 45.586M99.312 41.3919C99.0945 39.9843 98.2662 38.9496 96.6061 38.9496C95.0649 38.9496 93.9894 39.8327 93.7125 41.3919H99.312ZM115.06 42.2822C115.06 38.9712 117.508 36.8862 120.205 36.8862C120.852 36.8774 121.494 37.0122 122.084 37.2812C122.674 37.5502 123.199 37.9467 123.622 38.4431V32.3252H125.802V47.4846H123.622V46.0408C123.207 46.5573 122.683 46.9728 122.088 47.2565C121.493 47.5401 120.843 47.6847 120.185 47.6795C117.568 47.6795 115.061 45.586 115.061 42.2858M123.744 42.2666C123.667 39.355 120.179 37.9714 118.159 40.0577C116.139 42.1439 117.612 45.6498 120.492 45.6486C122.364 45.6486 123.743 44.1326 123.743 42.2798M139.765 45.2876L141.74 44.2506C142.272 45.2131 143.285 45.7942 144.375 45.7665C145.61 45.7665 146.247 45.124 146.247 44.3973C146.247 43.5551 145.054 43.3795 143.758 43.11C142.013 42.749 140.198 42.1535 140.198 40.0179C140.198 38.3781 141.739 36.8633 144.167 36.885C146.068 36.885 147.501 37.655 148.309 38.8966L146.479 39.9145C146.226 39.5351 145.881 39.2273 145.478 39.0202C145.075 38.8131 144.626 38.7134 144.174 38.7306C143.001 38.7306 142.391 39.3117 142.391 39.9758C142.391 40.7218 143.337 40.9299 144.82 41.2632C146.508 41.6241 148.421 42.1968 148.421 44.3552C148.421 45.799 147.185 47.7156 144.265 47.6951C142.126 47.6951 140.624 46.8228 139.758 45.2889M154.341 42.8826L152.612 44.792V47.487H150.432V32.3276H152.612V42.2461L157.242 37.1004H159.898L155.884 41.5519L160 47.4858H157.532L154.341 42.8826ZM108.457 36.9031C105.864 36.9031 103.704 38.6055 103.704 41.4268V47.487H105.926V41.6855C105.926 39.9831 106.892 38.9664 108.543 38.9664C110.193 38.9664 111.015 39.9843 111.015 41.6855V47.4653H113.225V41.4052C113.225 38.5838 111.044 36.8814 108.472 36.8814M55.9652 33.7448V53.2596H40L55.9652 33.7448ZM55.9652 26.7402C55.9655 28.8841 55.1248 30.9403 53.628 32.4567C52.1311 33.9731 50.1007 34.8255 47.9832 34.8265C45.8657 34.8255 43.8353 33.9731 42.3384 32.4567C40.8416 30.9403 40.0009 28.8841 40.0012 26.7402H55.9652ZM58.595 53.2572C58.5959 51.1141 59.4372 49.0592 60.9339 47.5438C62.4306 46.0285 64.4603 45.1767 66.577 45.1758C68.6937 45.1767 70.7234 46.0285 72.2201 47.5438C73.7168 49.0592 74.5581 51.1141 74.559 53.2572H58.595ZM58.595 46.2526V26.7426H74.5602L58.595 46.2526Z" fill="#6F7580"/></svg>