<?xml version="1.0" encoding="UTF-8"?>
<svg width="215.782628px" height="285.705284px" viewBox="0 0 215.782628 285.705284" version="1.1" xmlns="http://www.w3.org/2000/svg" xmlns:xlink="http://www.w3.org/1999/xlink">
    <title>B62AE096-5075-4C3C-8A24-769681A55F01</title>
    <g id="Dashboard" stroke="none" stroke-width="1" fill="none" fill-rule="evenodd">
        <g id="2-Success" transform="translate(-603.162740, -138.000000)">
            <g id="Group-163" transform="translate(603.162740, 138.000000)">
                <path d="M190.143125,220.175613 L9.40524982,220.175613 C4.21078361,220.175613 0,215.964829 0,210.771141 L0,70.4746739 C0,65.2802077 4.21078361,61.0694241 9.40524982,61.0694241 L190.143125,61.0694241 C195.337591,61.0694241 199.547597,65.2802077 199.547597,70.4746739 L199.547597,210.771141 C199.547597,215.964829 195.337591,220.175613 190.143125,220.175613" id="Fill-1" fill="#8EC0F4"></path>
                <path d="M206.378156,204.876215 L25.6402808,204.876215 C20.4458146,204.876215 16.235031,200.665431 16.235031,195.471743 L16.235031,55.1752757 C16.235031,49.9808095 20.4458146,45.7700259 25.6402808,45.7700259 L206.378156,45.7700259 C211.571844,45.7700259 215.782628,49.9808095 215.782628,55.1752757 L215.782628,195.471743 C215.782628,200.665431 211.571844,204.876215 206.378156,204.876215" id="Fill-3" fill="#FFFFFF"></path>
                <path d="M206.378156,203.851099 L25.6402808,203.851099 C20.4458146,203.851099 16.235031,199.640315 16.235031,194.446627 L16.235031,54.1501596 C16.235031,48.9556934 20.4458146,44.7449098 25.6402808,44.7449098 L206.378156,44.7449098 C211.571844,44.7449098 215.782628,48.9556934 215.782628,54.1501596 L215.782628,194.446627 C215.782628,199.640315 211.571844,203.851099 206.378156,203.851099 Z" id="Stroke-5" stroke="#000000" stroke-width="1.2"></path>
                <path d="M28.4049344,54.4105561 C29.8287469,54.4105561 30.9827271,55.5645363 30.9827271,56.9883488 C30.9827271,58.4113837 29.8287469,59.5653639 28.4049344,59.5653639 C26.9811218,59.5653639 25.8271416,58.4113837 25.8271416,56.9883488 C25.8271416,55.5645363 26.9811218,54.4105561 28.4049344,54.4105561" id="Fill-7" fill="#3474C6"></path>
                <path d="M36.0665387,54.4105561 C37.4903513,54.4105561 38.6443315,55.5645363 38.6443315,56.9883488 C38.6443315,58.4113837 37.4903513,59.5653639 36.0665387,59.5653639 C34.6427262,59.5653639 33.488746,58.4113837 33.488746,56.9883488 C33.488746,55.5645363 34.6427262,54.4105561 36.0665387,54.4105561" id="Fill-9" fill="#3474C6"></path>
                <path d="M41.9056475,55.1655422 C42.911881,54.1593088 44.5440942,54.1593088 45.5511053,55.1655422 C46.5573387,56.1717756 46.5573387,57.8039889 45.5511053,58.8109999 C44.5440942,59.8172333 42.911881,59.8172333 41.9056475,58.8109999 C40.8994141,57.8039889 40.8994141,56.1717756 41.9056475,55.1655422" id="Fill-11" fill="#3474C6"></path>
                <path d="M177.910614,119.156234 C183.769164,112.244794 187.672789,103.840334 188.380419,94.8021188 C188.792555,89.5345568 188.094257,84.0290447 185.384269,79.4924405 C182.67506,74.956614 177.706102,71.5708796 172.423765,71.6999636 C167.141428,71.8298253 161.992842,76.0849329 161.732341,81.3626039 C161.530161,85.4567453 164.198157,89.3580383 167.791514,91.3316244 C171.384872,93.3052105 175.728628,93.55638 179.756672,92.7950953 C191.380456,90.5975561 200.314472,80.4325767 203.931158,69.1696054 C208.293576,55.5862318 205.725892,39.8068742 196.700119,28.7577469 C187.675122,17.7086196 172.286905,12.0250338 158.390153,15.25369 C144.4934,18.4823462 131.52823,32.7811254 129.96367,46.9617071" id="Stroke-13" stroke="#8EC0F4" stroke-width="1.2" stroke-linecap="round" stroke-linejoin="round" stroke-dasharray="5"></path>
                <path d="M68.218185,138.980976 C67.6116456,134.994146 65.2189251,131.313695 61.8215265,129.14104 C59.2242934,132.145743 57.9707785,136.270211 58.4567877,140.21194 C58.9427969,144.153669 61.5221448,147.976423 64.7710191,150.261055 C67.3690298,147.177035 68.8247245,142.967807 68.218185,138.980976" id="Fill-15" fill="#8EC0F4"></path>
                <line x1="62.8805599" y1="136.563683" x2="64.6737395" y2="149.961984" id="Stroke-17" stroke="#000000" stroke-width="1.2" stroke-linecap="round" stroke-linejoin="round"></line>
                <path d="M47.4168362,168.174654 C44.6897415,169.771874 42.7037135,172.579841 42.1065054,175.683301 C45.0466666,176.702754 48.4129607,176.42048 51.1416106,174.924349 C53.8710382,173.428996 55.9068335,170.442956 56.62846,167.415702 C53.6299777,166.418022 50.143931,166.577433 47.4168362,168.174654" id="Fill-19" fill="#8EC0F4"></path>
                <line x1="47.1861179" y1="172.719734" x2="56.4210701" y2="167.532266" id="Stroke-21" stroke="#000000" stroke-width="1.2" stroke-linecap="round" stroke-linejoin="round"></line>
                <path d="M43.0629715,127.874305 C38.7013306,123.547657 32.4322009,121.217924 26.3030418,121.644834 C25.8543581,127.678346 28.0658944,133.862716 32.2393525,138.243797 C36.4128106,142.624879 43.0396431,144.959278 49.0887078,144.803755 C49.465851,138.671486 47.4246124,132.200954 43.0629715,127.874305" id="Fill-23" fill="#8EC0F4"></path>
                <path d="M76.6634695,184.186751 C64.6882031,164.554313 46.7991769,141.124005 35.563422,129.395242" id="Stroke-25" stroke="#000000" stroke-width="1.2" stroke-linecap="round" stroke-linejoin="round"></path>
                <path d="M51.5097334,159.335197 C47.5967763,162.808024 42.2343453,164.593427 37.0204387,164.157963 C31.8065321,163.723276 26.8142457,161.073943 23.5311565,157.000797 C23.3958515,156.832832 23.2558809,156.636873 23.2823198,156.423029 C23.3149796,156.157085 23.6042522,156.029556 23.8235396,155.876366 C31.0141427,150.863862 44.3844499,149.671001 51.5097334,159.335197" id="Fill-27" fill="#8EC0F4"></path>
                <path d="M38.4488391,157.160364 C46.8564093,157.650261 54.7313134,159.463658 62.4366975,162.862612" id="Stroke-29" stroke="#000000" stroke-width="1.2" stroke-linecap="round" stroke-linejoin="round"></path>
                <path d="M91.1369009,101.453679 C90.6470036,101.029879 90.1656601,100.595193 89.6928704,100.151175" id="Stroke-31" stroke="#B8C1EA" stroke-width="0.75" stroke-linecap="round" stroke-linejoin="round"></path>
                <path d="M86.927206,97.3299887 C82.3455001,92.2560527 78.8369026,86.2124313 76.7365653,79.7053514 C75.3695186,75.4727946 74.5996801,70.8498752 75.9084056,66.5986556 C77.2171312,62.3482137 81.0678792,58.6467677 85.5158353,58.6887589 C91.8844997,58.7501905 95.9918605,67.0263437 93.2173313,72.7596969 C90.4420244,78.4922725 82.9193798,80.8251166 76.805773,79.0373804 C70.6929438,77.2496442 65.9907077,72.1967039 62.9968911,66.5753272 C60.4766419,61.8435417 55.7137518,47.8511428 52.9555525,39.9762387" id="Stroke-33" stroke="#8EC0F4" stroke-width="1.2" stroke-linecap="round" stroke-linejoin="round" stroke-dasharray="5.082,5.082"></path>
                <path d="M52.2983903,38.1115964 C52.0518864,37.4179641 51.8310438,36.8036485 51.6397506,36.2849795" id="Stroke-35" stroke="#B8C1EA" stroke-width="0.75" stroke-linecap="round" stroke-linejoin="round"></path>
                <polygon id="Fill-37" fill="#FFFFFF" points="34.7900064 0 68.2958687 21.0305896 55.9831175 23.6861438 50.9558385 34.1046256 44.5552919 25.7654855 30.9726959 29.0781242"></polygon>
                <polygon id="Stroke-39" stroke="#000000" stroke-width="1.2" stroke-linecap="round" stroke-linejoin="round" points="34.7900064 0 68.2958687 21.0305896 55.9831175 23.6861438 50.9558385 34.1046256 44.5552919 25.7654855 30.9726959 29.0781242"></polygon>
                <polyline id="Stroke-41" stroke="#000000" stroke-width="1.2" stroke-linecap="round" stroke-linejoin="round" points="50.9555274 34.1047034 49.1382419 24.648131 34.7896954 7.77614698e-05 55.9828065 23.6862216"></polyline>
                <line x1="49.1385529" y1="24.648131" x2="30.9726959" y2="29.0782019" id="Stroke-43" stroke="#000000" stroke-width="0.75" stroke-linecap="round" stroke-linejoin="round"></line>
                <path d="M39.570004,14.891166 C39.6897567,18.6034986 36.7775896,21.710847 33.065257,21.8305996 C29.3529244,21.9503523 26.2463537,19.0381852 26.1258234,15.3258526 C26.0060708,11.6135201 28.9182378,8.50694932 32.6305704,8.38641904 C36.342903,8.26666638 39.4502514,11.1788334 39.570004,14.891166" id="Fill-45" fill="#8EC0F4"></path>
                <path d="M39.570004,14.891166 C39.6897567,18.6034986 36.7775896,21.710847 33.065257,21.8305996 C29.3529244,21.9503523 26.2463537,19.0381852 26.1258234,15.3258526 C26.0060708,11.6135201 28.9182378,8.50694932 32.6305704,8.38641904 C36.342903,8.26666638 39.4502514,11.1788334 39.570004,14.891166 Z" id="Stroke-47" stroke="#000000" stroke-width="1.2" stroke-linecap="round" stroke-linejoin="round"></path>
                <polyline id="Stroke-49" stroke="#000000" stroke-width="1.2" stroke-linecap="round" stroke-linejoin="round" points="31.3634473 14.6105249 33.1045266 12.6190536 33.1029714 17.10278"></polyline>
                <path d="M123.21584,139.345755 L112.422548,138.979499 L112.291131,141.760249 L100.802652,110.755973 C100.570145,109.238847 100.198445,107.739606 99.7015492,106.290909 C98.3166174,102.257422 96.0335407,98.5793045 93.3966492,95.2277851 C93.1703634,94.9400676 92.900531,94.6313546 92.5358298,94.596362 C91.6913402,94.5162676 91.5086007,95.7604512 91.6680117,96.5940541 C92.1081417,98.905125 92.5482716,101.216196 92.9884015,103.527267 C89.7791856,101.350723 86.5691921,99.1741797 83.3591987,96.9984138 C83.0186034,96.7674622 82.6103557,96.525624 82.2207707,96.6585961 C81.4213828,96.9315389 81.8016364,98.1383969 82.317195,98.8079232 C83.7853315,100.713079 86.1282846,102.577799 87.883361,104.44874 C85.8802255,103.203001 82.7137785,102.031136 80.710643,100.785397 C80.1250991,100.421474 79.3031604,100.077768 78.8179288,100.566888 C78.2051684,101.185869 78.9516785,102.178105 79.6453108,102.703773 C81.6515568,104.225565 84.8732145,106.352341 86.8794604,107.874133 C84.6640361,106.724041 81.2332001,104.968964 79.0169982,103.818872 C78.6686268,103.638466 78.2526029,103.455726 77.9011211,103.629134 C77.507648,103.823538 77.4306642,104.388086 77.6258455,104.780782 C77.8210267,105.174255 78.2028356,105.434756 78.5683145,105.677371 C80.989029,107.283923 83.4105212,108.890475 85.8312358,110.497027 C84.1298148,109.855495 82.4283939,109.213963 80.7269729,108.571653 C79.8692639,108.248166 78.6662939,108.042098 78.2409387,108.853928 C77.761928,109.766847 78.8855813,110.668103 79.8241622,111.094235 C84.1959121,113.075598 88.1119797,116.305809 92.4837296,118.287171 C92.4837296,118.287171 98.5219077,149.477297 104.538313,154.996029 C113.228157,162.966579 126.363625,156.406622 126.363625,156.406622 L123.21584,139.345755 Z" id="Fill-51" fill="#FFFFFF"></path>
                <path d="M123.21584,139.345755 L112.422548,138.979499 L112.291131,141.760249 L100.802652,110.755973 C100.570145,109.238847 100.198445,107.739606 99.7015492,106.290909 C98.3166174,102.257422 96.0335407,98.5793045 93.3966492,95.2277851 C93.1703634,94.9400676 92.900531,94.6313546 92.5358298,94.596362 C91.6913402,94.5162676 91.5086007,95.7604512 91.6680117,96.5940541 C92.1081417,98.905125 92.5482716,101.216196 92.9884015,103.527267 C89.7791856,101.350723 86.5691921,99.1741797 83.3591987,96.9984138 C83.0186034,96.7674622 82.6103557,96.525624 82.2207707,96.6585961 C81.4213828,96.9315389 81.8016364,98.1383969 82.317195,98.8079232 C83.7853315,100.713079 86.1282846,102.577799 87.883361,104.44874 C85.8802255,103.203001 82.7137785,102.031136 80.710643,100.785397 C80.1250991,100.421474 79.3031604,100.077768 78.8179288,100.566888 C78.2051684,101.185869 78.9516785,102.178105 79.6453108,102.703773 C81.6515568,104.225565 84.8732145,106.352341 86.8794604,107.874133 C84.6640361,106.724041 81.2332001,104.968964 79.0169982,103.818872 C78.6686268,103.638466 78.2526029,103.455726 77.9011211,103.629134 C77.507648,103.823538 77.4306642,104.388086 77.6258455,104.780782 C77.8210267,105.174255 78.2028356,105.434756 78.5683145,105.677371 C80.989029,107.283923 83.4105212,108.890475 85.8312358,110.497027 C84.1298148,109.855495 82.4283939,109.213963 80.7269729,108.571653 C79.8692639,108.248166 78.6662939,108.042098 78.2409387,108.853928 C77.761928,109.766847 78.8855813,110.668103 79.8241622,111.094235 C84.1959121,113.075598 88.1119797,116.305809 92.4837296,118.287171 C92.4837296,118.287171 98.5219077,149.477297 104.538313,154.996029 C113.228157,162.966579 126.363625,156.406622 126.363625,156.406622 L123.21584,139.345755 Z" id="Stroke-53" stroke="#000000" stroke-width="1.2" stroke-linecap="round" stroke-linejoin="round"></path>
                <path d="M92.9560527,103.287528 C93.4195111,105.553497 92.8417434,106.516962 92.483263,107.377782 C91.5454597,109.631309 92.0983437,112.426056 93.8238707,114.152361" id="Stroke-55" stroke="#000000" stroke-width="1.2" stroke-linecap="round" stroke-linejoin="round"></path>
                <path d="M179.693529,174.918129 C175.850558,161.226667 166.869885,137.429324 166.869885,137.429324 L181.370067,124.306298 L168.851248,109.553392 C167.558074,108.02849 165.783558,106.991151 163.823191,106.598456 C156.861984,105.203415 149.740589,103.023761 146.073358,102.272585 C146.867302,103.758607 147.590484,106.572017 147.312098,108.192566 C146.775544,111.247814 143.733515,114.755634 139.88821,115.590792 C134.353927,116.793762 131.252799,114.17009 130.431638,112.323256 C129.838318,110.988091 129.399743,108.019158 129.099584,105.216635 L129.016379,105.232965 L116.231616,113.184853 C114.392557,114.328724 113.119602,116.194221 112.725351,118.323331 L112.140585,139.071646 L123.216151,139.345366 L127.801745,164.311464 C139.742019,168.277299 151.749168,173.107064 155.492605,174.63741 L179.693529,174.918129 Z" id="Fill-57" fill="#3474C6"></path>
                <path d="M179.693529,174.918129 C175.850558,161.226667 166.869885,137.429324 166.869885,137.429324 L181.370067,124.306298 L168.851248,109.553392 C167.558074,108.02849 165.783558,106.991151 163.823191,106.598456 C156.861984,105.203415 149.740589,103.023761 146.073358,102.272585 C146.867302,103.758607 147.590484,106.572017 147.312098,108.192566 C146.775544,111.247814 143.733515,114.755634 139.88821,115.590792 C134.353927,116.793762 131.252799,114.17009 130.431638,112.323256 C129.838318,110.988091 129.399743,108.019158 129.099584,105.216635 L129.016379,105.232965 L116.231616,113.184853 C114.392557,114.328724 113.119602,116.194221 112.725351,118.323331 L112.140585,139.071646 L123.216151,139.345366 L127.801745,164.311464 C139.742019,168.277299 151.749168,173.107064 155.492605,174.63741 L179.693529,174.918129 Z" id="Stroke-59" stroke="#000000" stroke-width="1.2" stroke-linecap="round" stroke-linejoin="round"></path>
                <line x1="120.509974" y1="123.324015" x2="123.447025" y2="140.535739" id="Stroke-61" stroke="#000000" stroke-width="1.2" stroke-linecap="round" stroke-linejoin="round"></line>
                <path d="M163.314475,109.102064 C160.98863,111.22573 159.336199,114.044583 160.037607,117.239025 C160.978521,121.526014 166.899279,137.439899 166.899279,137.439899" id="Stroke-63" stroke="#000000" stroke-width="1.2" stroke-linecap="round" stroke-linejoin="round"></path>
                <g id="Group-68" transform="translate(119.745207, 126.814494)">
                    <path d="M27.500172,25.4264455 C24.8912746,24.4979736 25.3290717,25.4559949 21.5770808,24.5049721 C18.636142,23.7600172 18.0630399,20.4574876 17.9526186,19.064002 C17.9207364,18.6619752 17.6851192,18.3073829 17.3320821,18.1137569 L17.3320821,18.1137569 C16.4735955,17.6433 15.3833797,17.8750292 14.8242747,18.6783051 C13.9292402,19.9652575 13.2208332,21.324528 12.5419755,22.8019959 C12.3265763,23.27012 12.121286,23.7537963 11.7853564,24.1449365 C11.4494269,24.5352991 10.9509759,24.8269046 10.4377502,24.7740268 C9.71301326,24.6993758 9.20600847,23.9520881 9.15624113,23.2250183 C9.10647379,22.4979486 9.40352261,21.7957625 9.71456849,21.1363452 C10.5707223,19.3229477 11.7231473,17.1129668 12.7775928,15.294126 C11.463424,17.6588523 10.1492551,20.0243562 8.83508626,22.3890825 C8.60413469,22.8043288 8.33663524,23.2514572 7.88872917,23.409313 C7.2767464,23.6254899 6.58700216,23.1612539 6.34283114,22.5593801 C6.09866012,21.9575063 6.1025482,21.2483217 6.33583261,20.6417823 C7.37317062,17.9387936 8.73244112,15.1393806 10.1391461,12.6315732 C10.050498,12.7528811 7.82807522,15.2428034 6.41437169,17.887471 C5.88092801,18.8859283 5.29927221,19.0966619 4.89569018,19.1798666 C4.36535695,19.2887327 3.6538395,18.9014806 3.50142702,18.3820339 C3.34979215,17.8625873 3.58229895,17.1215205 3.80391914,16.6277352 C4.85525421,14.2824492 6.37471334,12.0444741 8.26509468,10.1781988 L8.28142459,10.0312297 C7.79463779,9.31271367 6.67798308,9.32671074 5.94158195,9.7847258 C5.20440321,10.2419632 4.72539256,11.0055809 4.17173089,11.6727743 C3.70205161,12.2388778 3.16471985,12.7482154 2.57451029,13.1867901 C2.16470734,13.4916151 1.7074699,13.7700011 1.19346658,13.792552 C0.628918307,13.8182133 0.115692604,13.4620657 0.02082361,12.9052936 C-0.052272172,12.4783831 0.0729237951,12.0219233 0.304652976,11.6502235 C1.41975246,9.85237828 2.97498186,8.2085008 5.17874193,6.29012533 C5.17874193,6.29012533 7.02402162,5.1198152 8.62357506,5.75901448 C10.2223509,6.39821377 24.6439932,14.3182195 24.6439932,14.3182195 L50.8076174,20.1192252 L47.1248342,10.5467882 L58.7781681,0 C68.0465578,22.4326289 68.8101754,29.9599392 64.387103,33.4506516 C59.038669,37.6715442 50.459246,35.0572036 50.459246,35.0572036 C44.9304055,33.520637 39.5462013,31.4615132 34.4046129,28.9124922 C31.9333534,27.6869715 30.3229133,26.3937982 27.1704633,25.314469" id="Fill-65" fill="#FFFFFF"></path>
                    <path d="M27.500172,25.4264455 C24.8912746,24.4979736 25.3290717,25.4559949 21.5770808,24.5049721 C18.636142,23.7600172 18.0630399,20.4574876 17.9526186,19.064002 C17.9207364,18.6619752 17.6851192,18.3073829 17.3320821,18.1137569 L17.3320821,18.1137569 C16.4735955,17.6433 15.3833797,17.8750292 14.8242747,18.6783051 C13.9292402,19.9652575 13.2208332,21.324528 12.5419755,22.8019959 C12.3265763,23.27012 12.121286,23.7537963 11.7853564,24.1449365 C11.4494269,24.5352991 10.9509759,24.8269046 10.4377502,24.7740268 C9.71301326,24.6993758 9.20600847,23.9520881 9.15624113,23.2250183 C9.10647379,22.4979486 9.40352261,21.7957625 9.71456849,21.1363452 C10.5707223,19.3229477 11.7231473,17.1129668 12.7775928,15.294126 C11.463424,17.6588523 10.1492551,20.0243562 8.83508626,22.3890825 C8.60413469,22.8043288 8.33663524,23.2514572 7.88872917,23.409313 C7.2767464,23.6254899 6.58700216,23.1612539 6.34283114,22.5593801 C6.09866012,21.9575063 6.1025482,21.2483217 6.33583261,20.6417823 C7.37317062,17.9387936 8.73244112,15.1393806 10.1391461,12.6315732 C10.050498,12.7528811 7.82807522,15.2428034 6.41437169,17.887471 C5.88092801,18.8859283 5.29927221,19.0966619 4.89569018,19.1798666 C4.36535695,19.2887327 3.6538395,18.9014806 3.50142702,18.3820339 C3.34979215,17.8625873 3.58229895,17.1215205 3.80391914,16.6277352 C4.85525421,14.2824492 6.37471334,12.0444741 8.26509468,10.1781988 L8.28142459,10.0312297 C7.79463779,9.31271367 6.67798308,9.32671074 5.94158195,9.7847258 C5.20440321,10.2419632 4.72539256,11.0055809 4.17173089,11.6727743 C3.70205161,12.2388778 3.16471985,12.7482154 2.57451029,13.1867901 C2.16470734,13.4916151 1.7074699,13.7700011 1.19346658,13.792552 C0.628918307,13.8182133 0.115692604,13.4620657 0.02082361,12.9052936 C-0.052272172,12.4783831 0.0729237951,12.0219233 0.304652976,11.6502235 C1.41975246,9.85237828 2.97498186,8.2085008 5.17874193,6.29012533 C5.17874193,6.29012533 7.02402162,5.1198152 8.62357506,5.75901448 C10.2223509,6.39821377 24.6439932,14.3182195 24.6439932,14.3182195 L50.8076174,20.1192252 L47.1248342,10.5467882 L58.7781681,0 C68.0465578,22.4326289 68.8101754,29.9599392 64.387103,33.4506516 C59.038669,37.6715442 50.459246,35.0572036 50.459246,35.0572036 C44.9304055,33.520637 39.5462013,31.4615132 34.4046129,28.9124922 C31.9333534,27.6869715 30.3229133,26.3937982 27.1704633,25.314469" id="Stroke-67" stroke="#000000" stroke-width="1.2" stroke-linecap="round" stroke-linejoin="round"></path>
                </g>
                <path d="M170.553057,146.933875 C170.616044,146.947094 177.350188,148.524097 177.350188,148.524097" id="Stroke-69" stroke="#000000" stroke-width="1.2" stroke-linecap="round" stroke-linejoin="round"></path>
                <path d="M94.2031134,272.97231 C92.4379281,274.006537 89.5817493,275.032211 86.6555851,274.299698 C82.5886602,273.280245 82.014003,270.391407 81.9401296,269.835412 C81.9323534,269.774758 81.9284654,269.733545 81.9284654,269.733545 C81.9284654,269.733545 79.3817772,271.729682 77.0061643,272.788015 C74.7720773,273.78414 71.3046933,274.12318 66.0705687,275.2445 C59.432072,276.665202 59.3045432,282.933554 59.2158951,283.236824 L96.2497953,283.236824 L97.8672339,273.61462 L97.9621029,272.97231 C97.9162236,272.88755 97.8501264,272.826118 97.7902501,272.757688 C97.0748445,271.947414 95.4224133,272.257682 94.2031134,272.97231" id="Fill-71" fill="#8EC0F4"></path>
                <path d="M94.2031134,272.97231 C92.4379281,274.006537 89.5817493,275.032211 86.6555851,274.299698 C82.5886602,273.280245 82.014003,270.391407 81.9401296,269.835412 C81.9323534,269.774758 81.9284654,269.733545 81.9284654,269.733545 C81.9284654,269.733545 79.3817772,271.729682 77.0061643,272.788015 C74.7720773,273.78414 71.3046933,274.12318 66.0705687,275.2445 C59.432072,276.665202 59.3045432,282.933554 59.2158951,283.236824 L96.2497953,283.236824 L97.8672339,273.61462 L97.9621029,272.97231 C97.9162236,272.88755 97.8501264,272.826118 97.7902501,272.757688 C97.0748445,271.947414 95.4224133,272.257682 94.2031134,272.97231 Z" id="Stroke-73" stroke="#000000" stroke-width="1.2" stroke-linecap="round" stroke-linejoin="round"></path>
                <polygon id="Fill-75" fill="#FFFFFF" points="59.2157396 285.705284 95.7962904 285.705284 96.2504174 283.237135 59.2157396 283.237135"></polygon>
                <polygon id="Stroke-77" stroke="#000000" stroke-width="1.2" stroke-linecap="round" stroke-linejoin="round" points="59.2157396 285.705284 95.7962904 285.705284 96.2504174 283.237135 59.2157396 283.237135"></polygon>
                <path d="M73.5582207,273.93453 C75.2215386,274.903438 76.3374157,276.754939 76.4182876,278.68109" id="Stroke-79" stroke="#000000" stroke-width="1.2" stroke-linecap="round" stroke-linejoin="round"></path>
                <path d="M76.9716382,272.97231 C78.6862786,274.22738 79.7656078,276.312165 79.8013781,278.440496" id="Stroke-81" stroke="#000000" stroke-width="1.2" stroke-linecap="round" stroke-linejoin="round"></path>
                <path d="M93.0259603,279.668972 C93.0259603,280.561674 92.3035562,281.284855 91.4131874,281.284855 C90.5228186,281.284855 89.8004145,280.561674 89.8004145,279.668972 C89.8004145,278.77627 90.5228186,278.053089 91.4131874,278.053089 C92.3035562,278.053089 93.0259603,278.77627 93.0259603,279.668972" id="Fill-83" fill="#3474C6"></path>
                <path d="M81.9402073,269.835101 C82.0140807,270.391096 82.588738,273.280712 86.6556629,274.299387 C89.581827,275.032678 92.4380058,274.006226 94.2031912,272.971999 C95.4224911,272.258148 97.0741447,271.947103 97.7895502,272.757377 L100.812139,258.94694 L83.955007,257.774297 L81.9402073,269.835101 Z" id="Fill-85" fill="#FFFFFF"></path>
                <path d="M81.9402073,269.835101 C82.0140807,270.391096 82.588738,273.280712 86.6556629,274.299387 C89.581827,275.032678 92.4380058,274.006226 94.2031912,272.971999 C95.4224911,272.258148 97.0741447,271.947103 97.7895502,272.757377 L100.812139,258.94694 L83.955007,257.774297 L81.9402073,269.835101 Z" id="Stroke-87" stroke="#000000" stroke-width="1.2"></path>
                <path d="M80.2695022,239.231141 C78.3962283,240.053858 75.4405149,240.742824 72.6193287,239.676715 C68.6970402,238.193803 68.4606453,235.25753 68.4520915,234.69687 C68.4505363,234.636216 68.4513139,234.595002 68.4513139,234.595002 C68.4513139,234.595002 65.6915593,236.282426 63.2094132,237.059263 C60.8750139,237.790221 57.3920776,237.726457 52.0630841,238.234239 C45.3048347,238.878104 44.452569,245.088913 44.3297059,245.380518 L81.115547,249.66362 L83.8348656,240.293363 L84.003608,239.665828 C83.9678377,239.576402 83.908739,239.507195 83.8574164,239.432544 C83.2399903,238.545285 81.563453,238.662705 80.2695022,239.231141" id="Fill-89" fill="#8EC0F4"></path>
                <path d="M80.2695022,239.231141 C78.3962283,240.053858 75.4405149,240.742824 72.6193287,239.676715 C68.6970402,238.193803 68.4606453,235.25753 68.4520915,234.69687 C68.4505363,234.636216 68.4513139,234.595002 68.4513139,234.595002 C68.4513139,234.595002 65.6915593,236.282426 63.2094132,237.059263 C60.8750139,237.790221 57.3920776,237.726457 52.0630841,238.234239 C45.3048347,238.878104 44.452569,245.088913 44.3297059,245.380518 L81.115547,249.66362 L83.8348656,240.293363 L84.003608,239.665828 C83.9678377,239.576402 83.908739,239.507195 83.8574164,239.432544 C83.2399903,238.545285 81.563453,238.662705 80.2695022,239.231141 Z" id="Stroke-91" stroke="#000000" stroke-width="1.2" stroke-linecap="round" stroke-linejoin="round"></path>
                <polygon id="Fill-93" fill="#FFFFFF" points="44.0441657 247.832026 80.3797679 252.063028 81.1153914 249.663309 44.3295503 245.380207"></polygon>
                <polygon id="Stroke-95" stroke="#000000" stroke-width="1.2" stroke-linecap="round" stroke-linejoin="round" points="44.0441657 247.832026 80.3797679 252.063028 81.1153914 249.663309 44.3295503 245.380207"></polygon>
                <path d="M59.6518259,237.799086 C61.1922807,238.953844 62.08576,240.921987 61.9434565,242.845028" id="Stroke-97" stroke="#000000" stroke-width="1.2" stroke-linecap="round" stroke-linejoin="round"></path>
                <path d="M63.1535805,237.238115 C64.7119203,238.682923 65.5424128,240.878907 65.3316793,242.996352" id="Stroke-99" stroke="#000000" stroke-width="1.2" stroke-linecap="round" stroke-linejoin="round"></path>
                <path d="M78.3256987,245.746697 C78.2222759,246.633178 77.4213328,247.268489 76.5371849,247.165066 C75.6522593,247.062421 75.0185034,246.259923 75.1219261,245.373442 C75.2253489,244.486961 76.026292,243.85165 76.9104399,243.955073 C77.7953655,244.057718 78.4291214,244.860216 78.3256987,245.746697" id="Fill-101" fill="#3474C6"></path>
                <path d="M83.8967637,225.825997 C79.3811551,224.678238 75.2660181,223.332187 72.0707993,222.178984 L68.4517805,234.696248 C68.4603342,235.257686 68.6975067,238.193959 72.6190177,239.67687 C75.4409814,240.74298 78.3966949,240.054013 80.2691911,239.231297 C80.9674891,238.924139 81.7723203,238.756952 82.4667303,238.798943 C82.9402976,234.57183 83.4364158,230.08577 83.8967637,225.825997" id="Fill-103" fill="#FFFFFF"></path>
                <path d="M83.8967637,225.825997 C79.3811551,224.678238 75.2660181,223.332187 72.0707993,222.178984 L68.4517805,234.696248 C68.4603342,235.257686 68.6975067,238.193959 72.6190177,239.67687 C75.4409814,240.74298 78.3966949,240.054013 80.2691911,239.231297 C80.9674891,238.924139 81.7723203,238.756952 82.4667303,238.798943 C82.9402976,234.57183 83.4364158,230.08577 83.8967637,225.825997 Z" id="Stroke-105" stroke="#000000" stroke-width="1.2"></path>
                <path d="M156.182893,174.751564 C156.182893,174.751564 155.762204,174.575823 154.99392,174.262444 C151.251261,172.732098 139.244112,167.902333 127.303061,163.936498 C122.023057,162.182977 116.756273,160.596643 112.223557,159.542198 C107.205609,158.374998 100.083436,158.200035 95.0522687,159.308136 C88.3826674,160.777827 83.8406199,166.187693 79.6897126,175.485632 C76.282205,183.116365 64.8854839,219.168915 64.8854839,219.168915 C64.8854839,219.168915 67.4764961,220.325228 71.5721928,221.803474 C74.7681892,222.956677 78.8825486,224.302728 83.3981571,225.450487 C84.1952122,218.074811 84.8826236,211.380326 85.1509007,207.901278 C85.5840321,202.279124 86.1019235,196.394914 89.156394,191.655352 C90.5856498,189.437595 92.657993,187.492003 95.2248992,186.883908 C97.2039286,186.415784 99.7506167,186.359018 101.762306,186.931343 L101.763861,186.925122 C101.763861,186.925122 101.801187,186.938341 101.872727,186.963225 C101.991702,186.998995 102.115343,187.027767 102.23043,187.068203 C113.189354,190.908842 155.976048,204.696728 156.811984,204.96656 C163.11144,206.329719 170.20873,206.380264 175.830106,199.828082 C184.527727,189.691875 179.120194,174.993402 179.120194,174.993402 L156.182893,174.751564 Z" id="Fill-107" fill="#FFFFFF"></path>
                <path d="M156.182893,174.751564 C156.182893,174.751564 155.762204,174.575823 154.99392,174.262444 C151.251261,172.732098 139.244112,167.902333 127.303061,163.936498 C122.023057,162.182977 116.756273,160.596643 112.223557,159.542198 C107.205609,158.374998 100.083436,158.200035 95.0522687,159.308136 C88.3826674,160.777827 83.8406199,166.187693 79.6897126,175.485632 C76.282205,183.116365 64.8854839,219.168915 64.8854839,219.168915 C64.8854839,219.168915 67.4764961,220.325228 71.5721928,221.803474 C74.7681892,222.956677 78.8825486,224.302728 83.3981571,225.450487 C84.1952122,218.074811 84.8826236,211.380326 85.1509007,207.901278 C85.5840321,202.279124 86.1019235,196.394914 89.156394,191.655352 C90.5856498,189.437595 92.657993,187.492003 95.2248992,186.883908 C97.2039286,186.415784 99.7506167,186.359018 101.762306,186.931343 L101.763861,186.925122 C101.763861,186.925122 101.801187,186.938341 101.872727,186.963225 C101.991702,186.998995 102.115343,187.027767 102.23043,187.068203 C113.189354,190.908842 155.976048,204.696728 156.811984,204.96656 C163.11144,206.329719 170.20873,206.380264 175.830106,199.828082 C184.527727,189.691875 179.120194,174.993402 179.120194,174.993402 L156.182893,174.751564 Z" id="Stroke-109" stroke="#000000" stroke-width="1.2" stroke-linecap="round" stroke-linejoin="round"></path>
                <path d="M156.567113,204.923325 C155.731177,204.65427 112.945261,190.865606 101.985559,187.024967 C101.87125,186.985309 101.746831,186.95576 101.627856,186.920767 C101.591308,186.909103 101.554761,186.898216 101.517435,186.888107 C99.5065235,186.31656 96.9590577,186.372549 94.9800283,186.840673 C92.4131222,187.448767 90.340779,189.395137 88.9115231,191.612117 C85.8570526,196.351678 85.3391612,202.235889 84.9060298,207.858043 C84.6377527,211.337091 83.9503413,218.031576 83.1540639,225.408029 C82.693716,229.667802 82.1968202,234.153084 81.7232528,238.380975 C80.558386,248.777684 79.5327122,257.603611 79.5327122,257.603611 L83.2116074,257.859446 L100.068739,259.032089 L105.14423,259.384348 C105.14423,259.384348 109.760151,225.673973 111.04477,216.956913 C111.617872,213.068061 111.389254,214.687055 111.998904,210.80287 C112.288954,208.956035 112.536235,205.126282 113.798304,204.44587 C114.575141,204.027513 115.502836,204.036844 116.385428,204.057062 C124.954742,204.253799 148.017239,204.732809 156.586553,204.929546 C156.586553,204.929546 156.575666,204.925658 156.567113,204.923325" id="Fill-111" fill="#FFFFFF"></path>
                <path d="M156.567113,204.923325 C155.731177,204.65427 112.945261,190.865606 101.985559,187.024967 C101.87125,186.985309 101.746831,186.95576 101.627856,186.920767 C101.591308,186.909103 101.554761,186.898216 101.517435,186.888107 C99.5065235,186.31656 96.9590577,186.372549 94.9800283,186.840673 C92.4131222,187.448767 90.340779,189.395137 88.9115231,191.612117 C85.8570526,196.351678 85.3391612,202.235889 84.9060298,207.858043 C84.6377527,211.337091 83.9503413,218.031576 83.1540639,225.408029 C82.693716,229.667802 82.1968202,234.153084 81.7232528,238.380975 C80.558386,248.777684 79.5327122,257.603611 79.5327122,257.603611 L83.2116074,257.859446 L100.068739,259.032089 L105.14423,259.384348 C105.14423,259.384348 109.760151,225.673973 111.04477,216.956913 C111.617872,213.068061 111.389254,214.687055 111.998904,210.80287 C112.288954,208.956035 112.536235,205.126282 113.798304,204.44587 C114.575141,204.027513 115.502836,204.036844 116.385428,204.057062 C124.954742,204.253799 148.017239,204.732809 156.586553,204.929546 C156.586553,204.929546 156.575666,204.925658 156.567113,204.923325 Z" id="Stroke-113" stroke="#000000" stroke-width="1.2"></path>
                <line x1="156.182893" y1="174.751564" x2="171.889933" y2="181.561135" id="Stroke-115" stroke="#000000" stroke-width="1.2" stroke-linecap="round" stroke-linejoin="round"></line>
                <path d="M116.541884,71.0248385 C120.688126,73.40745 124.920683,71.2900051 127.018687,69.8685255 C128.175,69.0862451 129.578595,68.6896616 130.951862,68.9400535 C133.66185,69.4353941 135.448031,71.3949831 135.755966,74.7830504 C136.0709,78.2496567 136.609787,82.8865732 136.966712,84.810392 C137.057693,85.298734 137.477605,85.6556592 137.973723,85.6668072 C138.571709,85.6797652 139.059273,85.1898679 139.043721,84.5918822 L138.990843,82.5871915 C138.974513,82.3554624 138.980734,82.1470616 138.996286,81.9487699 C139.000174,81.8982249 139.00484,81.8500128 139.011061,81.8010231 C139.032057,81.6213941 139.061606,81.4503188 139.10593,81.2979064 C139.107485,81.2916854 139.108263,81.2846869 139.109818,81.278466 C139.157253,81.1198326 139.217129,80.9798619 139.283226,80.8492227 C139.300334,80.8150076 139.317441,80.7823478 139.336104,80.7504656 C139.400646,80.6361562 139.469076,80.529623 139.543727,80.4363093 C139.549948,80.4293107 139.554614,80.4199794 139.560835,80.4129808 C139.643262,80.3126685 139.730355,80.2279085 139.81978,80.1493694 C139.842331,80.1299291 139.864104,80.1112663 139.887433,80.0933812 C139.970638,80.0257287 140.053842,79.9650748 140.137047,79.9129746 C140.143268,79.9098641 140.149489,79.9051984 140.154932,79.9013104 C140.247468,79.8453221 140.336894,79.8009981 140.423987,79.7613397 C140.44265,79.7535636 140.45898,79.7457874 140.476865,79.7387889 C140.558514,79.7037962 140.636276,79.6742469 140.706261,79.651696 C140.707039,79.651696 140.707039,79.651696 140.707039,79.651696 L140.707039,79.6509184 C142.549986,78.8134274 144.452809,79.2348946 145.752981,80.13615 C145.955938,79.6198138 146.208663,79.0933687 146.550813,78.5327085 C147.932635,76.2706273 149.466091,74.0482045 149.525967,71.2472363 C149.57729,68.8296322 148.403091,66.4166938 146.469164,64.9648872 C145.065569,63.9112192 140.710149,64.0760736 140.710149,64.0760736 C140.710149,64.0760736 138.00405,59.5316932 136.095006,58.0332297 C133.970563,56.3668014 131.5133,55.0246384 128.840638,54.6459401 C126.167199,54.2672417 123.25892,54.9600964 121.352986,56.8722509 C120.860756,57.3660363 120.429958,57.9406936 119.830417,58.2960635 C118.740979,58.9430389 117.375487,58.7299725 116.10953,58.6770947 C113.401876,58.5651182 110.51226,59.4134958 108.803063,61.516166 C107.093866,63.6196137 107.025436,67.1017724 109.100889,68.8444069 C109.960931,69.5675886 111.200449,70.1088084 111.352861,71.2223527 C111.452396,71.9486448 111.022375,72.6275024 110.78598,73.3219124 C110.350516,74.6026438 110.604018,76.0948864 111.438399,77.1594409 C112.240897,78.1843371 114.393335,78.6687911 115.724611,78.6065819 L115.033312,76.6221092 C115.033312,76.6221092 114.630507,69.926069 116.541884,71.0248385" id="Fill-117" fill="#8EC0F4"></path>
                <path d="M116.541884,71.0248385 C120.688126,73.40745 124.920683,71.2900051 127.018687,69.8685255 C128.175,69.0862451 129.578595,68.6896616 130.951862,68.9400535 C133.66185,69.4353941 135.448031,71.3949831 135.755966,74.7830504 C136.0709,78.2496567 136.609787,82.8865732 136.966712,84.810392 C137.057693,85.298734 137.477605,85.6556592 137.973723,85.6668072 C138.571709,85.6797652 139.059273,85.1898679 139.043721,84.5918822 L138.990843,82.5871915 C138.974513,82.3554624 138.980734,82.1470616 138.996286,81.9487699 C139.000174,81.8982249 139.00484,81.8500128 139.011061,81.8010231 C139.032057,81.6213941 139.061606,81.4503188 139.10593,81.2979064 C139.107485,81.2916854 139.108263,81.2846869 139.109818,81.278466 C139.157253,81.1198326 139.217129,80.9798619 139.283226,80.8492227 C139.300334,80.8150076 139.317441,80.7823478 139.336104,80.7504656 C139.400646,80.6361562 139.469076,80.529623 139.543727,80.4363093 C139.549948,80.4293107 139.554614,80.4199794 139.560835,80.4129808 C139.643262,80.3126685 139.730355,80.2279085 139.81978,80.1493694 C139.842331,80.1299291 139.864104,80.1112663 139.887433,80.0933812 C139.970638,80.0257287 140.053842,79.9650748 140.137047,79.9129746 C140.143268,79.9098641 140.149489,79.9051984 140.154932,79.9013104 C140.247468,79.8453221 140.336894,79.8009981 140.423987,79.7613397 C140.44265,79.7535636 140.45898,79.7457874 140.476865,79.7387889 C140.558514,79.7037962 140.636276,79.6742469 140.706261,79.651696 C140.707039,79.651696 140.707039,79.651696 140.707039,79.651696 L140.707039,79.6509184 C142.549986,78.8134274 144.452809,79.2348946 145.752981,80.13615 C145.955938,79.6198138 146.208663,79.0933687 146.550813,78.5327085 C147.932635,76.2706273 149.466091,74.0482045 149.525967,71.2472363 C149.57729,68.8296322 148.403091,66.4166938 146.469164,64.9648872 C145.065569,63.9112192 140.710149,64.0760736 140.710149,64.0760736 C140.710149,64.0760736 138.00405,59.5316932 136.095006,58.0332297 C133.970563,56.3668014 131.5133,55.0246384 128.840638,54.6459401 C126.167199,54.2672417 123.25892,54.9600964 121.352986,56.8722509 C120.860756,57.3660363 120.429958,57.9406936 119.830417,58.2960635 C118.740979,58.9430389 117.375487,58.7299725 116.10953,58.6770947 C113.401876,58.5651182 110.51226,59.4134958 108.803063,61.516166 C107.093866,63.6196137 107.025436,67.1017724 109.100889,68.8444069 C109.960931,69.5675886 111.200449,70.1088084 111.352861,71.2223527 C111.452396,71.9486448 111.022375,72.6275024 110.78598,73.3219124 C110.350516,74.6026438 110.604018,76.0948864 111.438399,77.1594409 C112.240897,78.1843371 114.393335,78.6687911 115.724611,78.6065819 L115.033312,76.6221092 C115.033312,76.6221092 114.630507,69.926069 116.541884,71.0248385 Z" id="Stroke-119" stroke="#000000" stroke-width="1.2" stroke-linecap="round" stroke-linejoin="round"></path>
                <path d="M143.791525,88.3229553 C143.103336,88.4683693 142.394152,88.4722574 141.70363,88.3353972 L141.713739,88.4761454 C141.837379,90.4637286 141.914363,92.3657742 142.099436,94.1052983 L142.268178,94.2025001 C142.786847,92.1068285 143.352951,89.9559462 143.791525,88.3229553" id="Fill-121" fill="#3E4AF8"></path>
                <path d="M143.791525,88.3229553 C143.103336,88.4683693 142.394152,88.4722574 141.70363,88.3353972 L141.713739,88.4761454 C141.837379,90.4637286 141.914363,92.3657742 142.099436,94.1052983 L142.268178,94.2025001 C142.786847,92.1068285 143.352951,89.9559462 143.791525,88.3229553 Z" id="Stroke-123" stroke="#1F2CA3" stroke-width="0.75" stroke-linecap="round" stroke-linejoin="round"></path>
                <path d="M145.365573,101.612702 C143.183586,100.069914 142.447963,97.3793672 142.099591,94.1048317 C141.914519,92.3653076 141.836757,90.4640397 141.713894,88.4764565 L141.703785,88.3357082 C142.394307,88.4725684 143.103492,88.4679027 143.791681,88.3232664 C143.95498,88.2882737 144.117501,88.2532811 144.27769,88.2019585 C144.527304,88.1218642 144.761366,88.0347713 144.944106,87.944568 C146.519553,87.1692862 147.650983,85.561179 147.598105,83.7501143 C147.593439,83.5969242 147.570111,83.4398461 147.560779,83.2757694 C147.526564,82.6583433 147.349268,82.103904 147.103542,81.6186724 C146.826711,81.0727869 146.353921,80.5533403 145.752825,80.1357612 C144.453431,79.2345057 142.54983,78.8130386 140.707661,79.6513072 L140.707661,79.6513072 C140.706883,79.6513072 140.706883,79.6520848 140.706106,79.6520848 C140.636898,79.6738581 140.558359,79.704185 140.477487,79.7384001 C140.458824,79.7461762 140.442494,79.7531748 140.423831,79.7617285 C140.337516,79.8006093 140.247313,79.8457109 140.155554,79.9016992 C140.149333,79.9048096 140.143113,79.9094753 140.137669,79.9133634 C140.054464,79.964686 139.970482,80.0261175 139.887277,80.0929924 C139.864727,80.1116551 139.842176,80.1303179 139.819625,80.1497583 C139.730977,80.2275197 139.643106,80.3130573 139.560679,80.412592 C139.555236,80.4203682 139.549793,80.4289219 139.544349,80.4366981 C139.468921,80.5300118 139.400491,80.6357674 139.335949,80.7500768 C139.318063,80.7827366 139.300178,80.8153964 139.283071,80.8496115 C139.216973,80.9802508 139.157097,81.1194438 139.11044,81.2780772 C139.108107,81.2842981 139.10733,81.2920742 139.105775,81.2982952 C139.062228,81.4507076 139.031901,81.6210053 139.010906,81.8014119 C139.004685,81.849624 139.000019,81.8986137 138.996131,81.9491587 C138.980579,82.1466728 138.974358,82.3550735 138.990688,82.5875803 L139.043565,84.592271 C139.059118,85.1902568 138.571553,85.6793764 137.973568,85.6669346 C137.477449,85.656048 137.057537,85.2983452 136.966557,84.8107808 C136.609631,82.886962 136.070744,78.2492679 135.75581,74.7826616 C135.445542,71.365045 133.629812,69.4007902 130.879389,68.9272229 C129.538781,68.6970489 128.170957,69.0850787 127.047303,69.8494739 C124.95863,71.2709536 120.706633,73.4187254 116.541729,71.0252273 C115.120249,70.2079543 114.897851,73.8666315 114.876545,75.7966711 C114.86908,76.5004125 115.007495,77.1963776 115.291324,77.8402426 L115.663802,78.687065 L115.663802,85.0627279 C115.213563,89.2618473 116.401758,93.3497678 119.548765,95.9213396 C122.365285,98.2230792 125.187249,99.3327353 128.600978,98.9478161 L128.590869,98.9555922 C128.590869,98.9555922 128.752612,101.974292 129.100206,105.216946 C129.399588,108.019469 129.838163,110.988402 130.431483,112.322789 C131.252644,114.170401 134.353771,116.793296 139.888055,115.591104 C143.73336,114.755168 146.775388,111.248125 147.311943,108.1921 C147.590329,106.571551 147.425474,104.598742 146.63153,103.113498 C146.313485,102.517845 145.903682,101.992955 145.365573,101.612702" id="Fill-125" fill="#FFFFFF"></path>
                <path d="M145.365573,101.612702 C143.183586,100.069914 142.447963,97.3793672 142.099591,94.1048317 C141.914519,92.3653076 141.836757,90.4640397 141.713894,88.4764565 L141.703785,88.3357082 C142.394307,88.4725684 143.103492,88.4679027 143.791681,88.3232664 C143.95498,88.2882737 144.117501,88.2532811 144.27769,88.2019585 C144.527304,88.1218642 144.761366,88.0347713 144.944106,87.944568 C146.519553,87.1692862 147.650983,85.561179 147.598105,83.7501143 C147.593439,83.5969242 147.570111,83.4398461 147.560779,83.2757694 C147.526564,82.6583433 147.349268,82.103904 147.103542,81.6186724 C146.826711,81.0727869 146.353921,80.5533403 145.752825,80.1357612 C144.453431,79.2345057 142.54983,78.8130386 140.707661,79.6513072 L140.707661,79.6513072 C140.706883,79.6513072 140.706883,79.6520848 140.706106,79.6520848 C140.636898,79.6738581 140.558359,79.704185 140.477487,79.7384001 C140.458824,79.7461762 140.442494,79.7531748 140.423831,79.7617285 C140.337516,79.8006093 140.247313,79.8457109 140.155554,79.9016992 C140.149333,79.9048096 140.143113,79.9094753 140.137669,79.9133634 C140.054464,79.964686 139.970482,80.0261175 139.887277,80.0929924 C139.864727,80.1116551 139.842176,80.1303179 139.819625,80.1497583 C139.730977,80.2275197 139.643106,80.3130573 139.560679,80.412592 C139.555236,80.4203682 139.549793,80.4289219 139.544349,80.4366981 C139.468921,80.5300118 139.400491,80.6357674 139.335949,80.7500768 C139.318063,80.7827366 139.300178,80.8153964 139.283071,80.8496115 C139.216973,80.9802508 139.157097,81.1194438 139.11044,81.2780772 C139.108107,81.2842981 139.10733,81.2920742 139.105775,81.2982952 C139.062228,81.4507076 139.031901,81.6210053 139.010906,81.8014119 C139.004685,81.849624 139.000019,81.8986137 138.996131,81.9491587 C138.980579,82.1466728 138.974358,82.3550735 138.990688,82.5875803 L139.043565,84.592271 C139.059118,85.1902568 138.571553,85.6793764 137.973568,85.6669346 C137.477449,85.656048 137.057537,85.2983452 136.966557,84.8107808 C136.609631,82.886962 136.070744,78.2492679 135.75581,74.7826616 C135.445542,71.365045 133.629812,69.4007902 130.879389,68.9272229 C129.538781,68.6970489 128.170957,69.0850787 127.047303,69.8494739 C124.95863,71.2709536 120.706633,73.4187254 116.541729,71.0252273 C115.120249,70.2079543 114.897851,73.8666315 114.876545,75.7966711 C114.86908,76.5004125 115.007495,77.1963776 115.291324,77.8402426 L115.663802,78.687065 L115.663802,85.0627279 C115.213563,89.2618473 116.401758,93.3497678 119.548765,95.9213396 C122.365285,98.2230792 125.187249,99.3327353 128.600978,98.9478161 L128.590869,98.9555922 C128.590869,98.9555922 128.752612,101.974292 129.100206,105.216946 C129.399588,108.019469 129.838163,110.988402 130.431483,112.322789 C131.252644,114.170401 134.353771,116.793296 139.888055,115.591104 C143.73336,114.755168 146.775388,111.248125 147.311943,108.1921 C147.590329,106.571551 147.425474,104.598742 146.63153,103.113498 C146.313485,102.517845 145.903682,101.992955 145.365573,101.612702 Z" id="Stroke-127" stroke="#000000" stroke-width="1.2" stroke-linecap="round" stroke-linejoin="round"></path>
                <g id="Group-132" transform="translate(129.484892, 79.376032)">
                    <line x1="0.460789703" y1="0" x2="0.564326433" y2="3.21154872" id="Fill-129" fill="#FFFFFF"></line>
                    <line x1="0.460789703" y1="0" x2="0.564326433" y2="3.21154872" id="Stroke-131" stroke="#000000" stroke-width="1.2" stroke-linecap="round" stroke-linejoin="round"></line>
                </g>
                <g id="Group-136" transform="translate(120.053826, 79.859708)">
                    <path d="M0.572014804,0 C0.532035275,0.963464616 0.492055746,1.92615162 0.453101332,2.88961623" id="Fill-133" fill="#FFFFFF"></path>
                    <path d="M0.572014804,0 C0.532035275,0.963464616 0.492055746,1.92615162 0.453101332,2.88961623" id="Stroke-135" stroke="#000000" stroke-width="1.2" stroke-linecap="round" stroke-linejoin="round"></path>
                </g>
                <g id="Group-140" transform="translate(140.550738, 82.038344)">
                    <path d="M0,2.93425872 C0.184294684,1.90858493 0.821161125,0.979335359 1.69364482,0.463776812 C2.5653509,-0.0517817358 3.65712194,-0.143540271 4.59570289,0.218828181" id="Fill-137" fill="#FFFFFF"></path>
                    <path d="M0,2.93425872 C0.184294684,1.90858493 0.821161125,0.979335359 1.69364482,0.463776812 C2.5653509,-0.0517817358 3.65712194,-0.143540271 4.59570289,0.218828181" id="Stroke-139" stroke="#000000" stroke-width="1.2" stroke-linecap="round" stroke-linejoin="round"></path>
                </g>
                <g id="Group-144" transform="translate(122.370029, 88.157946)">
                    <path d="M0,2.75353366 C0.968130304,3.05835862 2.06378942,2.93160743 2.93627312,2.41371604 C3.80953443,1.89582464 4.44562325,0.995346819 4.64158216,0" id="Fill-141" fill="#FFFFFF"></path>
                    <path d="M0,2.75353366 C0.968130304,3.05835862 2.06378942,2.93160743 2.93627312,2.41371604 C3.80953443,1.89582464 4.44562325,0.995346819 4.64158216,0" id="Stroke-143" stroke="#000000" stroke-width="1.2" stroke-linecap="round" stroke-linejoin="round"></path>
                </g>
                <path d="M135.51996,93.639196 C133.774992,96.4860434 132.242314,98.2255675 128.590635,98.9557477" id="Stroke-145" stroke="#000000" stroke-width="1.2" stroke-linecap="round" stroke-linejoin="round"></path>
                <g id="Group-150" transform="translate(122.087696, 80.354115)">
                    <path d="M0.524870825,0 C0.906679644,0.70451892 1.23716589,1.45025142 1.34914241,2.24341842 C1.46034131,3.03658541 1.33359012,3.8872959 0.867798909,4.53971463 C0.552864954,4.98062217 0.0785199859,5.35543245 0.00775704802,5.89276421 C-0.0412326782,6.26835211 0.14539485,6.66493561 0.466549722,6.86633782 C0.787704594,7.06774003 1.22550167,7.06307434 1.54276847,6.85545121" id="Fill-147" fill="#FFFFFF"></path>
                    <path d="M0.524870825,0 C0.906679644,0.70451892 1.23716589,1.45025142 1.34914241,2.24341842 C1.46034131,3.03658541 1.33359012,3.8872959 0.867798909,4.53971463 C0.552864954,4.98062217 0.0785199859,5.35543245 0.00775704802,5.89276421 C-0.0412326782,6.26835211 0.14539485,6.66493561 0.466549722,6.86633782 C0.787704594,7.06774003 1.22550167,7.06307434 1.54276847,6.85545121" id="Stroke-149" stroke="#000000" stroke-width="1.2" stroke-linecap="round" stroke-linejoin="round"></path>
                </g>
                <path d="M117.412268,77.5284191 C118.098902,76.896996 118.986938,76.5703978 119.859422,76.6279413 C120.732683,76.6854848 121.583394,77.1263923 122.204708,77.8441307" id="Stroke-151" stroke="#000000" stroke-width="1.2" stroke-linecap="round" stroke-linejoin="round"></path>
                <path d="M127.960068,77.270251 C129.272681,76.3168954 131.176282,76.2663504 132.537885,77.1489431" id="Stroke-153" stroke="#000000" stroke-width="1.2" stroke-linecap="round" stroke-linejoin="round"></path>
                <path d="M72.0952942,126.860762 L83.9982424,158.529899 L138.59146,158.547784 C138.136556,157.012772 136.752401,155.939664 135.15207,155.881343 L121.969946,155.401555 L112.176666,126.33354 C111.330622,123.756524 108.925459,122.014668 106.213917,122.014668 L75.6015589,122.014668 C73.0875305,122.014668 71.3091257,124.472708 72.0952942,126.860762" id="Fill-155" fill="#FFFFFF"></path>
                <path d="M72.0952942,126.860762 L83.9982424,158.529899 L138.59146,158.547784 C138.136556,157.012772 136.752401,155.939664 135.15207,155.881343 L121.969946,155.401555 L112.176666,126.33354 C111.330622,123.756524 108.925459,122.014668 106.213917,122.014668 L75.6015589,122.014668 C73.0875305,122.014668 71.3091257,124.472708 72.0952942,126.860762 Z" id="Stroke-157" stroke="#000000" stroke-width="1.2"></path>
                <path d="M96.3253017,140.670733 C96.9784981,142.113208 96.4987098,143.739201 95.2545263,144.302194 C94.0103428,144.865964 92.4722209,144.152892 91.8190245,142.710416 C91.1666058,141.267941 91.6456164,139.641949 92.8898,139.078178 C94.1347611,138.515185 95.6721054,139.228258 96.3253017,140.670733" id="Fill-159" fill="#3474C6"></path>
                <path d="M120.079331,158.288916 L109.877804,128.029595 C109.352136,126.468145 107.488972,125.122871 105.386302,125.112762 L72.0095233,124.962683" id="Stroke-161" stroke="#000000" stroke-width="1.2" stroke-linecap="round" stroke-linejoin="round"></path>
            </g>
        </g>
    </g>
</svg>