<?xml version="1.0" encoding="UTF-8"?> <svg xmlns="http://www.w3.org/2000/svg" width="40" height="40" viewBox="0 0 40 40" fill="none"><path d="M24.6033 19.3118C23.6922 19.8304 22.6989 20.1889 21.6666 20.3718V39.7901C22.545 39.6191 23.3895 39.3055 24.1666 38.8618L34.2116 33.0634C35.4769 32.3298 36.5275 31.2772 37.2586 30.0105C37.9898 28.7439 38.3759 27.3076 38.3783 25.8451V14.2451C38.373 13.3548 38.2238 12.4712 37.9366 11.6284L24.6033 19.3118Z" fill="#F4A07C"></path><path d="M17.07 16.4283C17.9626 16.9418 18.9744 17.212 20.0042 17.212C21.0339 17.212 22.0457 16.9418 22.9383 16.4283L36.2717 8.74499C35.6811 8.06646 34.9843 7.48837 34.2083 7.03332L24.1667 1.22832C22.899 0.49936 21.4623 0.115723 20 0.115723C18.5377 0.115723 17.101 0.49936 15.8333 1.22832L5.78833 7.02832C5.04009 7.46648 4.36521 8.01931 3.78833 8.66666L17.07 16.4283Z" fill="#F4A07C"></path><path d="M18.3334 20.3717C17.3004 20.1893 16.3065 19.8307 15.395 19.3117L2.09504 11.5383C1.78725 12.4078 1.62726 13.3227 1.6217 14.245L1.6217 25.845C1.62414 27.3075 2.01021 28.7438 2.74136 30.0104C3.4725 31.2771 4.52314 32.3297 5.78837 33.0633L15.8334 38.8617C16.6105 39.3054 17.455 39.619 18.3334 39.79V20.3717Z" fill="#F4A07C"></path></svg> 