<?xml version="1.0" encoding="UTF-8"?> <svg xmlns="http://www.w3.org/2000/svg" width="14" height="16" viewBox="0 0 14 16" fill="none"><path id="md-icon-left" d="M12.3 3.69049L9.97665 1.36716C9.09531 0.485822 7.92331 0.000488504 6.67665 0.000488504H3.66665C1.82865 -0.000178163 0.333313 1.49516 0.333313 3.33316V12.6665C0.333313 14.5045 1.82865 15.9998 3.66665 15.9998H10.3333C12.1713 15.9998 13.6666 14.5045 13.6666 12.6665V6.98982C13.6666 5.74315 13.1813 4.57182 12.3 3.68982V3.69049ZM11.3573 4.63315C11.5693 4.84515 11.7486 5.08049 11.894 5.33316H8.99998C8.63265 5.33316 8.33331 5.03382 8.33331 4.66649V1.77249C8.58598 1.91782 8.82198 2.09716 9.03331 2.30915L11.3566 4.63249L11.3573 4.63315ZM12.3333 12.6665C12.3333 13.7692 11.436 14.6665 10.3333 14.6665H3.66665C2.56398 14.6665 1.66665 13.7692 1.66665 12.6665V3.33316C1.66665 2.23049 2.56398 1.33316 3.66665 1.33316H6.67665C6.78531 1.33316 6.89331 1.33849 6.99998 1.34849V4.66649C6.99998 5.76916 7.89731 6.66649 8.99998 6.66649H12.318C12.328 6.77315 12.3333 6.88115 12.3333 6.98982V12.6665ZM9.33331 8.66649H4.66665C3.74798 8.66649 2.99998 9.41449 2.99998 10.3332V11.6665C2.99998 12.5852 3.74798 13.3332 4.66665 13.3332H9.33331C10.252 13.3332 11 12.5852 11 11.6665V10.3332C11 9.41449 10.252 8.66649 9.33331 8.66649ZM9.66665 11.6665C9.66665 11.8505 9.51731 11.9998 9.33331 11.9998H4.66665C4.48265 11.9998 4.33331 11.8505 4.33331 11.6665V10.3332C4.33331 10.1492 4.48265 9.99982 4.66665 9.99982H9.33331C9.51731 9.99982 9.66665 10.1492 9.66665 10.3332V11.6665ZM2.99998 6.66649C2.99998 6.29849 3.29865 5.99982 3.66665 5.99982H4.99998C5.36798 5.99982 5.66665 6.29849 5.66665 6.66649C5.66665 7.03449 5.36798 7.33315 4.99998 7.33315H3.66665C3.29865 7.33315 2.99998 7.03449 2.99998 6.66649ZM2.99998 3.99982C2.99998 3.63182 3.29865 3.33316 3.66665 3.33316H4.99998C5.36798 3.33316 5.66665 3.63182 5.66665 3.99982C5.66665 4.36782 5.36798 4.66649 4.99998 4.66649H3.66665C3.29865 4.66649 2.99998 4.36782 2.99998 3.99982Z" fill="#F2AF38"></path></svg> 