<?xml version="1.0" encoding="UTF-8"?>
<svg width="35px" height="42px" viewBox="0 0 35 42" version="1.1" xmlns="http://www.w3.org/2000/svg" xmlns:xlink="http://www.w3.org/1999/xlink">
    <!-- Generator: Sketch 52.4 (67378) - http://www.bohemiancoding.com/sketch -->
    <title>ico-rtemplate</title>
    <desc>Created with Sketch.</desc>
    <g id="Resources-Page-(Blog-Hub)" stroke="none" stroke-width="1" fill="none" fill-rule="evenodd">
        <g id="resume-and-cv-icons" transform="translate(-341.000000, -343.000000)" fill-rule="nonzero">
            <g id="Hover-state" transform="translate(77.000000, 320.000000)">
                <g id="Res-Template---Hover" transform="translate(194.000000, 0.000000)">
                    <g id="ico-rtemplate" transform="translate(70.000000, 23.000000)">
                        <path d="M7.68593209,0 L32.9897436,0 C34.0999775,-2.0394667e-16 35,0.900022452 35,2.01025641 L35,34.3897436 C35,35.4999775 34.0999775,36.4 32.9897436,36.4 L7.68593209,36.4 C6.57569813,36.4 5.67567568,35.4999775 5.67567568,34.3897436 L5.67567568,2.01025641 C5.67567568,0.900022452 6.57569813,-6.8423175e-16 7.68593209,-8.8817842e-16 Z" id="Rectangle" fill="#C2CDCE"></path>
                        <path d="M4.84809425,2.8 L30.1519058,2.8 C31.2621397,2.8 32.1621622,3.70002245 32.1621622,4.81025641 L32.1621622,37.1897436 C32.1621622,38.2999775 31.2621397,39.2 30.1519058,39.2 L4.84809425,39.2 C3.73786029,39.2 2.83783784,38.2999775 2.83783784,37.1897436 L2.83783784,4.81025641 C2.83783784,3.70002245 3.73786029,2.8 4.84809425,2.8 Z" id="Rectangle" fill="#DBE7E9"></path>
                        <path d="M2.01025641,5.6 L27.3140679,5.6 C28.4243019,5.6 29.3243243,6.50002245 29.3243243,7.61025641 L29.3243243,39.9897436 C29.3243243,41.0999775 28.4243019,42 27.3140679,42 L2.01025641,42 C0.900022452,42 -9.04526216e-13,41.0999775 -9.08606523e-13,39.9897436 L-9.09494702e-13,7.61025641 C-9.09630666e-13,6.50002245 0.900022452,5.6 2.01025641,5.6 Z" id="Rectangle" fill="#FFFFFF"></path>
                        <path d="M2.01025641,5.6 L12.2972973,5.6 L12.2972973,42 L2.01025641,42 C0.900022452,42 1.02414287e-15,41.0999775 8.8817842e-16,39.9897436 L0,7.61025641 C-1.35964446e-16,6.50002245 0.900022452,5.6 2.01025641,5.6 Z" id="Rectangle" fill="#FFDACF"></path>
                        <path d="M15.4899255,9.83589744 L25.8952096,9.83589744 C26.4503266,9.83589744 26.9003378,10.2859087 26.9003378,10.8410256 L26.9003378,10.8410256 C26.9003378,11.3961426 26.4503266,11.8461538 25.8952096,11.8461538 L15.4899255,11.8461538 C14.9348085,11.8461538 14.4847973,11.3961426 14.4847973,10.8410256 L14.4847973,10.8410256 C14.4847973,10.2859087 14.9348085,9.83589744 15.4899255,9.83589744 Z" id="Rectangle" fill="#31C9D6"></path>
                        <path d="M15.4899255,13.8564103 L20.7220677,13.8564103 C21.2771847,13.8564103 21.7271959,14.3064215 21.7271959,14.8615385 L21.7271959,14.8615385 C21.7271959,15.4166554 21.2771847,15.8666667 20.7220677,15.8666667 L15.4899255,15.8666667 C14.9348085,15.8666667 14.4847973,15.4166554 14.4847973,14.8615385 L14.4847973,14.8615385 C14.4847973,14.3064215 14.9348085,13.8564103 15.4899255,13.8564103 Z" id="Rectangle" fill="#31C9D6"></path>
                        <path d="M3.07438496,17.8769231 L9.34115558,17.8769231 C9.89627256,17.8769231 10.3462838,18.3269343 10.3462838,18.8820513 L10.3462838,21.8974359 C10.3462838,22.4525529 9.89627256,22.9025641 9.34115558,22.9025641 L3.07438496,22.9025641 C2.51926798,22.9025641 2.06925676,22.4525529 2.06925676,21.8974359 L2.06925676,18.8820513 C2.06925676,18.3269343 2.51926798,17.8769231 3.07438496,17.8769231 Z" id="Rectangle" fill="#FFFFFF"></path>
                        <path d="M15.4899255,32.9538462 L25.8952096,32.9538462 C26.4503266,32.9538462 26.9003378,33.4038574 26.9003378,33.9589744 L26.9003378,38.9846154 C26.9003378,39.5397324 26.4503266,39.9897436 25.8952096,39.9897436 L15.4899255,39.9897436 C14.9348085,39.9897436 14.4847973,39.5397324 14.4847973,38.9846154 L14.4847973,33.9589744 C14.4847973,33.4038574 14.9348085,32.9538462 15.4899255,32.9538462 Z" id="Rectangle" fill="#F78675"></path>
                        <path d="M15.4899255,27.9282051 L20.7220677,27.9282051 C21.2771847,27.9282051 21.7271959,28.3782164 21.7271959,28.9333333 L21.7271959,28.9333333 C21.7271959,29.4884503 21.2771847,29.9384615 20.7220677,29.9384615 L15.4899255,29.9384615 C14.9348085,29.9384615 14.4847973,29.4884503 14.4847973,28.9333333 L14.4847973,28.9333333 C14.4847973,28.3782164 14.9348085,27.9282051 15.4899255,27.9282051 Z" id="Rectangle" fill="#31C9D6"></path>
                        <path d="M15.4899255,17.8769231 L25.9750755,17.8769231 C26.5301925,17.8769231 26.9802037,18.3269343 26.9802037,18.8820513 L26.9802037,24.9128205 C26.9802037,25.4679375 26.5301925,25.9179487 25.9750755,25.9179487 L15.4899255,25.9179487 C14.9348085,25.9179487 14.4847973,25.4679375 14.4847973,24.9128205 L14.4847973,18.8820513 C14.4847973,18.3269343 14.9348085,17.8769231 15.4899255,17.8769231 Z" id="Rectangle" fill="#FFCBBC"></path>
                        <path d="M3.07438496,24.9128205 L9.34115558,24.9128205 C9.89627256,24.9128205 10.3462838,25.3628317 10.3462838,25.9179487 L10.3462838,38.9846154 C10.3462838,39.5397324 9.89627256,39.9897436 9.34115558,39.9897436 L3.07438496,39.9897436 C2.51926798,39.9897436 2.06925676,39.5397324 2.06925676,38.9846154 L2.06925676,25.9179487 C2.06925676,25.3628317 2.51926798,24.9128205 3.07438496,24.9128205 Z" id="Rectangle" fill="#FFFFFF"></path>
                        <ellipse id="Oval" fill="#F78675" cx="6.20777027" cy="12.3487179" rx="4.13851351" ry="4.02051282"></ellipse>
                        <ellipse id="Oval" fill="#FFFFFF" cx="6.20777027" cy="10.8410256" rx="1.03462838" ry="1.00512821"></ellipse>
                        <path d="M6.14876992,12.8512821 L6.26677062,12.8512821 C7.37700458,12.8512821 8.27702703,13.7513045 8.27702703,14.8615385 L4.13851351,14.8615385 L4.13851351,14.8615385 C4.13851351,13.7513045 5.03853597,12.8512821 6.14876992,12.8512821 Z" id="Rectangle" fill="#FFFFFF"></path>
                    </g>
                </g>
            </g>
        </g>
    </g>
</svg>