<?xml version="1.0" encoding="UTF-8"?>
<svg width="44px" height="41px" viewBox="0 0 44 41" version="1.1" xmlns="http://www.w3.org/2000/svg" xmlns:xlink="http://www.w3.org/1999/xlink">
    <!-- Generator: Sketch 52.4 (67378) - http://www.bohemiancoding.com/sketch -->
    <title>ico-builder</title>
    <desc>Created with Sketch.</desc>
    <g id="Resources-Page-(Blog-Hub)" stroke="none" stroke-width="1" fill="none" fill-rule="evenodd">
        <g id="resume-and-cv-icons" transform="translate(-1510.000000, -343.000000)" fill-rule="nonzero">
            <g id="Hover-state" transform="translate(77.000000, 320.000000)">
                <g id="Res-/-CL-Builder---Hover" transform="translate(1367.000000, 0.000000)">
                    <g id="ico-builder" transform="translate(66.000000, 23.000000)">
                        <path d="M14.0731707,23 L15,23 L15,46.9286359 L13.0713641,46.9286359 C11.9273813,46.9286359 11,47.8560172 11,49 L11,26.0731707 C11,24.3759054 12.3759054,23 14.0731707,23 Z" id="Rectangle" fill="#9BA6A7" transform="translate(13.000000, 36.000000) scale(-1, -1) rotate(-270.000000) translate(-13.000000, -36.000000) "></path>
                        <path d="M9.27317073,0 L33.9756098,0 C34.5413649,-1.03927528e-16 35,0.458635134 35,1.02439024 L35,34.9268293 C35,36.6240946 33.6240946,38 31.9268293,38 L3,38 L3.12682927,38 C4.8240946,38 6.2,36.6240946 6.2,34.9268293 L6.2,3.07317073 C6.2,1.3759054 7.5759054,-1.32306627e-16 9.27317073,-4.4408921e-16 Z" id="Rectangle" fill="#FFFFFF"></path>
                        <path d="M12.0740819,19.4390244 L29.6428571,19.4390244 L29.6428571,30.7073171 L12.0740819,30.7073171 L12.0740819,19.4390244 Z" id="Rectangle" stroke="#F78675" stroke-width="1.02439024" stroke-linecap="round" stroke-dasharray="1.024390243902439,2.048780487804878"></path>
                        <g id="Group-3" transform="translate(32.226514, 29.488385) rotate(-45.000000) translate(-32.226514, -29.488385) translate(18.726514, 26.488385)">
                            <rect id="Rectangle" fill="#31C9D6" x="0" y="0" width="27" height="6" rx="1"></rect>
                            <path d="M3,0 L4,0 L4,1.5 C4,1.77614237 3.77614237,2 3.5,2 L3.5,2 C3.22385763,2 3,1.77614237 3,1.5 L3,0 Z" id="Rectangle" fill="#FFFFFF"></path>
                            <path d="M23,0 L24,0 L24,1.5 C24,1.77614237 23.7761424,2 23.5,2 L23.5,2 C23.2238576,2 23,1.77614237 23,1.5 L23,0 Z" id="Rectangle" fill="#FFFFFF"></path>
                            <path d="M8,0 L9,0 L9,1.5 C9,1.77614237 8.77614237,2 8.5,2 L8.5,2 C8.22385763,2 8,1.77614237 8,1.5 L8,0 Z" id="Rectangle" fill="#FFFFFF"></path>
                            <path d="M18,0 L19,0 L19,1.5 C19,1.77614237 18.7761424,2 18.5,2 L18.5,2 C18.2238576,2 18,1.77614237 18,1.5 L18,0 Z" id="Rectangle" fill="#FFFFFF"></path>
                            <path d="M13,0 L14,0 L14,1.5 C14,1.77614237 13.7761424,2 13.5,2 L13.5,2 C13.2238576,2 13,1.77614237 13,1.5 L13,0 Z" id="Rectangle" fill="#FFFFFF"></path>
                        </g>
                        <path d="M12.0740819,8.17073171 L29.6428571,8.17073171 L29.6428571,15.3414634 L12.0740819,15.3414634 L12.0740819,8.17073171 Z" id="Rectangle" stroke="#31C9D6" stroke-width="1.02439024" stroke-linecap="round" stroke-dasharray="1.024390243902439,2.048780487804878"></path>
                        <path d="M24.5653459,-13.3255085 L25.5897361,-13.3255085 L25.5897361,12.7833272 L24.5653459,12.7833272 C22.8680805,12.7833272 21.4921751,14.1592326 21.4921751,15.8564979 L21.4921751,17.4230694 L21.4921751,-10.2523377 C21.4921751,-11.9496031 22.8680805,-13.3255085 24.5653459,-13.3255085 Z" id="Rectangle" fill="#C2CDCE" transform="translate(23.540956, 2.048780) rotate(-270.000000) translate(-23.540956, -2.048780) "></path>
                    </g>
                </g>
            </g>
        </g>
    </g>
</svg>