<?xml version="1.0" encoding="UTF-8"?> <svg xmlns="http://www.w3.org/2000/svg" width="24" height="24" fill="none" viewBox="0 0 24 24"><g clip-path="url(#Type=stroke, Name=list__a)" fill="#4E96EB"><path d="M7 6h16a1 1 0 1 0 0-2H7a1 1 0 0 0 0 2Zm16 5H7a1 1 0 0 0 0 2h16a1 1 0 0 0 0-2Zm0 7H7a1 1 0 0 0 0 2h16a1 1 0 0 0 0-2ZM2 7a2 2 0 1 0 0-4 2 2 0 0 0 0 4Zm0 7a2 2 0 1 0 0-4 2 2 0 0 0 0 4Zm0 7a2 2 0 1 0 0-4 2 2 0 0 0 0 4Z"></path></g><defs><clipPath id="Type=stroke, Name=list__a"><path fill="#fff" d="M0 0h24v24H0z"></path></clipPath></defs></svg> 