<?xml version="1.0" encoding="UTF-8"?> <svg xmlns="http://www.w3.org/2000/svg" width="14" height="16" viewBox="0 0 14 16" fill="none"><g id="md-icon-left"><path d="M12.5815 2.08135L11.3548 0.976013C11.0116 0.665554 10.6034 0.419439 10.1538 0.251909C9.70418 0.0843795 9.22213 -0.00123733 8.73553 1.35103e-05H4.03701C3.05509 0.00107208 2.11372 0.352601 1.4194 0.977493C0.725077 1.60238 0.334489 2.44961 0.333313 3.33334V12.6667C0.334489 13.5504 0.725077 14.3976 1.4194 15.0225C2.11372 15.6474 3.05509 15.9989 4.03701 16H9.96294C10.9449 15.9989 11.8862 15.6474 12.5805 15.0225C13.2749 14.3976 13.6655 13.5504 13.6666 12.6667V4.43801C13.6678 4.00013 13.5725 3.56639 13.3863 3.16187C13.2 2.75736 12.9265 2.3901 12.5815 2.08135ZM11.534 3.02401C11.6391 3.11822 11.7332 3.22188 11.8148 3.33334H9.96294V1.66668C10.0866 1.74089 10.2019 1.82573 10.3074 1.92001L11.534 3.02401ZM12.1852 12.6667C12.1852 13.1971 11.951 13.7058 11.5343 14.0809C11.1175 14.456 10.5523 14.6667 9.96294 14.6667H4.03701C3.44764 14.6667 2.88241 14.456 2.46567 14.0809C2.04892 13.7058 1.81479 13.1971 1.81479 12.6667V3.33334C1.81479 2.80291 2.04892 2.2942 2.46567 1.91913C2.88241 1.54406 3.44764 1.33335 4.03701 1.33335H8.48145V3.33334C8.48145 3.68697 8.63754 4.0261 8.91537 4.27615C9.1932 4.5262 9.57002 4.66668 9.96294 4.66668H12.1852V12.6667ZM9.96294 6.00001C10.1594 6.00001 10.3478 6.07025 10.4867 6.19527C10.6256 6.32029 10.7037 6.48986 10.7037 6.66667C10.7037 6.84349 10.6256 7.01305 10.4867 7.13808C10.3478 7.2631 10.1594 7.33334 9.96294 7.33334H8.70368C8.50722 7.33334 8.31881 7.2631 8.1799 7.13808C8.04098 7.01305 7.96294 6.84349 7.96294 6.66667C7.96294 6.48986 8.04098 6.32029 8.1799 6.19527C8.31881 6.07025 8.50722 6.00001 8.70368 6.00001H9.96294ZM10.7037 9.33334C10.7037 9.51015 10.6256 9.67972 10.4867 9.80474C10.3478 9.92977 10.1594 10 9.96294 10H8.70368C8.50722 10 8.31881 9.92977 8.1799 9.80474C8.04098 9.67972 7.96294 9.51015 7.96294 9.33334C7.96294 9.15653 8.04098 8.98696 8.1799 8.86193C8.31881 8.73691 8.50722 8.66667 8.70368 8.66667H9.96294C10.1594 8.66667 10.3478 8.73691 10.4867 8.86193C10.6256 8.98696 10.7037 9.15653 10.7037 9.33334Z" fill="#EE60A0"></path><path d="M10.4873 12.4714C10.6262 12.3464 10.7043 12.1768 10.7043 12C10.7043 11.8232 10.6262 11.6536 10.4873 11.5286C10.3484 11.4036 10.16 11.3333 9.96352 11.3333H4.0376C3.84114 11.3333 3.65273 11.4036 3.51381 11.5286C3.3749 11.6536 3.29685 11.8232 3.29685 12C3.29685 12.1768 3.3749 12.3464 3.51381 12.4714C3.65273 12.5964 3.84114 12.6667 4.0376 12.6667H9.96352C10.16 12.6667 10.3484 12.5964 10.4873 12.4714Z" fill="#EE60A0"></path><path fill-rule="evenodd" clip-rule="evenodd" d="M3.33331 5.33335C3.33331 4.41287 4.07951 3.66668 4.99998 3.66668C5.92045 3.66668 6.66665 4.41287 6.66665 5.33335C6.66665 5.93489 6.34797 6.462 5.87022 6.75505C6.52727 6.9785 6.99998 7.60072 6.99998 8.33335V9.33335C6.99998 9.70154 6.7015 10 6.33331 10H3.66665C3.29846 10 2.99998 9.70154 2.99998 9.33335V8.33335C2.99998 7.60072 3.47269 6.9785 4.12974 6.75505C3.65199 6.462 3.33331 5.93489 3.33331 5.33335ZM4.99998 5.93335C4.66861 5.93335 4.39998 5.66472 4.39998 5.33335C4.39998 5.00198 4.66861 4.73335 4.99998 4.73335C5.33135 4.73335 5.59998 5.00198 5.59998 5.33335C5.59998 5.66472 5.33135 5.93335 4.99998 5.93335ZM4.06665 8.33335C4.06665 8.00198 4.33528 7.73335 4.66665 7.73335H5.33331C5.66468 7.73335 5.93331 8.00198 5.93331 8.33335V8.93335H4.06665V8.33335Z" fill="#EE60A0"></path></g></svg> 