<?xml version="1.0" encoding="UTF-8"?> <svg xmlns="http://www.w3.org/2000/svg" width="280" height="374" viewBox="0 0 280 374" fill="none"><g opacity="0.9"><rect width="280" height="373.33" rx="16" fill="white"></rect><rect x="17.6" y="17.6" width="244.8" height="36.8" rx="6.4" fill="#FFF8E8"></rect><path d="M102.777 43.18C101.937 43.18 101.181 43.042 100.509 42.766C99.8495 42.478 99.3095 42.07 98.8895 41.542L100.329 40.3C100.689 40.708 101.091 41.002 101.535 41.182C101.979 41.362 102.447 41.452 102.939 41.452C103.143 41.452 103.323 41.428 103.479 41.38C103.647 41.332 103.791 41.26 103.911 41.164C104.031 41.068 104.121 40.96 104.181 40.84C104.253 40.708 104.289 40.564 104.289 40.408C104.289 40.12 104.181 39.892 103.965 39.724C103.845 39.64 103.653 39.55 103.389 39.454C103.137 39.358 102.807 39.262 102.399 39.166C101.751 38.998 101.211 38.806 100.779 38.59C100.347 38.362 100.011 38.11 99.7715 37.834C99.5675 37.606 99.4115 37.348 99.3035 37.06C99.2075 36.772 99.1595 36.46 99.1595 36.124C99.1595 35.704 99.2495 35.326 99.4295 34.99C99.6215 34.642 99.8795 34.342 100.203 34.09C100.527 33.838 100.905 33.646 101.337 33.514C101.769 33.382 102.219 33.316 102.687 33.316C103.167 33.316 103.629 33.376 104.073 33.496C104.529 33.616 104.949 33.79 105.333 34.018C105.729 34.234 106.065 34.498 106.341 34.81L105.117 36.16C104.889 35.944 104.637 35.752 104.361 35.584C104.097 35.416 103.827 35.284 103.551 35.188C103.275 35.08 103.017 35.026 102.777 35.026C102.549 35.026 102.345 35.05 102.165 35.098C101.985 35.134 101.835 35.194 101.715 35.278C101.595 35.362 101.499 35.47 101.427 35.602C101.367 35.722 101.337 35.866 101.337 36.034C101.349 36.178 101.385 36.316 101.445 36.448C101.517 36.568 101.613 36.67 101.733 36.754C101.865 36.838 102.063 36.934 102.327 37.042C102.591 37.15 102.933 37.252 103.353 37.348C103.941 37.504 104.433 37.678 104.829 37.87C105.225 38.062 105.537 38.284 105.765 38.536C105.993 38.752 106.155 39.004 106.251 39.292C106.347 39.58 106.395 39.898 106.395 40.246C106.395 40.81 106.233 41.314 105.909 41.758C105.597 42.202 105.165 42.55 104.613 42.802C104.073 43.054 103.461 43.18 102.777 43.18ZM111.64 43.18C110.956 43.18 110.362 43.03 109.858 42.73C109.354 42.418 108.97 41.98 108.706 41.416C108.442 40.84 108.31 40.156 108.31 39.364V33.514H110.524V38.896C110.524 39.4 110.602 39.832 110.758 40.192C110.914 40.54 111.142 40.81 111.442 41.002C111.742 41.194 112.102 41.29 112.522 41.29C112.834 41.29 113.116 41.242 113.368 41.146C113.632 41.038 113.86 40.894 114.052 40.714C114.244 40.522 114.394 40.3 114.502 40.048C114.61 39.784 114.664 39.502 114.664 39.202V33.514H116.878V43H114.718L114.682 41.02L115.078 40.804C114.934 41.26 114.688 41.668 114.34 42.028C114.004 42.376 113.602 42.658 113.134 42.874C112.666 43.078 112.168 43.18 111.64 43.18ZM119.437 43V33.514H121.615L121.651 35.422L121.291 35.566C121.399 35.254 121.561 34.966 121.777 34.702C121.993 34.426 122.251 34.192 122.551 34C122.851 33.796 123.169 33.64 123.505 33.532C123.841 33.412 124.183 33.352 124.531 33.352C125.047 33.352 125.503 33.436 125.899 33.604C126.307 33.76 126.643 34.012 126.907 34.36C127.183 34.708 127.387 35.152 127.519 35.692L127.177 35.62L127.321 35.332C127.453 35.044 127.639 34.786 127.879 34.558C128.119 34.318 128.389 34.108 128.689 33.928C128.989 33.736 129.301 33.592 129.625 33.496C129.961 33.4 130.291 33.352 130.615 33.352C131.335 33.352 131.935 33.496 132.415 33.784C132.895 34.072 133.255 34.51 133.495 35.098C133.735 35.686 133.855 36.412 133.855 37.276V43H131.623V37.42C131.623 36.94 131.557 36.544 131.425 36.232C131.305 35.92 131.113 35.692 130.849 35.548C130.597 35.392 130.279 35.314 129.895 35.314C129.595 35.314 129.307 35.368 129.031 35.476C128.767 35.572 128.539 35.716 128.347 35.908C128.155 36.088 128.005 36.298 127.897 36.538C127.789 36.778 127.735 37.042 127.735 37.33V43H125.503V37.402C125.503 36.946 125.437 36.568 125.305 36.268C125.173 35.956 124.981 35.722 124.729 35.566C124.477 35.398 124.171 35.314 123.811 35.314C123.511 35.314 123.229 35.368 122.965 35.476C122.701 35.572 122.473 35.71 122.281 35.89C122.089 36.07 121.939 36.28 121.831 36.52C121.723 36.76 121.669 37.024 121.669 37.312V43H119.437ZM136.277 43V33.514H138.455L138.491 35.422L138.131 35.566C138.239 35.254 138.401 34.966 138.617 34.702C138.833 34.426 139.091 34.192 139.391 34C139.691 33.796 140.009 33.64 140.345 33.532C140.681 33.412 141.023 33.352 141.371 33.352C141.887 33.352 142.343 33.436 142.739 33.604C143.147 33.76 143.483 34.012 143.747 34.36C144.023 34.708 144.227 35.152 144.359 35.692L144.017 35.62L144.161 35.332C144.293 35.044 144.479 34.786 144.719 34.558C144.959 34.318 145.229 34.108 145.529 33.928C145.829 33.736 146.141 33.592 146.465 33.496C146.801 33.4 147.131 33.352 147.455 33.352C148.175 33.352 148.775 33.496 149.255 33.784C149.735 34.072 150.095 34.51 150.335 35.098C150.575 35.686 150.695 36.412 150.695 37.276V43H148.463V37.42C148.463 36.94 148.397 36.544 148.265 36.232C148.145 35.92 147.953 35.692 147.689 35.548C147.437 35.392 147.119 35.314 146.735 35.314C146.435 35.314 146.147 35.368 145.871 35.476C145.607 35.572 145.379 35.716 145.187 35.908C144.995 36.088 144.845 36.298 144.737 36.538C144.629 36.778 144.575 37.042 144.575 37.33V43H142.343V37.402C142.343 36.946 142.277 36.568 142.145 36.268C142.013 35.956 141.821 35.722 141.569 35.566C141.317 35.398 141.011 35.314 140.651 35.314C140.351 35.314 140.069 35.368 139.805 35.476C139.541 35.572 139.313 35.71 139.121 35.89C138.929 36.07 138.779 36.28 138.671 36.52C138.563 36.76 138.509 37.024 138.509 37.312V43H136.277ZM156.734 43.18C155.954 43.18 155.246 42.964 154.61 42.532C153.974 42.1 153.464 41.512 153.08 40.768C152.696 40.024 152.504 39.178 152.504 38.23C152.504 37.282 152.696 36.436 153.08 35.692C153.464 34.948 153.986 34.366 154.646 33.946C155.306 33.526 156.05 33.316 156.878 33.316C157.358 33.316 157.796 33.388 158.192 33.532C158.588 33.664 158.936 33.856 159.236 34.108C159.536 34.36 159.782 34.648 159.974 34.972C160.178 35.296 160.316 35.644 160.388 36.016L159.902 35.89V33.514H162.134V43H159.884V40.732L160.406 40.642C160.322 40.966 160.166 41.284 159.938 41.596C159.722 41.896 159.446 42.166 159.11 42.406C158.786 42.634 158.42 42.82 158.012 42.964C157.616 43.108 157.19 43.18 156.734 43.18ZM157.346 41.218C157.862 41.218 158.318 41.092 158.714 40.84C159.11 40.588 159.416 40.24 159.632 39.796C159.86 39.34 159.974 38.818 159.974 38.23C159.974 37.654 159.86 37.144 159.632 36.7C159.416 36.256 159.11 35.908 158.714 35.656C158.318 35.404 157.862 35.278 157.346 35.278C156.83 35.278 156.374 35.404 155.978 35.656C155.594 35.908 155.294 36.256 155.078 36.7C154.862 37.144 154.754 37.654 154.754 38.23C154.754 38.818 154.862 39.34 155.078 39.796C155.294 40.24 155.594 40.588 155.978 40.84C156.374 41.092 156.83 41.218 157.346 41.218ZM164.701 43V33.514H166.879L166.915 36.538L166.609 35.854C166.741 35.374 166.969 34.942 167.293 34.558C167.617 34.174 167.989 33.874 168.409 33.658C168.841 33.43 169.291 33.316 169.759 33.316C169.963 33.316 170.155 33.334 170.335 33.37C170.527 33.406 170.683 33.448 170.803 33.496L170.209 35.926C170.077 35.854 169.915 35.794 169.723 35.746C169.531 35.698 169.339 35.674 169.147 35.674C168.847 35.674 168.559 35.734 168.283 35.854C168.019 35.962 167.785 36.118 167.581 36.322C167.377 36.526 167.215 36.766 167.095 37.042C166.987 37.306 166.933 37.606 166.933 37.942V43H164.701ZM173.717 47.14L175.733 42.478L175.751 43.954L171.071 33.514H173.627L176.237 39.706C176.321 39.862 176.405 40.072 176.489 40.336C176.573 40.588 176.645 40.84 176.705 41.092L176.255 41.236C176.339 41.008 176.429 40.768 176.525 40.516C176.621 40.252 176.711 39.982 176.795 39.706L179.027 33.514H181.601L177.641 43L176.021 47.14H173.717Z" fill="#FAC05A"></path><rect x="17.6" y="17.6" width="244.8" height="36.8" rx="6.4" stroke="#FCEDC5" stroke-width="3.2"></rect><rect x="17.6" y="73.6" width="244.8" height="146.13" rx="6.4" fill="#FDEDF5"></rect><g style="mix-blend-mode:multiply"><path d="M96.9451 153.845C95.9491 153.845 95.0671 153.635 94.2991 153.215C93.5431 152.795 92.9491 152.225 92.5171 151.505C92.0971 150.773 91.8871 149.939 91.8871 149.003C91.8871 148.259 92.0071 147.581 92.2471 146.969C92.4871 146.357 92.8171 145.829 93.2371 145.385C93.6691 144.929 94.1791 144.581 94.7671 144.341C95.3671 144.089 96.0211 143.963 96.7291 143.963C97.3531 143.963 97.9351 144.083 98.4751 144.323C99.0151 144.563 99.4831 144.893 99.8791 145.313C100.275 145.721 100.575 146.213 100.779 146.789C100.995 147.353 101.097 147.971 101.085 148.643L101.067 149.417H93.3811L92.9671 147.905H99.2131L98.9251 148.211V147.815C98.8891 147.443 98.7691 147.119 98.5651 146.843C98.3611 146.555 98.0971 146.333 97.7731 146.177C97.4611 146.009 97.1131 145.925 96.7291 145.925C96.1411 145.925 95.6431 146.039 95.2351 146.267C94.8391 146.495 94.5391 146.825 94.3351 147.257C94.1311 147.677 94.0291 148.205 94.0291 148.841C94.0291 149.453 94.1551 149.987 94.4071 150.443C94.6711 150.899 95.0371 151.253 95.5051 151.505C95.9851 151.745 96.5431 151.865 97.1791 151.865C97.6231 151.865 98.0311 151.793 98.4031 151.649C98.7751 151.505 99.1771 151.247 99.6091 150.875L100.707 152.405C100.383 152.705 100.011 152.963 99.5911 153.179C99.1831 153.383 98.7511 153.545 98.2951 153.665C97.8391 153.785 97.3891 153.845 96.9451 153.845ZM109.131 153.665L106.431 150.011L105.927 149.327L102.021 144.179H104.757L107.385 147.743L107.943 148.499L111.813 153.665H109.131ZM102.003 153.665L105.765 148.625L107.025 150.137L104.613 153.665H102.003ZM107.943 149.237L106.737 147.743L108.915 144.179H111.525L107.943 149.237ZM113.4 157.625V144.179H115.578L115.614 146.339L115.236 146.177C115.308 145.805 115.512 145.457 115.848 145.133C116.184 144.797 116.592 144.527 117.072 144.323C117.564 144.119 118.074 144.017 118.602 144.017C119.442 144.017 120.186 144.227 120.834 144.647C121.494 145.067 122.01 145.643 122.382 146.375C122.766 147.107 122.958 147.953 122.958 148.913C122.958 149.861 122.766 150.707 122.382 151.451C122.01 152.183 121.494 152.765 120.834 153.197C120.186 153.617 119.454 153.827 118.638 153.827C118.086 153.827 117.552 153.719 117.036 153.503C116.532 153.287 116.1 153.005 115.74 152.657C115.392 152.309 115.176 151.943 115.092 151.559L115.632 151.307V157.625H113.4ZM118.188 151.865C118.692 151.865 119.142 151.739 119.538 151.487C119.934 151.235 120.24 150.887 120.456 150.443C120.684 149.999 120.798 149.489 120.798 148.913C120.798 148.337 120.69 147.833 120.474 147.401C120.258 146.957 119.952 146.609 119.556 146.357C119.16 146.105 118.704 145.979 118.188 145.979C117.66 145.979 117.198 146.105 116.802 146.357C116.418 146.597 116.112 146.939 115.884 147.383C115.656 147.827 115.542 148.337 115.542 148.913C115.542 149.489 115.656 149.999 115.884 150.443C116.112 150.887 116.418 151.235 116.802 151.487C117.198 151.739 117.66 151.865 118.188 151.865ZM129.377 153.845C128.381 153.845 127.499 153.635 126.731 153.215C125.975 152.795 125.381 152.225 124.949 151.505C124.529 150.773 124.319 149.939 124.319 149.003C124.319 148.259 124.439 147.581 124.679 146.969C124.919 146.357 125.249 145.829 125.669 145.385C126.101 144.929 126.611 144.581 127.199 144.341C127.799 144.089 128.453 143.963 129.161 143.963C129.785 143.963 130.367 144.083 130.907 144.323C131.447 144.563 131.915 144.893 132.311 145.313C132.707 145.721 133.007 146.213 133.211 146.789C133.427 147.353 133.529 147.971 133.517 148.643L133.499 149.417H125.813L125.399 147.905H131.645L131.357 148.211V147.815C131.321 147.443 131.201 147.119 130.997 146.843C130.793 146.555 130.529 146.333 130.205 146.177C129.893 146.009 129.545 145.925 129.161 145.925C128.573 145.925 128.075 146.039 127.667 146.267C127.271 146.495 126.971 146.825 126.767 147.257C126.563 147.677 126.461 148.205 126.461 148.841C126.461 149.453 126.587 149.987 126.839 150.443C127.103 150.899 127.469 151.253 127.937 151.505C128.417 151.745 128.975 151.865 129.611 151.865C130.055 151.865 130.463 151.793 130.835 151.649C131.207 151.505 131.609 151.247 132.041 150.875L133.139 152.405C132.815 152.705 132.443 152.963 132.023 153.179C131.615 153.383 131.183 153.545 130.727 153.665C130.271 153.785 129.821 153.845 129.377 153.845ZM135.478 153.665V144.179H137.656L137.692 147.203L137.386 146.519C137.518 146.039 137.746 145.607 138.07 145.223C138.394 144.839 138.766 144.539 139.186 144.323C139.618 144.095 140.068 143.981 140.536 143.981C140.74 143.981 140.932 143.999 141.112 144.035C141.304 144.071 141.46 144.113 141.58 144.161L140.986 146.591C140.854 146.519 140.692 146.459 140.5 146.411C140.308 146.363 140.116 146.339 139.924 146.339C139.624 146.339 139.336 146.399 139.06 146.519C138.796 146.627 138.562 146.783 138.358 146.987C138.154 147.191 137.992 147.431 137.872 147.707C137.764 147.971 137.71 148.271 137.71 148.607V153.665H135.478ZM143.306 153.665V144.179H145.52V153.665H143.306ZM144.386 142.163C143.942 142.163 143.594 142.055 143.342 141.839C143.102 141.611 142.982 141.293 142.982 140.885C142.982 140.501 143.108 140.189 143.36 139.949C143.612 139.709 143.954 139.589 144.386 139.589C144.842 139.589 145.19 139.703 145.43 139.931C145.682 140.147 145.808 140.465 145.808 140.885C145.808 141.257 145.682 141.563 145.43 141.803C145.178 142.043 144.83 142.163 144.386 142.163ZM152.773 153.845C151.777 153.845 150.895 153.635 150.127 153.215C149.371 152.795 148.777 152.225 148.345 151.505C147.925 150.773 147.715 149.939 147.715 149.003C147.715 148.259 147.835 147.581 148.075 146.969C148.315 146.357 148.645 145.829 149.065 145.385C149.497 144.929 150.007 144.581 150.595 144.341C151.195 144.089 151.849 143.963 152.557 143.963C153.181 143.963 153.763 144.083 154.303 144.323C154.843 144.563 155.311 144.893 155.707 145.313C156.103 145.721 156.403 146.213 156.607 146.789C156.823 147.353 156.925 147.971 156.913 148.643L156.895 149.417H149.209L148.795 147.905H155.041L154.753 148.211V147.815C154.717 147.443 154.597 147.119 154.393 146.843C154.189 146.555 153.925 146.333 153.601 146.177C153.289 146.009 152.941 145.925 152.557 145.925C151.969 145.925 151.471 146.039 151.063 146.267C150.667 146.495 150.367 146.825 150.163 147.257C149.959 147.677 149.857 148.205 149.857 148.841C149.857 149.453 149.983 149.987 150.235 150.443C150.499 150.899 150.865 151.253 151.333 151.505C151.813 151.745 152.371 151.865 153.007 151.865C153.451 151.865 153.859 151.793 154.231 151.649C154.603 151.505 155.005 151.247 155.437 150.875L156.535 152.405C156.211 152.705 155.839 152.963 155.419 153.179C155.011 153.383 154.579 153.545 154.123 153.665C153.667 153.785 153.217 153.845 152.773 153.845ZM158.874 153.665V144.179H161.034L161.07 146.123L160.656 146.339C160.776 145.907 161.01 145.517 161.358 145.169C161.706 144.809 162.12 144.521 162.6 144.305C163.08 144.089 163.572 143.981 164.076 143.981C164.796 143.981 165.396 144.125 165.876 144.413C166.368 144.701 166.734 145.133 166.974 145.709C167.226 146.285 167.352 147.005 167.352 147.869V153.665H165.138V148.031C165.138 147.551 165.072 147.155 164.94 146.843C164.808 146.519 164.604 146.285 164.328 146.141C164.052 145.985 163.716 145.913 163.32 145.925C162.996 145.925 162.696 145.979 162.42 146.087C162.156 146.183 161.922 146.327 161.718 146.519C161.526 146.699 161.37 146.909 161.25 147.149C161.142 147.389 161.088 147.653 161.088 147.941V153.665H159.99C159.774 153.665 159.57 153.665 159.378 153.665C159.198 153.665 159.03 153.665 158.874 153.665ZM173.911 153.845C173.023 153.845 172.225 153.629 171.517 153.197C170.809 152.765 170.251 152.177 169.843 151.433C169.435 150.689 169.231 149.849 169.231 148.913C169.231 147.977 169.435 147.137 169.843 146.393C170.251 145.649 170.809 145.061 171.517 144.629C172.225 144.197 173.023 143.981 173.911 143.981C174.763 143.981 175.537 144.143 176.233 144.467C176.929 144.791 177.469 145.241 177.853 145.817L176.629 147.293C176.449 147.041 176.221 146.813 175.945 146.609C175.669 146.405 175.375 146.243 175.063 146.123C174.751 146.003 174.439 145.943 174.127 145.943C173.599 145.943 173.125 146.075 172.705 146.339C172.297 146.591 171.973 146.945 171.733 147.401C171.493 147.845 171.373 148.349 171.373 148.913C171.373 149.477 171.493 149.981 171.733 150.425C171.985 150.869 172.321 151.223 172.741 151.487C173.161 151.751 173.629 151.883 174.145 151.883C174.457 151.883 174.757 151.835 175.045 151.739C175.345 151.631 175.627 151.481 175.891 151.289C176.155 151.097 176.401 150.857 176.629 150.569L177.853 152.063C177.445 152.591 176.881 153.023 176.161 153.359C175.453 153.683 174.703 153.845 173.911 153.845ZM183.992 153.845C182.996 153.845 182.114 153.635 181.346 153.215C180.59 152.795 179.996 152.225 179.564 151.505C179.144 150.773 178.934 149.939 178.934 149.003C178.934 148.259 179.054 147.581 179.294 146.969C179.534 146.357 179.864 145.829 180.284 145.385C180.716 144.929 181.226 144.581 181.814 144.341C182.414 144.089 183.068 143.963 183.776 143.963C184.4 143.963 184.982 144.083 185.522 144.323C186.062 144.563 186.53 144.893 186.926 145.313C187.322 145.721 187.622 146.213 187.826 146.789C188.042 147.353 188.144 147.971 188.132 148.643L188.114 149.417H180.428L180.014 147.905H186.26L185.972 148.211V147.815C185.936 147.443 185.816 147.119 185.612 146.843C185.408 146.555 185.144 146.333 184.82 146.177C184.508 146.009 184.16 145.925 183.776 145.925C183.188 145.925 182.69 146.039 182.282 146.267C181.886 146.495 181.586 146.825 181.382 147.257C181.178 147.677 181.076 148.205 181.076 148.841C181.076 149.453 181.202 149.987 181.454 150.443C181.718 150.899 182.084 151.253 182.552 151.505C183.032 151.745 183.59 151.865 184.226 151.865C184.67 151.865 185.078 151.793 185.45 151.649C185.822 151.505 186.224 151.247 186.656 150.875L187.754 152.405C187.43 152.705 187.058 152.963 186.638 153.179C186.23 153.383 185.798 153.545 185.342 153.665C184.886 153.785 184.436 153.845 183.992 153.845Z" fill="#F07EB3"></path></g><rect x="17.6" y="73.6" width="244.8" height="146.13" rx="6.4" stroke="#FAD8E6" stroke-width="3.2"></rect><rect x="17.6" y="238.93" width="244.8" height="52.8" rx="6.4" fill="#F0FAF5"></rect><g style="mix-blend-mode:multiply"><path d="M122.94 272.51C122.1 272.51 121.344 272.372 120.672 272.096C120.012 271.808 119.472 271.4 119.052 270.872L120.492 269.63C120.852 270.038 121.254 270.332 121.698 270.512C122.142 270.692 122.61 270.782 123.102 270.782C123.306 270.782 123.486 270.758 123.642 270.71C123.81 270.662 123.954 270.59 124.074 270.494C124.194 270.398 124.284 270.29 124.344 270.17C124.416 270.038 124.452 269.894 124.452 269.738C124.452 269.45 124.344 269.222 124.128 269.054C124.008 268.97 123.816 268.88 123.552 268.784C123.3 268.688 122.97 268.592 122.562 268.496C121.914 268.328 121.374 268.136 120.942 267.92C120.51 267.692 120.174 267.44 119.934 267.164C119.73 266.936 119.574 266.678 119.466 266.39C119.37 266.102 119.322 265.79 119.322 265.454C119.322 265.034 119.412 264.656 119.592 264.32C119.784 263.972 120.042 263.672 120.366 263.42C120.69 263.168 121.068 262.976 121.5 262.844C121.932 262.712 122.382 262.646 122.85 262.646C123.33 262.646 123.792 262.706 124.236 262.826C124.692 262.946 125.112 263.12 125.496 263.348C125.892 263.564 126.228 263.828 126.504 264.14L125.28 265.49C125.052 265.274 124.8 265.082 124.524 264.914C124.26 264.746 123.99 264.614 123.714 264.518C123.438 264.41 123.18 264.356 122.94 264.356C122.712 264.356 122.508 264.38 122.328 264.428C122.148 264.464 121.998 264.524 121.878 264.608C121.758 264.692 121.662 264.8 121.59 264.932C121.53 265.052 121.5 265.196 121.5 265.364C121.512 265.508 121.548 265.646 121.608 265.778C121.68 265.898 121.776 266 121.896 266.084C122.028 266.168 122.226 266.264 122.49 266.372C122.754 266.48 123.096 266.582 123.516 266.678C124.104 266.834 124.596 267.008 124.992 267.2C125.388 267.392 125.7 267.614 125.928 267.866C126.156 268.082 126.318 268.334 126.414 268.622C126.51 268.91 126.558 269.228 126.558 269.576C126.558 270.14 126.396 270.644 126.072 271.088C125.76 271.532 125.328 271.88 124.776 272.132C124.236 272.384 123.624 272.51 122.94 272.51ZM130.578 269.432L130.146 267.362L134.646 262.844H137.598L130.578 269.432ZM128.508 272.33V259.01H130.722V272.33H128.508ZM134.916 272.33L131.424 268.1L132.99 266.768L137.652 272.33H134.916ZM139.36 272.33V262.844H141.574V272.33H139.36ZM140.44 260.828C139.996 260.828 139.648 260.72 139.396 260.504C139.156 260.276 139.036 259.958 139.036 259.55C139.036 259.166 139.162 258.854 139.414 258.614C139.666 258.374 140.008 258.254 140.44 258.254C140.896 258.254 141.244 258.368 141.484 258.596C141.736 258.812 141.862 259.13 141.862 259.55C141.862 259.922 141.736 260.228 141.484 260.468C141.232 260.708 140.884 260.828 140.44 260.828ZM144.399 272.33V259.01H146.631V272.33H144.399ZM149.251 272.33V259.01H151.483V272.33H149.251ZM157.252 272.51C156.412 272.51 155.656 272.372 154.984 272.096C154.324 271.808 153.784 271.4 153.364 270.872L154.804 269.63C155.164 270.038 155.566 270.332 156.01 270.512C156.454 270.692 156.922 270.782 157.414 270.782C157.618 270.782 157.798 270.758 157.954 270.71C158.122 270.662 158.266 270.59 158.386 270.494C158.506 270.398 158.596 270.29 158.656 270.17C158.728 270.038 158.764 269.894 158.764 269.738C158.764 269.45 158.656 269.222 158.44 269.054C158.32 268.97 158.128 268.88 157.864 268.784C157.612 268.688 157.282 268.592 156.874 268.496C156.226 268.328 155.686 268.136 155.254 267.92C154.822 267.692 154.486 267.44 154.246 267.164C154.042 266.936 153.886 266.678 153.778 266.39C153.682 266.102 153.634 265.79 153.634 265.454C153.634 265.034 153.724 264.656 153.904 264.32C154.096 263.972 154.354 263.672 154.678 263.42C155.002 263.168 155.38 262.976 155.812 262.844C156.244 262.712 156.694 262.646 157.162 262.646C157.642 262.646 158.104 262.706 158.548 262.826C159.004 262.946 159.424 263.12 159.808 263.348C160.204 263.564 160.54 263.828 160.816 264.14L159.592 265.49C159.364 265.274 159.112 265.082 158.836 264.914C158.572 264.746 158.302 264.614 158.026 264.518C157.75 264.41 157.492 264.356 157.252 264.356C157.024 264.356 156.82 264.38 156.64 264.428C156.46 264.464 156.31 264.524 156.19 264.608C156.07 264.692 155.974 264.8 155.902 264.932C155.842 265.052 155.812 265.196 155.812 265.364C155.824 265.508 155.86 265.646 155.92 265.778C155.992 265.898 156.088 266 156.208 266.084C156.34 266.168 156.538 266.264 156.802 266.372C157.066 266.48 157.408 266.582 157.828 266.678C158.416 266.834 158.908 267.008 159.304 267.2C159.7 267.392 160.012 267.614 160.24 267.866C160.468 268.082 160.63 268.334 160.726 268.622C160.822 268.91 160.87 269.228 160.87 269.576C160.87 270.14 160.708 270.644 160.384 271.088C160.072 271.532 159.64 271.88 159.088 272.132C158.548 272.384 157.936 272.51 157.252 272.51Z" fill="#4AB690"></path></g><rect x="17.6" y="238.93" width="244.8" height="52.8" rx="6.4" stroke="#98DEBD" stroke-width="3.2"></rect><rect x="17.6" y="310.93" width="244.8" height="44.8" rx="6.4" fill="#E8F2FF"></rect><g style="mix-blend-mode:multiply"><path d="M101.138 340.51C100.142 340.51 99.2595 340.3 98.4915 339.88C97.7355 339.46 97.1415 338.89 96.7095 338.17C96.2895 337.438 96.0795 336.604 96.0795 335.668C96.0795 334.924 96.1995 334.246 96.4395 333.634C96.6795 333.022 97.0095 332.494 97.4295 332.05C97.8615 331.594 98.3715 331.246 98.9595 331.006C99.5595 330.754 100.214 330.628 100.922 330.628C101.546 330.628 102.128 330.748 102.668 330.988C103.208 331.228 103.676 331.558 104.072 331.978C104.468 332.386 104.768 332.878 104.972 333.454C105.188 334.018 105.29 334.636 105.278 335.308L105.26 336.082H97.5735L97.1595 334.57H103.406L103.118 334.876V334.48C103.082 334.108 102.962 333.784 102.758 333.508C102.554 333.22 102.29 332.998 101.966 332.842C101.654 332.674 101.306 332.59 100.922 332.59C100.334 332.59 99.8355 332.704 99.4275 332.932C99.0315 333.16 98.7315 333.49 98.5275 333.922C98.3235 334.342 98.2215 334.87 98.2215 335.506C98.2215 336.118 98.3475 336.652 98.5995 337.108C98.8635 337.564 99.2295 337.918 99.6975 338.17C100.178 338.41 100.736 338.53 101.372 338.53C101.816 338.53 102.224 338.458 102.596 338.314C102.968 338.17 103.37 337.912 103.802 337.54L104.9 339.07C104.576 339.37 104.204 339.628 103.784 339.844C103.376 340.048 102.944 340.21 102.488 340.33C102.032 340.45 101.582 340.51 101.138 340.51ZM111.054 340.51C110.214 340.51 109.458 340.3 108.786 339.88C108.126 339.448 107.598 338.866 107.202 338.134C106.818 337.39 106.626 336.538 106.626 335.578C106.626 334.63 106.818 333.784 107.202 333.04C107.586 332.296 108.108 331.714 108.768 331.294C109.44 330.862 110.196 330.646 111.036 330.646C111.492 330.646 111.93 330.718 112.35 330.862C112.782 331.006 113.166 331.204 113.502 331.456C113.838 331.696 114.102 331.966 114.294 332.266C114.498 332.566 114.612 332.878 114.636 333.202L114.042 333.274V327.01H116.256V340.33H114.114L114.06 338.098L114.492 338.134C114.48 338.434 114.372 338.722 114.168 338.998C113.976 339.274 113.724 339.526 113.412 339.754C113.1 339.982 112.734 340.168 112.314 340.312C111.906 340.444 111.486 340.51 111.054 340.51ZM111.486 338.638C112.002 338.638 112.458 338.506 112.854 338.242C113.25 337.978 113.556 337.618 113.772 337.162C114 336.706 114.114 336.178 114.114 335.578C114.114 334.99 114 334.468 113.772 334.012C113.556 333.544 113.25 333.184 112.854 332.932C112.458 332.668 112.002 332.536 111.486 332.536C110.97 332.536 110.514 332.668 110.118 332.932C109.722 333.184 109.41 333.544 109.182 334.012C108.966 334.468 108.858 334.99 108.858 335.578C108.858 336.178 108.966 336.706 109.182 337.162C109.41 337.618 109.722 337.978 110.118 338.242C110.514 338.506 110.97 338.638 111.486 338.638ZM122.345 340.51C121.661 340.51 121.067 340.36 120.563 340.06C120.059 339.748 119.675 339.31 119.411 338.746C119.147 338.17 119.015 337.486 119.015 336.694V330.844H121.229V336.226C121.229 336.73 121.307 337.162 121.463 337.522C121.619 337.87 121.847 338.14 122.147 338.332C122.447 338.524 122.807 338.62 123.227 338.62C123.539 338.62 123.821 338.572 124.073 338.476C124.337 338.368 124.565 338.224 124.757 338.044C124.949 337.852 125.099 337.63 125.207 337.378C125.315 337.114 125.369 336.832 125.369 336.532V330.844H127.583V340.33H125.423L125.387 338.35L125.783 338.134C125.639 338.59 125.393 338.998 125.045 339.358C124.709 339.706 124.307 339.988 123.839 340.204C123.371 340.408 122.873 340.51 122.345 340.51ZM134.246 340.51C133.358 340.51 132.56 340.294 131.852 339.862C131.144 339.43 130.586 338.842 130.178 338.098C129.77 337.354 129.566 336.514 129.566 335.578C129.566 334.642 129.77 333.802 130.178 333.058C130.586 332.314 131.144 331.726 131.852 331.294C132.56 330.862 133.358 330.646 134.246 330.646C135.098 330.646 135.872 330.808 136.568 331.132C137.264 331.456 137.804 331.906 138.188 332.482L136.964 333.958C136.784 333.706 136.556 333.478 136.28 333.274C136.004 333.07 135.71 332.908 135.398 332.788C135.086 332.668 134.774 332.608 134.462 332.608C133.934 332.608 133.46 332.74 133.04 333.004C132.632 333.256 132.308 333.61 132.068 334.066C131.828 334.51 131.708 335.014 131.708 335.578C131.708 336.142 131.828 336.646 132.068 337.09C132.32 337.534 132.656 337.888 133.076 338.152C133.496 338.416 133.964 338.548 134.48 338.548C134.792 338.548 135.092 338.5 135.38 338.404C135.68 338.296 135.962 338.146 136.226 337.954C136.49 337.762 136.736 337.522 136.964 337.234L138.188 338.728C137.78 339.256 137.216 339.688 136.496 340.024C135.788 340.348 135.038 340.51 134.246 340.51ZM143.463 340.51C142.683 340.51 141.975 340.294 141.339 339.862C140.703 339.43 140.193 338.842 139.809 338.098C139.425 337.354 139.233 336.508 139.233 335.56C139.233 334.612 139.425 333.766 139.809 333.022C140.193 332.278 140.715 331.696 141.375 331.276C142.035 330.856 142.779 330.646 143.607 330.646C144.087 330.646 144.525 330.718 144.921 330.862C145.317 330.994 145.665 331.186 145.965 331.438C146.265 331.69 146.511 331.978 146.703 332.302C146.907 332.626 147.045 332.974 147.117 333.346L146.631 333.22V330.844H148.863V340.33H146.613V338.062L147.135 337.972C147.051 338.296 146.895 338.614 146.667 338.926C146.451 339.226 146.175 339.496 145.839 339.736C145.515 339.964 145.149 340.15 144.741 340.294C144.345 340.438 143.919 340.51 143.463 340.51ZM144.075 338.548C144.591 338.548 145.047 338.422 145.443 338.17C145.839 337.918 146.145 337.57 146.361 337.126C146.589 336.67 146.703 336.148 146.703 335.56C146.703 334.984 146.589 334.474 146.361 334.03C146.145 333.586 145.839 333.238 145.443 332.986C145.047 332.734 144.591 332.608 144.075 332.608C143.559 332.608 143.103 332.734 142.707 332.986C142.323 333.238 142.023 333.586 141.807 334.03C141.591 334.474 141.483 334.984 141.483 335.56C141.483 336.148 141.591 336.67 141.807 337.126C142.023 337.57 142.323 337.918 142.707 338.17C143.103 338.422 143.559 338.548 144.075 338.548ZM152.456 340.33V328.432H154.67V340.33H152.456ZM150.584 332.896V330.844H156.74V332.896H150.584ZM158.678 340.33V330.844H160.892V340.33H158.678ZM159.758 328.828C159.314 328.828 158.966 328.72 158.714 328.504C158.474 328.276 158.354 327.958 158.354 327.55C158.354 327.166 158.48 326.854 158.732 326.614C158.984 326.374 159.326 326.254 159.758 326.254C160.214 326.254 160.562 326.368 160.802 326.596C161.054 326.812 161.18 327.13 161.18 327.55C161.18 327.922 161.054 328.228 160.802 328.468C160.55 328.708 160.202 328.828 159.758 328.828ZM168.037 340.51C167.089 340.51 166.243 340.3 165.499 339.88C164.755 339.448 164.167 338.86 163.735 338.116C163.303 337.372 163.087 336.526 163.087 335.578C163.087 334.63 163.303 333.784 163.735 333.04C164.167 332.296 164.755 331.714 165.499 331.294C166.243 330.862 167.089 330.646 168.037 330.646C168.973 330.646 169.813 330.862 170.557 331.294C171.301 331.714 171.883 332.296 172.303 333.04C172.735 333.784 172.951 334.63 172.951 335.578C172.951 336.526 172.735 337.372 172.303 338.116C171.883 338.86 171.301 339.448 170.557 339.88C169.813 340.3 168.973 340.51 168.037 340.51ZM168.037 338.548C168.553 338.548 169.009 338.416 169.405 338.152C169.813 337.888 170.131 337.534 170.359 337.09C170.599 336.646 170.713 336.142 170.701 335.578C170.713 335.002 170.599 334.492 170.359 334.048C170.131 333.604 169.813 333.256 169.405 333.004C169.009 332.74 168.553 332.608 168.037 332.608C167.521 332.608 167.053 332.74 166.633 333.004C166.225 333.256 165.907 333.61 165.679 334.066C165.451 334.51 165.337 335.014 165.337 335.578C165.337 336.142 165.451 336.646 165.679 337.09C165.907 337.534 166.225 337.888 166.633 338.152C167.053 338.416 167.521 338.548 168.037 338.548ZM174.932 340.33V330.844H177.092L177.128 332.788L176.714 333.004C176.834 332.572 177.068 332.182 177.416 331.834C177.764 331.474 178.178 331.186 178.658 330.97C179.138 330.754 179.63 330.646 180.134 330.646C180.854 330.646 181.454 330.79 181.934 331.078C182.426 331.366 182.792 331.798 183.032 332.374C183.284 332.95 183.41 333.67 183.41 334.534V340.33H181.196V334.696C181.196 334.216 181.13 333.82 180.998 333.508C180.866 333.184 180.662 332.95 180.386 332.806C180.11 332.65 179.774 332.578 179.378 332.59C179.054 332.59 178.754 332.644 178.478 332.752C178.214 332.848 177.98 332.992 177.776 333.184C177.584 333.364 177.428 333.574 177.308 333.814C177.2 334.054 177.146 334.318 177.146 334.606V340.33H176.048C175.832 340.33 175.628 340.33 175.436 340.33C175.256 340.33 175.088 340.33 174.932 340.33Z" fill="#60A4EF"></path></g><rect x="17.6" y="310.93" width="244.8" height="44.8" rx="6.4" stroke="#CBE2F8" stroke-width="3.2"></rect></g></svg> 