<?xml version="1.0" encoding="UTF-8"?> <svg xmlns="http://www.w3.org/2000/svg" width="280" height="374" viewBox="0 0 280 374" fill="none"><g clip-path="url(#clip0_3691_572227)"><path d="M237.289 0H12.712C5.69136 0 0 5.69136 0 12.712V320.904C0 327.925 5.69136 333.616 12.712 333.616H237.289C244.31 333.616 250.001 327.925 250.001 320.904V12.712C250.001 5.69136 244.31 0 237.289 0Z" fill="white"></path><g filter="url(#filter0_d_3691_572227)"><mask id="mask0_3691_572227" style="mask-type:alpha" maskUnits="userSpaceOnUse" x="29" y="43" width="214" height="311"><path d="M29.998 56.4268C29.998 49.4068 35.689 43.7148 42.71 43.7148H177.651C179.446 43.7147 181.221 44.0947 182.859 44.83C184.496 45.5653 185.959 46.6392 187.152 47.9808L212.647 76.6608L238.341 106.406C240.317 108.693 241.413 111.61 241.433 114.633L242.916 341.205C242.962 348.258 237.258 354 230.205 354H42.71C35.69 354 29.998 348.309 29.998 341.288V56.4268Z" fill="white"></path></mask><g mask="url(#mask0_3691_572227)"><path d="M230.288 43.7148H42.71C35.6894 43.7148 29.998 49.4062 29.998 56.4268V341.288C29.998 348.308 35.6894 354 42.71 354H230.288C237.309 354 243 348.308 243 341.288V56.4268C243 49.4062 237.309 43.7148 230.288 43.7148Z" fill="black"></path><path opacity="0.6" d="M225.066 295.698H47.9294C45.8876 295.698 44.2324 297.353 44.2324 299.395V334.488C44.2324 336.53 45.8876 338.185 47.9294 338.185H225.066C227.108 338.185 228.763 336.53 228.763 334.488V299.395C228.763 297.353 227.108 295.698 225.066 295.698Z" fill="#E8F2FF" stroke="#CBE2F8" stroke-width="3.2"></path><path opacity="0.6" d="M225.066 58.5127H47.9294C45.8876 58.5127 44.2324 60.1679 44.2324 62.2097V89.1807C44.2324 91.2225 45.8876 92.8777 47.9294 92.8777H225.066C227.108 92.8777 228.763 91.2225 228.763 89.1807V62.2097C228.763 60.1679 227.108 58.5127 225.066 58.5127Z" fill="#FFF8E8" stroke="#FCEDC5" stroke-width="3.2"></path><path opacity="0.6" d="M225.066 106.414H47.9294C45.8876 106.414 44.2324 108.069 44.2324 110.111V209.166C44.2324 211.208 45.8876 212.863 47.9294 212.863H225.066C227.108 212.863 228.763 211.208 228.763 209.166V110.111C228.763 108.069 227.108 106.414 225.066 106.414Z" fill="#F0FAF5" stroke="#98DEBD" stroke-width="3.2"></path><path opacity="0.6" d="M225.066 226.215H47.9294C45.8876 226.215 44.2324 227.87 44.2324 229.912V278.203C44.2324 280.245 45.8876 281.9 47.9294 281.9H225.066C227.108 281.9 228.763 280.245 228.763 278.203V229.912C228.763 227.87 227.108 226.215 225.066 226.215Z" fill="#FDEDF5" stroke="#FAD8E6" stroke-width="3.2"></path></g></g><mask id="mask1_3691_572227" style="mask-type:alpha" maskUnits="userSpaceOnUse" x="29" y="39" width="251" height="335"><path d="M29.998 52.4268C29.998 45.4068 35.689 39.7148 42.71 39.7148H204.621C208.059 39.7148 211.35 41.1068 213.744 43.5738L244.374 75.1368L274.697 107.296C276.9 109.632 278.137 112.715 278.16 115.926L279.908 360.528C279.958 367.584 274.252 373.331 267.196 373.331H42.71C35.69 373.331 29.998 367.639 29.998 360.619V52.4268Z" fill="white"></path></mask><g mask="url(#mask1_3691_572227)"><path d="M267.287 39.7148H42.71C35.6894 39.7148 29.998 45.4062 29.998 52.4268V360.619C29.998 367.639 35.6894 373.331 42.71 373.331H267.287C274.308 373.331 279.999 367.639 279.999 360.619V52.4268C279.999 45.4062 274.308 39.7148 267.287 39.7148Z" fill="white"></path><path opacity="0.6" d="M259.871 310.524H50.1247C48.0829 310.524 46.4277 312.18 46.4277 314.221V352.749C46.4277 354.791 48.0829 356.446 50.1247 356.446H259.871C261.913 356.446 263.568 354.791 263.568 352.749V314.221C263.568 312.18 261.913 310.524 259.871 310.524Z" fill="#E8F2FF" stroke="#CBE2F8" stroke-width="3.2"></path><path opacity="0.6" d="M259.871 55.5049H50.1247C48.0829 55.5049 46.4277 57.1601 46.4277 59.2019V88.9969C46.4277 91.0387 48.0829 92.6939 50.1247 92.6939H259.871C261.913 92.6939 263.568 91.0387 263.568 88.9969V59.2019C263.568 57.1601 261.913 55.5049 259.871 55.5049Z" fill="#FFF8E8" stroke="#FCEDC5" stroke-width="3.2"></path><path opacity="0.6" d="M259.871 107.008H50.1247C48.0829 107.008 46.4277 108.663 46.4277 110.705V218.004C46.4277 220.046 48.0829 221.701 50.1247 221.701H259.871C261.913 221.701 263.568 220.046 263.568 218.004V110.705C263.568 108.663 261.913 107.008 259.871 107.008Z" fill="#F0FAF5" stroke="#98DEBD" stroke-width="3.2"></path><path opacity="0.6" d="M259.871 235.816H50.1247C48.0829 235.816 46.4277 237.472 46.4277 239.513V292.232C46.4277 294.274 48.0829 295.929 50.1247 295.929H259.871C261.913 295.929 263.568 294.274 263.568 292.232V239.513C263.568 237.472 261.913 235.816 259.871 235.816Z" fill="#FDEDF5" stroke="#FAD8E6" stroke-width="3.2"></path></g><path opacity="0.6" d="M221.875 98.0516L210 42.0186L200.955 100.16C199.024 112.576 210.418 122.92 222.59 119.803L273.75 106.698L221.875 98.0516Z" fill="#D3D9DE"></path><path d="M210.5 40L274.375 106.696H220.075C214.523 106.696 210.034 102.173 210.076 96.621L210.5 40Z" fill="white"></path><g filter="url(#filter1_dd_3691_572227)"><path d="M222 212.212C222 179.075 195.137 152.212 162 152.212C128.863 152.212 102 179.075 102 212.212C102 245.349 128.863 272.212 162 272.212C195.137 272.212 222 245.349 222 212.212Z" fill="white"></path><path d="M150.823 232.212L149.107 227.948L159.715 216.352C160.37 215.618 161.011 214.872 161.639 214.116C162.334 213.282 163.01 212.432 163.667 211.568C164.326 210.667 164.846 209.8 165.227 208.968C165.643 208.136 165.851 207.373 165.851 206.68C165.851 205.987 165.695 205.38 165.383 204.86C165.071 204.34 164.62 203.941 164.031 203.664C163.442 203.352 162.696 203.196 161.795 203.196C160.998 203.196 160.235 203.404 159.507 203.82C158.779 204.201 158.086 204.808 157.427 205.64C156.803 206.472 156.214 207.495 155.659 208.708L149.107 205.172C149.835 203.161 150.858 201.393 152.175 199.868C153.527 198.308 155.104 197.112 156.907 196.28C158.708 195.413 160.682 194.969 162.679 194.98C164.828 195.015 166.77 195.483 168.503 196.384C170.236 197.251 171.606 198.481 172.611 200.076C173.651 201.636 174.171 203.473 174.171 205.588C174.171 206.316 174.084 207.079 173.911 207.876C173.721 208.728 173.46 209.563 173.131 210.372C172.784 211.204 172.316 212.105 171.727 213.076C171.11 214.103 170.433 215.092 169.699 216.04C168.811 217.188 167.874 218.299 166.891 219.368L158.623 228.364L157.583 224.412H175.783V232.212H150.823Z" fill="#404245"></path></g></g><defs><filter id="filter0_d_3691_572227" x="11.998" y="25.7148" width="236.918" height="334.285" filterUnits="userSpaceOnUse" color-interpolation-filters="sRGB"><feFlood flood-opacity="0" result="BackgroundImageFix"></feFlood><feColorMatrix in="SourceAlpha" type="matrix" values="0 0 0 0 0 0 0 0 0 0 0 0 0 0 0 0 0 0 127 0" result="hardAlpha"></feColorMatrix><feOffset dx="-6" dy="-6"></feOffset><feGaussianBlur stdDeviation="6"></feGaussianBlur><feComposite in2="hardAlpha" operator="out"></feComposite><feColorMatrix type="matrix" values="0 0 0 0 0 0 0 0 0 0 0 0 0 0 0 0 0 0 0.04 0"></feColorMatrix><feBlend mode="normal" in2="BackgroundImageFix" result="effect1_dropShadow_3691_572227"></feBlend><feBlend mode="normal" in="SourceGraphic" in2="effect1_dropShadow_3691_572227" result="shape"></feBlend></filter><filter id="filter1_dd_3691_572227" x="90" y="144.212" width="144" height="144" filterUnits="userSpaceOnUse" color-interpolation-filters="sRGB"><feFlood flood-opacity="0" result="BackgroundImageFix"></feFlood><feColorMatrix in="SourceAlpha" type="matrix" values="0 0 0 0 0 0 0 0 0 0 0 0 0 0 0 0 0 0 127 0" result="hardAlpha"></feColorMatrix><feOffset dy="2"></feOffset><feGaussianBlur stdDeviation="2"></feGaussianBlur><feColorMatrix type="matrix" values="0 0 0 0 0 0 0 0 0 0 0 0 0 0 0 0 0 0 0.06 0"></feColorMatrix><feBlend mode="normal" in2="BackgroundImageFix" result="effect1_dropShadow_3691_572227"></feBlend><feColorMatrix in="SourceAlpha" type="matrix" values="0 0 0 0 0 0 0 0 0 0 0 0 0 0 0 0 0 0 127 0" result="hardAlpha"></feColorMatrix><feOffset dy="4"></feOffset><feGaussianBlur stdDeviation="6"></feGaussianBlur><feColorMatrix type="matrix" values="0 0 0 0 0 0 0 0 0 0 0 0 0 0 0 0 0 0 0.1 0"></feColorMatrix><feBlend mode="normal" in2="effect1_dropShadow_3691_572227" result="effect2_dropShadow_3691_572227"></feBlend><feBlend mode="normal" in="SourceGraphic" in2="effect2_dropShadow_3691_572227" result="shape"></feBlend></filter><clipPath id="clip0_3691_572227"><rect width="280" height="374" fill="white"></rect></clipPath></defs></svg> 