<?xml version="1.0" encoding="UTF-8"?> <svg xmlns="http://www.w3.org/2000/svg" width="280" height="374" viewBox="0 0 280 374" fill="none"><g clip-path="url(#clip0_3691_572072)"><g opacity="0.9"><path d="M264 0H16C7.16344 0 0 7.16344 0 16V357.33C0 366.167 7.16344 373.33 16 373.33H264C272.837 373.33 280 366.167 280 357.33V16C280 7.16344 272.837 0 264 0Z" fill="white"></path><path d="M256 17.5996H23.9996C20.465 17.5996 17.5996 20.465 17.5996 23.9996V47.9996C17.5996 51.5342 20.465 54.3996 23.9996 54.3996H256C259.534 54.3996 262.4 51.5342 262.4 47.9996V23.9996C262.4 20.465 259.534 17.5996 256 17.5996Z" fill="#FFF8E8"></path><path d="M102.776 43.1794C101.936 43.1794 101.18 43.0414 100.508 42.7654C99.8487 42.4774 99.3087 42.0694 98.8887 41.5414L100.328 40.2994C100.688 40.7074 101.09 41.0014 101.534 41.1814C101.978 41.3614 102.446 41.4514 102.938 41.4514C103.142 41.4514 103.322 41.4274 103.478 41.3794C103.646 41.3314 103.79 41.2594 103.91 41.1634C104.03 41.0674 104.12 40.9594 104.18 40.8394C104.252 40.7074 104.288 40.5634 104.288 40.4074C104.288 40.1194 104.18 39.8914 103.964 39.7234C103.844 39.6394 103.652 39.5494 103.388 39.4534C103.136 39.3574 102.806 39.2614 102.398 39.1654C101.75 38.9974 101.21 38.8054 100.778 38.5894C100.346 38.3614 100.01 38.1094 99.7707 37.8334C99.5667 37.6054 99.4107 37.3474 99.3027 37.0594C99.2067 36.7714 99.1587 36.4594 99.1587 36.1234C99.1587 35.7034 99.2487 35.3254 99.4287 34.9894C99.6207 34.6414 99.8787 34.3414 100.202 34.0894C100.526 33.8374 100.904 33.6454 101.336 33.5134C101.768 33.3814 102.218 33.3154 102.686 33.3154C103.166 33.3154 103.628 33.3754 104.072 33.4954C104.528 33.6154 104.948 33.7894 105.332 34.0174C105.728 34.2334 106.064 34.4974 106.34 34.8094L105.116 36.1594C104.888 35.9434 104.636 35.7514 104.36 35.5834C104.096 35.4154 103.826 35.2834 103.55 35.1874C103.274 35.0794 103.016 35.0254 102.776 35.0254C102.548 35.0254 102.344 35.0494 102.164 35.0974C101.984 35.1334 101.834 35.1934 101.714 35.2774C101.594 35.3614 101.498 35.4694 101.426 35.6014C101.366 35.7214 101.336 35.8654 101.336 36.0334C101.348 36.1774 101.384 36.3154 101.444 36.4474C101.516 36.5674 101.612 36.6694 101.732 36.7534C101.864 36.8374 102.062 36.9334 102.326 37.0414C102.59 37.1494 102.932 37.2514 103.352 37.3474C103.94 37.5034 104.432 37.6774 104.828 37.8694C105.224 38.0614 105.536 38.2834 105.764 38.5354C105.992 38.7514 106.154 39.0034 106.25 39.2914C106.346 39.5794 106.394 39.8974 106.394 40.2454C106.394 40.8094 106.232 41.3134 105.908 41.7574C105.596 42.2014 105.164 42.5494 104.612 42.8014C104.072 43.0534 103.46 43.1794 102.776 43.1794ZM111.639 43.1794C110.955 43.1794 110.361 43.0294 109.857 42.7294C109.353 42.4174 108.969 41.9794 108.705 41.4154C108.441 40.8394 108.309 40.1554 108.309 39.3634V33.5134H110.523V38.8954C110.523 39.3994 110.601 39.8314 110.757 40.1914C110.913 40.5394 111.141 40.8094 111.441 41.0014C111.741 41.1934 112.101 41.2894 112.521 41.2894C112.833 41.2894 113.115 41.2414 113.367 41.1454C113.631 41.0374 113.859 40.8934 114.051 40.7134C114.243 40.5214 114.393 40.2994 114.501 40.0474C114.609 39.7834 114.663 39.5014 114.663 39.2014V33.5134H116.877V42.9994H114.717L114.681 41.0194L115.077 40.8034C114.933 41.2594 114.687 41.6674 114.339 42.0274C114.003 42.3754 113.601 42.6574 113.133 42.8734C112.665 43.0774 112.167 43.1794 111.639 43.1794ZM119.436 42.9994V33.5134H121.614L121.65 35.4214L121.29 35.5654C121.398 35.2534 121.56 34.9654 121.776 34.7014C121.992 34.4254 122.25 34.1914 122.55 33.9994C122.85 33.7954 123.168 33.6394 123.504 33.5314C123.84 33.4114 124.182 33.3514 124.53 33.3514C125.046 33.3514 125.502 33.4354 125.898 33.6034C126.306 33.7594 126.642 34.0114 126.906 34.3594C127.182 34.7074 127.386 35.1514 127.518 35.6914L127.176 35.6194L127.32 35.3314C127.452 35.0434 127.638 34.7854 127.878 34.5574C128.118 34.3174 128.388 34.1074 128.688 33.9274C128.988 33.7354 129.3 33.5914 129.624 33.4954C129.96 33.3994 130.29 33.3514 130.614 33.3514C131.334 33.3514 131.934 33.4954 132.414 33.7834C132.894 34.0714 133.254 34.5094 133.494 35.0974C133.734 35.6854 133.854 36.4114 133.854 37.2754V42.9994H131.622V37.4194C131.622 36.9394 131.556 36.5434 131.424 36.2314C131.304 35.9194 131.112 35.6914 130.848 35.5474C130.596 35.3914 130.278 35.3134 129.894 35.3134C129.594 35.3134 129.306 35.3674 129.03 35.4754C128.766 35.5714 128.538 35.7154 128.346 35.9074C128.154 36.0874 128.004 36.2974 127.896 36.5374C127.788 36.7774 127.734 37.0414 127.734 37.3294V42.9994H125.502V37.4014C125.502 36.9454 125.436 36.5674 125.304 36.2674C125.172 35.9554 124.98 35.7214 124.728 35.5654C124.476 35.3974 124.17 35.3134 123.81 35.3134C123.51 35.3134 123.228 35.3674 122.964 35.4754C122.7 35.5714 122.472 35.7094 122.28 35.8894C122.088 36.0694 121.938 36.2794 121.83 36.5194C121.722 36.7594 121.668 37.0234 121.668 37.3114V42.9994H119.436ZM136.276 42.9994V33.5134H138.454L138.49 35.4214L138.13 35.5654C138.238 35.2534 138.4 34.9654 138.616 34.7014C138.832 34.4254 139.09 34.1914 139.39 33.9994C139.69 33.7954 140.008 33.6394 140.344 33.5314C140.68 33.4114 141.022 33.3514 141.37 33.3514C141.886 33.3514 142.342 33.4354 142.738 33.6034C143.146 33.7594 143.482 34.0114 143.746 34.3594C144.022 34.7074 144.226 35.1514 144.358 35.6914L144.016 35.6194L144.16 35.3314C144.292 35.0434 144.478 34.7854 144.718 34.5574C144.958 34.3174 145.228 34.1074 145.528 33.9274C145.828 33.7354 146.14 33.5914 146.464 33.4954C146.8 33.3994 147.13 33.3514 147.454 33.3514C148.174 33.3514 148.774 33.4954 149.254 33.7834C149.734 34.0714 150.094 34.5094 150.334 35.0974C150.574 35.6854 150.694 36.4114 150.694 37.2754V42.9994H148.462V37.4194C148.462 36.9394 148.396 36.5434 148.264 36.2314C148.144 35.9194 147.952 35.6914 147.688 35.5474C147.436 35.3914 147.118 35.3134 146.734 35.3134C146.434 35.3134 146.146 35.3674 145.87 35.4754C145.606 35.5714 145.378 35.7154 145.186 35.9074C144.994 36.0874 144.844 36.2974 144.736 36.5374C144.628 36.7774 144.574 37.0414 144.574 37.3294V42.9994H142.342V37.4014C142.342 36.9454 142.276 36.5674 142.144 36.2674C142.012 35.9554 141.82 35.7214 141.568 35.5654C141.316 35.3974 141.01 35.3134 140.65 35.3134C140.35 35.3134 140.068 35.3674 139.804 35.4754C139.54 35.5714 139.312 35.7094 139.12 35.8894C138.928 36.0694 138.778 36.2794 138.67 36.5194C138.562 36.7594 138.508 37.0234 138.508 37.3114V42.9994H136.276ZM156.733 43.1794C155.953 43.1794 155.245 42.9634 154.609 42.5314C153.973 42.0994 153.463 41.5114 153.079 40.7674C152.695 40.0234 152.503 39.1774 152.503 38.2294C152.503 37.2814 152.695 36.4354 153.079 35.6914C153.463 34.9474 153.985 34.3654 154.645 33.9454C155.305 33.5254 156.049 33.3154 156.877 33.3154C157.357 33.3154 157.795 33.3874 158.191 33.5314C158.587 33.6634 158.935 33.8554 159.235 34.1074C159.535 34.3594 159.781 34.6474 159.973 34.9714C160.177 35.2954 160.315 35.6434 160.387 36.0154L159.901 35.8894V33.5134H162.133V42.9994H159.883V40.7314L160.405 40.6414C160.321 40.9654 160.165 41.2834 159.937 41.5954C159.721 41.8954 159.445 42.1654 159.109 42.4054C158.785 42.6334 158.419 42.8194 158.011 42.9634C157.615 43.1074 157.189 43.1794 156.733 43.1794ZM157.345 41.2174C157.861 41.2174 158.317 41.0914 158.713 40.8394C159.109 40.5874 159.415 40.2394 159.631 39.7954C159.859 39.3394 159.973 38.8174 159.973 38.2294C159.973 37.6534 159.859 37.1434 159.631 36.6994C159.415 36.2554 159.109 35.9074 158.713 35.6554C158.317 35.4034 157.861 35.2774 157.345 35.2774C156.829 35.2774 156.373 35.4034 155.977 35.6554C155.593 35.9074 155.293 36.2554 155.077 36.6994C154.861 37.1434 154.753 37.6534 154.753 38.2294C154.753 38.8174 154.861 39.3394 155.077 39.7954C155.293 40.2394 155.593 40.5874 155.977 40.8394C156.373 41.0914 156.829 41.2174 157.345 41.2174ZM164.7 42.9994V33.5134H166.878L166.914 36.5374L166.608 35.8534C166.74 35.3734 166.968 34.9414 167.292 34.5574C167.616 34.1734 167.988 33.8734 168.408 33.6574C168.84 33.4294 169.29 33.3154 169.758 33.3154C169.962 33.3154 170.154 33.3334 170.334 33.3694C170.526 33.4054 170.682 33.4474 170.802 33.4954L170.208 35.9254C170.076 35.8534 169.914 35.7934 169.722 35.7454C169.53 35.6974 169.338 35.6734 169.146 35.6734C168.846 35.6734 168.558 35.7334 168.282 35.8534C168.018 35.9614 167.784 36.1174 167.58 36.3214C167.376 36.5254 167.214 36.7654 167.094 37.0414C166.986 37.3054 166.932 37.6054 166.932 37.9414V42.9994H164.7ZM173.716 47.1394L175.732 42.4774L175.75 43.9534L171.07 33.5134H173.626L176.236 39.7054C176.32 39.8614 176.404 40.0714 176.488 40.3354C176.572 40.5874 176.644 40.8394 176.704 41.0914L176.254 41.2354C176.338 41.0074 176.428 40.7674 176.524 40.5154C176.62 40.2514 176.71 39.9814 176.794 39.7054L179.026 33.5134H181.6L177.64 42.9994L176.02 47.1394H173.716Z" fill="#FAC05A"></path><path d="M256 17.5996H23.9996C20.465 17.5996 17.5996 20.465 17.5996 23.9996V47.9996C17.5996 51.5342 20.465 54.3996 23.9996 54.3996H256C259.534 54.3996 262.4 51.5342 262.4 47.9996V23.9996C262.4 20.465 259.534 17.5996 256 17.5996Z" stroke="#FCEDC5" stroke-width="3.2"></path><path d="M124 73.5996H23.9996C20.465 73.5996 17.5996 76.465 17.5996 79.9996V277.33C17.5996 280.864 20.465 283.73 23.9996 283.73H124C127.534 283.73 130.4 280.864 130.4 277.33V79.9996C130.4 76.465 127.534 73.5996 124 73.5996Z" fill="#EFEDFC"></path><g style="mix-blend-mode:multiply"><path d="M37.4271 103.18C36.5871 103.18 35.8311 103.042 35.1591 102.766C34.4991 102.478 33.9591 102.07 33.5391 101.542L34.9791 100.3C35.3391 100.708 35.7411 101.002 36.1851 101.182C36.6291 101.362 37.0971 101.452 37.5891 101.452C37.7931 101.452 37.9731 101.428 38.1291 101.38C38.2971 101.332 38.4411 101.26 38.5611 101.164C38.6811 101.068 38.7711 100.96 38.8311 100.84C38.9031 100.708 38.9391 100.564 38.9391 100.408C38.9391 100.12 38.8311 99.8918 38.6151 99.7238C38.4951 99.6398 38.3031 99.5498 38.0391 99.4538C37.7871 99.3578 37.4571 99.2618 37.0491 99.1658C36.4011 98.9978 35.8611 98.8058 35.4291 98.5898C34.9971 98.3618 34.6611 98.1098 34.4211 97.8338C34.2171 97.6058 34.0611 97.3478 33.9531 97.0598C33.8571 96.7718 33.8091 96.4598 33.8091 96.1238C33.8091 95.7038 33.8991 95.3258 34.0791 94.9898C34.2711 94.6418 34.5291 94.3418 34.8531 94.0898C35.1771 93.8378 35.5551 93.6458 35.9871 93.5138C36.4191 93.3818 36.8691 93.3158 37.3371 93.3158C37.8171 93.3158 38.2791 93.3758 38.7231 93.4958C39.1791 93.6158 39.5991 93.7898 39.9831 94.0178C40.3791 94.2338 40.7151 94.4978 40.9911 94.8098L39.7671 96.1598C39.5391 95.9438 39.2871 95.7518 39.0111 95.5838C38.7471 95.4158 38.4771 95.2838 38.2011 95.1878C37.9251 95.0798 37.6671 95.0258 37.4271 95.0258C37.1991 95.0258 36.9951 95.0498 36.8151 95.0978C36.6351 95.1338 36.4851 95.1938 36.3651 95.2778C36.2451 95.3618 36.1491 95.4698 36.0771 95.6018C36.0171 95.7218 35.9871 95.8658 35.9871 96.0338C35.9991 96.1778 36.0351 96.3158 36.0951 96.4478C36.1671 96.5678 36.2631 96.6698 36.3831 96.7538C36.5151 96.8378 36.7131 96.9338 36.9771 97.0418C37.2411 97.1498 37.5831 97.2518 38.0031 97.3478C38.5911 97.5038 39.0831 97.6778 39.4791 97.8698C39.8751 98.0618 40.1871 98.2838 40.4151 98.5358C40.6431 98.7518 40.8051 99.0038 40.9011 99.2918C40.9971 99.5798 41.0451 99.8978 41.0451 100.246C41.0451 100.81 40.8831 101.314 40.5591 101.758C40.2471 102.202 39.8151 102.55 39.2631 102.802C38.7231 103.054 38.1111 103.18 37.4271 103.18ZM47.3334 103.18C46.3854 103.18 45.5394 102.97 44.7954 102.55C44.0514 102.118 43.4634 101.53 43.0314 100.786C42.5994 100.042 42.3834 99.1958 42.3834 98.2478C42.3834 97.2998 42.5994 96.4538 43.0314 95.7098C43.4634 94.9658 44.0514 94.3838 44.7954 93.9638C45.5394 93.5318 46.3854 93.3158 47.3334 93.3158C48.2694 93.3158 49.1094 93.5318 49.8534 93.9638C50.5974 94.3838 51.1794 94.9658 51.5994 95.7098C52.0314 96.4538 52.2474 97.2998 52.2474 98.2478C52.2474 99.1958 52.0314 100.042 51.5994 100.786C51.1794 101.53 50.5974 102.118 49.8534 102.55C49.1094 102.97 48.2694 103.18 47.3334 103.18ZM47.3334 101.218C47.8494 101.218 48.3054 101.086 48.7014 100.822C49.1094 100.558 49.4274 100.204 49.6554 99.7598C49.8954 99.3158 50.0094 98.8118 49.9974 98.2478C50.0094 97.6718 49.8954 97.1618 49.6554 96.7178C49.4274 96.2738 49.1094 95.9258 48.7014 95.6738C48.3054 95.4098 47.8494 95.2778 47.3334 95.2778C46.8174 95.2778 46.3494 95.4098 45.9294 95.6738C45.5214 95.9258 45.2034 96.2798 44.9754 96.7358C44.7474 97.1798 44.6334 97.6838 44.6334 98.2478C44.6334 98.8118 44.7474 99.3158 44.9754 99.7598C45.2034 100.204 45.5214 100.558 45.9294 100.822C46.3494 101.086 46.8174 101.218 47.3334 101.218ZM54.7403 103V92.6678C54.7403 92.0918 54.8663 91.5818 55.1183 91.1378C55.3703 90.6818 55.7183 90.3278 56.1623 90.0758C56.6063 89.8118 57.1223 89.6798 57.7103 89.6798C58.1183 89.6798 58.4963 89.7518 58.8443 89.8958C59.1923 90.0278 59.4863 90.2138 59.7263 90.4538L59.0423 92.1278C58.8863 91.9958 58.7183 91.8938 58.5383 91.8218C58.3703 91.7498 58.2083 91.7138 58.0523 91.7138C57.8123 91.7138 57.6083 91.7558 57.4403 91.8398C57.2843 91.9118 57.1643 92.0258 57.0803 92.1818C57.0083 92.3378 56.9723 92.5238 56.9723 92.7398V103H55.8563C55.6403 103 55.4363 103 55.2443 103C55.0643 103 54.8963 103 54.7403 103ZM53.2643 95.6558V93.7118H59.1143V95.6558H53.2643ZM62.0214 103V91.1018H64.2354V103H62.0214ZM60.1494 95.5658V93.5138H66.3054V95.5658H60.1494ZM76.4505 103.18C75.6105 103.18 74.8545 103.042 74.1825 102.766C73.5225 102.478 72.9825 102.07 72.5625 101.542L74.0025 100.3C74.3625 100.708 74.7645 101.002 75.2085 101.182C75.6525 101.362 76.1205 101.452 76.6125 101.452C76.8165 101.452 76.9965 101.428 77.1525 101.38C77.3205 101.332 77.4645 101.26 77.5845 101.164C77.7045 101.068 77.7945 100.96 77.8545 100.84C77.9265 100.708 77.9625 100.564 77.9625 100.408C77.9625 100.12 77.8545 99.8918 77.6385 99.7238C77.5185 99.6398 77.3265 99.5498 77.0625 99.4538C76.8105 99.3578 76.4805 99.2618 76.0725 99.1658C75.4245 98.9978 74.8845 98.8058 74.4525 98.5898C74.0205 98.3618 73.6845 98.1098 73.4445 97.8338C73.2405 97.6058 73.0845 97.3478 72.9765 97.0598C72.8805 96.7718 72.8325 96.4598 72.8325 96.1238C72.8325 95.7038 72.9225 95.3258 73.1025 94.9898C73.2945 94.6418 73.5525 94.3418 73.8765 94.0898C74.2005 93.8378 74.5785 93.6458 75.0105 93.5138C75.4425 93.3818 75.8925 93.3158 76.3605 93.3158C76.8405 93.3158 77.3025 93.3758 77.7465 93.4958C78.2025 93.6158 78.6225 93.7898 79.0065 94.0178C79.4025 94.2338 79.7385 94.4978 80.0145 94.8098L78.7905 96.1598C78.5625 95.9438 78.3105 95.7518 78.0345 95.5838C77.7705 95.4158 77.5005 95.2838 77.2245 95.1878C76.9485 95.0798 76.6905 95.0258 76.4505 95.0258C76.2225 95.0258 76.0185 95.0498 75.8385 95.0978C75.6585 95.1338 75.5085 95.1938 75.3885 95.2778C75.2685 95.3618 75.1725 95.4698 75.1005 95.6018C75.0405 95.7218 75.0105 95.8658 75.0105 96.0338C75.0225 96.1778 75.0585 96.3158 75.1185 96.4478C75.1905 96.5678 75.2865 96.6698 75.4065 96.7538C75.5385 96.8378 75.7365 96.9338 76.0005 97.0418C76.2645 97.1498 76.6065 97.2518 77.0265 97.3478C77.6145 97.5038 78.1065 97.6778 78.5025 97.8698C78.8985 98.0618 79.2105 98.2838 79.4385 98.5358C79.6665 98.7518 79.8285 99.0038 79.9245 99.2918C80.0205 99.5798 80.0685 99.8978 80.0685 100.246C80.0685 100.81 79.9065 101.314 79.5825 101.758C79.2705 102.202 78.8385 102.55 78.2865 102.802C77.7465 103.054 77.1345 103.18 76.4505 103.18ZM84.0888 100.102L83.6568 98.0318L88.1568 93.5138H91.1088L84.0888 100.102ZM82.0188 103V89.6798H84.2328V103H82.0188ZM88.4268 103L84.9348 98.7698L86.5008 97.4378L91.1628 103H88.4268ZM92.8704 103V93.5138H95.0844V103H92.8704ZM93.9504 91.4978C93.5064 91.4978 93.1584 91.3898 92.9064 91.1738C92.6664 90.9458 92.5464 90.6278 92.5464 90.2198C92.5464 89.8358 92.6724 89.5238 92.9244 89.2838C93.1764 89.0438 93.5184 88.9238 93.9504 88.9238C94.4064 88.9238 94.7544 89.0378 94.9944 89.2658C95.2464 89.4818 95.3724 89.7998 95.3724 90.2198C95.3724 90.5918 95.2464 90.8978 94.9944 91.1378C94.7424 91.3778 94.3944 91.4978 93.9504 91.4978ZM97.9099 103V89.6798H100.142V103H97.9099ZM102.761 103V89.6798H104.993V103H102.761ZM110.763 103.18C109.923 103.18 109.167 103.042 108.495 102.766C107.835 102.478 107.295 102.07 106.875 101.542L108.315 100.3C108.675 100.708 109.077 101.002 109.521 101.182C109.965 101.362 110.433 101.452 110.925 101.452C111.129 101.452 111.309 101.428 111.465 101.38C111.633 101.332 111.777 101.26 111.897 101.164C112.017 101.068 112.107 100.96 112.167 100.84C112.239 100.708 112.275 100.564 112.275 100.408C112.275 100.12 112.167 99.8918 111.951 99.7238C111.831 99.6398 111.639 99.5498 111.375 99.4538C111.123 99.3578 110.793 99.2618 110.385 99.1658C109.737 98.9978 109.197 98.8058 108.765 98.5898C108.333 98.3618 107.997 98.1098 107.757 97.8338C107.553 97.6058 107.397 97.3478 107.289 97.0598C107.193 96.7718 107.145 96.4598 107.145 96.1238C107.145 95.7038 107.235 95.3258 107.415 94.9898C107.607 94.6418 107.865 94.3418 108.189 94.0898C108.513 93.8378 108.891 93.6458 109.323 93.5138C109.755 93.3818 110.205 93.3158 110.673 93.3158C111.153 93.3158 111.615 93.3758 112.059 93.4958C112.515 93.6158 112.935 93.7898 113.319 94.0178C113.715 94.2338 114.051 94.4978 114.327 94.8098L113.103 96.1598C112.875 95.9438 112.623 95.7518 112.347 95.5838C112.083 95.4158 111.813 95.2838 111.537 95.1878C111.261 95.0798 111.003 95.0258 110.763 95.0258C110.535 95.0258 110.331 95.0498 110.151 95.0978C109.971 95.1338 109.821 95.1938 109.701 95.2778C109.581 95.3618 109.485 95.4698 109.413 95.6018C109.353 95.7218 109.323 95.8658 109.323 96.0338C109.335 96.1778 109.371 96.3158 109.431 96.4478C109.503 96.5678 109.599 96.6698 109.719 96.7538C109.851 96.8378 110.049 96.9338 110.313 97.0418C110.577 97.1498 110.919 97.2518 111.339 97.3478C111.927 97.5038 112.419 97.6778 112.815 97.8698C113.211 98.0618 113.523 98.2838 113.751 98.5358C113.979 98.7518 114.141 99.0038 114.237 99.2918C114.333 99.5798 114.381 99.8978 114.381 100.246C114.381 100.81 114.219 101.314 113.895 101.758C113.583 102.202 113.151 102.55 112.599 102.802C112.059 103.054 111.447 103.18 110.763 103.18Z" fill="#A292F7"></path></g><mask id="mask0_3691_572072" style="mask-type:luminance" maskUnits="userSpaceOnUse" x="29" y="124" width="90" height="90"><path d="M118.799 124H29.1992V213.6H118.799V124Z" fill="white"></path></mask><g mask="url(#mask0_3691_572072)"><path d="M86.6353 168.746C86.6484 169.15 86.6116 169.554 86.5259 169.949L112.126 178.154C112.885 175.077 113.253 171.915 113.22 168.746C113.274 158.903 109.6 149.405 102.936 142.161L84.4473 161.635C85.8831 163.727 86.6464 166.208 86.6353 168.746Z" fill="#E4DFFC"></path><path d="M84.6665 175.419L84.2289 176.185C84.0101 176.294 83.9007 176.513 83.7913 176.622L83.1348 177.388L82.4784 178.044L81.822 178.591L81.275 179.029L80.6186 179.467L80.0716 179.795L78.8682 180.342H78.6494L77.446 180.779H77.0083L75.9143 180.998H73.9451C70.5793 180.998 67.3514 179.661 64.9715 177.281C62.5915 174.901 61.2545 171.673 61.2545 168.308C61.2545 167.87 61.3639 167.432 61.3639 167.104V166.776C61.4733 166.448 61.4733 166.229 61.5827 165.901V165.573C61.7056 165.296 61.7796 165 61.8015 164.697V164.479C61.8802 164.091 62.0284 163.72 62.2391 163.385C62.4931 162.639 62.8622 161.938 63.3331 161.306V161.087L63.6613 160.54L46.4853 139.973C44.9545 141.446 43.5629 143.057 42.328 144.786H42.2186L41.234 146.209L40.9058 146.537L40.14 147.74L39.7024 148.615C39.4935 148.829 39.3429 149.093 39.2648 149.381C36.0788 155.139 34.4215 161.618 34.4511 168.198C34.3783 173.42 35.3476 178.604 37.3025 183.447C39.2574 188.29 42.1585 192.694 45.836 196.403C49.5136 200.111 53.8938 203.048 58.7203 205.043C63.5468 207.038 68.7227 208.05 73.9451 208.021H77.2271C79.031 207.844 80.8216 207.552 82.5878 207.145H82.916C84.7145 206.817 86.4742 206.303 88.1673 205.614H88.4955L93.3092 203.316L93.8562 202.988L95.8254 201.675L96.3724 201.347L97.9041 200.253L98.7793 199.597L99.7639 198.612L101.296 197.299L101.952 196.643L103.046 195.549L103.374 195.111L105.125 192.923L105.672 192.267L106.547 191.063L107.531 189.422L108.188 188.328L108.844 187.125L109.391 186.14C109.729 185.468 110.021 184.773 110.266 184.062C110.306 184.017 110.336 183.965 110.355 183.909C110.374 183.852 110.381 183.793 110.376 183.733L84.8853 175.419H84.6665Z" fill="#AC9BF6"></path><path d="M110.484 183.405H110.375C110.38 183.465 110.373 183.524 110.354 183.581C110.335 183.637 110.305 183.689 110.266 183.733L110.484 183.405Z" fill="#F5B659"></path><path d="M62.2391 150.475L68.1468 157.476H68.3656L69.3502 157.039H69.7878L70.663 156.711H71.1006L72.0853 156.492H76.0237L77.0083 156.711H77.5553L78.8682 157.148H79.1964L80.2904 157.805H80.5092L98.9981 138.44C98.0238 137.614 97.0009 136.847 95.9348 136.143H95.8254L94.4032 135.158H94.1844L92.8716 134.393L92.434 134.174L91.2306 133.517L90.7929 133.299L89.6989 132.752L89.0425 132.533L87.9485 132.095L87.4015 131.876L86.0887 131.439L84.9947 131.111L84.01 130.782L83.0254 130.564L82.1502 130.345H81.275L80.3998 130.126H68.9126C65.0143 130.591 61.2125 131.661 57.6442 133.299H57.4254L56.4408 133.846L55.7844 134.174L55.0186 134.502L53.7058 135.268H53.5964L50.8613 136.909L62.2391 150.475Z" fill="#C8BDF9"></path><path d="M98.9968 138.441C98.0502 137.581 97.0246 136.811 95.9336 136.144C96.9997 136.847 98.0226 137.615 98.9968 138.441Z" fill="#F29A76"></path><path d="M104.905 136.472V136.253L104.249 135.706L104.03 135.487C103.607 135.029 103.129 134.624 102.608 134.284L102.389 134.065L100.966 132.861H100.748L99.1066 131.767H98.9972L97.3562 130.673H97.2468L95.4964 129.579H95.2776L93.6366 128.595H93.4178L91.6673 127.719H91.3391L89.6981 127.063H89.1511L87.6195 126.516L87.0725 126.297L85.5408 125.969L84.8844 125.75L83.5716 125.422H82.8058L81.3836 125.094H80.6178L79.1955 124.875H69.787L68.5836 125.094H65.8485L64.3169 125.422H63.9887C61.5703 125.985 59.1942 126.716 56.8776 127.61L55.5648 128.157L54.9084 128.485L54.0331 128.923L52.9391 129.47L52.2827 129.798L50.9699 130.564L50.6417 130.783L49.0007 131.767H48.8913L45.1716 134.502L42.3272 137.128L40.7955 138.66C37.9715 141.767 35.613 145.268 33.7938 149.053L33.575 149.381L32.9186 150.803L32.5904 151.569C32.481 152.007 32.2622 152.335 32.1528 152.772C32.0527 153.119 31.9055 153.45 31.7152 153.757L31.387 154.851L31.0588 156.054L30.7306 157.039L30.4024 158.352C30.293 158.68 30.293 159.008 30.1836 159.337C30.0496 159.799 29.976 160.277 29.9648 160.759C29.8554 160.978 29.8554 161.306 29.746 161.634C29.6366 161.962 29.6366 162.619 29.5272 163.166C29.5448 163.426 29.5075 163.687 29.4177 163.931C29.4177 164.478 29.3084 165.025 29.3084 165.682V166.338C29.2149 167.137 29.1783 167.941 29.1989 168.745V171.043C29.3758 173.281 29.6679 175.508 30.0742 177.716C30.1836 178.372 30.4024 179.029 30.5118 179.576C32.9632 189.246 38.561 197.826 46.4239 203.966C54.2868 210.106 63.9682 213.456 73.9443 213.49H78.8673L80.6178 213.272H80.8366C88.7369 212.078 96.1689 208.775 102.349 203.711C108.53 198.647 113.23 192.01 115.955 184.499L116.173 184.061C116.271 183.644 116.417 183.24 116.611 182.858C118.026 178.289 118.727 173.528 118.69 168.745C118.711 162.71 117.499 156.735 115.129 151.185C112.758 145.636 109.279 140.629 104.905 136.472ZM77.2263 207.911H73.9443C63.5278 207.911 53.538 203.773 46.1725 196.407C38.807 189.042 34.669 179.052 34.669 168.636C34.6509 167.795 34.6874 166.955 34.7784 166.119C35.1005 160.401 36.7085 154.829 39.4827 149.819C39.5608 149.53 39.7115 149.267 39.9203 149.053L40.3579 148.178L41.1237 146.974L41.4519 146.646L42.4366 145.224H42.546C43.7809 143.495 45.1725 141.883 46.7032 140.41L63.8793 160.978L63.5511 161.525V161.743C63.0802 162.375 62.711 163.076 62.4571 163.822C62.2464 164.157 62.0981 164.528 62.0195 164.916V165.135C61.9976 165.437 61.9235 165.733 61.8007 166.01V166.338C61.6913 166.666 61.6913 166.885 61.5819 167.213V167.542C61.5819 167.87 61.4725 168.307 61.4725 168.745C61.4725 172.111 62.8095 175.339 65.1894 177.719C67.5694 180.099 70.7973 181.436 74.1631 181.436H76.1323L77.2263 181.217H77.6639L78.8673 180.779H79.0861L80.2896 180.232L80.8366 179.904L81.493 179.466L82.04 179.029L82.6964 178.482L83.3528 177.825L84.0092 177.06C84.1186 176.95 84.228 176.731 84.4468 176.622L84.8844 175.856L85.1032 175.528L110.594 183.843H110.703L110.484 184.171C110.239 184.882 109.947 185.577 109.609 186.249L109.062 187.234L108.406 188.437L107.749 189.531L106.765 191.172L105.89 192.376L105.343 193.032L103.592 195.22L103.264 195.658L102.17 196.752L101.513 197.408L99.9819 198.721L98.9972 199.706L98.122 200.362L96.5904 201.456L96.0434 201.784L94.0742 203.097L93.5272 203.425L88.7135 205.723H88.3853C86.6922 206.413 84.9324 206.926 83.134 207.254H82.587C80.816 207.588 79.0254 207.807 77.2263 207.911ZM68.9118 129.798H80.399L81.2742 130.017H82.1494L83.0246 130.236L84.0092 130.454L84.9938 130.783L86.0878 131.111L87.4007 131.549L87.9477 131.767L89.0417 132.205L89.6981 132.424L90.7921 132.971L91.2297 133.19L92.4331 133.846L92.8708 134.065L94.1836 134.831H94.4024L95.8246 135.815H95.934C97.025 136.483 98.0506 137.252 98.9972 138.113L80.5084 157.586H80.2896L79.1955 156.93H78.8673L77.5545 156.492H77.0075L76.0229 156.273H72.0844L71.0998 156.492H70.6622L69.787 156.82H69.3494L68.3648 157.258H68.146L62.2383 150.256L50.8605 136.909L53.5955 135.159H53.7049L55.0178 134.393L55.7836 134.065L56.44 133.737L57.4246 133.19H57.6434C61.1991 131.477 65.0014 130.332 68.9118 129.798ZM66.8331 167.979V167.76C66.8331 167.542 66.9425 167.432 66.9425 167.213C66.9425 166.995 66.9425 166.995 67.0519 166.995C67.0349 166.806 67.0729 166.616 67.1613 166.448V166.229C67.1613 166.119 67.2707 165.901 67.2707 165.791C67.334 165.735 67.3732 165.657 67.3801 165.572L67.599 165.135L67.8178 164.916L68.0366 164.478L68.2554 164.26L68.5836 163.931V163.713L69.0212 163.275H69.1306L70.1152 162.619H70.2246L71.2092 162.072H71.3186L72.4126 161.743H76.4605L76.8981 161.962H77.0075L77.5545 162.29H77.6639L78.1015 162.619H78.2109L78.6485 163.056C79.3749 163.724 79.9542 164.536 80.3498 165.44C80.7453 166.344 80.9483 167.321 80.946 168.307C80.9532 169.05 80.8424 169.788 80.6178 170.496L80.1802 171.48H80.0707L79.6331 172.355L79.4143 172.574L78.9767 173.121L78.6485 173.449L78.1015 173.887L77.8827 174.106L77.1169 174.543L76.3511 174.872H76.1323L75.2571 175.09H73.9443C72.0381 175.062 70.2178 174.292 68.8698 172.944C67.5218 171.596 66.752 169.776 66.7237 167.87C66.7237 168.417 66.8331 168.198 66.8331 167.979ZM86.5254 169.949C86.6112 169.553 86.6479 169.149 86.6348 168.745C86.646 166.207 85.8827 163.727 84.4468 161.634L102.936 142.16C109.6 149.404 113.274 158.902 113.219 168.745C113.252 171.915 112.885 175.076 112.125 178.154L86.5254 169.949Z" fill="white" fill-opacity="0.6"></path></g><path d="M121.201 229.6H26.799C25.8054 229.6 25 230.405 25 231.399C25 232.392 25.8054 233.198 26.799 233.198H121.201C122.195 233.198 123 232.392 123 231.399C123 230.405 122.195 229.6 121.201 229.6Z" fill="#AC9BF6"></path><path d="M121.201 237.196H26.799C25.8054 237.196 25 238.002 25 238.995C25 239.989 25.8054 240.794 26.799 240.794H121.201C122.195 240.794 123 239.989 123 238.995C123 238.002 122.195 237.196 121.201 237.196Z" fill="#AC9BF6"></path><path d="M88.3801 244.796H26.799C25.8054 244.796 25 245.601 25 246.595C25 247.588 25.8054 248.394 26.799 248.394H88.3801C89.3737 248.394 90.1791 247.588 90.1791 246.595C90.1791 245.601 89.3737 244.796 88.3801 244.796Z" fill="#AC9BF6"></path><path d="M124 73.5996H23.9996C20.465 73.5996 17.5996 76.465 17.5996 79.9996V277.33C17.5996 280.864 20.465 283.73 23.9996 283.73H124C127.534 283.73 130.4 280.864 130.4 277.33V79.9996C130.4 76.465 127.534 73.5996 124 73.5996Z" stroke="#E4DFFC" stroke-width="3.2"></path><path d="M256 73.5996H156C152.465 73.5996 149.6 76.465 149.6 79.9996V112C149.6 115.534 152.465 118.4 156 118.4H256C259.534 118.4 262.4 115.534 262.4 112V79.9996C262.4 76.465 259.534 73.5996 256 73.5996Z" fill="#E8F2FF"></path><g style="mix-blend-mode:multiply"><path d="M167.138 103.18C166.142 103.18 165.26 102.97 164.492 102.55C163.736 102.13 163.142 101.56 162.71 100.84C162.29 100.108 162.08 99.2738 162.08 98.3378C162.08 97.5938 162.2 96.9158 162.44 96.3038C162.68 95.6918 163.01 95.1638 163.43 94.7198C163.862 94.2638 164.372 93.9158 164.96 93.6758C165.56 93.4238 166.214 93.2978 166.922 93.2978C167.546 93.2978 168.128 93.4178 168.668 93.6578C169.208 93.8978 169.676 94.2278 170.072 94.6478C170.468 95.0558 170.768 95.5478 170.972 96.1238C171.188 96.6878 171.29 97.3058 171.278 97.9778L171.26 98.7518H163.574L163.16 97.2398H169.406L169.118 97.5458V97.1498C169.082 96.7778 168.962 96.4538 168.758 96.1778C168.554 95.8898 168.29 95.6678 167.966 95.5118C167.654 95.3438 167.306 95.2598 166.922 95.2598C166.334 95.2598 165.836 95.3738 165.428 95.6018C165.032 95.8298 164.732 96.1598 164.528 96.5918C164.324 97.0118 164.222 97.5398 164.222 98.1758C164.222 98.7878 164.348 99.3218 164.6 99.7778C164.864 100.234 165.23 100.588 165.698 100.84C166.178 101.08 166.736 101.2 167.372 101.2C167.816 101.2 168.224 101.128 168.596 100.984C168.968 100.84 169.37 100.582 169.802 100.21L170.9 101.74C170.576 102.04 170.204 102.298 169.784 102.514C169.376 102.718 168.944 102.88 168.488 103C168.032 103.12 167.582 103.18 167.138 103.18ZM177.054 103.18C176.214 103.18 175.458 102.97 174.786 102.55C174.126 102.118 173.598 101.536 173.202 100.804C172.818 100.06 172.626 99.2078 172.626 98.2478C172.626 97.2998 172.818 96.4538 173.202 95.7098C173.586 94.9658 174.108 94.3838 174.768 93.9638C175.44 93.5318 176.196 93.3158 177.036 93.3158C177.492 93.3158 177.93 93.3878 178.35 93.5318C178.782 93.6758 179.166 93.8738 179.502 94.1258C179.838 94.3658 180.102 94.6358 180.294 94.9358C180.498 95.2358 180.612 95.5478 180.636 95.8718L180.042 95.9438V89.6798H182.256V103H180.114L180.06 100.768L180.492 100.804C180.48 101.104 180.372 101.392 180.168 101.668C179.976 101.944 179.724 102.196 179.412 102.424C179.1 102.652 178.734 102.838 178.314 102.982C177.906 103.114 177.486 103.18 177.054 103.18ZM177.486 101.308C178.002 101.308 178.458 101.176 178.854 100.912C179.25 100.648 179.556 100.288 179.772 99.8318C180 99.3758 180.114 98.8478 180.114 98.2478C180.114 97.6598 180 97.1378 179.772 96.6818C179.556 96.2138 179.25 95.8538 178.854 95.6018C178.458 95.3378 178.002 95.2058 177.486 95.2058C176.97 95.2058 176.514 95.3378 176.118 95.6018C175.722 95.8538 175.41 96.2138 175.182 96.6818C174.966 97.1378 174.858 97.6598 174.858 98.2478C174.858 98.8478 174.966 99.3758 175.182 99.8318C175.41 100.288 175.722 100.648 176.118 100.912C176.514 101.176 176.97 101.308 177.486 101.308ZM188.345 103.18C187.661 103.18 187.067 103.03 186.563 102.73C186.059 102.418 185.675 101.98 185.411 101.416C185.147 100.84 185.015 100.156 185.015 99.3638V93.5138H187.229V98.8958C187.229 99.3998 187.307 99.8318 187.463 100.192C187.619 100.54 187.847 100.81 188.147 101.002C188.447 101.194 188.807 101.29 189.227 101.29C189.539 101.29 189.821 101.242 190.073 101.146C190.337 101.038 190.565 100.894 190.757 100.714C190.949 100.522 191.099 100.3 191.207 100.048C191.315 99.7838 191.369 99.5018 191.369 99.2018V93.5138H193.583V103H191.423L191.387 101.02L191.783 100.804C191.639 101.26 191.393 101.668 191.045 102.028C190.709 102.376 190.307 102.658 189.839 102.874C189.371 103.078 188.873 103.18 188.345 103.18ZM200.246 103.18C199.358 103.18 198.56 102.964 197.852 102.532C197.144 102.1 196.586 101.512 196.178 100.768C195.77 100.024 195.566 99.1838 195.566 98.2478C195.566 97.3118 195.77 96.4718 196.178 95.7278C196.586 94.9838 197.144 94.3958 197.852 93.9638C198.56 93.5318 199.358 93.3158 200.246 93.3158C201.098 93.3158 201.872 93.4778 202.568 93.8018C203.264 94.1258 203.804 94.5758 204.188 95.1518L202.964 96.6278C202.784 96.3758 202.556 96.1478 202.28 95.9438C202.004 95.7398 201.71 95.5778 201.398 95.4578C201.086 95.3378 200.774 95.2778 200.462 95.2778C199.934 95.2778 199.46 95.4098 199.04 95.6738C198.632 95.9258 198.308 96.2798 198.068 96.7358C197.828 97.1798 197.708 97.6838 197.708 98.2478C197.708 98.8118 197.828 99.3158 198.068 99.7598C198.32 100.204 198.656 100.558 199.076 100.822C199.496 101.086 199.964 101.218 200.48 101.218C200.792 101.218 201.092 101.17 201.38 101.074C201.68 100.966 201.962 100.816 202.226 100.624C202.49 100.432 202.736 100.192 202.964 99.9038L204.188 101.398C203.78 101.926 203.216 102.358 202.496 102.694C201.788 103.018 201.038 103.18 200.246 103.18ZM209.463 103.18C208.683 103.18 207.975 102.964 207.339 102.532C206.703 102.1 206.193 101.512 205.809 100.768C205.425 100.024 205.233 99.1778 205.233 98.2298C205.233 97.2818 205.425 96.4358 205.809 95.6918C206.193 94.9478 206.715 94.3658 207.375 93.9458C208.035 93.5258 208.779 93.3158 209.607 93.3158C210.087 93.3158 210.525 93.3878 210.921 93.5318C211.317 93.6638 211.665 93.8558 211.965 94.1078C212.265 94.3598 212.511 94.6478 212.703 94.9718C212.907 95.2958 213.045 95.6438 213.117 96.0158L212.631 95.8898V93.5138H214.863V103H212.613V100.732L213.135 100.642C213.051 100.966 212.895 101.284 212.667 101.596C212.451 101.896 212.175 102.166 211.839 102.406C211.515 102.634 211.149 102.82 210.741 102.964C210.345 103.108 209.919 103.18 209.463 103.18ZM210.075 101.218C210.591 101.218 211.047 101.092 211.443 100.84C211.839 100.588 212.145 100.24 212.361 99.7958C212.589 99.3398 212.703 98.8178 212.703 98.2298C212.703 97.6538 212.589 97.1438 212.361 96.6998C212.145 96.2558 211.839 95.9078 211.443 95.6558C211.047 95.4038 210.591 95.2778 210.075 95.2778C209.559 95.2778 209.103 95.4038 208.707 95.6558C208.323 95.9078 208.023 96.2558 207.807 96.6998C207.591 97.1438 207.483 97.6538 207.483 98.2298C207.483 98.8178 207.591 99.3398 207.807 99.7958C208.023 100.24 208.323 100.588 208.707 100.84C209.103 101.092 209.559 101.218 210.075 101.218ZM218.456 103V91.1018H220.67V103H218.456ZM216.584 95.5658V93.5138H222.74V95.5658H216.584ZM224.678 103V93.5138H226.892V103H224.678ZM225.758 91.4978C225.314 91.4978 224.966 91.3898 224.714 91.1738C224.474 90.9458 224.354 90.6278 224.354 90.2198C224.354 89.8358 224.48 89.5238 224.732 89.2838C224.984 89.0438 225.326 88.9238 225.758 88.9238C226.214 88.9238 226.562 89.0378 226.802 89.2658C227.054 89.4818 227.18 89.7998 227.18 90.2198C227.18 90.5918 227.054 90.8978 226.802 91.1378C226.55 91.3778 226.202 91.4978 225.758 91.4978ZM234.037 103.18C233.089 103.18 232.243 102.97 231.499 102.55C230.755 102.118 230.167 101.53 229.735 100.786C229.303 100.042 229.087 99.1958 229.087 98.2478C229.087 97.2998 229.303 96.4538 229.735 95.7098C230.167 94.9658 230.755 94.3838 231.499 93.9638C232.243 93.5318 233.089 93.3158 234.037 93.3158C234.973 93.3158 235.813 93.5318 236.557 93.9638C237.301 94.3838 237.883 94.9658 238.303 95.7098C238.735 96.4538 238.951 97.2998 238.951 98.2478C238.951 99.1958 238.735 100.042 238.303 100.786C237.883 101.53 237.301 102.118 236.557 102.55C235.813 102.97 234.973 103.18 234.037 103.18ZM234.037 101.218C234.553 101.218 235.009 101.086 235.405 100.822C235.813 100.558 236.131 100.204 236.359 99.7598C236.599 99.3158 236.713 98.8118 236.701 98.2478C236.713 97.6718 236.599 97.1618 236.359 96.7178C236.131 96.2738 235.813 95.9258 235.405 95.6738C235.009 95.4098 234.553 95.2778 234.037 95.2778C233.521 95.2778 233.053 95.4098 232.633 95.6738C232.225 95.9258 231.907 96.2798 231.679 96.7358C231.451 97.1798 231.337 97.6838 231.337 98.2478C231.337 98.8118 231.451 99.3158 231.679 99.7598C231.907 100.204 232.225 100.558 232.633 100.822C233.053 101.086 233.521 101.218 234.037 101.218ZM240.932 103V93.5138H243.092L243.128 95.4578L242.714 95.6738C242.834 95.2418 243.068 94.8518 243.416 94.5038C243.764 94.1438 244.178 93.8558 244.658 93.6398C245.138 93.4238 245.63 93.3158 246.134 93.3158C246.854 93.3158 247.454 93.4598 247.934 93.7478C248.426 94.0358 248.792 94.4678 249.032 95.0438C249.284 95.6198 249.41 96.3398 249.41 97.2038V103H247.196V97.3658C247.196 96.8858 247.13 96.4898 246.998 96.1778C246.866 95.8538 246.662 95.6198 246.386 95.4758C246.11 95.3198 245.774 95.2478 245.378 95.2598C245.054 95.2598 244.754 95.3138 244.478 95.4218C244.214 95.5178 243.98 95.6618 243.776 95.8538C243.584 96.0338 243.428 96.2438 243.308 96.4838C243.2 96.7238 243.146 96.9878 243.146 97.2758V103H242.048C241.832 103 241.628 103 241.436 103C241.256 103 241.088 103 240.932 103Z" fill="#60A4EF"></path></g><path d="M256 73.5996H156C152.465 73.5996 149.6 76.465 149.6 79.9996V112C149.6 115.534 152.465 118.4 156 118.4H256C259.534 118.4 262.4 115.534 262.4 112V79.9996C262.4 76.465 259.534 73.5996 256 73.5996Z" stroke="#CBE2F8" stroke-width="3.2"></path><path d="M256 137.6H156C152.465 137.6 149.6 140.465 149.6 144V277.33C149.6 280.864 152.465 283.73 156 283.73H256C259.534 283.73 262.4 280.864 262.4 277.33V144C262.4 140.465 259.534 137.6 256 137.6Z" fill="#F0FAF5"></path><g style="mix-blend-mode:multiply"><path d="M188.939 217.845C188.099 217.845 187.343 217.707 186.671 217.431C186.011 217.143 185.471 216.735 185.051 216.207L186.491 214.965C186.851 215.373 187.253 215.667 187.697 215.847C188.141 216.027 188.609 216.117 189.101 216.117C189.305 216.117 189.485 216.093 189.641 216.045C189.809 215.997 189.953 215.925 190.073 215.829C190.193 215.733 190.283 215.625 190.343 215.505C190.415 215.373 190.451 215.229 190.451 215.073C190.451 214.785 190.343 214.557 190.127 214.389C190.007 214.305 189.815 214.215 189.551 214.119C189.299 214.023 188.969 213.927 188.561 213.831C187.913 213.663 187.373 213.471 186.941 213.255C186.509 213.027 186.173 212.775 185.933 212.499C185.729 212.271 185.573 212.013 185.465 211.725C185.369 211.437 185.321 211.125 185.321 210.789C185.321 210.369 185.411 209.991 185.591 209.655C185.783 209.307 186.041 209.007 186.365 208.755C186.689 208.503 187.067 208.311 187.499 208.179C187.931 208.047 188.381 207.981 188.849 207.981C189.329 207.981 189.791 208.041 190.235 208.161C190.691 208.281 191.111 208.455 191.495 208.683C191.891 208.899 192.227 209.163 192.503 209.475L191.279 210.825C191.051 210.609 190.799 210.417 190.523 210.249C190.259 210.081 189.989 209.949 189.713 209.853C189.437 209.745 189.179 209.691 188.939 209.691C188.711 209.691 188.507 209.715 188.327 209.763C188.147 209.799 187.997 209.859 187.877 209.943C187.757 210.027 187.661 210.135 187.589 210.267C187.529 210.387 187.499 210.531 187.499 210.699C187.511 210.843 187.547 210.981 187.607 211.113C187.679 211.233 187.775 211.335 187.895 211.419C188.027 211.503 188.225 211.599 188.489 211.707C188.753 211.815 189.095 211.917 189.515 212.013C190.103 212.169 190.595 212.343 190.991 212.535C191.387 212.727 191.699 212.949 191.927 213.201C192.155 213.417 192.317 213.669 192.413 213.957C192.509 214.245 192.557 214.563 192.557 214.911C192.557 215.475 192.395 215.979 192.071 216.423C191.759 216.867 191.327 217.215 190.775 217.467C190.235 217.719 189.623 217.845 188.939 217.845ZM196.577 214.767L196.145 212.697L200.645 208.179H203.597L196.577 214.767ZM194.507 217.665V204.345H196.721V217.665H194.507ZM200.915 217.665L197.423 213.435L198.989 212.103L203.651 217.665H200.915ZM205.359 217.665V208.179H207.573V217.665H205.359ZM206.439 206.163C205.995 206.163 205.647 206.055 205.395 205.839C205.155 205.611 205.035 205.293 205.035 204.885C205.035 204.501 205.161 204.189 205.413 203.949C205.665 203.709 206.007 203.589 206.439 203.589C206.895 203.589 207.243 203.703 207.483 203.931C207.735 204.147 207.861 204.465 207.861 204.885C207.861 205.257 207.735 205.563 207.483 205.803C207.231 206.043 206.883 206.163 206.439 206.163ZM210.398 217.665V204.345H212.63V217.665H210.398ZM215.25 217.665V204.345H217.482V217.665H215.25ZM223.251 217.845C222.411 217.845 221.655 217.707 220.983 217.431C220.323 217.143 219.783 216.735 219.363 216.207L220.803 214.965C221.163 215.373 221.565 215.667 222.009 215.847C222.453 216.027 222.921 216.117 223.413 216.117C223.617 216.117 223.797 216.093 223.953 216.045C224.121 215.997 224.265 215.925 224.385 215.829C224.505 215.733 224.595 215.625 224.655 215.505C224.727 215.373 224.763 215.229 224.763 215.073C224.763 214.785 224.655 214.557 224.439 214.389C224.319 214.305 224.127 214.215 223.863 214.119C223.611 214.023 223.281 213.927 222.873 213.831C222.225 213.663 221.685 213.471 221.253 213.255C220.821 213.027 220.485 212.775 220.245 212.499C220.041 212.271 219.885 212.013 219.777 211.725C219.681 211.437 219.633 211.125 219.633 210.789C219.633 210.369 219.723 209.991 219.903 209.655C220.095 209.307 220.353 209.007 220.677 208.755C221.001 208.503 221.379 208.311 221.811 208.179C222.243 208.047 222.693 207.981 223.161 207.981C223.641 207.981 224.103 208.041 224.547 208.161C225.003 208.281 225.423 208.455 225.807 208.683C226.203 208.899 226.539 209.163 226.815 209.475L225.591 210.825C225.363 210.609 225.111 210.417 224.835 210.249C224.571 210.081 224.301 209.949 224.025 209.853C223.749 209.745 223.491 209.691 223.251 209.691C223.023 209.691 222.819 209.715 222.639 209.763C222.459 209.799 222.309 209.859 222.189 209.943C222.069 210.027 221.973 210.135 221.901 210.267C221.841 210.387 221.811 210.531 221.811 210.699C221.823 210.843 221.859 210.981 221.919 211.113C221.991 211.233 222.087 211.335 222.207 211.419C222.339 211.503 222.537 211.599 222.801 211.707C223.065 211.815 223.407 211.917 223.827 212.013C224.415 212.169 224.907 212.343 225.303 212.535C225.699 212.727 226.011 212.949 226.239 213.201C226.467 213.417 226.629 213.669 226.725 213.957C226.821 214.245 226.869 214.563 226.869 214.911C226.869 215.475 226.707 215.979 226.383 216.423C226.071 216.867 225.639 217.215 225.087 217.467C224.547 217.719 223.935 217.845 223.251 217.845Z" fill="#4AB690"></path></g><path d="M256 137.6H156C152.465 137.6 149.6 140.465 149.6 144V277.33C149.6 280.864 152.465 283.73 156 283.73H256C259.534 283.73 262.4 280.864 262.4 277.33V144C262.4 140.465 259.534 137.6 256 137.6Z" stroke="#98DEBD" stroke-width="3.2"></path><path d="M256 302.93H23.9996C20.465 302.93 17.5996 305.795 17.5996 309.33V349.33C17.5996 352.864 20.465 355.73 23.9996 355.73H256C259.534 355.73 262.4 352.864 262.4 349.33V309.33C262.4 305.795 259.534 302.93 256 302.93Z" fill="#FDEDF5"></path><g style="mix-blend-mode:multiply"><path d="M96.9447 336.51C95.9487 336.51 95.0667 336.3 94.2987 335.88C93.5427 335.46 92.9487 334.89 92.5167 334.17C92.0967 333.438 91.8867 332.604 91.8867 331.668C91.8867 330.924 92.0067 330.246 92.2467 329.634C92.4867 329.022 92.8167 328.494 93.2367 328.05C93.6687 327.594 94.1787 327.246 94.7667 327.006C95.3667 326.754 96.0207 326.628 96.7287 326.628C97.3527 326.628 97.9347 326.748 98.4747 326.988C99.0147 327.228 99.4827 327.558 99.8787 327.978C100.275 328.386 100.575 328.878 100.779 329.454C100.995 330.018 101.097 330.636 101.085 331.308L101.067 332.082H93.3807L92.9667 330.57H99.2127L98.9247 330.876V330.48C98.8887 330.108 98.7687 329.784 98.5647 329.508C98.3607 329.22 98.0967 328.998 97.7727 328.842C97.4607 328.674 97.1127 328.59 96.7287 328.59C96.1407 328.59 95.6427 328.704 95.2347 328.932C94.8387 329.16 94.5387 329.49 94.3347 329.922C94.1307 330.342 94.0287 330.87 94.0287 331.506C94.0287 332.118 94.1547 332.652 94.4067 333.108C94.6707 333.564 95.0367 333.918 95.5047 334.17C95.9847 334.41 96.5427 334.53 97.1787 334.53C97.6227 334.53 98.0307 334.458 98.4027 334.314C98.7747 334.17 99.1767 333.912 99.6087 333.54L100.707 335.07C100.383 335.37 100.011 335.628 99.5907 335.844C99.1827 336.048 98.7507 336.21 98.2947 336.33C97.8387 336.45 97.3887 336.51 96.9447 336.51ZM109.131 336.33L106.431 332.676L105.927 331.992L102.021 326.844H104.757L107.385 330.408L107.943 331.164L111.813 336.33H109.131ZM102.003 336.33L105.765 331.29L107.025 332.802L104.613 336.33H102.003ZM107.943 331.902L106.737 330.408L108.915 326.844H111.525L107.943 331.902ZM113.4 340.29V326.844H115.578L115.614 329.004L115.236 328.842C115.308 328.47 115.512 328.122 115.848 327.798C116.184 327.462 116.592 327.192 117.072 326.988C117.564 326.784 118.074 326.682 118.602 326.682C119.442 326.682 120.186 326.892 120.834 327.312C121.494 327.732 122.01 328.308 122.382 329.04C122.766 329.772 122.958 330.618 122.958 331.578C122.958 332.526 122.766 333.372 122.382 334.116C122.01 334.848 121.494 335.43 120.834 335.862C120.186 336.282 119.454 336.492 118.638 336.492C118.086 336.492 117.552 336.384 117.036 336.168C116.532 335.952 116.1 335.67 115.74 335.322C115.392 334.974 115.176 334.608 115.092 334.224L115.632 333.972V340.29H113.4ZM118.188 334.53C118.692 334.53 119.142 334.404 119.538 334.152C119.934 333.9 120.24 333.552 120.456 333.108C120.684 332.664 120.798 332.154 120.798 331.578C120.798 331.002 120.69 330.498 120.474 330.066C120.258 329.622 119.952 329.274 119.556 329.022C119.16 328.77 118.704 328.644 118.188 328.644C117.66 328.644 117.198 328.77 116.802 329.022C116.418 329.262 116.112 329.604 115.884 330.048C115.656 330.492 115.542 331.002 115.542 331.578C115.542 332.154 115.656 332.664 115.884 333.108C116.112 333.552 116.418 333.9 116.802 334.152C117.198 334.404 117.66 334.53 118.188 334.53ZM129.377 336.51C128.381 336.51 127.499 336.3 126.731 335.88C125.975 335.46 125.381 334.89 124.949 334.17C124.529 333.438 124.319 332.604 124.319 331.668C124.319 330.924 124.439 330.246 124.679 329.634C124.919 329.022 125.249 328.494 125.669 328.05C126.101 327.594 126.611 327.246 127.199 327.006C127.799 326.754 128.453 326.628 129.161 326.628C129.785 326.628 130.367 326.748 130.907 326.988C131.447 327.228 131.915 327.558 132.311 327.978C132.707 328.386 133.007 328.878 133.211 329.454C133.427 330.018 133.529 330.636 133.517 331.308L133.499 332.082H125.813L125.399 330.57H131.645L131.357 330.876V330.48C131.321 330.108 131.201 329.784 130.997 329.508C130.793 329.22 130.529 328.998 130.205 328.842C129.893 328.674 129.545 328.59 129.161 328.59C128.573 328.59 128.075 328.704 127.667 328.932C127.271 329.16 126.971 329.49 126.767 329.922C126.563 330.342 126.461 330.87 126.461 331.506C126.461 332.118 126.587 332.652 126.839 333.108C127.103 333.564 127.469 333.918 127.937 334.17C128.417 334.41 128.975 334.53 129.611 334.53C130.055 334.53 130.463 334.458 130.835 334.314C131.207 334.17 131.609 333.912 132.041 333.54L133.139 335.07C132.815 335.37 132.443 335.628 132.023 335.844C131.615 336.048 131.183 336.21 130.727 336.33C130.271 336.45 129.821 336.51 129.377 336.51ZM135.478 336.33V326.844H137.656L137.692 329.868L137.386 329.184C137.518 328.704 137.746 328.272 138.07 327.888C138.394 327.504 138.766 327.204 139.186 326.988C139.618 326.76 140.068 326.646 140.536 326.646C140.74 326.646 140.932 326.664 141.112 326.7C141.304 326.736 141.46 326.778 141.58 326.826L140.986 329.256C140.854 329.184 140.692 329.124 140.5 329.076C140.308 329.028 140.116 329.004 139.924 329.004C139.624 329.004 139.336 329.064 139.06 329.184C138.796 329.292 138.562 329.448 138.358 329.652C138.154 329.856 137.992 330.096 137.872 330.372C137.764 330.636 137.71 330.936 137.71 331.272V336.33H135.478ZM143.306 336.33V326.844H145.52V336.33H143.306ZM144.386 324.828C143.942 324.828 143.594 324.72 143.342 324.504C143.102 324.276 142.982 323.958 142.982 323.55C142.982 323.166 143.108 322.854 143.36 322.614C143.612 322.374 143.954 322.254 144.386 322.254C144.842 322.254 145.19 322.368 145.43 322.596C145.682 322.812 145.808 323.13 145.808 323.55C145.808 323.922 145.682 324.228 145.43 324.468C145.178 324.708 144.83 324.828 144.386 324.828ZM152.773 336.51C151.777 336.51 150.895 336.3 150.127 335.88C149.371 335.46 148.777 334.89 148.345 334.17C147.925 333.438 147.715 332.604 147.715 331.668C147.715 330.924 147.835 330.246 148.075 329.634C148.315 329.022 148.645 328.494 149.065 328.05C149.497 327.594 150.007 327.246 150.595 327.006C151.195 326.754 151.849 326.628 152.557 326.628C153.181 326.628 153.763 326.748 154.303 326.988C154.843 327.228 155.311 327.558 155.707 327.978C156.103 328.386 156.403 328.878 156.607 329.454C156.823 330.018 156.925 330.636 156.913 331.308L156.895 332.082H149.209L148.795 330.57H155.041L154.753 330.876V330.48C154.717 330.108 154.597 329.784 154.393 329.508C154.189 329.22 153.925 328.998 153.601 328.842C153.289 328.674 152.941 328.59 152.557 328.59C151.969 328.59 151.471 328.704 151.063 328.932C150.667 329.16 150.367 329.49 150.163 329.922C149.959 330.342 149.857 330.87 149.857 331.506C149.857 332.118 149.983 332.652 150.235 333.108C150.499 333.564 150.865 333.918 151.333 334.17C151.813 334.41 152.371 334.53 153.007 334.53C153.451 334.53 153.859 334.458 154.231 334.314C154.603 334.17 155.005 333.912 155.437 333.54L156.535 335.07C156.211 335.37 155.839 335.628 155.419 335.844C155.011 336.048 154.579 336.21 154.123 336.33C153.667 336.45 153.217 336.51 152.773 336.51ZM158.874 336.33V326.844H161.034L161.07 328.788L160.656 329.004C160.776 328.572 161.01 328.182 161.358 327.834C161.706 327.474 162.12 327.186 162.6 326.97C163.08 326.754 163.572 326.646 164.076 326.646C164.796 326.646 165.396 326.79 165.876 327.078C166.368 327.366 166.734 327.798 166.974 328.374C167.226 328.95 167.352 329.67 167.352 330.534V336.33H165.138V330.696C165.138 330.216 165.072 329.82 164.94 329.508C164.808 329.184 164.604 328.95 164.328 328.806C164.052 328.65 163.716 328.578 163.32 328.59C162.996 328.59 162.696 328.644 162.42 328.752C162.156 328.848 161.922 328.992 161.718 329.184C161.526 329.364 161.37 329.574 161.25 329.814C161.142 330.054 161.088 330.318 161.088 330.606V336.33H159.99C159.774 336.33 159.57 336.33 159.378 336.33C159.198 336.33 159.03 336.33 158.874 336.33ZM173.911 336.51C173.023 336.51 172.225 336.294 171.517 335.862C170.809 335.43 170.251 334.842 169.843 334.098C169.435 333.354 169.231 332.514 169.231 331.578C169.231 330.642 169.435 329.802 169.843 329.058C170.251 328.314 170.809 327.726 171.517 327.294C172.225 326.862 173.023 326.646 173.911 326.646C174.763 326.646 175.537 326.808 176.233 327.132C176.929 327.456 177.469 327.906 177.853 328.482L176.629 329.958C176.449 329.706 176.221 329.478 175.945 329.274C175.669 329.07 175.375 328.908 175.063 328.788C174.751 328.668 174.439 328.608 174.127 328.608C173.599 328.608 173.125 328.74 172.705 329.004C172.297 329.256 171.973 329.61 171.733 330.066C171.493 330.51 171.373 331.014 171.373 331.578C171.373 332.142 171.493 332.646 171.733 333.09C171.985 333.534 172.321 333.888 172.741 334.152C173.161 334.416 173.629 334.548 174.145 334.548C174.457 334.548 174.757 334.5 175.045 334.404C175.345 334.296 175.627 334.146 175.891 333.954C176.155 333.762 176.401 333.522 176.629 333.234L177.853 334.728C177.445 335.256 176.881 335.688 176.161 336.024C175.453 336.348 174.703 336.51 173.911 336.51ZM183.992 336.51C182.996 336.51 182.114 336.3 181.346 335.88C180.59 335.46 179.996 334.89 179.564 334.17C179.144 333.438 178.934 332.604 178.934 331.668C178.934 330.924 179.054 330.246 179.294 329.634C179.534 329.022 179.864 328.494 180.284 328.05C180.716 327.594 181.226 327.246 181.814 327.006C182.414 326.754 183.068 326.628 183.776 326.628C184.4 326.628 184.982 326.748 185.522 326.988C186.062 327.228 186.53 327.558 186.926 327.978C187.322 328.386 187.622 328.878 187.826 329.454C188.042 330.018 188.144 330.636 188.132 331.308L188.114 332.082H180.428L180.014 330.57H186.26L185.972 330.876V330.48C185.936 330.108 185.816 329.784 185.612 329.508C185.408 329.22 185.144 328.998 184.82 328.842C184.508 328.674 184.16 328.59 183.776 328.59C183.188 328.59 182.69 328.704 182.282 328.932C181.886 329.16 181.586 329.49 181.382 329.922C181.178 330.342 181.076 330.87 181.076 331.506C181.076 332.118 181.202 332.652 181.454 333.108C181.718 333.564 182.084 333.918 182.552 334.17C183.032 334.41 183.59 334.53 184.226 334.53C184.67 334.53 185.078 334.458 185.45 334.314C185.822 334.17 186.224 333.912 186.656 333.54L187.754 335.07C187.43 335.37 187.058 335.628 186.638 335.844C186.23 336.048 185.798 336.21 185.342 336.33C184.886 336.45 184.436 336.51 183.992 336.51Z" fill="#F07EB3"></path></g><path d="M256 302.93H23.9996C20.465 302.93 17.5996 305.795 17.5996 309.33V349.33C17.5996 352.864 20.465 355.73 23.9996 355.73H256C259.534 355.73 262.4 352.864 262.4 349.33V309.33C262.4 305.795 259.534 302.93 256 302.93Z" stroke="#FAD8E6" stroke-width="3.2"></path></g></g><defs><clipPath id="clip0_3691_572072"><rect width="280" height="374" fill="white"></rect></clipPath></defs></svg> 