<?xml version="1.0" encoding="UTF-8"?> <svg xmlns="http://www.w3.org/2000/svg" width="280" height="374" viewBox="0 0 280 374" fill="none"><mask id="mask0_3705_586264" style="mask-type:alpha" maskUnits="userSpaceOnUse" x="0" y="0" width="280" height="374"><path fill-rule="evenodd" clip-rule="evenodd" d="M206 0H0V373.33H280V68L244.258 35.763L206 0Z" fill="#D9D9D9"></path></mask><g mask="url(#mask0_3705_586264)"><g opacity="0.9"><rect width="280" height="373.33" rx="16" fill="white"></rect><rect x="17.6" y="17.6" width="244.8" height="36.8" rx="6.4" fill="#FFF8E8"></rect><rect x="17.6" y="17.6" width="244.8" height="36.8" rx="6.4" stroke="#FCEDC5" stroke-width="3.2"></rect><rect x="17.6" y="73.6" width="244.8" height="146.13" rx="6.4" fill="#F0FAF5"></rect><rect x="17.6" y="73.6" width="244.8" height="146.13" rx="6.4" stroke="#98DEBD" stroke-width="3.2"></rect><rect x="17.6" y="238.93" width="244.8" height="52.8" rx="6.4" fill="#FDEDF5"></rect><rect x="17.6" y="238.93" width="244.8" height="52.8" rx="6.4" stroke="#FAD8E6" stroke-width="3.2"></rect><rect x="17.6" y="310.93" width="244.8" height="44.8" rx="6.4" fill="#E8F2FF"></rect><rect x="17.6" y="310.93" width="244.8" height="44.8" rx="6.4" stroke="#CBE2F8" stroke-width="3.2"></rect></g><path opacity="0.4" d="M220.387 59.2281L206 0L196.552 59.3871C194.373 73.0873 206.725 84.6536 220.252 81.5791L280 68L220.387 59.2281Z" fill="#D3D9DE"></path><path d="M206 0L280 68H217.2C211.014 68 206 62.9856 206 56.8V0Z" fill="white"></path><g filter="url(#filter0_dd_3705_586264)"><rect x="80" y="127" width="120" height="120" rx="60" fill="white"></rect><path d="M136.398 204.452V174.916L138.322 179.336L130.522 183.028L129.014 175.124L139.362 170.08H145.082V204.452H136.398ZM129.742 207V199.2H151.894V207H129.742Z" fill="#404245"></path></g></g><defs><filter id="filter0_dd_3705_586264" x="68" y="119" width="144" height="144" filterUnits="userSpaceOnUse" color-interpolation-filters="sRGB"><feFlood flood-opacity="0" result="BackgroundImageFix"></feFlood><feColorMatrix in="SourceAlpha" type="matrix" values="0 0 0 0 0 0 0 0 0 0 0 0 0 0 0 0 0 0 127 0" result="hardAlpha"></feColorMatrix><feOffset dy="2"></feOffset><feGaussianBlur stdDeviation="2"></feGaussianBlur><feColorMatrix type="matrix" values="0 0 0 0 0 0 0 0 0 0 0 0 0 0 0 0 0 0 0.06 0"></feColorMatrix><feBlend mode="normal" in2="BackgroundImageFix" result="effect1_dropShadow_3705_586264"></feBlend><feColorMatrix in="SourceAlpha" type="matrix" values="0 0 0 0 0 0 0 0 0 0 0 0 0 0 0 0 0 0 127 0" result="hardAlpha"></feColorMatrix><feOffset dy="4"></feOffset><feGaussianBlur stdDeviation="6"></feGaussianBlur><feColorMatrix type="matrix" values="0 0 0 0 0 0 0 0 0 0 0 0 0 0 0 0 0 0 0.1 0"></feColorMatrix><feBlend mode="normal" in2="effect1_dropShadow_3705_586264" result="effect2_dropShadow_3705_586264"></feBlend><feBlend mode="normal" in="SourceGraphic" in2="effect2_dropShadow_3705_586264" result="shape"></feBlend></filter></defs></svg> 