<?xml version="1.0" encoding="UTF-8"?> <svg xmlns="http://www.w3.org/2000/svg" width="280" height="374" viewBox="0 0 280 374" fill="none"><rect width="280" height="373.33" rx="20" fill="white"></rect><rect x="17.6" y="17.6" width="244.8" height="36.8" rx="6.4" fill="#FFF8E8"></rect><path d="M102.777 43.18C101.937 43.18 101.181 43.042 100.509 42.766C99.8495 42.478 99.3095 42.07 98.8895 41.542L100.329 40.3C100.689 40.708 101.091 41.002 101.535 41.182C101.979 41.362 102.447 41.452 102.939 41.452C103.143 41.452 103.323 41.428 103.479 41.38C103.647 41.332 103.791 41.26 103.911 41.164C104.031 41.068 104.121 40.96 104.181 40.84C104.253 40.708 104.289 40.564 104.289 40.408C104.289 40.12 104.181 39.892 103.965 39.724C103.845 39.64 103.653 39.55 103.389 39.454C103.137 39.358 102.807 39.262 102.399 39.166C101.751 38.998 101.211 38.806 100.779 38.59C100.347 38.362 100.011 38.11 99.7715 37.834C99.5675 37.606 99.4115 37.348 99.3035 37.06C99.2075 36.772 99.1595 36.46 99.1595 36.124C99.1595 35.704 99.2495 35.326 99.4295 34.99C99.6215 34.642 99.8795 34.342 100.203 34.09C100.527 33.838 100.905 33.646 101.337 33.514C101.769 33.382 102.219 33.316 102.687 33.316C103.167 33.316 103.629 33.376 104.073 33.496C104.529 33.616 104.949 33.79 105.333 34.018C105.729 34.234 106.065 34.498 106.341 34.81L105.117 36.16C104.889 35.944 104.637 35.752 104.361 35.584C104.097 35.416 103.827 35.284 103.551 35.188C103.275 35.08 103.017 35.026 102.777 35.026C102.549 35.026 102.345 35.05 102.165 35.098C101.985 35.134 101.835 35.194 101.715 35.278C101.595 35.362 101.499 35.47 101.427 35.602C101.367 35.722 101.337 35.866 101.337 36.034C101.349 36.178 101.385 36.316 101.445 36.448C101.517 36.568 101.613 36.67 101.733 36.754C101.865 36.838 102.063 36.934 102.327 37.042C102.591 37.15 102.933 37.252 103.353 37.348C103.941 37.504 104.433 37.678 104.829 37.87C105.225 38.062 105.537 38.284 105.765 38.536C105.993 38.752 106.155 39.004 106.251 39.292C106.347 39.58 106.395 39.898 106.395 40.246C106.395 40.81 106.233 41.314 105.909 41.758C105.597 42.202 105.165 42.55 104.613 42.802C104.073 43.054 103.461 43.18 102.777 43.18ZM111.64 43.18C110.956 43.18 110.362 43.03 109.858 42.73C109.354 42.418 108.97 41.98 108.706 41.416C108.442 40.84 108.31 40.156 108.31 39.364V33.514H110.524V38.896C110.524 39.4 110.602 39.832 110.758 40.192C110.914 40.54 111.142 40.81 111.442 41.002C111.742 41.194 112.102 41.29 112.522 41.29C112.834 41.29 113.116 41.242 113.368 41.146C113.632 41.038 113.86 40.894 114.052 40.714C114.244 40.522 114.394 40.3 114.502 40.048C114.61 39.784 114.664 39.502 114.664 39.202V33.514H116.878V43H114.718L114.682 41.02L115.078 40.804C114.934 41.26 114.688 41.668 114.34 42.028C114.004 42.376 113.602 42.658 113.134 42.874C112.666 43.078 112.168 43.18 111.64 43.18ZM119.437 43V33.514H121.615L121.651 35.422L121.291 35.566C121.399 35.254 121.561 34.966 121.777 34.702C121.993 34.426 122.251 34.192 122.551 34C122.851 33.796 123.169 33.64 123.505 33.532C123.841 33.412 124.183 33.352 124.531 33.352C125.047 33.352 125.503 33.436 125.899 33.604C126.307 33.76 126.643 34.012 126.907 34.36C127.183 34.708 127.387 35.152 127.519 35.692L127.177 35.62L127.321 35.332C127.453 35.044 127.639 34.786 127.879 34.558C128.119 34.318 128.389 34.108 128.689 33.928C128.989 33.736 129.301 33.592 129.625 33.496C129.961 33.4 130.291 33.352 130.615 33.352C131.335 33.352 131.935 33.496 132.415 33.784C132.895 34.072 133.255 34.51 133.495 35.098C133.735 35.686 133.855 36.412 133.855 37.276V43H131.623V37.42C131.623 36.94 131.557 36.544 131.425 36.232C131.305 35.92 131.113 35.692 130.849 35.548C130.597 35.392 130.279 35.314 129.895 35.314C129.595 35.314 129.307 35.368 129.031 35.476C128.767 35.572 128.539 35.716 128.347 35.908C128.155 36.088 128.005 36.298 127.897 36.538C127.789 36.778 127.735 37.042 127.735 37.33V43H125.503V37.402C125.503 36.946 125.437 36.568 125.305 36.268C125.173 35.956 124.981 35.722 124.729 35.566C124.477 35.398 124.171 35.314 123.811 35.314C123.511 35.314 123.229 35.368 122.965 35.476C122.701 35.572 122.473 35.71 122.281 35.89C122.089 36.07 121.939 36.28 121.831 36.52C121.723 36.76 121.669 37.024 121.669 37.312V43H119.437ZM136.277 43V33.514H138.455L138.491 35.422L138.131 35.566C138.239 35.254 138.401 34.966 138.617 34.702C138.833 34.426 139.091 34.192 139.391 34C139.691 33.796 140.009 33.64 140.345 33.532C140.681 33.412 141.023 33.352 141.371 33.352C141.887 33.352 142.343 33.436 142.739 33.604C143.147 33.76 143.483 34.012 143.747 34.36C144.023 34.708 144.227 35.152 144.359 35.692L144.017 35.62L144.161 35.332C144.293 35.044 144.479 34.786 144.719 34.558C144.959 34.318 145.229 34.108 145.529 33.928C145.829 33.736 146.141 33.592 146.465 33.496C146.801 33.4 147.131 33.352 147.455 33.352C148.175 33.352 148.775 33.496 149.255 33.784C149.735 34.072 150.095 34.51 150.335 35.098C150.575 35.686 150.695 36.412 150.695 37.276V43H148.463V37.42C148.463 36.94 148.397 36.544 148.265 36.232C148.145 35.92 147.953 35.692 147.689 35.548C147.437 35.392 147.119 35.314 146.735 35.314C146.435 35.314 146.147 35.368 145.871 35.476C145.607 35.572 145.379 35.716 145.187 35.908C144.995 36.088 144.845 36.298 144.737 36.538C144.629 36.778 144.575 37.042 144.575 37.33V43H142.343V37.402C142.343 36.946 142.277 36.568 142.145 36.268C142.013 35.956 141.821 35.722 141.569 35.566C141.317 35.398 141.011 35.314 140.651 35.314C140.351 35.314 140.069 35.368 139.805 35.476C139.541 35.572 139.313 35.71 139.121 35.89C138.929 36.07 138.779 36.28 138.671 36.52C138.563 36.76 138.509 37.024 138.509 37.312V43H136.277ZM156.734 43.18C155.954 43.18 155.246 42.964 154.61 42.532C153.974 42.1 153.464 41.512 153.08 40.768C152.696 40.024 152.504 39.178 152.504 38.23C152.504 37.282 152.696 36.436 153.08 35.692C153.464 34.948 153.986 34.366 154.646 33.946C155.306 33.526 156.05 33.316 156.878 33.316C157.358 33.316 157.796 33.388 158.192 33.532C158.588 33.664 158.936 33.856 159.236 34.108C159.536 34.36 159.782 34.648 159.974 34.972C160.178 35.296 160.316 35.644 160.388 36.016L159.902 35.89V33.514H162.134V43H159.884V40.732L160.406 40.642C160.322 40.966 160.166 41.284 159.938 41.596C159.722 41.896 159.446 42.166 159.11 42.406C158.786 42.634 158.42 42.82 158.012 42.964C157.616 43.108 157.19 43.18 156.734 43.18ZM157.346 41.218C157.862 41.218 158.318 41.092 158.714 40.84C159.11 40.588 159.416 40.24 159.632 39.796C159.86 39.34 159.974 38.818 159.974 38.23C159.974 37.654 159.86 37.144 159.632 36.7C159.416 36.256 159.11 35.908 158.714 35.656C158.318 35.404 157.862 35.278 157.346 35.278C156.83 35.278 156.374 35.404 155.978 35.656C155.594 35.908 155.294 36.256 155.078 36.7C154.862 37.144 154.754 37.654 154.754 38.23C154.754 38.818 154.862 39.34 155.078 39.796C155.294 40.24 155.594 40.588 155.978 40.84C156.374 41.092 156.83 41.218 157.346 41.218ZM164.701 43V33.514H166.879L166.915 36.538L166.609 35.854C166.741 35.374 166.969 34.942 167.293 34.558C167.617 34.174 167.989 33.874 168.409 33.658C168.841 33.43 169.291 33.316 169.759 33.316C169.963 33.316 170.155 33.334 170.335 33.37C170.527 33.406 170.683 33.448 170.803 33.496L170.209 35.926C170.077 35.854 169.915 35.794 169.723 35.746C169.531 35.698 169.339 35.674 169.147 35.674C168.847 35.674 168.559 35.734 168.283 35.854C168.019 35.962 167.785 36.118 167.581 36.322C167.377 36.526 167.215 36.766 167.095 37.042C166.987 37.306 166.933 37.606 166.933 37.942V43H164.701ZM173.717 47.14L175.733 42.478L175.751 43.954L171.071 33.514H173.627L176.237 39.706C176.321 39.862 176.405 40.072 176.489 40.336C176.573 40.588 176.645 40.84 176.705 41.092L176.255 41.236C176.339 41.008 176.429 40.768 176.525 40.516C176.621 40.252 176.711 39.982 176.795 39.706L179.027 33.514H181.601L177.641 43L176.021 47.14H173.717Z" fill="#FAC05A"></path><rect x="17.6" y="17.6" width="244.8" height="36.8" rx="6.4" stroke="#FCEDC5" stroke-width="3.2"></rect><rect x="17.6" y="73.6" width="244.8" height="194.13" rx="6.4" fill="#FDEDF5"></rect><g style="mix-blend-mode:multiply"><path d="M96.9451 115.845C95.9491 115.845 95.0671 115.635 94.2991 115.215C93.5431 114.795 92.9491 114.225 92.5171 113.505C92.0971 112.773 91.8871 111.939 91.8871 111.003C91.8871 110.259 92.0071 109.581 92.2471 108.969C92.4871 108.357 92.8171 107.829 93.2371 107.385C93.6691 106.929 94.1791 106.581 94.7671 106.341C95.3671 106.089 96.0211 105.963 96.7291 105.963C97.3531 105.963 97.9351 106.083 98.4751 106.323C99.0151 106.563 99.4831 106.893 99.8791 107.313C100.275 107.721 100.575 108.213 100.779 108.789C100.995 109.353 101.097 109.971 101.085 110.643L101.067 111.417H93.3811L92.9671 109.905H99.2131L98.9251 110.211V109.815C98.8891 109.443 98.7691 109.119 98.5651 108.843C98.3611 108.555 98.0971 108.333 97.7731 108.177C97.4611 108.009 97.1131 107.925 96.7291 107.925C96.1411 107.925 95.6431 108.039 95.2351 108.267C94.8391 108.495 94.5391 108.825 94.3351 109.257C94.1311 109.677 94.0291 110.205 94.0291 110.841C94.0291 111.453 94.1551 111.987 94.4071 112.443C94.6711 112.899 95.0371 113.253 95.5051 113.505C95.9851 113.745 96.5431 113.865 97.1791 113.865C97.6231 113.865 98.0311 113.793 98.4031 113.649C98.7751 113.505 99.1771 113.247 99.6091 112.875L100.707 114.405C100.383 114.705 100.011 114.963 99.5911 115.179C99.1831 115.383 98.7511 115.545 98.2951 115.665C97.8391 115.785 97.3891 115.845 96.9451 115.845ZM109.131 115.665L106.431 112.011L105.927 111.327L102.021 106.179H104.757L107.385 109.743L107.943 110.499L111.813 115.665H109.131ZM102.003 115.665L105.765 110.625L107.025 112.137L104.613 115.665H102.003ZM107.943 111.237L106.737 109.743L108.915 106.179H111.525L107.943 111.237ZM113.4 119.625V106.179H115.578L115.614 108.339L115.236 108.177C115.308 107.805 115.512 107.457 115.848 107.133C116.184 106.797 116.592 106.527 117.072 106.323C117.564 106.119 118.074 106.017 118.602 106.017C119.442 106.017 120.186 106.227 120.834 106.647C121.494 107.067 122.01 107.643 122.382 108.375C122.766 109.107 122.958 109.953 122.958 110.913C122.958 111.861 122.766 112.707 122.382 113.451C122.01 114.183 121.494 114.765 120.834 115.197C120.186 115.617 119.454 115.827 118.638 115.827C118.086 115.827 117.552 115.719 117.036 115.503C116.532 115.287 116.1 115.005 115.74 114.657C115.392 114.309 115.176 113.943 115.092 113.559L115.632 113.307V119.625H113.4ZM118.188 113.865C118.692 113.865 119.142 113.739 119.538 113.487C119.934 113.235 120.24 112.887 120.456 112.443C120.684 111.999 120.798 111.489 120.798 110.913C120.798 110.337 120.69 109.833 120.474 109.401C120.258 108.957 119.952 108.609 119.556 108.357C119.16 108.105 118.704 107.979 118.188 107.979C117.66 107.979 117.198 108.105 116.802 108.357C116.418 108.597 116.112 108.939 115.884 109.383C115.656 109.827 115.542 110.337 115.542 110.913C115.542 111.489 115.656 111.999 115.884 112.443C116.112 112.887 116.418 113.235 116.802 113.487C117.198 113.739 117.66 113.865 118.188 113.865ZM129.377 115.845C128.381 115.845 127.499 115.635 126.731 115.215C125.975 114.795 125.381 114.225 124.949 113.505C124.529 112.773 124.319 111.939 124.319 111.003C124.319 110.259 124.439 109.581 124.679 108.969C124.919 108.357 125.249 107.829 125.669 107.385C126.101 106.929 126.611 106.581 127.199 106.341C127.799 106.089 128.453 105.963 129.161 105.963C129.785 105.963 130.367 106.083 130.907 106.323C131.447 106.563 131.915 106.893 132.311 107.313C132.707 107.721 133.007 108.213 133.211 108.789C133.427 109.353 133.529 109.971 133.517 110.643L133.499 111.417H125.813L125.399 109.905H131.645L131.357 110.211V109.815C131.321 109.443 131.201 109.119 130.997 108.843C130.793 108.555 130.529 108.333 130.205 108.177C129.893 108.009 129.545 107.925 129.161 107.925C128.573 107.925 128.075 108.039 127.667 108.267C127.271 108.495 126.971 108.825 126.767 109.257C126.563 109.677 126.461 110.205 126.461 110.841C126.461 111.453 126.587 111.987 126.839 112.443C127.103 112.899 127.469 113.253 127.937 113.505C128.417 113.745 128.975 113.865 129.611 113.865C130.055 113.865 130.463 113.793 130.835 113.649C131.207 113.505 131.609 113.247 132.041 112.875L133.139 114.405C132.815 114.705 132.443 114.963 132.023 115.179C131.615 115.383 131.183 115.545 130.727 115.665C130.271 115.785 129.821 115.845 129.377 115.845ZM135.478 115.665V106.179H137.656L137.692 109.203L137.386 108.519C137.518 108.039 137.746 107.607 138.07 107.223C138.394 106.839 138.766 106.539 139.186 106.323C139.618 106.095 140.068 105.981 140.536 105.981C140.74 105.981 140.932 105.999 141.112 106.035C141.304 106.071 141.46 106.113 141.58 106.161L140.986 108.591C140.854 108.519 140.692 108.459 140.5 108.411C140.308 108.363 140.116 108.339 139.924 108.339C139.624 108.339 139.336 108.399 139.06 108.519C138.796 108.627 138.562 108.783 138.358 108.987C138.154 109.191 137.992 109.431 137.872 109.707C137.764 109.971 137.71 110.271 137.71 110.607V115.665H135.478ZM143.306 115.665V106.179H145.52V115.665H143.306ZM144.386 104.163C143.942 104.163 143.594 104.055 143.342 103.839C143.102 103.611 142.982 103.293 142.982 102.885C142.982 102.501 143.108 102.189 143.36 101.949C143.612 101.709 143.954 101.589 144.386 101.589C144.842 101.589 145.19 101.703 145.43 101.931C145.682 102.147 145.808 102.465 145.808 102.885C145.808 103.257 145.682 103.563 145.43 103.803C145.178 104.043 144.83 104.163 144.386 104.163ZM152.773 115.845C151.777 115.845 150.895 115.635 150.127 115.215C149.371 114.795 148.777 114.225 148.345 113.505C147.925 112.773 147.715 111.939 147.715 111.003C147.715 110.259 147.835 109.581 148.075 108.969C148.315 108.357 148.645 107.829 149.065 107.385C149.497 106.929 150.007 106.581 150.595 106.341C151.195 106.089 151.849 105.963 152.557 105.963C153.181 105.963 153.763 106.083 154.303 106.323C154.843 106.563 155.311 106.893 155.707 107.313C156.103 107.721 156.403 108.213 156.607 108.789C156.823 109.353 156.925 109.971 156.913 110.643L156.895 111.417H149.209L148.795 109.905H155.041L154.753 110.211V109.815C154.717 109.443 154.597 109.119 154.393 108.843C154.189 108.555 153.925 108.333 153.601 108.177C153.289 108.009 152.941 107.925 152.557 107.925C151.969 107.925 151.471 108.039 151.063 108.267C150.667 108.495 150.367 108.825 150.163 109.257C149.959 109.677 149.857 110.205 149.857 110.841C149.857 111.453 149.983 111.987 150.235 112.443C150.499 112.899 150.865 113.253 151.333 113.505C151.813 113.745 152.371 113.865 153.007 113.865C153.451 113.865 153.859 113.793 154.231 113.649C154.603 113.505 155.005 113.247 155.437 112.875L156.535 114.405C156.211 114.705 155.839 114.963 155.419 115.179C155.011 115.383 154.579 115.545 154.123 115.665C153.667 115.785 153.217 115.845 152.773 115.845ZM158.874 115.665V106.179H161.034L161.07 108.123L160.656 108.339C160.776 107.907 161.01 107.517 161.358 107.169C161.706 106.809 162.12 106.521 162.6 106.305C163.08 106.089 163.572 105.981 164.076 105.981C164.796 105.981 165.396 106.125 165.876 106.413C166.368 106.701 166.734 107.133 166.974 107.709C167.226 108.285 167.352 109.005 167.352 109.869V115.665H165.138V110.031C165.138 109.551 165.072 109.155 164.94 108.843C164.808 108.519 164.604 108.285 164.328 108.141C164.052 107.985 163.716 107.913 163.32 107.925C162.996 107.925 162.696 107.979 162.42 108.087C162.156 108.183 161.922 108.327 161.718 108.519C161.526 108.699 161.37 108.909 161.25 109.149C161.142 109.389 161.088 109.653 161.088 109.941V115.665H159.99C159.774 115.665 159.57 115.665 159.378 115.665C159.198 115.665 159.03 115.665 158.874 115.665ZM173.911 115.845C173.023 115.845 172.225 115.629 171.517 115.197C170.809 114.765 170.251 114.177 169.843 113.433C169.435 112.689 169.231 111.849 169.231 110.913C169.231 109.977 169.435 109.137 169.843 108.393C170.251 107.649 170.809 107.061 171.517 106.629C172.225 106.197 173.023 105.981 173.911 105.981C174.763 105.981 175.537 106.143 176.233 106.467C176.929 106.791 177.469 107.241 177.853 107.817L176.629 109.293C176.449 109.041 176.221 108.813 175.945 108.609C175.669 108.405 175.375 108.243 175.063 108.123C174.751 108.003 174.439 107.943 174.127 107.943C173.599 107.943 173.125 108.075 172.705 108.339C172.297 108.591 171.973 108.945 171.733 109.401C171.493 109.845 171.373 110.349 171.373 110.913C171.373 111.477 171.493 111.981 171.733 112.425C171.985 112.869 172.321 113.223 172.741 113.487C173.161 113.751 173.629 113.883 174.145 113.883C174.457 113.883 174.757 113.835 175.045 113.739C175.345 113.631 175.627 113.481 175.891 113.289C176.155 113.097 176.401 112.857 176.629 112.569L177.853 114.063C177.445 114.591 176.881 115.023 176.161 115.359C175.453 115.683 174.703 115.845 173.911 115.845ZM183.992 115.845C182.996 115.845 182.114 115.635 181.346 115.215C180.59 114.795 179.996 114.225 179.564 113.505C179.144 112.773 178.934 111.939 178.934 111.003C178.934 110.259 179.054 109.581 179.294 108.969C179.534 108.357 179.864 107.829 180.284 107.385C180.716 106.929 181.226 106.581 181.814 106.341C182.414 106.089 183.068 105.963 183.776 105.963C184.4 105.963 184.982 106.083 185.522 106.323C186.062 106.563 186.53 106.893 186.926 107.313C187.322 107.721 187.622 108.213 187.826 108.789C188.042 109.353 188.144 109.971 188.132 110.643L188.114 111.417H180.428L180.014 109.905H186.26L185.972 110.211V109.815C185.936 109.443 185.816 109.119 185.612 108.843C185.408 108.555 185.144 108.333 184.82 108.177C184.508 108.009 184.16 107.925 183.776 107.925C183.188 107.925 182.69 108.039 182.282 108.267C181.886 108.495 181.586 108.825 181.382 109.257C181.178 109.677 181.076 110.205 181.076 110.841C181.076 111.453 181.202 111.987 181.454 112.443C181.718 112.899 182.084 113.253 182.552 113.505C183.032 113.745 183.59 113.865 184.226 113.865C184.67 113.865 185.078 113.793 185.45 113.649C185.822 113.505 186.224 113.247 186.656 112.875L187.754 114.405C187.43 114.705 187.058 114.963 186.638 115.179C186.23 115.383 185.798 115.545 185.342 115.665C184.886 115.785 184.436 115.845 183.992 115.845Z" fill="#F07EB3"></path></g><rect x="40" y="136.665" width="28" height="28" rx="14" fill="#F9A6C4"></rect><path d="M53.0034 154.584V147.845L53.4424 148.853L51.6627 149.696L51.3186 147.892L53.6797 146.741H54.9847V154.584H53.0034ZM51.4847 155.165V153.385H56.539V155.165H51.4847Z" fill="white"></path><rect x="76" y="139.865" width="164" height="3.2" rx="1.6" fill="#F9A6C4"></rect><rect x="76" y="149.065" width="164" height="3.2" rx="1.6" fill="#F9A6C4"></rect><rect x="76" y="158.266" width="60" height="3.2" rx="1.6" fill="#F9A6C4"></rect><rect x="40" y="176.665" width="28" height="28" rx="14" fill="#F9A6C4"></rect><path d="M51.2 195.165L50.8085 194.192L53.2288 191.546C53.3633 191.396 53.5096 191.226 53.6678 191.036C53.826 190.846 53.9802 190.653 54.1305 190.455C54.2808 190.249 54.3994 190.051 54.4864 189.862C54.5814 189.672 54.6288 189.498 54.6288 189.34C54.6288 189.181 54.5932 189.043 54.522 188.924C54.4508 188.806 54.348 188.715 54.2136 188.651C54.0791 188.58 53.909 188.545 53.7034 188.545C53.5215 188.545 53.3475 188.592 53.1814 188.687C53.0153 188.774 52.8571 188.912 52.7068 189.102C52.5644 189.292 52.4299 189.525 52.3034 189.802L50.8085 188.996C50.9746 188.537 51.2079 188.133 51.5085 187.785C51.8169 187.429 52.1768 187.157 52.5881 186.967C52.9994 186.769 53.4384 186.67 53.9051 186.67C54.3955 186.678 54.8384 186.785 55.2339 186.99C55.6294 187.188 55.9418 187.469 56.1712 187.833C56.4085 188.189 56.5271 188.608 56.5271 189.09C56.5271 189.257 56.5073 189.431 56.4678 189.612C56.4282 189.794 56.3689 189.984 56.2898 190.182C56.2107 190.372 56.104 190.577 55.9695 190.799C55.8429 191.012 55.6887 191.238 55.5068 191.475C55.3249 191.712 55.1113 191.966 54.8661 192.235L52.9797 194.287L52.7424 193.385H56.8949V195.165H51.2Z" fill="white"></path><rect x="76" y="179.865" width="164" height="3.2" rx="1.6" fill="#F9A6C4"></rect><rect x="76" y="189.065" width="164" height="3.2" rx="1.6" fill="#F9A6C4"></rect><rect x="76" y="198.266" width="60" height="3.2" rx="1.6" fill="#F9A6C4"></rect><rect x="40" y="216.665" width="28" height="28" rx="14" fill="#F9A6C4"></rect><path d="M53.4051 235.284C52.7328 235.284 52.1435 235.145 51.6373 234.868C51.139 234.584 50.6842 234.097 50.2729 233.409L51.7203 232.472C51.8944 232.749 52.0723 232.97 52.2542 233.136C52.4441 233.302 52.6379 233.425 52.8356 233.504C53.0412 233.575 53.2548 233.611 53.4763 233.611C53.6977 233.611 53.8994 233.563 54.0814 233.468C54.2712 233.366 54.4215 233.223 54.5322 233.041C54.6508 232.859 54.7102 232.654 54.7102 232.424C54.7102 232.179 54.6588 231.974 54.5559 231.807C54.461 231.633 54.3186 231.503 54.1288 231.416C53.9469 231.329 53.7254 231.285 53.4644 231.285C53.3458 231.285 53.2192 231.301 53.0847 231.333C52.9503 231.357 52.8079 231.392 52.6576 231.44C52.5073 231.487 52.3531 231.55 52.1949 231.629L51.7559 230.455L53.7729 228.26L54.3186 228.557L50.8542 228.485V226.789H55.9559L56.3237 227.524L53.5831 230.467L53.1085 229.909C53.1718 229.877 53.2746 229.85 53.4169 229.826C53.5672 229.794 53.7096 229.779 53.8441 229.779C54.2158 229.779 54.5638 229.846 54.8881 229.98C55.2124 230.115 55.5011 230.301 55.7542 230.538C56.0073 230.775 56.2051 231.056 56.3475 231.38C56.4898 231.697 56.561 232.037 56.561 232.401C56.561 232.954 56.4186 233.449 56.1339 233.884C55.8571 234.311 55.4774 234.651 54.9949 234.904C54.5203 235.157 53.9904 235.284 53.4051 235.284Z" fill="white"></path><rect x="76" y="219.865" width="164" height="3.2" rx="1.6" fill="#F9A6C4"></rect><rect x="76" y="229.065" width="164" height="3.2" rx="1.6" fill="#F9A6C4"></rect><rect x="76" y="238.266" width="60" height="3.2" rx="1.6" fill="#F9A6C4"></rect><rect x="17.6" y="73.6" width="244.8" height="194.13" rx="6.4" stroke="#FAD8E6" stroke-width="3.2"></rect><rect x="17.6" y="286.93" width="114.8" height="68.8" rx="6.4" fill="#E8F2FF"></rect><g style="mix-blend-mode:multiply"><path d="M36.1375 328.51C35.1415 328.51 34.2595 328.3 33.4915 327.88C32.7355 327.46 32.1415 326.89 31.7095 326.17C31.2895 325.438 31.0795 324.604 31.0795 323.668C31.0795 322.924 31.1995 322.246 31.4395 321.634C31.6795 321.022 32.0095 320.494 32.4295 320.05C32.8615 319.594 33.3715 319.246 33.9595 319.006C34.5595 318.754 35.2135 318.628 35.9215 318.628C36.5455 318.628 37.1275 318.748 37.6675 318.988C38.2075 319.228 38.6755 319.558 39.0715 319.978C39.4675 320.386 39.7675 320.878 39.9715 321.454C40.1875 322.018 40.2895 322.636 40.2775 323.308L40.2595 324.082H32.5735L32.1595 322.57H38.4055L38.1175 322.876V322.48C38.0815 322.108 37.9615 321.784 37.7575 321.508C37.5535 321.22 37.2895 320.998 36.9655 320.842C36.6535 320.674 36.3055 320.59 35.9215 320.59C35.3335 320.59 34.8355 320.704 34.4275 320.932C34.0315 321.16 33.7315 321.49 33.5275 321.922C33.3235 322.342 33.2215 322.87 33.2215 323.506C33.2215 324.118 33.3475 324.652 33.5995 325.108C33.8635 325.564 34.2295 325.918 34.6975 326.17C35.1775 326.41 35.7355 326.53 36.3715 326.53C36.8155 326.53 37.2235 326.458 37.5955 326.314C37.9675 326.17 38.3695 325.912 38.8015 325.54L39.8995 327.07C39.5755 327.37 39.2035 327.628 38.7835 327.844C38.3755 328.048 37.9435 328.21 37.4875 328.33C37.0315 328.45 36.5815 328.51 36.1375 328.51ZM46.0544 328.51C45.2144 328.51 44.4584 328.3 43.7864 327.88C43.1264 327.448 42.5984 326.866 42.2024 326.134C41.8184 325.39 41.6264 324.538 41.6264 323.578C41.6264 322.63 41.8184 321.784 42.2024 321.04C42.5864 320.296 43.1084 319.714 43.7684 319.294C44.4404 318.862 45.1964 318.646 46.0364 318.646C46.4924 318.646 46.9304 318.718 47.3504 318.862C47.7824 319.006 48.1664 319.204 48.5024 319.456C48.8384 319.696 49.1024 319.966 49.2944 320.266C49.4984 320.566 49.6124 320.878 49.6364 321.202L49.0424 321.274V315.01H51.2564V328.33H49.1144L49.0604 326.098L49.4924 326.134C49.4804 326.434 49.3724 326.722 49.1684 326.998C48.9764 327.274 48.7244 327.526 48.4124 327.754C48.1004 327.982 47.7344 328.168 47.3144 328.312C46.9064 328.444 46.4864 328.51 46.0544 328.51ZM46.4864 326.638C47.0024 326.638 47.4584 326.506 47.8544 326.242C48.2504 325.978 48.5564 325.618 48.7724 325.162C49.0004 324.706 49.1144 324.178 49.1144 323.578C49.1144 322.99 49.0004 322.468 48.7724 322.012C48.5564 321.544 48.2504 321.184 47.8544 320.932C47.4584 320.668 47.0024 320.536 46.4864 320.536C45.9704 320.536 45.5144 320.668 45.1184 320.932C44.7224 321.184 44.4104 321.544 44.1824 322.012C43.9664 322.468 43.8584 322.99 43.8584 323.578C43.8584 324.178 43.9664 324.706 44.1824 325.162C44.4104 325.618 44.7224 325.978 45.1184 326.242C45.5144 326.506 45.9704 326.638 46.4864 326.638ZM57.3449 328.51C56.6609 328.51 56.0669 328.36 55.5629 328.06C55.0589 327.748 54.6749 327.31 54.4109 326.746C54.1469 326.17 54.0149 325.486 54.0149 324.694V318.844H56.2289V324.226C56.2289 324.73 56.3069 325.162 56.4629 325.522C56.6189 325.87 56.8469 326.14 57.1469 326.332C57.4469 326.524 57.8069 326.62 58.2269 326.62C58.5389 326.62 58.8209 326.572 59.0729 326.476C59.3369 326.368 59.5649 326.224 59.7569 326.044C59.9489 325.852 60.0989 325.63 60.2069 325.378C60.3149 325.114 60.3689 324.832 60.3689 324.532V318.844H62.5829V328.33H60.4229L60.3869 326.35L60.7829 326.134C60.6389 326.59 60.3929 326.998 60.0449 327.358C59.7089 327.706 59.3069 327.988 58.8389 328.204C58.3709 328.408 57.8729 328.51 57.3449 328.51ZM69.2458 328.51C68.3578 328.51 67.5598 328.294 66.8518 327.862C66.1438 327.43 65.5858 326.842 65.1778 326.098C64.7698 325.354 64.5658 324.514 64.5658 323.578C64.5658 322.642 64.7698 321.802 65.1778 321.058C65.5858 320.314 66.1438 319.726 66.8518 319.294C67.5598 318.862 68.3578 318.646 69.2458 318.646C70.0978 318.646 70.8718 318.808 71.5678 319.132C72.2638 319.456 72.8038 319.906 73.1878 320.482L71.9638 321.958C71.7838 321.706 71.5558 321.478 71.2798 321.274C71.0038 321.07 70.7098 320.908 70.3978 320.788C70.0858 320.668 69.7738 320.608 69.4618 320.608C68.9338 320.608 68.4598 320.74 68.0398 321.004C67.6318 321.256 67.3078 321.61 67.0678 322.066C66.8278 322.51 66.7078 323.014 66.7078 323.578C66.7078 324.142 66.8278 324.646 67.0678 325.09C67.3198 325.534 67.6558 325.888 68.0758 326.152C68.4958 326.416 68.9638 326.548 69.4798 326.548C69.7918 326.548 70.0918 326.5 70.3798 326.404C70.6798 326.296 70.9618 326.146 71.2258 325.954C71.4898 325.762 71.7358 325.522 71.9638 325.234L73.1878 326.728C72.7798 327.256 72.2158 327.688 71.4958 328.024C70.7878 328.348 70.0378 328.51 69.2458 328.51ZM78.463 328.51C77.683 328.51 76.975 328.294 76.339 327.862C75.703 327.43 75.193 326.842 74.809 326.098C74.425 325.354 74.233 324.508 74.233 323.56C74.233 322.612 74.425 321.766 74.809 321.022C75.193 320.278 75.715 319.696 76.375 319.276C77.035 318.856 77.779 318.646 78.607 318.646C79.087 318.646 79.525 318.718 79.921 318.862C80.317 318.994 80.665 319.186 80.965 319.438C81.265 319.69 81.511 319.978 81.703 320.302C81.907 320.626 82.045 320.974 82.117 321.346L81.631 321.22V318.844H83.863V328.33H81.613V326.062L82.135 325.972C82.051 326.296 81.895 326.614 81.667 326.926C81.451 327.226 81.175 327.496 80.839 327.736C80.515 327.964 80.149 328.15 79.741 328.294C79.345 328.438 78.919 328.51 78.463 328.51ZM79.075 326.548C79.591 326.548 80.047 326.422 80.443 326.17C80.839 325.918 81.145 325.57 81.361 325.126C81.589 324.67 81.703 324.148 81.703 323.56C81.703 322.984 81.589 322.474 81.361 322.03C81.145 321.586 80.839 321.238 80.443 320.986C80.047 320.734 79.591 320.608 79.075 320.608C78.559 320.608 78.103 320.734 77.707 320.986C77.323 321.238 77.023 321.586 76.807 322.03C76.591 322.474 76.483 322.984 76.483 323.56C76.483 324.148 76.591 324.67 76.807 325.126C77.023 325.57 77.323 325.918 77.707 326.17C78.103 326.422 78.559 326.548 79.075 326.548ZM87.4558 328.33V316.432H89.6698V328.33H87.4558ZM85.5838 320.896V318.844H91.7398V320.896H85.5838ZM93.6779 328.33V318.844H95.8919V328.33H93.6779ZM94.7579 316.828C94.3139 316.828 93.9659 316.72 93.7139 316.504C93.4739 316.276 93.3539 315.958 93.3539 315.55C93.3539 315.166 93.4799 314.854 93.7319 314.614C93.9839 314.374 94.3259 314.254 94.7579 314.254C95.2139 314.254 95.5619 314.368 95.8019 314.596C96.0539 314.812 96.1799 315.13 96.1799 315.55C96.1799 315.922 96.0539 316.228 95.8019 316.468C95.5499 316.708 95.2019 316.828 94.7579 316.828ZM103.037 328.51C102.089 328.51 101.243 328.3 100.499 327.88C99.7553 327.448 99.1673 326.86 98.7353 326.116C98.3033 325.372 98.0873 324.526 98.0873 323.578C98.0873 322.63 98.3033 321.784 98.7353 321.04C99.1673 320.296 99.7553 319.714 100.499 319.294C101.243 318.862 102.089 318.646 103.037 318.646C103.973 318.646 104.813 318.862 105.557 319.294C106.301 319.714 106.883 320.296 107.303 321.04C107.735 321.784 107.951 322.63 107.951 323.578C107.951 324.526 107.735 325.372 107.303 326.116C106.883 326.86 106.301 327.448 105.557 327.88C104.813 328.3 103.973 328.51 103.037 328.51ZM103.037 326.548C103.553 326.548 104.009 326.416 104.405 326.152C104.813 325.888 105.131 325.534 105.359 325.09C105.599 324.646 105.713 324.142 105.701 323.578C105.713 323.002 105.599 322.492 105.359 322.048C105.131 321.604 104.813 321.256 104.405 321.004C104.009 320.74 103.553 320.608 103.037 320.608C102.521 320.608 102.053 320.74 101.633 321.004C101.225 321.256 100.907 321.61 100.679 322.066C100.451 322.51 100.337 323.014 100.337 323.578C100.337 324.142 100.451 324.646 100.679 325.09C100.907 325.534 101.225 325.888 101.633 326.152C102.053 326.416 102.521 326.548 103.037 326.548ZM109.932 328.33V318.844H112.092L112.128 320.788L111.714 321.004C111.834 320.572 112.068 320.182 112.416 319.834C112.764 319.474 113.178 319.186 113.658 318.97C114.138 318.754 114.63 318.646 115.134 318.646C115.854 318.646 116.454 318.79 116.934 319.078C117.426 319.366 117.792 319.798 118.032 320.374C118.284 320.95 118.41 321.67 118.41 322.534V328.33H116.196V322.696C116.196 322.216 116.13 321.82 115.998 321.508C115.866 321.184 115.662 320.95 115.386 320.806C115.11 320.65 114.774 320.578 114.378 320.59C114.054 320.59 113.754 320.644 113.478 320.752C113.214 320.848 112.98 320.992 112.776 321.184C112.584 321.364 112.428 321.574 112.308 321.814C112.2 322.054 112.146 322.318 112.146 322.606V328.33H111.048C110.832 328.33 110.628 328.33 110.436 328.33C110.256 328.33 110.088 328.33 109.932 328.33Z" fill="#60A4EF"></path></g><rect x="17.6" y="286.93" width="114.8" height="68.8" rx="6.4" stroke="#CBE2F8" stroke-width="3.2"></rect><rect x="147.6" y="286.93" width="114.8" height="68.8" rx="6.4" fill="#F0FAF5"></rect><g style="mix-blend-mode:multiply"><path d="M187.94 328.51C187.1 328.51 186.344 328.372 185.672 328.096C185.012 327.808 184.472 327.4 184.052 326.872L185.492 325.63C185.852 326.038 186.254 326.332 186.698 326.512C187.142 326.692 187.61 326.782 188.102 326.782C188.306 326.782 188.486 326.758 188.642 326.71C188.81 326.662 188.954 326.59 189.074 326.494C189.194 326.398 189.284 326.29 189.344 326.17C189.416 326.038 189.452 325.894 189.452 325.738C189.452 325.45 189.344 325.222 189.128 325.054C189.008 324.97 188.816 324.88 188.552 324.784C188.3 324.688 187.97 324.592 187.562 324.496C186.914 324.328 186.374 324.136 185.942 323.92C185.51 323.692 185.174 323.44 184.934 323.164C184.73 322.936 184.574 322.678 184.466 322.39C184.37 322.102 184.322 321.79 184.322 321.454C184.322 321.034 184.412 320.656 184.592 320.32C184.784 319.972 185.042 319.672 185.366 319.42C185.69 319.168 186.068 318.976 186.5 318.844C186.932 318.712 187.382 318.646 187.85 318.646C188.33 318.646 188.792 318.706 189.236 318.826C189.692 318.946 190.112 319.12 190.496 319.348C190.892 319.564 191.228 319.828 191.504 320.14L190.28 321.49C190.052 321.274 189.8 321.082 189.524 320.914C189.26 320.746 188.99 320.614 188.714 320.518C188.438 320.41 188.18 320.356 187.94 320.356C187.712 320.356 187.508 320.38 187.328 320.428C187.148 320.464 186.998 320.524 186.878 320.608C186.758 320.692 186.662 320.8 186.59 320.932C186.53 321.052 186.5 321.196 186.5 321.364C186.512 321.508 186.548 321.646 186.608 321.778C186.68 321.898 186.776 322 186.896 322.084C187.028 322.168 187.226 322.264 187.49 322.372C187.754 322.48 188.096 322.582 188.516 322.678C189.104 322.834 189.596 323.008 189.992 323.2C190.388 323.392 190.7 323.614 190.928 323.866C191.156 324.082 191.318 324.334 191.414 324.622C191.51 324.91 191.558 325.228 191.558 325.576C191.558 326.14 191.396 326.644 191.072 327.088C190.76 327.532 190.328 327.88 189.776 328.132C189.236 328.384 188.624 328.51 187.94 328.51ZM195.578 325.432L195.146 323.362L199.646 318.844H202.598L195.578 325.432ZM193.508 328.33V315.01H195.722V328.33H193.508ZM199.916 328.33L196.424 324.1L197.99 322.768L202.652 328.33H199.916ZM204.36 328.33V318.844H206.574V328.33H204.36ZM205.44 316.828C204.996 316.828 204.648 316.72 204.396 316.504C204.156 316.276 204.036 315.958 204.036 315.55C204.036 315.166 204.162 314.854 204.414 314.614C204.666 314.374 205.008 314.254 205.44 314.254C205.896 314.254 206.244 314.368 206.484 314.596C206.736 314.812 206.862 315.13 206.862 315.55C206.862 315.922 206.736 316.228 206.484 316.468C206.232 316.708 205.884 316.828 205.44 316.828ZM209.399 328.33V315.01H211.631V328.33H209.399ZM214.251 328.33V315.01H216.483V328.33H214.251ZM222.252 328.51C221.412 328.51 220.656 328.372 219.984 328.096C219.324 327.808 218.784 327.4 218.364 326.872L219.804 325.63C220.164 326.038 220.566 326.332 221.01 326.512C221.454 326.692 221.922 326.782 222.414 326.782C222.618 326.782 222.798 326.758 222.954 326.71C223.122 326.662 223.266 326.59 223.386 326.494C223.506 326.398 223.596 326.29 223.656 326.17C223.728 326.038 223.764 325.894 223.764 325.738C223.764 325.45 223.656 325.222 223.44 325.054C223.32 324.97 223.128 324.88 222.864 324.784C222.612 324.688 222.282 324.592 221.874 324.496C221.226 324.328 220.686 324.136 220.254 323.92C219.822 323.692 219.486 323.44 219.246 323.164C219.042 322.936 218.886 322.678 218.778 322.39C218.682 322.102 218.634 321.79 218.634 321.454C218.634 321.034 218.724 320.656 218.904 320.32C219.096 319.972 219.354 319.672 219.678 319.42C220.002 319.168 220.38 318.976 220.812 318.844C221.244 318.712 221.694 318.646 222.162 318.646C222.642 318.646 223.104 318.706 223.548 318.826C224.004 318.946 224.424 319.12 224.808 319.348C225.204 319.564 225.54 319.828 225.816 320.14L224.592 321.49C224.364 321.274 224.112 321.082 223.836 320.914C223.572 320.746 223.302 320.614 223.026 320.518C222.75 320.41 222.492 320.356 222.252 320.356C222.024 320.356 221.82 320.38 221.64 320.428C221.46 320.464 221.31 320.524 221.19 320.608C221.07 320.692 220.974 320.8 220.902 320.932C220.842 321.052 220.812 321.196 220.812 321.364C220.824 321.508 220.86 321.646 220.92 321.778C220.992 321.898 221.088 322 221.208 322.084C221.34 322.168 221.538 322.264 221.802 322.372C222.066 322.48 222.408 322.582 222.828 322.678C223.416 322.834 223.908 323.008 224.304 323.2C224.7 323.392 225.012 323.614 225.24 323.866C225.468 324.082 225.63 324.334 225.726 324.622C225.822 324.91 225.87 325.228 225.87 325.576C225.87 326.14 225.708 326.644 225.384 327.088C225.072 327.532 224.64 327.88 224.088 328.132C223.548 328.384 222.936 328.51 222.252 328.51Z" fill="#4AB690"></path></g><rect x="147.6" y="286.93" width="114.8" height="68.8" rx="6.4" stroke="#98DEBD" stroke-width="3.2"></rect></svg> 