<?xml version="1.0" encoding="UTF-8"?> <svg xmlns="http://www.w3.org/2000/svg" width="16" height="16" viewBox="0 0 16 16" fill="none"><path id="md-icon-left" fill-rule="evenodd" clip-rule="evenodd" d="M4.90324 0.948535C5.04221 0.770543 5.25544 0.666504 5.48126 0.666504C8.14027 0.666504 10.2958 2.82206 10.2958 5.48107C10.2958 5.88832 10.2451 6.28454 10.1494 6.66339L14.6404 11.1544C15.5643 12.0783 15.5643 13.5763 14.6404 14.5002L14.5004 14.6402C13.5765 15.5641 12.0785 15.5641 11.1546 14.6402L6.66357 10.1492C6.28473 10.2449 5.88851 10.2956 5.48126 10.2956C2.82224 10.2956 0.666687 8.14009 0.666687 5.48107C0.666687 5.25525 0.770726 5.04203 0.948718 4.90306C1.12671 4.76408 1.3588 4.71487 1.57788 4.76963L4.44006 5.48518L5.48536 4.43988L4.76982 1.5777C4.71505 1.35862 4.76427 1.12653 4.90324 0.948535ZM6.45656 2.27746L7.00894 4.48697C7.07142 4.73687 6.99819 5.00122 6.81605 5.18337L5.18355 6.81587C5.00141 6.99801 4.73705 7.07123 4.48715 7.00876L2.27764 6.45638C2.69518 7.82965 3.97151 8.82897 5.48126 8.82897C5.88289 8.82897 6.26645 8.75857 6.62133 8.63006C6.88889 8.53317 7.18835 8.59981 7.38956 8.80103L12.1917 13.6031C12.5428 13.9543 13.1121 13.9543 13.4633 13.6031L13.6033 13.4631C13.9545 13.112 13.9545 12.5426 13.6033 12.1915L8.80122 7.38938C8.6 7.18816 8.53335 6.8887 8.63025 6.62114C8.75876 6.26627 8.82916 5.8827 8.82916 5.48107C8.82916 3.97133 7.82983 2.69499 6.45656 2.27746Z" fill="#4E96EB"></path></svg> 