<svg width="40px" height="26px" viewBox="0 0 40 26" version="1.1" xmlns="http://www.w3.org/2000/svg"><g stroke="none" stroke-width="1" fill="none" fill-rule="evenodd"><g transform="translate(-1131.000000, -297.000000)"><g transform="translate(730.000000, 221.000000)"><g transform="translate(19.000000, 77.000000)"><g id="amex" transform="translate(383.000000, 0.000000)"><rect id="Rectangle-Copy-2" stroke="#CACACA" stroke-width="0.5" fill="#FFFFFF" x="0" y="0" width="38" height="24" rx="3"></rect><g transform="translate(0.000000, 6.000000)" fill="#2557D6" fill-rule="nonzero"><path d="M28.0430035,1.51998919 L27.3077362,3.1834981 L28.7822658,3.1834981 L28.0430035,1.51998919 Z M19.5585878,2.55083393 C19.6971934,2.48332317 19.7787977,2.33648013 19.7787977,2.15412511 C19.7787977,1.97542573 19.6930523,1.84600636 19.5544954,1.7851897 C19.4282645,1.71777389 19.2340705,1.70998784 19.0478664,1.70998784 L17.7324531,1.70998784 L17.7324531,2.63686085 L19.0302301,2.63686085 C19.2380654,2.63690778 19.4117487,2.63405923 19.5585878,2.55083393 Z M2.70327174,1.51998919 L1.97633538,3.1834981 L3.43459281,3.1834981 L2.70327174,1.51998919 Z M36.5483684,12.1769099 L34.4854106,12.1769099 L34.4854106,11.2818938 L36.5400374,11.2818938 C36.7437316,11.2818938 36.8863809,11.2569689 36.9722725,11.1784912 C37.0534871,11.1085592 37.0993804,11.0097143 37.0985521,10.9063592 C37.0985521,10.7847259 37.0468126,10.6881599 36.9679852,10.6303817 C36.8906194,10.566669 36.77764,10.5376612 36.5915821,10.5376612 C35.5885551,10.5058523 34.3372073,10.566574 34.3372073,9.24579382 C34.3372073,8.64047578 34.7489317,8.00325393 35.8699561,8.00325393 L37.9978564,8.00325393 L37.9978564,7.17280506 L36.0208389,7.17280506 C35.4242259,7.17280506 34.9907242,7.30621241 34.6838431,7.51372967 L34.6838431,7.17280506 L31.7596307,7.17280506 C31.2920743,7.17280506 30.7432059,7.28100269 30.4836311,7.51372967 L30.4836311,7.17280506 L25.2614403,7.17280506 L25.2614403,7.51372967 C24.8459159,7.23376415 24.144557,7.17280506 23.8210628,7.17280506 L20.3765313,7.17280506 L20.3765313,7.51372967 C20.0478241,7.21643543 19.3165031,7.17280506 18.8710164,7.17280506 L15.0160273,7.17280506 L14.1340183,8.06416554 L13.3077926,7.17280506 L7.54920556,7.17280506 L7.54920556,12.9971514 L13.1991492,12.9971514 L14.1080024,12.0915007 L14.964239,12.9971514 L18.4468687,13 L18.4468687,11.6298923 L18.7893634,11.6298923 C19.2514145,11.6368238 19.7963853,11.6193052 20.2773394,11.4252236 L20.2773394,12.9969615 L23.1499097,12.9969615 L23.1499097,11.4788714 L23.2884665,11.4788714 C23.4652191,11.4788714 23.482758,11.4858029 23.482758,11.6507817 L23.482758,12.9966292 L32.2093071,12.9966292 C32.7633397,12.9966292 33.3425113,12.8643613 33.6631311,12.6238008 L33.6631311,12.9966292 L36.4311991,12.9966292 C37.0071553,12.9966292 37.5697137,12.9212374 37.9978564,12.7282478 L37.9978564,11.6432805 C37.7383302,11.9975459 37.2324807,12.1771473 36.5482709,12.1771473 L36.5483684,12.1769099 Z M18.8351105,10.8016748 L17.5021584,10.8016748 L17.5021584,12.2016449 L15.4258516,12.2016449 L14.1104383,10.8200005 L12.7434803,12.2016449 L8.51203936,12.2016449 L8.51203936,8.02784646 L12.8085689,8.02784646 L14.1228129,9.39600764 L15.4815861,8.02784646 L18.8950349,8.02784646 C19.7427944,8.02784646 20.6952998,8.2470428 20.6952998,9.40289165 C20.6952998,10.5623487 19.7688591,10.8016748 18.8351105,10.8016748 L18.8351105,10.8016748 Z M25.2445835,10.6124358 C25.3954663,10.816155 25.4172437,11.0063435 25.4216284,11.3742819 L25.4216284,12.2016923 L24.3490307,12.2016923 L24.3490307,11.6795521 C24.3490307,11.428452 24.3749979,11.0566205 24.1763705,10.8625389 C24.0204697,10.7130847 23.7824286,10.6773828 23.3925791,10.6773828 L22.2509952,10.6773828 L22.2509952,12.2016923 L21.1776667,12.2016923 L21.1776667,8.02789393 L23.643823,8.02789393 C24.1848476,8.02789393 24.5786434,8.05035004 24.9292254,8.22482407 C25.2663609,8.41501262 25.4785322,8.67556049 25.4785322,9.15169653 C25.4784348,9.81783123 25.0025962,10.1576639 24.7213901,10.2621109 C24.9590414,10.3440069 25.1533328,10.4908499 25.2445835,10.6124358 L25.2445835,10.6124358 Z M29.6573079,8.89105371 L27.1557816,8.89105371 L27.1557816,9.64981393 L29.5961656,9.64981393 L29.5961656,10.5014371 L27.1557816,10.5014371 L27.1557816,11.3318859 L29.6573079,11.335589 L29.6573079,12.2016449 L26.0919533,12.2016449 L26.0919533,8.02784646 L29.6573079,8.02784646 L29.6573079,8.89105371 L29.6573079,8.89105371 Z M32.4023318,12.2015974 L30.3217865,12.2015974 L30.3217865,11.3065813 L32.3940496,11.3065813 C32.5967207,11.3065813 32.7403931,11.2815614 32.8304258,11.2031787 C32.9038453,11.1386589 32.9566567,11.044799 32.9566567,10.9311416 C32.9566567,10.8094134 32.8994606,10.7128474 32.8262847,10.6549267 C32.7445342,10.591309 32.6317497,10.5624911 32.4458379,10.5624911 C31.4468059,10.5304923 30.1957017,10.591214 30.1957017,9.27052877 C30.1957017,8.66511579 30.6031388,8.02789393 31.7230427,8.02789393 L33.8647304,8.02789393 L33.8647304,8.916121 L31.9050082,8.916121 C31.7107655,8.916121 31.5844858,8.92305248 31.4771091,8.99170267 C31.3599399,9.05930839 31.31658,9.15953006 31.31658,9.29184546 C31.31658,9.44927563 31.4159668,9.55647626 31.5502851,9.60276529 C31.6630209,9.63936923 31.7839902,9.65005131 31.9660044,9.65005131 L32.5411323,9.66472137 C33.1208398,9.6776823 33.519069,9.7715422 33.7610563,10.0002812 C33.9688916,10.2011993 34.0806043,10.4550056 34.0806043,10.8845203 C34.0805069,11.7824324 33.4796553,12.2015974 32.4023318,12.2015974 L32.4023318,12.2015974 Z M24.1171769,8.95837457 C23.9881203,8.88678088 23.7976289,8.8829828 23.6075273,8.8829828 L22.2920653,8.8829828 L22.2920653,9.82034745 L23.5899398,9.82034745 C23.7977264,9.82034745 23.9744302,9.81346344 24.1171769,9.73432108 C24.2556363,9.6561757 24.3385074,9.5122287 24.3385074,9.33371923 C24.3385074,9.15520975 24.2556363,9.02598029 24.1171769,8.95837457 Z M36.0528473,8.88288785 C35.8585559,8.88288785 35.7293044,8.88977186 35.6205635,8.95827962 C35.5078277,9.02598029 35.4645653,9.12620196 35.4645653,9.25861232 C35.4645653,9.41594753 35.5597135,9.52314817 35.6981242,9.56953214 C35.8109087,9.60613608 35.9317806,9.61681816 36.1097024,9.61681816 L36.6888253,9.63120337 C37.2729662,9.64473401 37.663108,9.73859391 37.9009055,9.96733291 C37.9442167,9.99904683 37.9702327,10.0347487 38,10.0705456 L38,8.8829828 L36.0529447,8.8829828 L36.0528473,8.88288785 L36.0528473,8.88288785 Z M18.8720882,8.88288785 L17.4792117,8.88288785 L17.4792117,9.94592127 L18.8597136,9.94592127 C19.2701226,9.94592127 19.5253615,9.75573272 19.5255563,9.39467831 C19.5253615,9.02968341 19.2577479,8.88288785 18.8720882,8.88288785 L18.8720882,8.88288785 Z M9.57601384,8.88288785 L9.57601384,9.64174302 L11.9211521,9.64174302 L11.9211521,10.4933662 L9.57601384,10.4933662 L9.57601384,11.3237201 L12.202407,11.3237201 L13.422672,10.0992685 L12.254244,8.88288785 L9.57601384,8.88288785 Z M16.434189,11.8016602 L16.434189,8.45546211 L14.7941122,10.1016423 L16.434189,11.8016602 L16.434189,11.8016602 Z M9.66565682,5.10043349 L9.66565682,5.81959879 L18.5904924,5.81959879 L18.5863512,4.29818532 L18.7590601,4.29818532 C18.8800294,4.30212583 18.9152046,4.31252305 18.9152046,4.49896101 L18.9152046,5.81964627 L23.5312334,5.81964627 L23.5312334,5.4654284 C23.9035441,5.65172392 24.4825695,5.81964627 25.2445835,5.81964627 L27.1865233,5.81964627 L27.6021452,4.89282128 L28.5235678,4.89282128 L28.9299818,5.81964627 L32.6721377,5.81964627 L32.6721377,4.93925273 L33.2386911,5.81959879 L36.2375898,5.81959879 L36.2375898,0 L33.2698713,0 L33.2698713,0.687308955 L32.8542981,0 L29.8090189,0 L29.8090189,0.687308955 L29.4274029,0 L25.313862,0 C24.6252188,0 24.0201286,0.0897294968 23.5311847,0.339832666 L23.5311847,0 L20.6924253,0 L20.6924253,0.339832666 C20.381257,0.0820383971 19.9573042,0 19.4860452,0 L9.11522943,0 L8.41942453,1.50318271 L7.70481408,0 L4.43835058,0 L4.43835058,0.687308955 L4.07943763,0 L1.29368461,0 L0,2.76708677 L0,4.98046183 L1.91295195,0.807612947 L3.50016859,0.807612947 L5.3169005,4.75841693 L5.3169005,0.807612947 L7.06050516,0.807612947 L8.45849717,3.63836493 L9.74282773,0.807612947 L11.5214126,0.807612947 L11.5214126,4.98046183 L10.4264529,4.98046183 L10.4224579,1.71236164 L8.87338827,4.98046183 L7.93544988,4.98046183 L6.38243398,1.7094656 L6.38243398,4.98046183 L4.20956611,4.98046183 L3.79910844,4.04969634 L1.57489073,4.04969634 L1.16019452,4.98046183 L0,4.98046183 L0,5.81993112 L1.82530645,5.81993112 L2.23683593,4.89305865 L3.1583073,4.89305865 L3.56876496,5.81993112 L7.15998938,5.81993112 L7.15998938,5.111258 L7.48051175,5.82287463 L9.34479341,5.82287463 L9.6653645,5.10057592 L9.66565682,5.10043349 Z M23.7293736,1.29400379 C24.0745478,0.960960182 24.615475,0.807375567 25.3516192,0.807375567 L26.3857776,0.807375567 L26.3857776,1.70148965 L25.3732992,1.70148965 C24.9836445,1.70148965 24.7632884,1.7556122 24.5513607,1.94874426 C24.3691516,2.12440518 24.2442361,2.45654675 24.2442361,2.89389496 C24.2442361,3.34097574 24.3394818,3.66328979 24.5379143,3.87384551 C24.7023897,4.03896678 25.0013782,4.08905388 25.2824869,4.08905388 L25.7624179,4.08905388 L27.2679328,0.807517995 L28.8684984,0.807517995 L30.677143,4.75438148 L30.677143,0.807565471 L32.3036758,0.807565471 L34.1814527,3.71370922 L34.1814527,0.807565471 L35.2756816,0.807565471 L35.2756816,4.98027193 L33.7618846,4.98027193 L31.737025,1.84838016 L31.737025,4.98027193 L29.5614289,4.98027193 L29.1457583,4.04950643 L26.9266074,4.04950643 L26.5233114,4.98027193 L25.2731816,4.98027193 C24.7539831,4.98027193 24.0965688,4.87307129 23.7242581,4.51871099 C23.3487807,4.16444565 23.1536121,3.68451153 23.1536121,2.92575131 C23.1534174,2.30680768 23.270002,1.74108457 23.7293736,1.29400379 L23.7293736,1.29400379 Z M21.5320975,0.807423043 L22.6220392,0.807423043 L22.6220392,4.98027193 L21.5320975,4.98027193 L21.5320975,0.807423043 Z M16.6178109,0.807423043 L19.074808,0.807423043 C19.6206071,0.807423043 20.0230749,0.820953682 20.3684439,1.00729668 C20.706359,1.19368716 20.9089813,1.46581916 20.9089813,1.93117817 C20.9089813,2.59655325 20.4333376,2.94023146 20.1563701,3.0434916 C20.3900264,3.12657447 20.5897744,3.27332255 20.6849226,3.39486091 C20.8357567,3.60242565 20.8617239,3.78781914 20.8617239,4.16045767 L20.8617239,4.98022445 L19.784303,4.98022445 L19.7802593,4.45400131 C19.7802593,4.20285367 19.805983,3.84175179 19.6116428,3.64111853 C19.4555958,3.49441793 19.2176035,3.46246663 18.8329669,3.46246663 L17.6862188,3.46246663 L17.6862188,4.98027193 L16.6179571,4.98027193 L16.6178109,0.807423043 L16.6178109,0.807423043 Z M12.3113914,0.807423043 L15.8800102,0.807423043 L15.8800102,1.67637488 L13.3797506,1.67637488 L13.3797506,2.42853595 L15.8199884,2.42853595 L15.8199884,3.28390968 L13.3797506,3.28390968 L13.3797506,4.11725458 L15.8800102,4.11725458 L15.8800102,4.98022445 L12.3113914,4.98022445 L12.3113914,0.807423043 L12.3113914,0.807423043 Z"></path></g></g></g></g></g></g></svg>