<?xml version="1.0" encoding="UTF-8"?> <svg xmlns="http://www.w3.org/2000/svg" width="40" height="40" viewBox="0 0 40 40" fill="none"><g clip-path="url(#clip0_10161_653339)"><path d="M31.6667 6.66667H29.8333C29.4465 4.78569 28.423 3.09558 26.9354 1.8812C25.4478 0.666817 23.587 0.00242421 21.6667 0L18.3333 0C16.413 0.00242421 14.5522 0.666817 13.0646 1.8812C11.577 3.09558 10.5535 4.78569 10.1667 6.66667H8.33333C6.12401 6.66931 4.00593 7.54814 2.4437 9.11037C0.88147 10.6726 0.00264643 12.7907 0 15L0 20L40 20V15C39.9974 12.7907 39.1185 10.6726 37.5563 9.11037C35.9941 7.54814 33.876 6.66931 31.6667 6.66667V6.66667ZM13.64 6.66667C13.9835 5.69515 14.6187 4.85349 15.4588 4.25681C16.299 3.66014 17.3029 3.3376 18.3333 3.33333L21.6667 3.33333C22.6971 3.3376 23.701 3.66014 24.5412 4.25681C25.3813 4.85349 26.0165 5.69515 26.36 6.66667L13.64 6.66667Z" fill="#71ABEF"></path><path d="M21.6667 24.9999C21.6667 25.4419 21.4911 25.8659 21.1785 26.1784C20.8659 26.491 20.442 26.6666 20 26.6666C19.558 26.6666 19.134 26.491 18.8215 26.1784C18.5089 25.8659 18.3333 25.4419 18.3333 24.9999V23.3333H0L0 31.6666C0.00264643 33.8759 0.88147 35.994 2.4437 37.5562C4.00593 39.1184 6.12401 39.9973 8.33333 39.9999H31.6667C33.876 39.9973 35.9941 39.1184 37.5563 37.5562C39.1185 35.994 39.9974 33.8759 40 31.6666V23.3333L21.6667 23.3333V24.9999Z" fill="#71ABEF"></path></g><defs><clipPath id="clip0_10161_653339"><rect width="40" height="40" fill="white"></rect></clipPath></defs></svg> 