<svg width="40px" height="26px" viewBox="0 0 40 26" version="1.1" xmlns="http://www.w3.org/2000/svg"><g stroke="none" stroke-width="1" fill="none" fill-rule="evenodd"><g transform="translate(-1085.000000, -297.000000)"><g transform="translate(730.000000, 221.000000)"><g transform="translate(19.000000, 77.000000)"><g id="mastercard" transform="translate(337.000000, 0.000000)"><rect id="Rectangle-Copy" stroke="#CACACA" stroke-width="0.5" fill="#FFFFFF" x="0" y="0" width="38" height="24" rx="3"></rect><g transform="translate(5.000000, 3.000000)" fill-rule="nonzero"><path d="M17.1549296,9 C17.1549296,13.9709582 13.3144827,18 8.57722587,18 C3.83996907,18 0,13.9707577 0,9 C0,4.02954318 3.84001685,0 8.57722587,0 C13.3143871,0 17.1549296,4.02974373 17.1549296,9" fill="#D9222A"></path><path d="M20.3247463,0 C18.0834068,0 16.0409312,0.882231037 14.5013905,2.32976981 C14.1877509,2.62503343 13.8949883,2.94331046 13.6254708,3.28219427 L15.3781318,3.28219427 C15.6180734,3.58487833 15.8389743,3.90325564 16.0394814,4.23542094 L12.9642179,4.23542094 C12.779272,4.54236674 12.6123519,4.86059364 12.4644242,5.18844705 L16.5389851,5.18844705 C16.6788423,5.49855156 16.8014469,5.81667818 16.9063157,6.14127262 L12.0971903,6.14127262 C11.9961877,6.4538339 11.9120028,6.77201065 11.8450704,7.09429873 L17.1580973,7.09429873 C17.2880475,7.72052433 17.3535784,8.35933461 17.3534334,8.99994986 C17.3534334,9.99945405 17.1961786,10.9609535 16.906219,11.8588778 L12.0970937,11.8588778 C12.2016724,12.1836226 12.3242287,12.5018495 12.4641825,12.8119039 L16.5388885,12.8119039 C16.3908641,13.1398576 16.2238474,13.4581346 16.0388531,13.7651807 L12.9640729,13.7651807 C13.1644834,14.0970953 13.3854326,14.4152721 13.6254225,14.7176052 L15.3776969,14.7176052 C15.1085177,15.0571408 14.8156584,15.3757688 14.5015355,15.670882 C16.0410761,17.1181701 18.0833584,18 20.3248913,18 C25.1159425,18 29,13.9708474 29,9.00020055 C29,4.03005504 25.1159425,0.000401105268 20.3248913,0.000401105268" fill="#EE9F2D"></path><path d="M27.6243395,13.940204 C27.6243395,13.7789834 27.7492794,13.64785 27.903719,13.64785 C28.0581587,13.64785 28.1830986,13.7789834 28.1830986,13.940204 C28.1830986,14.1014247 28.0581587,14.2325581 27.903719,14.2325581 C27.7492794,14.2325581 27.6243395,14.1014247 27.6243395,13.940204 Z M27.903719,14.1623549 C28.021043,14.1623045 28.1161458,14.0628708 28.116194,13.940204 C28.116194,13.8176381 28.0211876,13.7183556 27.9040082,13.7182547 L27.903719,13.7182547 C27.786636,13.7181036 27.6916296,13.8171845 27.6914368,13.9395489 L27.6914368,13.9402544 C27.6913404,14.0628708 27.7862986,14.1623045 27.9035262,14.1624053 C27.9035744,14.1623549 27.9036708,14.1623549 27.903719,14.1623549 L27.903719,14.1623549 Z M27.8659768,14.0686161 L27.8087608,14.0686161 L27.8087608,13.811792 L27.9123472,13.811792 C27.9340382,13.811792 27.9561147,13.811792 27.975251,13.8245929 C27.9951585,13.8386537 28.0063896,13.8634491 28.0063896,13.8890509 C28.0063896,13.9178277 27.9900972,13.9446894 27.9637789,13.955172 L28.0089925,14.0685657 L27.9456067,14.0685657 L27.9080572,13.9669146 L27.8660732,13.9669146 L27.8659768,14.0686161 L27.8659768,14.0686161 Z M27.8659768,13.9570647 L27.9051434,13.9570647 C27.9197863,13.9570647 27.9352029,13.9586715 27.9483577,13.9494133 C27.9599648,13.9398492 27.9659768,13.921945 27.9659768,13.9047295 C27.9656791,13.8887382 27.9593101,13.8739711 27.9488339,13.8650955 C27.9365125,13.8552253 27.9169291,13.8573677 27.9037148,13.8573677 L27.8659768,13.8573677 L27.8659768,13.9570647 Z M6.48833044,9.88801807 C6.38970887,9.87602354 6.34637516,9.87284851 6.27865116,9.87284851 C5.74621039,9.87284851 5.47666406,10.0637027 5.47666406,10.440724 C5.47666406,10.6731055 5.60820768,10.8209708 5.81345236,10.8209708 C6.1961291,10.8209708 6.47184531,10.4400185 6.48833044,9.88801807 L6.48833044,9.88801807 Z M7.17140288,11.5509237 L6.39313123,11.5509237 L6.41101422,11.1640749 C6.17357051,11.4697338 5.85688249,11.6150793 5.42643743,11.6150793 C4.91727829,11.6150793 4.56824664,11.1993025 4.56824664,10.5955946 C4.56824664,9.68723567 5.17540072,9.15720843 6.21757905,9.15720843 C6.32400937,9.15720843 6.46061421,9.16723747 6.6003522,9.18593483 C6.62946629,9.06291529 6.63713043,9.01014943 6.63713043,8.94397792 C6.63713043,8.69662852 6.47343598,8.60445206 6.03460375,8.60445206 C5.57509281,8.59900917 5.19607944,8.71890408 5.04043475,8.77242589 C5.05026798,8.71048775 5.17058051,7.93285912 5.17058051,7.93285912 C5.63871963,7.78942872 5.94740609,7.73545333 6.29489528,7.73545333 C7.10141338,7.73545333 7.52867709,8.11408741 7.52785766,8.8296771 C7.52944833,9.0214384 7.49908098,9.25805321 7.45174649,9.56905426 C7.37023668,10.1100177 7.19531113,11.2684979 7.17140288,11.5509237 L7.17140288,11.5509237 Z M4.17525465,11.5509237 L3.23593967,11.5509237 L3.77397188,8.02327168 L2.5725337,11.5509237 L1.93245757,11.5509237 L1.85330966,8.04343056 L1.28775403,11.5509237 L0.408450704,11.5509237 L1.14290662,6.96195728 L2.49357861,6.96195728 L2.57552223,9.5306012 L3.3993931,6.96195728 L4.90170901,6.96195728 L4.17525465,11.5509237 M21.2855661,9.88801807 C21.1873783,9.87602354 21.1438036,9.87284851 21.0762724,9.87284851 C20.5440726,9.87284851 20.2744781,10.0637027 20.2744781,10.440724 C20.2744781,10.6731055 20.4058771,10.8209708 20.6110736,10.8209708 C20.9937985,10.8209708 21.2697076,10.4400185 21.2855661,9.88801807 L21.2855661,9.88801807 Z M21.9692651,11.5509237 L21.1909935,11.5509237 L21.2086355,11.1640749 C20.9711917,11.4697338 20.6543109,11.6150793 20.2242515,11.6150793 C19.7149959,11.6150793 19.3662535,11.1993025 19.3662535,10.5955946 C19.3662535,9.68723567 19.973022,9.15720843 21.0153931,9.15720843 C21.1218234,9.15720843 21.2581872,9.16723747 21.3978288,9.18593483 C21.4269429,9.06291529 21.4346071,9.01014943 21.4346071,8.94397792 C21.4346071,8.69662852 21.2711054,8.60445206 20.8322732,8.60445206 C20.3727623,8.59900917 19.9941827,8.71890408 19.8379114,8.77242589 C19.8477446,8.71048775 19.968491,7.93285912 19.968491,7.93285912 C20.4366301,7.78942872 20.7451237,7.73545333 21.0922273,7.73545333 C21.899131,7.73545333 22.3263947,8.11408741 22.3255753,8.8296771 C22.3271178,9.0214384 22.2967986,9.25805321 22.2494641,9.56905426 C22.1682917,10.1100177 21.9929806,11.2684979 21.9692651,11.5509237 L21.9692651,11.5509237 Z M11.3459969,11.4942269 C11.0889349,11.5788438 10.8885104,11.6150793 10.671167,11.6150793 C10.1909773,11.6150793 9.92890234,11.3265554 9.92890234,10.7952683 C9.92205764,10.6304191 9.997976,10.1965497 10.0576502,9.80057895 C10.1118776,9.45198159 10.4649101,7.25405938 10.4649101,7.25405938 L11.3986336,7.25405938 L11.2895522,7.81891108 L11.8534689,7.81891108 L11.7261189,8.71577945 L11.1601294,8.71577945 C11.0516746,9.42552307 10.897235,10.3095906 10.8954515,10.426764 C10.8954515,10.6190797 10.9936393,10.7030918 11.217008,10.7030918 C11.3240649,10.7030918 11.4069244,10.6916516 11.470262,10.6678138 L11.3459969,11.4942269 M14.208818,11.4639886 C13.888081,11.5664964 13.5785751,11.6160369 13.2506078,11.6151911 C12.2053927,11.6141218 11.660564,11.0433736 11.660564,9.95046019 C11.660564,8.67475614 12.3537107,7.73565492 13.2945681,7.73565492 C14.0644044,7.73565492 14.5560662,8.26144879 14.5560662,9.086098 C14.5560662,9.35970434 14.5223247,9.62680944 14.4409595,10.0039316 L12.5816104,10.0039316 C12.5187066,10.5452478 12.8500963,10.7708256 13.3931897,10.7708256 C13.7274715,10.7708256 14.0288794,10.698808 14.3640771,10.5358235 L14.208818,11.4639886 L14.208818,11.4639886 Z M13.6839932,9.25155197 C13.6891508,9.17378911 13.7830486,8.58545232 13.2495473,8.58545232 C12.952092,8.58545232 12.7394242,8.8225207 12.6528049,9.25155197 L13.6839932,9.25155197 L13.6839932,9.25155197 Z M7.73488582,8.99870927 C7.73488582,9.47077974 7.95381991,9.79629518 8.45030189,10.0407216 C8.83071313,10.2276447 8.88951973,10.283132 8.88951973,10.4524666 C8.88951973,10.6851504 8.72182451,10.7901781 8.35008965,10.7901781 C8.06989065,10.7901781 7.80921351,10.7444175 7.5085768,10.6429176 C7.5085768,10.6429176 7.38503473,11.4654501 7.37939508,11.5048103 C7.59293054,11.5535444 7.78332896,11.5985995 8.35688615,11.6151801 C9.34806663,11.6151801 9.80579409,11.2206205 9.80579409,10.3678497 C9.80579409,9.85505831 9.61414241,9.55413669 9.14364138,9.32795411 C8.74978175,9.13896465 8.70461635,9.0967822 8.70461635,8.92250872 C8.70461635,8.72071838 8.86064665,8.61780732 9.1643201,8.61780732 C9.34869326,8.61780732 9.60054941,8.63836937 9.83914997,8.67384899 L9.97291089,7.80827727 C9.72968292,7.76795952 9.3609366,7.73560453 9.1462443,7.73560453 C8.09538958,7.73565492 7.73165628,8.30952771 7.73488582,8.99870927 M18.7775126,7.83372785 C19.0383826,7.83372785 19.2816106,7.90534226 19.6168082,8.08173242 L19.7704766,7.08573277 C19.6329077,7.02923752 19.1484763,6.69767442 18.7381315,6.69767442 C18.1095275,6.69767442 17.5781471,7.02379463 17.2043396,7.56198621 C16.6592217,7.37319834 16.4351299,7.75475546 16.160426,8.13485106 L15.9163786,8.19426934 C15.93484,8.06913312 15.9515179,7.94480326 15.9458783,7.81901187 L15.0832529,7.81901187 C14.9653987,8.97396425 14.7565388,10.1437334 14.592989,11.3001977 L14.5503783,11.5509741 L15.4901271,11.5509741 C15.6469769,10.4854263 15.7329213,9.8031996 15.7851724,9.34146055 L16.1390242,9.13563843 C16.191902,8.9301187 16.3573317,8.86057058 16.689348,8.86898691 C16.6447128,9.12137603 16.6223952,9.37754494 16.6226845,9.63421782 C16.6226845,10.8550897 17.2526863,11.6152305 18.2639671,11.6152305 C18.5244514,11.6152305 18.7479647,11.5793477 19.0940561,11.4812748 L19.2593894,10.4350796 C18.9481,10.595393 18.6925805,10.6707872 18.4612102,10.6707872 C17.9151283,10.6707872 17.5847026,10.2493155 17.5847026,9.55272557 C17.5847026,8.54221153 18.0761716,7.83372785 18.7775126,7.83372785" fill="#000000"></path><polyline fill="#FFFFFF" points="4.58340519 11.3023256 3.64396025 11.3023256 4.18239026 7.76252719 2.98098425 11.3023256 2.34075813 11.3023256 2.26161552 7.78275807 1.69609772 11.3023256 0.816901408 11.3023256 1.55130819 6.69767442 2.90188984 6.69767442 2.93987058 9.54830763 3.85102276 6.69767442 5.30985915 6.69767442 4.58340519 11.3023256"></polyline><path d="M26.8591812,7.11627907 L26.6533786,8.4283528 C26.3995665,8.07860279 26.1268936,7.82550407 25.7669177,7.82550407 C25.298587,7.82550407 24.8723123,8.19729736 24.5932571,8.74438956 C24.2047041,8.6600067 23.8027675,8.51682514 23.8027675,8.51682514 L23.802577,8.52016654 C23.8339165,8.21425373 23.8464428,8.02768381 23.8436327,7.96429692 L22.9910832,7.96429692 C22.8749651,9.10720595 22.6685909,10.2647773 22.5073209,11.4091824 L22.4647887,11.6573439 L23.3931627,11.6573439 C23.5185685,10.8047378 23.6145398,10.0968095 23.6852681,9.53525448 C24.0023784,9.23522653 24.1611717,8.97340027 24.4816636,8.99085535 C24.3397784,9.35018072 24.2566191,9.76401583 24.2566191,10.1886232 C24.2566191,11.1118974 24.7027073,11.7209302 25.3774597,11.7209302 C25.7176222,11.7209302 25.9785786,11.5981462 26.2332003,11.3134288 L26.1897155,11.6567454 L27.0677462,11.6567454 L27.7746479,7.11632894 L26.8591812,7.11627907 L26.8591812,7.11627907 Z M25.6984279,10.8038401 C25.3824607,10.8038401 25.222953,10.55907 25.222953,10.0759132 C25.222953,9.35003111 25.5216311,8.83535549 25.9427143,8.83535549 C26.2615869,8.83535549 26.4342401,9.08990048 26.4342401,9.55894353 C26.4342877,10.2910098 26.1308468,10.8038401 25.6984279,10.8038401 L25.6984279,10.8038401 Z" fill="#000000"></path><path d="M6.81600658,9.63433803 C6.71784178,9.62285186 6.67438391,9.61978563 6.60708189,9.61978563 C6.07606899,9.61978563 5.8074378,9.80409975 5.8074378,10.1681043 C5.8074378,10.392182 5.93862866,10.5354184 6.14293835,10.5354184 C6.52497343,10.5353698 6.79999831,10.1675203 6.81600658,9.63433803 L6.81600658,9.63433803 Z M7.49758371,11.2396765 L6.72139917,11.2396765 L6.73904192,10.8667166 C6.50247533,11.1613661 6.18620393,11.3023151 5.75734587,11.3023151 C5.24935987,11.3023151 4.90140845,10.9007858 4.90140845,10.3177652 C4.90140845,9.44014386 5.50674201,8.92861987 6.54631779,8.92861987 C6.65246268,8.92861987 6.78870119,8.93835391 6.92792022,8.95641056 C6.95695623,8.83760656 6.96459981,8.78669751 6.96459981,8.72240416 C6.96459981,8.48348206 6.80153665,8.39490226 6.36388125,8.39490226 C5.90541031,8.38964588 5.52760563,8.50543232 5.37218605,8.55653605 C5.38199292,8.49691504 5.50198279,7.74680964 5.50198279,7.74680964 C5.9686742,7.60771015 6.27691743,7.55558435 6.62304208,7.55558435 C7.42763768,7.55558435 7.85389981,7.92143838 7.85313064,8.61192276 C7.85452475,8.79789166 7.82409463,9.02625233 7.77698322,9.32615821 C7.69588429,9.84809763 7.52128363,10.9675126 7.49758371,11.2396765 L7.49758371,11.2396765 Z M20.06287,6.92788455 L19.9094695,7.88994875 C19.5753631,7.71979767 19.3325951,7.65049128 19.0726651,7.65049128 C18.3731568,7.65049128 17.8828616,8.3346972 17.8828616,9.31043773 C17.8828616,9.98310881 18.2124973,10.3899918 18.7570186,10.3899918 C18.9877684,10.3899918 19.2423623,10.3173759 19.5528169,10.1624586 L19.3883596,11.1723656 C19.0430041,11.2676132 18.8203306,11.3023151 18.5603045,11.3023151 C17.5518799,11.3023151 16.9233752,10.5681735 16.9233752,9.38913747 C16.9233752,7.80492188 17.7915232,6.69767442 19.0331973,6.69767442 C19.4421532,6.69772309 19.9254778,6.87332524 20.06287,6.92788455 M21.5744252,9.63433803 C21.4763085,9.62285186 21.4330429,9.61978563 21.3654525,9.61978563 C20.8346799,9.61978563 20.5658565,9.80409975 20.5658565,10.1681043 C20.5658565,10.392182 20.6970473,10.5354184 20.9015493,10.5354184 C21.2831517,10.5353698 21.5583689,10.1675203 21.5744252,9.63433803 L21.5744252,9.63433803 Z M22.2560024,11.2396765 L21.4796255,11.2396765 L21.4974606,10.8667166 C21.2607017,11.1613661 20.9446226,11.3023151 20.5157645,11.3023151 C20.0079708,11.3023151 19.6598752,10.9007858 19.6598752,10.3177652 C19.6598752,9.44014386 20.265401,8.92861987 21.3045442,8.92861987 C21.4109294,8.92861987 21.5469276,8.93835391 21.6862908,8.95641056 C21.7151826,8.83760656 21.7229704,8.78669751 21.7229704,8.72240416 C21.7229704,8.48348206 21.5598592,8.39490226 21.1222999,8.39490226 C20.6640213,8.38964588 20.2860243,8.50543232 20.1305566,8.55653605 C20.1403635,8.49691504 20.2605457,7.74680964 20.2605457,7.74680964 C20.7272851,7.60771015 21.035288,7.55558435 21.3814127,7.55558435 C22.1862006,7.55558435 22.6122704,7.92143838 22.6112609,8.61192276 C22.6128473,8.79789166 22.5826094,9.02625233 22.5353538,9.32615821 C22.4544952,9.84809763 22.2794619,10.9675126 22.2560024,11.2396765 Z M11.6612229,11.1851172 C11.4046099,11.2668345 11.2047229,11.3023151 10.9882027,11.3023151 C10.5093008,11.3023151 10.2479286,11.0236294 10.2479286,10.510548 C10.2412946,10.3509583 10.3170574,9.93234577 10.3765236,9.54999254 C10.4303652,9.21290261 10.7824989,7.09049175 10.7824989,7.09049175 L11.7135743,7.09049175 L11.6049296,7.63618223 L12.082822,7.63618223 L11.9556212,8.50192807 L11.4760943,8.50192807 C11.3679303,9.18778878 11.2134722,10.0408804 11.2118858,10.154282 C11.2118858,10.3406889 11.3100025,10.4210921 11.5325799,10.4210921 C11.6393498,10.4210921 11.7218909,10.4105793 11.7851548,10.387461 L11.6612229,11.1851172 M14.5163186,11.1563044 C14.1966341,11.255251 13.8875736,11.3028991 13.5606781,11.3023204 C12.5182179,11.301293 11.9748984,10.7501028 11.9748984,9.69459176 C11.9748984,8.46221317 12.6661381,7.55553568 13.6045205,7.55553568 C14.3722923,7.55553568 14.8626356,8.06311738 14.8626356,8.85989752 C14.8626356,9.12437149 14.8289846,9.38227497 14.7480299,9.74627953 L12.893667,9.74627953 C12.8308839,10.2690463 13.1613848,10.4871376 13.7030699,10.4871376 C14.0362149,10.4871376 14.3370549,10.4172958 14.6711613,10.259507 L14.5163186,11.1563044 L14.5163186,11.1563044 Z M13.992757,9.0190978 C13.9983335,8.94424301 14.0917871,8.37582353 13.5594763,8.37582353 C13.2630109,8.37582353 13.0509134,8.60540095 12.9645745,9.0190978 L13.992757,9.0190978 Z M8.05960361,8.77550336 C8.05960361,9.2313973 8.27795058,9.54536887 8.77310112,9.78176012 C9.1524922,9.96227796 9.2111411,10.0159612 9.2111411,10.1794931 C9.2111411,10.4041549 9.0437033,10.5055349 8.67330185,10.5055349 C8.39371004,10.5055349 8.1336839,10.4613424 7.83361306,10.3633692 C7.83361306,10.3633692 7.71083495,11.1577159 7.70521042,11.1956786 C7.91774058,11.2427427 8.1078207,11.2857185 8.67988783,11.3023151 C9.66855444,11.3023151 10.1249102,10.9212759 10.1249102,10.0979219 C10.1249102,9.60245904 9.93401282,9.31189784 9.46453319,9.09351457 C9.07192207,8.91056322 9.02644514,8.87041029 9.02644514,8.70191399 C9.02644514,8.50723312 9.18248967,8.40702114 9.48515645,8.40702114 C9.66884288,8.40702114 9.92002361,8.42751131 10.1583689,8.46177514 L10.2915788,7.62566946 C10.0491954,7.58673329 9.68143797,7.55553568 9.46732141,7.55553568 C8.41914059,7.55553568 8.05657502,8.10935409 8.05960361,8.77550336 M27.214238,11.2396765 L26.3278705,11.2396765 L26.3719533,10.9041927 C26.1149076,11.1824403 25.8515645,11.3023151 25.50818,11.3023151 C24.8271797,11.3023151 24.3771215,10.7079057 24.3771215,9.80687395 C24.3771215,8.60812648 25.0751877,7.59763542 25.901416,7.59763542 C26.2647989,7.59763542 26.5397757,7.74788038 26.7957637,8.08900994 L27.0036788,6.80859385 L27.9276874,6.80859385 L27.214238,11.2396765 L27.214238,11.2396765 Z M25.8323353,10.4069777 C26.2685966,10.4069777 26.5750611,9.90650189 26.5750611,9.19250979 C26.5750611,8.73476639 26.4006047,8.4863536 26.0787088,8.4863536 C25.6538888,8.4863536 25.3520874,8.9883869 25.3520874,9.69702527 C25.3520393,10.168445 25.513468,10.4069777 25.8323353,10.4069777 Z M23.0997773,7.6362309 C22.9824315,8.75160629 22.7741798,9.88138806 22.6112609,10.9975422 L22.5683799,11.2397252 L23.5053681,11.2397252 C23.8405322,9.03618105 23.921583,8.60583898 24.4470195,8.65976559 C24.5307624,8.20873868 24.6865185,7.81373119 24.8027106,7.61437797 C24.4102918,7.5316386 24.1911757,7.75615432 23.9043249,8.18260277 C23.9269672,7.99823998 23.968406,7.81918225 23.9601855,7.63627957 L23.0997773,7.6362309 M15.3879278,7.6362309 C15.2703416,8.75160629 15.0620418,9.88138806 14.899171,10.9975422 L14.8564822,11.2397252 L15.7939032,11.2397252 C16.1286346,9.03618105 16.2095412,8.60583898 16.7346892,8.65976559 C16.8188167,8.20873868 16.9746209,7.81373119 17.0903804,7.61437797 C16.6983942,7.5316386 16.4790377,7.75615432 16.1924273,8.18260277 C16.2150696,7.99823998 16.2560757,7.81918225 16.2482879,7.63627957 L15.3879278,7.6362309 M27.6258377,10.9575352 C27.6256456,10.8018392 27.7501543,10.6754913 27.9038914,10.6752964 L27.9044682,10.6752964 C28.0581572,10.675102 28.1829544,10.8011578 28.1830986,10.9567565 L28.1830986,10.9575352 C28.1830505,11.1133286 28.0583495,11.2395792 27.9044682,11.2396765 C27.750587,11.2395792 27.625886,11.1133286 27.6258377,10.9575352 L27.6258377,10.9575352 Z M27.9044682,11.1719276 C28.0213334,11.1720249 28.116085,11.0760959 28.1161333,10.9578273 L28.1161333,10.9576326 C28.1162773,10.8392179 28.0215257,10.7431916 27.9046605,10.7430943 L27.9044682,10.7430943 C27.7874108,10.7431429 27.6926111,10.8391693 27.692563,10.9576326 C27.6926592,11.0759986 27.787507,11.1719276 27.9044682,11.1719276 Z M27.8667791,11.0808656 L27.8096686,11.0808656 L27.8096686,10.8335235 L27.9131694,10.8335235 C27.9346099,10.8335235 27.9568677,10.8339616 27.9754719,10.8458858 C27.9955183,10.8596594 28.0069115,10.8832158 28.0069115,10.9078916 C28.0069115,10.935877 27.990711,10.9620129 27.9642228,10.9719903 L28.0094594,11.0808169 L27.9460032,11.0808169 L27.9085544,10.9830384 L27.866731,10.9830384 L27.8667791,11.0808656 Z M27.8667906,10.9774216 L27.9056828,10.9774216 C27.9203344,10.9774216 27.9362367,10.9788827 27.9491015,10.9697317 C27.9607751,10.9601193 27.966731,10.9419711 27.966731,10.924515 C27.966195,10.9083662 27.9599413,10.8934478 27.9496375,10.8842968 C27.9374874,10.8752996 27.9173564,10.8778373 27.9041938,10.8778373 L27.866731,10.8778373 L27.8667906,10.9774216 L27.8667906,10.9774216 Z" fill="#FFFFFF"></path></g></g></g></g></g></g></svg>