<svg xmlns="http://www.w3.org/2000/svg" width="200" height="80" viewBox="0 0 200 80" fill="none"><path d="M120.486 31.4171H115.85L113.972 32.8463L114.294 31.3872H109.705L108.964 32.0553C108.778 31.9455 108.395 31.7194 108.199 31.5865C107.907 31.4218 107.257 31.4171 107.183 31.4171H100.057L99.0815 32.1866C98.8334 31.9577 98.2058 31.443 97.4232 31.2746C96.0087 30.9356 95.6407 30.9964 95.1828 31.0195C95.0438 31.0266 94.9011 31.0338 94.736 31.0338C93.7305 31.0338 92.6441 31.3819 92.1491 31.5619L92.1684 31.3866L87.5201 31.4178L85.5635 33.0054L85.5112 31.4178H80.9806L79.9566 32.1857L80.2432 31.4175H76.1828L74.5377 32.6167L74.4866 31.4175H70.4228L69.1396 32.3875L69.0382 31.3878H58.0769L57.9662 31.4471L57.9964 31.3856L53.8452 31.4178L52.5414 32.3784L52.3616 31.3878H47.9958L44.4135 34.2948L40.5 48.8818H44.3627L46.3842 47.3706L46.597 48.8818H50.3607L50.9059 48.4155L51.0652 48.4305L51.3327 48.8818H58.7879L60.4385 47.657L60.2417 48.8818H63.9922L66.2787 47.2583L65.8974 48.8818H69.7242L73.5562 45.9592L78.1409 36.4326L78.8534 42.6134L77.1129 48.8818H81.3287L84.0838 46.7365C84.3504 47.2686 85.1733 48.6516 86.6182 48.8787C87.0905 48.9685 87.8617 48.9982 87.8943 48.9994H87.9004C88.4856 48.9994 88.8454 48.9941 89.4456 48.8784C90.1513 48.7424 90.5372 48.5758 91.1774 48.2982L91.2266 48.2774C91.8708 47.9982 92.6857 47.4926 93.1432 47.1963L92.8056 48.8815H96.7959L98.322 47.8173L98.0597 48.8815H106.453L108.283 47.5441L108.713 48.8815H113.351L117.002 45.9121L115.339 38.0106L120.485 31.4168L120.486 31.4171Z" fill="#6F7580"/><path d="M150.87 31.3879L150.076 31.9431C149.878 31.8199 149.421 31.5451 149.071 31.401C148.136 31.0174 147.517 30.9902 146.531 31.0049C145.335 31.0236 144.509 31.1505 143.31 31.7918C142.78 32.0757 142.137 32.6184 141.84 32.8804C141.64 32.5373 141.191 31.8495 140.673 31.6109C139.481 31.0526 138.72 31.0535 137.483 31.0932C136.344 31.13 135.684 31.2709 134.659 31.6961C133.946 31.9924 133.05 32.6287 132.687 32.896C132.546 32.6446 132.281 32.192 132.073 31.9603C131.779 31.5626 131.005 31.4076 130.918 31.3913L123.7 31.3882L120.35 34.0881L116.289 48.8819H120.417L124.114 46.0092L124.614 44.4591C124.841 44.4631 125.336 44.4653 125.699 44.4263C125.963 44.3973 126.307 44.3271 126.538 44.2757C126.452 44.838 126.312 46.1483 126.717 46.9562C127.477 48.4671 128.827 48.7746 130.173 48.8816C130.483 48.9087 130.758 48.9222 131.014 48.9222C131.931 48.9222 132.616 48.749 133.558 48.4306C134.513 48.1078 135.735 47.3046 136.142 47.027C136.369 47.314 136.93 47.9846 137.458 48.2974C138.209 48.7434 138.759 48.7977 139.593 48.8807C139.892 48.9109 140.159 48.9253 140.409 48.9253C141.279 48.9253 141.987 48.7578 143.023 48.3077C144.019 47.8813 145.499 46.9197 146.192 46.455L145.61 48.7643H149.529L153.17 45.9487L155.673 37.064L158.669 34.4671L159.499 31.3885H150.871L150.87 31.3879Z" fill="#6F7580"/><path d="M57.3246 31.8891H54.4704L52.6209 38.0867L51.9481 31.8891H48.3043L44.7435 45.3261L44.7241 45.4009H47.5192L49.6019 38.1491L50.39 45.4009H53.5111L57.3034 31.9639M76.6392 31.8891L73.5064 38.3019L74.1159 31.9546L74.122 31.89H70.9964L68.0414 38.1687L68.648 31.9546L68.6542 31.8891H58.367L54.7487 45.3261L54.7287 45.4009H61.7679L62.6227 42.9225H58.7206L59.6185 39.7367H63.1654L63.8988 37.2583H60.2934L61.1873 34.4261H64.9796L64.2278 45.3376L64.2235 45.4006H67.4058L70.7661 38.1282L70.0379 45.4009H73.1055L79.5198 31.9742L79.5598 31.8894M97.6416 38.8041L97.6711 38.8088L98.6231 35.4295H98.6071C98.6194 35.3681 98.6471 35.2602 98.6736 35.1551C98.8049 34.6354 99.0496 33.6688 98.9226 33.1754C98.6342 31.8092 97.6933 31.5535 97.3061 31.5067C96.4205 31.3382 96.1829 31.3364 95.5479 31.3301L95.3474 31.3283C94.9034 31.3239 94.6186 31.3198 94.1457 31.3891C93.4372 31.4926 93.04 31.5856 92.4127 31.8959C91.9966 32.1018 91.7725 32.2484 91.4121 32.5525C90.7525 33.1096 90.0886 34.2889 90.0554 34.3522L87.7277 43.0295C87.7185 43.075 87.5032 44.1655 87.8522 44.7247C88.0429 45.0304 88.2437 45.1552 88.5213 45.3267L88.6271 45.3922C89.2187 45.7646 89.6557 45.827 90.3174 45.9206L90.3949 45.9318C90.711 45.977 90.9782 45.9979 91.2359 45.9979C91.6227 45.9979 91.9862 45.9499 92.4483 45.8725C93.0855 45.7656 93.476 45.691 94.0925 45.3959C94.5753 45.1651 94.8391 44.9905 95.2684 44.6205C95.7604 44.1963 96.3999 43.3311 96.4491 43.1752H96.4504C96.7754 41.998 97.6281 38.9198 97.6681 38.8178L97.6422 38.8053L97.6416 38.8041ZM108.897 33.1136C108.827 32.836 108.746 32.6801 108.565 32.4701C108.378 32.2518 108.227 32.166 107.996 32.0435C107.863 31.9733 107.648 31.8959 107.639 31.8928L100.421 31.8897L96.8022 45.3261L96.7822 45.4009H100.043L101.613 39.9725L102.955 39.9715C103.065 39.9924 103.367 40.0807 103.437 40.2336C103.484 40.3374 103.45 40.5383 103.433 40.6066L102.212 45.3264L102.192 45.4003H105.627L107.034 40.3443C107.044 40.3153 107.251 39.6375 107.028 39.2907C106.918 39.1204 106.807 39.0499 106.655 38.9522L106.603 38.9192C106.486 38.8443 106.32 38.7732 106.203 38.7277C106.377 38.6481 106.683 38.5021 106.893 38.3705L106.982 38.3153C107.194 38.1843 107.346 38.0901 107.543 37.8902C107.67 37.7617 107.832 37.539 107.84 37.5296L108.897 33.9046C108.901 33.8847 108.974 33.4118 108.897 33.1136ZM130.351 39.9488C130.517 39.7261 130.59 39.5445 130.675 39.3343C130.709 39.2479 130.746 39.1559 130.793 39.0536C131.57 37.3475 132.13 34.4077 132.134 34.385C132.141 34.3613 132.312 33.8017 132.193 33.4386C132.171 33.3482 132.164 33.264 132.159 33.1822C132.15 33.0575 132.141 32.9277 132.073 32.7793C131.962 32.5347 131.84 32.4215 131.651 32.2574C131.508 32.1336 131.394 32.0787 131.261 32.0151C131.193 31.9826 131.119 31.9465 131.031 31.8972L131.018 31.8897H124.124L120.418 45.3267L120.398 45.4016H123.6L124.822 41.3321C125.035 41.3415 125.965 41.3826 126.757 41.3826C127.286 41.3826 127.651 41.3645 127.843 41.329C128.35 41.2385 128.678 41.1253 129.151 40.8748C129.659 40.6066 129.995 40.4288 130.352 39.9497M141.326 33.38C141.309 33.3104 141.295 33.2412 141.281 33.1732C141.213 32.8413 141.149 32.5275 140.859 32.3672C140.507 32.1292 140.229 31.9412 139.777 31.7746C139.186 31.5578 138.795 31.5385 138.203 31.5095L138.131 31.5064C137.92 31.4954 137.75 31.4908 137.595 31.4908C137.174 31.4908 136.814 31.5282 136.314 31.6249C135.788 31.7266 135.488 31.8027 134.993 32.0116C134.402 32.2624 134.049 32.4508 133.524 32.9068C133.151 33.2296 132.692 33.8338 132.672 33.8594L130.072 42.9765C130.067 43.0239 129.967 44.153 130.343 44.7253C130.571 45.0722 130.788 45.211 131.117 45.4209C131.66 45.7681 132.081 45.8233 132.661 45.9012C132.733 45.9106 132.808 45.92 132.885 45.9312C133.257 45.983 133.547 46.006 133.827 46.006C134.154 46.006 134.476 45.9755 134.937 45.9012C135.612 45.7927 135.995 45.711 136.583 45.424C137.081 45.1814 137.357 44.9927 137.759 44.6184C138.235 44.1761 138.776 43.3302 138.822 43.1758H138.822C139.163 42.0233 140.055 39.0096 140.098 38.9067L140.071 38.8927L140.102 38.897L141.113 35.282H141.097C141.106 35.2377 141.124 35.1703 141.142 35.1042C141.251 34.6934 141.454 33.9283 141.325 33.3806" fill="white"/><path d="M137.744 34.3407C137.671 34.1928 137.364 34.1136 137.12 34.0734C137.041 34.0603 136.964 34.0537 136.89 34.0537C136.576 34.0537 136.328 34.1666 136.037 34.3145C135.789 34.4405 135.555 34.9701 135.542 34.9997L133.505 42.0838C133.498 42.1181 133.326 42.9291 133.804 43.1549C134.022 43.2382 134.263 43.3146 134.539 43.3146C134.593 43.3146 134.647 43.3115 134.702 43.3059C134.96 43.2759 135.172 43.1649 135.342 43.0757L135.422 43.0339C135.676 42.8951 135.77 42.6159 135.827 42.4487C135.837 42.4191 135.849 42.3845 135.858 42.362H135.86C135.921 42.362 135.942 42.362 137.603 36.2112L137.861 35.1607C137.868 35.1451 138.047 34.7695 137.744 34.3404" fill="#6F7580"/><path d="M85.2725 36.5412L84.9897 31.8897H81.6687L82.7234 39.8505L81.2527 45.401H84.4549L85.977 40.057L91.4424 31.8897H88.1599M112.453 36.1485L113.629 31.8894H110.252L106.343 45.3255L106.32 45.401H109.844L111.561 39.6618L112.594 45.3526L112.602 45.4006H116.3L114.779 37.922L119.416 31.9845L119.49 31.8891H116.261M151.2 31.8891L150.558 34.3086H152.621L149.56 45.3258L149.539 45.4006H152.714L155.796 34.4261H158.006L158.717 31.9646L158.738 31.8891M147.949 38.8777C147.724 38.5337 147.52 38.3294 147.286 38.0929C147.183 37.99 147.074 37.8799 146.954 37.7492C146.772 37.5512 146.615 37.3977 146.466 37.2502C146.267 37.0537 146.079 36.869 145.851 36.6005C145.767 36.5019 145.688 36.4217 145.613 36.3438C145.446 36.1722 145.301 36.024 145.19 35.7567C145.054 35.4324 144.965 35.2187 145.02 34.8784C145.054 34.671 145.08 34.5469 145.209 34.4074C145.307 34.3014 145.401 34.2764 145.543 34.2384L145.618 34.2178C145.807 34.1641 145.91 34.1379 146.09 34.1604C146.299 34.1869 146.422 34.2499 146.579 34.409C146.707 34.5378 146.76 34.6311 146.797 34.7933C146.828 34.9321 146.812 35.0312 146.791 35.1563C146.782 35.2109 146.772 35.2686 146.766 35.3347L146.764 35.3534C146.744 35.5699 146.731 35.7006 146.681 35.9171C146.633 36.1229 146.51 36.4367 146.509 36.4398L146.477 36.5209H149.689L149.701 36.4779C149.703 36.4704 149.913 35.719 150.022 35.2365C150.053 35.0986 150.086 34.9798 150.117 34.8678C150.19 34.6052 150.253 34.3781 150.256 34.0434V34.0029C150.261 33.4982 150.264 33.1339 149.985 32.6835C149.788 32.3669 149.607 32.2163 149.299 32.0166C148.989 31.8158 148.768 31.7578 148.434 31.6689L148.381 31.6548C148.016 31.5581 147.786 31.5407 147.438 31.5145L147.194 31.4958C146.947 31.4758 146.752 31.4602 146.546 31.4602C146.351 31.4602 146.159 31.4749 145.944 31.5061C145.752 31.5341 145.613 31.5716 145.467 31.6115C145.38 31.6352 145.291 31.6595 145.184 31.6842C145.053 31.7138 144.943 31.7319 144.835 31.749C144.649 31.7796 144.472 31.8083 144.245 31.8934C143.883 32.0294 143.679 32.1735 143.396 32.3738L143.272 32.4605C142.956 32.682 142.778 32.8161 142.508 33.0874L142.436 33.1592C142.227 33.3681 142.077 33.5179 141.917 33.8079C141.778 34.06 141.729 34.2371 141.659 34.4817L141.621 34.6167C141.532 34.9277 141.486 35.0902 141.445 35.3921L141.429 35.5097C141.384 35.8185 141.353 36.0425 141.417 36.3846C141.463 36.6363 141.532 36.7839 141.628 36.9885L141.682 37.1064C141.875 37.5284 142.078 37.7832 142.314 38.078C142.41 38.1996 142.51 38.3253 142.619 38.4741C142.894 38.8484 143.05 39.0599 143.348 39.421C143.488 39.5895 143.606 39.7174 143.72 39.8409C143.844 39.9744 143.961 40.1007 144.104 40.2763C144.155 40.3387 144.202 40.3926 144.246 40.4432C144.353 40.5667 144.438 40.6646 144.535 40.8293L144.559 40.8714C144.693 41.096 144.773 41.2317 144.819 41.489C144.869 41.7685 144.863 41.935 144.791 42.2002C144.732 42.4185 144.691 42.5495 144.543 42.7054C144.366 42.8932 144.213 42.9706 143.937 43.0127C143.848 43.0261 143.775 43.032 143.707 43.032C143.545 43.032 143.407 42.993 143.246 42.901C143.065 42.7981 142.976 42.7288 142.891 42.5704C142.809 42.4169 142.81 42.3009 142.81 42.1253V42.0673C142.81 41.9119 142.84 41.809 142.877 41.679C142.893 41.6216 142.909 41.5604 142.926 41.4902C142.974 41.2744 143.07 40.9366 143.07 40.9329L143.091 40.858H139.776L139.761 40.8942C139.756 40.9057 139.644 41.183 139.586 41.3705C139.516 41.591 139.487 41.7416 139.45 41.9332C139.438 41.998 139.425 42.0667 139.409 42.1437C139.382 42.2778 139.351 42.3945 139.323 42.5039C139.256 42.7603 139.198 42.9818 139.205 43.3074C139.212 43.6911 139.246 43.9415 139.413 44.3327C139.54 44.6296 139.644 44.8143 139.891 45.0594C140.1 45.2665 140.27 45.3495 140.505 45.464L140.604 45.5126C141.09 45.7528 141.405 45.8183 141.959 45.9016C142.223 45.9412 142.453 45.9596 142.682 45.9596C142.945 45.9596 143.194 45.9365 143.544 45.9016C144.23 45.8329 144.623 45.7759 145.245 45.5441C145.708 45.3716 145.97 45.2385 146.419 44.9484C146.826 44.6854 147.073 44.5189 147.419 44.1424C147.766 43.7656 147.938 43.507 148.157 43.0358C148.396 42.518 148.468 42.202 148.54 41.6914C148.633 41.0168 148.674 40.6356 148.509 40.0155C148.381 39.5389 148.22 39.2932 147.949 38.8777Z" fill="white"/><path d="M95.3031 34.328C95.1318 34.1315 94.9427 34.0972 94.7127 34.0723C94.5014 34.0489 94.3781 34.0807 94.1697 34.1328C93.979 34.1805 93.8738 34.217 93.7158 34.3168C93.5814 34.4029 93.4197 34.585 93.4129 34.5931L91.2482 42.1086C91.2432 42.1248 91.1295 42.5072 91.2205 42.738C91.2998 42.9395 91.4234 43.0343 91.5975 43.1226C91.7069 43.1781 91.809 43.2015 91.9388 43.2015C91.9904 43.2015 92.0433 43.1984 92.1005 43.1943C92.1344 43.1918 92.1703 43.1893 92.222 43.1872C92.4957 43.1747 92.6925 43.1653 92.9354 43.001C93.1106 42.8824 93.1998 42.7845 93.3031 42.5973C93.3323 42.5437 93.3425 42.4663 93.3514 42.3977C93.3545 42.379 93.3576 42.3528 93.3613 42.3322H93.3686C93.4292 42.3322 93.4498 42.3322 95.1115 36.1804L95.3704 35.1281C95.3756 35.1156 95.5026 34.8199 95.4611 34.6203C95.4335 34.4862 95.3781 34.4144 95.3028 34.3277M105.205 34.8598C105.2 34.8255 105.197 34.7921 105.195 34.76C105.185 34.6455 105.175 34.537 105.07 34.4412C104.979 34.358 104.901 34.3315 104.78 34.309C104.694 34.2928 104.508 34.3071 104.507 34.3077H103.214L102.241 37.4767L102.219 37.5528H103.967L103.978 37.5485C103.989 37.5435 104.259 37.4306 104.401 37.3021C104.57 37.1492 104.629 36.9983 104.699 36.8236C104.719 36.7731 104.74 36.7194 104.765 36.6623C104.887 36.3869 104.932 36.2001 104.995 35.9418L105.03 35.7971C105.055 35.6964 105.085 35.6081 105.113 35.5226C105.184 35.3105 105.246 35.1274 105.205 34.8598Z" fill="#6F7580"/><path d="M128.634 34.5371C128.553 34.4335 128.469 34.3952 128.372 34.3509C128.347 34.3396 128.322 34.3278 128.294 34.3141C128.13 34.2323 127.91 34.1912 127.641 34.1912C127.191 34.1912 126.76 34.3056 126.742 34.3106L126.71 34.319L125.48 38.6583L125.467 38.7029L125.507 38.7257C125.514 38.7304 125.702 38.8398 125.839 38.8785C125.938 38.9072 126.026 38.9191 126.132 38.9191C126.178 38.9191 126.223 38.9172 126.274 38.915C126.307 38.9131 126.343 38.9119 126.381 38.9106L126.438 38.9094C126.663 38.9032 126.811 38.8994 127.038 38.8189C127.372 38.7017 127.569 38.5495 127.794 38.2376C127.92 38.0613 127.964 37.915 128.016 37.7457C128.037 37.6749 128.06 37.5991 128.092 37.5158C128.332 36.8692 128.586 35.8084 128.587 35.8009C128.592 35.7863 128.696 35.436 128.706 35.1964C128.709 35.1372 128.716 35.081 128.722 35.0274C128.743 34.8583 128.762 34.6986 128.635 34.5377" fill="#6F7580"/></svg>