<svg xmlns="http://www.w3.org/2000/svg" width="200" height="80" viewBox="0 0 200 80" fill="none"><g clip-path="url(#clip0_3798_77471)"><path fill-rule="evenodd" clip-rule="evenodd" d="M94.0606 21.3528C96.2797 19.0559 99.3682 17.6335 102.78 17.6335C107.33 17.6335 111.273 20.1465 113.396 23.891C115.28 23.0534 117.322 22.6209 119.386 22.6219C127.575 22.6219 134.222 29.2816 134.222 37.4994C134.222 45.7172 127.575 52.3769 119.386 52.3769C118.385 52.3769 117.409 52.2769 116.454 52.0879C114.596 55.3801 111.045 57.6167 107.001 57.6167C105.355 57.6199 103.729 57.2486 102.25 56.531C100.367 60.929 95.9814 64.0201 90.8759 64.0201C85.543 64.0201 81.0188 60.6776 79.2748 55.9782C78.4986 56.141 77.7075 56.2229 76.9142 56.2224C70.5702 56.2224 65.4395 51.0455 65.4395 44.6874C65.4395 40.4151 67.7496 36.6957 71.1768 34.6853C70.4497 33.0198 70.0755 31.2234 70.0774 29.4078C70.0774 22.0696 76.0675 16.1387 83.4477 16.1387C87.7697 16.1387 91.6367 18.1868 94.0631 21.3659" fill="#6F7580"/><path fill-rule="evenodd" clip-rule="evenodd" d="M106.102 32.8822C106.235 32.9053 106.366 32.9363 106.496 32.9752C106.524 32.9863 106.6 33.024 106.569 33.1134L106.264 33.9458C106.239 34.0083 106.221 34.0465 106.091 34.0071C106.059 33.9975 106.011 33.9837 105.887 33.9576C105.798 33.939 105.68 33.9247 105.56 33.9247C105.415 33.9227 105.27 33.9434 105.132 33.986C105.006 34.0272 104.891 34.098 104.798 34.1926C104.698 34.2918 104.581 34.4363 104.519 34.6155C104.391 34.9803 104.331 35.3648 104.313 35.478C104.311 35.495 104.309 35.5059 104.308 35.5097H105.583C105.689 35.5092 105.723 35.5584 105.713 35.6373L105.564 36.4616C105.541 36.581 105.43 36.577 105.43 36.577H104.117L103.219 41.6305C103.125 42.153 103.007 42.6014 102.869 42.9625C102.729 43.3269 102.583 43.594 102.35 43.8491C102.136 44.0856 101.893 44.2602 101.614 44.3605C101.336 44.46 101.002 44.5113 100.635 44.5113C100.46 44.5113 100.273 44.508 100.051 44.456C99.8912 44.4186 99.804 44.3919 99.6867 44.3502C99.6367 44.3324 99.597 44.2705 99.6253 44.1921C99.6531 44.1127 99.8879 43.4706 99.921 43.3864C99.9617 43.2834 100.065 43.3226 100.065 43.3226L100.07 43.3248C100.139 43.3533 100.188 43.3738 100.28 43.392C100.375 43.4108 100.503 43.4269 100.6 43.4269C100.773 43.4269 100.932 43.4058 101.069 43.3598C101.236 43.3043 101.332 43.209 101.434 43.0796C101.539 42.9459 101.625 42.7617 101.712 42.5159C101.801 42.2669 101.881 41.9381 101.951 41.5386L102.845 36.577H101.964C101.858 36.5775 101.823 36.5282 101.834 36.4493L101.982 35.625C102.006 35.5051 102.116 35.5097 102.116 35.5097H103.021L103.07 35.241C103.205 34.4451 103.475 33.8402 103.871 33.4432C104.27 33.0431 104.839 32.8405 105.56 32.8405C105.741 32.8386 105.923 32.8525 106.102 32.8822ZM88.5694 41.6695C88.6361 41.6695 88.6836 41.6155 88.6836 41.5491V33.0881C88.6836 33.022 88.6361 32.9684 88.5694 32.9684H87.5122C87.4452 32.9684 87.3977 33.022 87.3977 33.0881V41.5491C87.3977 41.6155 87.4452 41.6695 87.5122 41.6695H88.5694ZM75.4768 41.099C75.4562 41.0794 75.4223 41.0474 75.458 40.9547L75.457 40.9527L75.735 40.1837C75.779 40.052 75.8801 40.096 75.9205 40.1204C75.9516 40.1392 75.9793 40.1572 76.008 40.1758C76.05 40.2031 76.094 40.2317 76.1531 40.2659C76.9745 40.7821 77.7325 40.7861 77.9703 40.7861C78.582 40.7861 78.9636 40.4619 78.9636 40.0271V40.0035C78.9636 39.5311 78.3772 39.3511 77.6999 39.144L77.5503 39.0978C76.6201 38.8339 75.6243 38.4519 75.6243 37.2808V37.257C75.6243 36.1462 76.5266 35.3696 77.8182 35.3696L77.9589 35.3691C78.7172 35.3691 79.4502 35.5878 79.9809 35.9095C80.0292 35.9381 80.0762 35.9936 80.0494 36.0673C80.0241 36.1376 79.7883 36.7652 79.7613 36.8363C79.7115 36.9677 79.5745 36.8798 79.5745 36.8798C79.112 36.6257 78.3891 36.4249 77.7825 36.4249C77.2366 36.4249 76.8828 36.7139 76.8828 37.1059V37.1293C76.8828 37.5867 77.4868 37.7832 78.1869 38.0089L78.308 38.0478C79.233 38.3368 80.2238 38.7415 80.2238 39.8522V39.8759C80.2238 41.0771 79.3468 41.8235 77.9365 41.8235C77.2439 41.8235 76.5817 41.7154 75.8791 41.346C75.8484 41.3284 75.8178 41.3112 75.7871 41.294C75.6865 41.2375 75.5863 41.1813 75.4873 41.11C75.4849 41.1066 75.4812 41.1031 75.4768 41.099ZM96.1258 41.0972C96.1048 41.0776 96.0706 41.0457 96.1065 40.9527L96.1034 40.9507L96.3814 40.1817C96.4221 40.056 96.5412 40.1023 96.5667 40.1184C96.5838 40.1293 96.6 40.1398 96.616 40.1502C96.6705 40.1856 96.7227 40.2194 96.7995 40.2639C97.6184 40.7801 98.3784 40.7841 98.6167 40.7841C99.2284 40.7841 99.61 40.4599 99.61 40.0251V40.0015C99.61 39.5291 99.0262 39.3491 98.3463 39.142L98.1969 39.0958C97.2668 38.8319 96.271 38.4499 96.271 37.2788V37.255C96.271 36.1442 97.1733 35.3676 98.4648 35.3676L98.6059 35.3671C99.3641 35.3671 100.097 35.5858 100.628 35.9074C100.676 35.9361 100.723 35.9916 100.696 36.0653C100.673 36.1356 100.437 36.7631 100.41 36.8343C100.36 36.9657 100.223 36.8777 100.223 36.8777C99.7584 36.6237 99.0381 36.4229 98.4315 36.4229C97.8855 36.4229 97.5317 36.7119 97.5317 37.1039V37.1273C97.5317 37.5847 98.1358 37.7812 98.8359 38.0069L98.9569 38.0458C99.8845 38.3348 100.873 38.7394 100.873 39.8502V39.8738C100.873 41.0751 99.9957 41.8215 98.5854 41.8215C97.8929 41.8215 97.2307 41.7134 96.528 41.344C96.497 41.3262 96.466 41.3088 96.4351 41.2914C96.3347 41.2352 96.2346 41.1791 96.1363 41.108C96.1338 41.1046 96.1301 41.1012 96.1258 41.0972ZM109.83 40.1918C110.079 39.8123 110.207 39.277 110.207 38.5985V38.601C110.207 37.9224 110.081 37.3897 109.83 37.0152C109.582 36.645 109.208 36.4648 108.683 36.4648C108.157 36.4648 107.785 36.6433 107.54 37.0152C107.294 37.3897 107.169 37.9224 107.169 38.601C107.169 39.2795 107.293 39.8173 107.54 40.1943C107.785 40.5677 108.159 40.7497 108.683 40.7497C109.206 40.7497 109.581 40.5662 109.83 40.1918ZM110.849 36.3241C111.089 36.6106 111.269 36.9524 111.385 37.3419H111.382C111.497 37.7289 111.555 38.1536 111.555 38.601C111.555 39.0508 111.497 39.473 111.382 39.86C111.266 40.2496 111.086 40.5913 110.846 40.8778C110.606 41.1643 110.3 41.3935 109.941 41.5564C109.582 41.7192 109.158 41.8021 108.68 41.8021C108.202 41.8021 107.778 41.7192 107.416 41.5564C107.057 41.393 106.752 41.1643 106.512 40.8778C106.271 40.5913 106.091 40.2496 105.976 39.86C105.861 39.473 105.802 39.0508 105.802 38.601C105.802 38.1511 105.861 37.7289 105.976 37.3419C106.092 36.9524 106.272 36.6106 106.512 36.3241C106.752 36.0376 107.057 35.8074 107.416 35.6405C107.778 35.4739 108.2 35.3892 108.68 35.3892C109.16 35.3892 109.585 35.4734 109.944 35.6405C110.305 35.8064 110.608 36.0376 110.849 36.3241ZM120.912 40.4878C120.912 40.4878 121.024 40.4448 121.062 40.5587H121.063L121.354 41.3528C121.391 41.4513 121.306 41.492 121.306 41.492C120.861 41.6672 120.242 41.7886 119.638 41.7886C118.617 41.7886 117.833 41.4971 117.312 40.919C116.792 40.3435 116.529 39.5569 116.529 38.5869C116.529 38.1371 116.593 37.7123 116.721 37.3253C116.85 36.9358 117.042 36.594 117.295 36.3075C117.548 36.021 117.866 35.7906 118.243 35.624C118.619 35.4571 119.059 35.3729 119.554 35.3729C119.888 35.3729 120.184 35.393 120.439 35.4317C120.712 35.4727 121.072 35.5699 121.225 35.6292C121.253 35.64 121.33 35.6777 121.299 35.767C121.224 35.9762 121.165 36.1367 121.103 36.3055C121.073 36.3881 121.042 36.4728 121.008 36.5661C120.964 36.687 120.871 36.647 120.871 36.647C120.482 36.5259 120.111 36.4699 119.625 36.4699C119.044 36.4699 118.604 36.6659 118.319 37.0429C118.029 37.4248 117.868 37.9224 117.866 38.5859C117.864 39.3147 118.046 39.8525 118.372 40.1867C118.695 40.5207 119.15 40.6893 119.719 40.6893C119.949 40.6893 120.167 40.674 120.363 40.6434C120.558 40.6132 120.741 40.5529 120.912 40.4878ZM123.123 37.9446C123.123 37.9447 123.123 37.9449 123.123 37.9451L123.11 37.9446L123.123 37.9446ZM123.123 37.9446L125.967 37.9451C125.94 37.5807 125.868 37.2552 125.704 37.0102C125.456 36.6393 125.11 36.4347 124.587 36.4347C124.063 36.4347 123.691 36.6382 123.447 37.0102C123.283 37.2538 123.18 37.5678 123.123 37.9446ZM126.581 36.1884C126.742 36.3618 126.991 36.7413 127.091 37.1157L127.097 37.1165C127.337 37.9544 127.235 38.6863 127.218 38.8072C127.217 38.815 127.216 38.8203 127.216 38.8229C127.205 38.9249 127.1 38.9259 127.1 38.9259L123.106 38.9229C123.129 39.526 123.276 39.9507 123.569 40.2423C123.857 40.527 124.314 40.7087 124.934 40.7097C125.798 40.712 126.21 40.5539 126.493 40.4456C126.52 40.4351 126.546 40.425 126.571 40.4157C126.571 40.4157 126.682 40.3765 126.721 40.4848L126.982 41.2111C127.034 41.3335 126.992 41.3759 126.948 41.4005C126.7 41.5388 126.094 41.7938 124.941 41.7976C124.383 41.7994 123.895 41.7192 123.493 41.5647C123.088 41.4088 122.752 41.1877 122.489 40.9037C122.227 40.6222 122.032 40.283 121.911 39.896C121.791 39.5115 121.73 39.0867 121.73 38.6294C121.73 38.182 121.789 37.7548 121.905 37.3653C122.021 36.9707 122.203 36.6264 122.446 36.3349C122.688 36.0434 122.997 35.8102 123.363 35.6388C123.73 35.4687 124.182 35.385 124.68 35.385C125.073 35.3843 125.461 35.4627 125.822 35.6154C126.073 35.721 126.323 35.9145 126.581 36.1884ZM91.2012 37.9446C91.2012 37.9447 91.2012 37.9449 91.2011 37.9451L91.1885 37.9446L91.2012 37.9446ZM91.5247 37.0102C91.3617 37.2538 91.2576 37.5678 91.2012 37.9446L94.0445 37.9451C94.0175 37.5807 93.9457 37.2552 93.7817 37.0102C93.534 36.6393 93.1877 36.4347 92.6645 36.4347C92.1414 36.4347 91.7693 36.6382 91.5247 37.0102ZM94.6587 36.1884C94.8205 36.3618 95.0692 36.7413 95.1693 37.1157L95.172 37.1165C95.4125 37.9544 95.3103 38.6863 95.2934 38.8072C95.2923 38.815 95.2916 38.8203 95.2913 38.8229C95.2805 38.9249 95.1753 38.9259 95.1753 38.9259L91.1819 38.9229C91.2047 39.526 91.3513 39.9507 91.6445 40.2423C91.9326 40.527 92.3926 40.7087 93.0093 40.7097C93.8733 40.712 94.2858 40.5539 94.5683 40.4456C94.5957 40.4351 94.6219 40.425 94.6471 40.4157C94.6471 40.4157 94.7573 40.3765 94.7975 40.4848L95.0578 41.2111C95.1101 41.3335 95.0682 41.3759 95.0242 41.4005C94.7765 41.5388 94.1699 41.7938 93.0174 41.7976C92.4563 41.7994 91.971 41.7192 91.5691 41.5647C91.1647 41.4088 90.8286 41.1877 90.5657 40.9037C90.3054 40.6222 90.1103 40.283 89.9895 39.896C89.8689 39.5115 89.8085 39.0867 89.8085 38.6294C89.8085 38.182 89.8669 37.7548 89.9829 37.3653C90.0992 36.9707 90.2819 36.6264 90.5238 36.3349C90.7664 36.0434 91.0748 35.8102 91.4412 35.6388C91.8077 35.4687 92.2601 35.385 92.7581 35.385C93.1506 35.3843 93.5392 35.4627 93.9005 35.6154C94.1507 35.721 94.4009 35.9145 94.6587 36.1884ZM82.3525 40.2983C82.4043 40.379 82.426 40.4094 82.5825 40.5335L82.5847 40.5348C82.5822 40.534 82.9411 40.8148 83.7524 40.7662C84.3236 40.7321 84.8291 40.6238 84.8291 40.6238H84.8286V38.8219C84.4705 38.7672 84.1091 38.7366 83.7469 38.7301C82.933 38.7201 82.5867 39.0171 82.5893 39.0166C82.3492 39.185 82.2329 39.4363 82.2329 39.7831C82.2329 40.0043 82.2733 40.1769 82.3525 40.2983ZM83.5479 37.7264C83.7982 37.7264 84.0079 37.7322 84.1697 37.744L84.1735 37.7533C84.1735 37.7533 84.4894 37.7817 84.8306 37.831V37.6633C84.8306 37.1356 84.7197 36.8845 84.5021 36.7184C84.2797 36.5488 83.946 36.4621 83.5164 36.4621C83.5164 36.4621 82.5458 36.4495 81.78 36.8642C81.7446 36.885 81.7145 36.8968 81.7145 36.8968C81.7145 36.8968 81.6187 36.9303 81.5836 36.8325L81.3005 36.0786C81.2576 35.9693 81.3364 35.921 81.3364 35.921C81.6953 35.6416 82.5648 35.4737 82.5648 35.4737C82.8529 35.4161 83.3356 35.3759 83.6339 35.3759C84.43 35.3759 85.0442 35.5594 85.4638 35.9238C85.8848 36.2882 86.0982 36.8787 86.0982 37.6729L86.1004 41.2917C86.1004 41.2917 86.108 41.3965 86.0095 41.4214C86.0095 41.4214 85.8618 41.4614 85.7289 41.4918C85.3959 41.5635 85.0613 41.6282 84.7255 41.6858C84.3312 41.7519 83.9243 41.7861 83.5148 41.7861C83.1256 41.7861 82.7718 41.7501 82.4584 41.679C82.1424 41.6086 81.8687 41.49 81.647 41.3297C81.4242 41.1691 81.2453 40.9557 81.1264 40.7089C81.0051 40.4602 80.9436 40.1561 80.9436 39.8042C80.9436 39.4574 81.0157 39.1508 81.157 38.8895C81.2969 38.6304 81.495 38.4069 81.7357 38.2361C81.9759 38.0642 82.2564 37.935 82.5673 37.8516C82.8756 37.7686 83.2067 37.7264 83.5479 37.7264ZM116.277 35.6589C116.277 35.6733 116.274 35.6876 116.269 35.7009L116.271 35.6845C116.233 35.7926 116.039 36.3352 115.97 36.5164C115.944 36.5852 115.902 36.632 115.825 36.6234C115.825 36.6234 115.596 36.5701 115.388 36.5701C115.206 36.5701 115.026 36.5953 114.852 36.645C114.666 36.7023 114.497 36.8031 114.359 36.9391C114.214 37.0798 114.096 37.2761 114.01 37.5221C113.922 37.7709 113.878 38.1655 113.878 38.5625V41.528C113.878 41.5598 113.866 41.5904 113.843 41.613C113.82 41.6356 113.79 41.6483 113.758 41.6483H112.711C112.679 41.6483 112.648 41.6356 112.626 41.613C112.603 41.5904 112.59 41.5599 112.59 41.528V35.6222C112.59 35.5559 112.638 35.5023 112.704 35.5023H113.725C113.793 35.5023 113.84 35.5559 113.84 35.6222L113.84 36.1047C113.992 35.8986 114.266 35.7205 114.513 35.6096C114.763 35.4981 115.041 35.4141 115.541 35.4453C115.802 35.4614 116.141 35.5325 116.209 35.5581C116.222 35.5634 116.235 35.5713 116.245 35.5814C116.255 35.5915 116.264 35.6035 116.269 35.6169C116.275 35.6302 116.278 35.6445 116.277 35.6589Z" fill="#FFFFFE"/></g><defs><clipPath id="clip0_3798_77471"><rect width="69" height="48" fill="white" transform="translate(65.5 16)"/></clipPath></defs></svg>